#N canvas 516 301 1168 300 12;
#N canvas 495 23 450 300 packActivations 0;
#X obj 91 63 inlet;
#X obj 140 63 inlet;
#X obj 190 64 inlet;
#X obj 239 64 inlet;
#X obj 140 96 t b f;
#X obj 190 96 t b f;
#X obj 239 96 t b f;
#X obj 91 223 outlet;
#X obj 91 181 pack f f f f;
#X connect 0 0 8 0;
#X connect 1 0 4 0;
#X connect 2 0 5 0;
#X connect 3 0 6 0;
#X connect 4 0 8 0;
#X connect 4 1 8 1;
#X connect 5 0 8 0;
#X connect 5 1 8 2;
#X connect 6 0 8 0;
#X connect 6 1 8 3;
#X connect 8 0 7 0;
#X restore 25 147 pd packActivations;
#N canvas 495 23 450 300 packActivations 0;
#X obj 91 63 inlet;
#X obj 140 63 inlet;
#X obj 190 64 inlet;
#X obj 239 64 inlet;
#X obj 140 96 t b f;
#X obj 190 96 t b f;
#X obj 239 96 t b f;
#X obj 91 223 outlet;
#X obj 91 181 pack f f f f;
#X connect 0 0 8 0;
#X connect 1 0 4 0;
#X connect 2 0 5 0;
#X connect 3 0 6 0;
#X connect 4 0 8 0;
#X connect 4 1 8 1;
#X connect 5 0 8 0;
#X connect 5 1 8 2;
#X connect 6 0 8 0;
#X connect 6 1 8 3;
#X connect 8 0 7 0;
#X restore 284 151 pd packActivations;
#N canvas 495 23 450 300 packActivations 0;
#X obj 91 63 inlet;
#X obj 140 63 inlet;
#X obj 190 64 inlet;
#X obj 239 64 inlet;
#X obj 140 96 t b f;
#X obj 190 96 t b f;
#X obj 239 96 t b f;
#X obj 91 223 outlet;
#X obj 91 181 pack f f f f;
#X connect 0 0 8 0;
#X connect 1 0 4 0;
#X connect 2 0 5 0;
#X connect 3 0 6 0;
#X connect 4 0 8 0;
#X connect 4 1 8 1;
#X connect 5 0 8 0;
#X connect 5 1 8 2;
#X connect 6 0 8 0;
#X connect 6 1 8 3;
#X connect 8 0 7 0;
#X restore 547 155 pd packActivations;
#N canvas 495 23 450 300 packActivations 0;
#X obj 91 63 inlet;
#X obj 140 63 inlet;
#X obj 190 64 inlet;
#X obj 239 64 inlet;
#X obj 140 96 t b f;
#X obj 190 96 t b f;
#X obj 239 96 t b f;
#X obj 91 223 outlet;
#X obj 91 181 pack f f f f;
#X connect 0 0 8 0;
#X connect 1 0 4 0;
#X connect 2 0 5 0;
#X connect 3 0 6 0;
#X connect 4 0 8 0;
#X connect 4 1 8 1;
#X connect 5 0 8 0;
#X connect 5 1 8 2;
#X connect 6 0 8 0;
#X connect 6 1 8 3;
#X connect 8 0 7 0;
#X restore 821 152 pd packActivations;
#X obj 25 32 r \$2-stepAct-\$1-0-s;
#X obj 66 58 r \$2-stepAct-\$1-1-s;
#X obj 107 86 r \$2-stepAct-\$1-2-s;
#X obj 148 112 r \$2-stepAct-\$1-3-s;
#X obj 284 36 r \$2-stepAct-\$1-4-s;
#X obj 325 62 r \$2-stepAct-\$1-5-s;
#X obj 366 90 r \$2-stepAct-\$1-6-s;
#X obj 407 116 r \$2-stepAct-\$1-7-s;
#X obj 547 40 r \$2-stepAct-\$1-8-s;
#X obj 588 66 r \$2-stepAct-\$1-9-s;
#X obj 629 94 r \$2-stepAct-\$1-10-s;
#X obj 670 120 r \$2-stepAct-\$1-11-s;
#X obj 820 37 r \$2-stepAct-\$1-12-s;
#X obj 862 63 r \$2-stepAct-\$1-13-s;
#X obj 903 91 r \$2-stepAct-\$1-14-s;
#X obj 944 117 r \$2-stepAct-\$1-15-s;
#X obj 25 190 s act-\$1-0-\$1-3;
#X obj 284 194 s act-\$1-4-\$1-7;
#X obj 547 198 s act-\$1-8-\$1-11;
#X obj 821 195 s act-\$1-12-\$1-15;
#X connect 0 0 20 0;
#X connect 1 0 21 0;
#X connect 2 0 22 0;
#X connect 3 0 23 0;
#X connect 4 0 0 0;
#X connect 5 0 0 1;
#X connect 6 0 0 2;
#X connect 7 0 0 3;
#X connect 8 0 1 0;
#X connect 9 0 1 1;
#X connect 10 0 1 2;
#X connect 11 0 1 3;
#X connect 12 0 2 0;
#X connect 13 0 2 1;
#X connect 14 0 2 2;
#X connect 15 0 2 3;
#X connect 16 0 3 0;
#X connect 17 0 3 1;
#X connect 18 0 3 2;
#X connect 19 0 3 3;
