#N canvas 822 198 991 300 12;
#X msg 457 67 0;
#X obj 89 135 s \$2-stepAct-\$1-0-r;
#X obj 89 157 s \$2-stepAct-\$1-1-r;
#X obj 89 179 s \$2-stepAct-\$1-2-r;
#X obj 89 202 s \$2-stepAct-\$1-3-r;
#X obj 318 129 s \$2-stepAct-\$1-4-r;
#X obj 304 155 s \$2-stepAct-\$1-5-r;
#X obj 274 177 s \$2-stepAct-\$1-6-r;
#X obj 260 203 s \$2-stepAct-\$1-7-r;
#X obj 508 132 s \$2-stepAct-\$1-8-r;
#X obj 494 158 s \$2-stepAct-\$1-9-r;
#X obj 464 180 s \$2-stepAct-\$1-10-r;
#X obj 450 206 s \$2-stepAct-\$1-11-r;
#X obj 690 130 s \$2-stepAct-\$1-12-r;
#X obj 675 156 s \$2-stepAct-\$1-13-r;
#X obj 646 178 s \$2-stepAct-\$1-14-r;
#X obj 632 204 s \$2-stepAct-\$1-15-r;
#X obj 457 34 r \$2-clearseqBang;
#X connect 0 0 1 0;
#X connect 0 0 2 0;
#X connect 0 0 3 0;
#X connect 0 0 4 0;
#X connect 0 0 5 0;
#X connect 0 0 6 0;
#X connect 0 0 7 0;
#X connect 0 0 8 0;
#X connect 0 0 9 0;
#X connect 0 0 10 0;
#X connect 0 0 11 0;
#X connect 0 0 12 0;
#X connect 0 0 13 0;
#X connect 0 0 14 0;
#X connect 0 0 15 0;
#X connect 0 0 16 0;
#X connect 17 0 0 0;
