#N canvas 208 233 994 883 12;
#X obj 49 204 textfile;
#X obj 69 39 bng 15 250 50 0 empty empty load 20 7 0 10 #fcfcfc #000000
#000000;
#X obj 172 635 textfile;
#X obj 15 39 bng 15 250 50 0 empty empty save 20 7 0 10 #fcfcfc #000000
#000000;
#X msg 15 453 write \$1;
#X obj 15 376 t s b b;
#X msg 73 175 read \$1;
#X msg 49 144 rewind \, bang;
#X symbolatom 118 38 12 0 0 0 - - - 0;
#X obj 172 453 list prepend set;
#X obj 26 89 openpanel;
#X obj 15 314 savepanel;
#X msg 26 265 0;
#X obj 26 115 t b b s;
#X obj 197 386 pack 0 0 0 0 0 0 0 0 0 0 0 0 0 0 0 0;
#X obj 197 93 r \$0-stepAct-0-0;
#X obj 213 118 r \$0-stepAct-0-1;
#X obj 230 143 r \$0-stepAct-0-2;
#X obj 246 167 r \$0-stepAct-0-3;
#X obj 263 193 r \$0-stepAct-0-4;
#X obj 280 218 r \$0-stepAct-0-5;
#X obj 296 243 r \$0-stepAct-0-6;
#X obj 313 267 r \$0-stepAct-0-7;
#X obj 330 82 r \$0-stepAct-0-8;
#X obj 346 107 r \$0-stepAct-0-9;
#X obj 363 132 r \$0-stepAct-0-10;
#X obj 379 156 r \$0-stepAct-0-11;
#X obj 396 182 r \$0-stepAct-0-12;
#X obj 412 207 r \$0-stepAct-0-13;
#X obj 429 232 r \$0-stepAct-0-14;
#X obj 446 256 r \$0-stepAct-0-15;
#X obj 49 237 s \$0-presets;
#X listbox 172 489 59 0 0 0 - - - 0;
#X obj 180 308 f;
#X msg 109 426 set;
#X obj 172 520 list prepend add2;
#X obj 172 554 list trim;
#X msg 172 589 set 1 0 1 0 1 0 0 1 0 0 1 0 0 1 1 1;
#X obj 15 414 t s b;
#X connect 0 0 31 0;
#X connect 1 0 10 0;
#X connect 3 0 11 0;
#X connect 4 0 2 0;
#X connect 5 0 38 0;
#X connect 5 1 33 0;
#X connect 5 2 34 0;
#X connect 6 0 0 0;
#X connect 7 0 0 0;
#X connect 9 0 32 0;
#X connect 10 0 8 0;
#X connect 10 0 13 0;
#X connect 11 0 5 0;
#X connect 13 0 12 0;
#X connect 13 1 7 0;
#X connect 13 2 6 0;
#X connect 14 0 9 0;
#X connect 15 0 33 1;
#X connect 16 0 14 1;
#X connect 17 0 14 2;
#X connect 18 0 14 3;
#X connect 19 0 14 4;
#X connect 20 0 14 5;
#X connect 21 0 14 6;
#X connect 22 0 14 7;
#X connect 23 0 14 8;
#X connect 24 0 14 9;
#X connect 25 0 14 10;
#X connect 26 0 14 11;
#X connect 27 0 14 12;
#X connect 28 0 14 13;
#X connect 29 0 14 14;
#X connect 30 0 14 15;
#X connect 32 0 35 0;
#X connect 33 0 14 0;
#X connect 34 0 37 0;
#X connect 35 0 36 0;
#X connect 36 0 37 0;
#X connect 37 0 2 0;
#X connect 38 0 4 0;
#X connect 38 1 37 0;
