#N canvas 174 25 1206 744 12;
#X obj 10 10 cnv 15 1080 720 empty empty empty 20 12 0 14 #cddcdc #404040
0;
#X obj 129 128 cnv 15 400 550 empty empty empty 20 12 0 14 #82ccd6
#404040 0;
#X obj 207 152 bng 60 250 50 0 \$0-click1 \$0-q-click1 empty 17 7 0
10 #037da4 #00314b #000000;
#X obj 297 152 bng 60 250 50 0 \$0-click2 \$0-w-click2 empty 17 7 0
10 #037da3 #00314b #000000;
#X obj 385 152 bng 60 250 50 0 \$0-click3 \$0-e-click3 empty 17 7 0
10 #027da2 #00314b #000000;
#X obj 207 238 bng 60 250 50 0 \$0-click4 \$0-a-click4 empty 17 7 0
10 #037da3 #00314b #000000;
#X obj 296 238 bng 60 250 50 0 \$0-click5 \$0-s-click5 empty 17 7 0
10 #027da2 #00314b #000000;
#X obj 384 238 bng 60 250 50 0 \$0-click6 \$0-d-click6 empty 17 7 0
10 #027da1 #00314b #000000;
#X obj 208 326 bng 60 250 50 0 \$0-click7 \$0-z-click7 empty 17 7 0
10 #037da4 #00314b #000000;
#X obj 296 325 bng 60 250 50 0 \$0-click8 \$0-x-click8 empty 17 7 0
10 #027da1 #00314b #000000;
#X obj 384 324 bng 60 250 50 0 \$0-click9 \$0-c-click9 empty 17 7 0
10 #027da0 #00314b #000000;
#X text 232 215 Q;
#X text 321 217 W;
#X text 407 215 E;
#X text 231 302 A;
#X text 321 301 S;
#X text 408 301 D;
#X text 232 391 Z;
#X text 321 389 X;
#X text 408 388 C;
#N canvas 886 93 477 572 drumkeys 0;
#X obj 45 41 key;
#X msg 45 93 1;
#X obj 142 40 key;
#X msg 142 92 1;
#X obj 241 40 key;
#X msg 241 92 1;
#X obj 45 68 select 113;
#X obj 142 67 select 119;
#X obj 241 67 select 101;
#X obj 48 144 key;
#X msg 48 196 1;
#X obj 145 143 key;
#X msg 145 195 1;
#X obj 244 143 key;
#X msg 244 195 1;
#X obj 48 171 select 97;
#X obj 145 170 select 115;
#X obj 244 170 select 100;
#X obj 50 248 key;
#X msg 50 300 1;
#X obj 147 249 key;
#X msg 147 301 1;
#X obj 244 250 key;
#X msg 244 302 1;
#X obj 50 275 select 122;
#X obj 147 276 select 120;
#X obj 244 277 select 99;
#X obj 45 117 s \$0-q-click1;
#X obj 142 116 s \$0-w-click2;
#X obj 241 116 s \$0-e-click3;
#X obj 48 220 s \$0-a-click4;
#X obj 145 219 s \$0-s-click5;
#X obj 244 219 s \$0-d-click6;
#X obj 50 324 s \$0-z-click7;
#X obj 147 325 s \$0-x-click8;
#X obj 244 326 s \$0-c-click9;
#X obj 51 355 key;
#X msg 51 407 1;
#X obj 178 355 key;
#X msg 178 407 1;
#X obj 306 355 key;
#X msg 306 407 1;
#X obj 53 459 key;
#X msg 53 511 1;
#X obj 187 459 key;
#X msg 187 511 1;
#X obj 321 459 key;
#X msg 321 511 1;
#X floatatom 293 31 5 0 0 0 - - - 0;
#X obj 51 382 select 105;
#X obj 178 382 select 111;
#X obj 306 382 select 112;
#X obj 51 431 s \$0-myclick1-set;
#X obj 306 431 s \$0-myclick3-set;
#X obj 178 431 s \$0-myclick2-set;
#X obj 53 486 select 98;
#X obj 187 486 select 110;
#X obj 321 486 select 109;
#X obj 53 535 s \$0-selclick1-set;
#X obj 187 535 s \$0-selclick2-set;
#X obj 321 535 s \$0-selclick3-set;
#X connect 0 0 6 0;
#X connect 1 0 27 0;
#X connect 2 0 7 0;
#X connect 3 0 28 0;
#X connect 4 0 8 0;
#X connect 4 0 48 0;
#X connect 5 0 29 0;
#X connect 6 0 1 0;
#X connect 7 0 3 0;
#X connect 8 0 5 0;
#X connect 9 0 15 0;
#X connect 10 0 30 0;
#X connect 11 0 16 0;
#X connect 12 0 31 0;
#X connect 13 0 17 0;
#X connect 14 0 32 0;
#X connect 15 0 10 0;
#X connect 16 0 12 0;
#X connect 17 0 14 0;
#X connect 18 0 24 0;
#X connect 19 0 33 0;
#X connect 20 0 25 0;
#X connect 21 0 34 0;
#X connect 22 0 26 0;
#X connect 23 0 35 0;
#X connect 24 0 19 0;
#X connect 25 0 21 0;
#X connect 26 0 23 0;
#X connect 36 0 49 0;
#X connect 37 0 52 0;
#X connect 38 0 50 0;
#X connect 39 0 54 0;
#X connect 40 0 51 0;
#X connect 41 0 53 0;
#X connect 42 0 55 0;
#X connect 43 0 58 0;
#X connect 44 0 56 0;
#X connect 45 0 59 0;
#X connect 46 0 57 0;
#X connect 47 0 60 0;
#X connect 49 0 37 0;
#X connect 50 0 39 0;
#X connect 51 0 41 0;
#X connect 55 0 43 0;
#X connect 56 0 45 0;
#X connect 57 0 47 0;
#X restore 1094 10 pd drumkeys;
#N canvas 796 168 247 367 FX 0;
#N canvas 123 163 751 504 drums 0;
#N canvas 94 94 1199 364 initA 0;
#X obj 463 13 loadbang;
#X obj 455 142 soundfiler;
#X obj 549 289 *~ 0.5;
#X obj 549 314 outlet~;
#N canvas 299 239 632 176 kicks_arrays 0;
#N canvas 0 22 450 278 (subpatch) 0;
#X array A_kick_1 27514 float 0;
#X coords 0 1 27513 -1 200 140 1;
#X restore 12 25 graph;
#N canvas 0 22 450 278 (subpatch) 0;
#X array A_kick_2 31313 float 0;
#X coords 0 1 31312 -1 200 140 1;
#X restore 215 25 graph;
#N canvas 0 22 450 278 (subpatch) 0;
#X array A_kick_3 34580 float 0;
#X coords 0 1 34579 -1 200 140 1;
#X restore 418 25 graph;
#X restore 1074 50 pd kicks_arrays;
#N canvas 305 101 635 182 snare_arrays 0;
#N canvas 0 22 450 278 (subpatch) 0;
#X array A_snare_1 7954 float 0;
#X coords 0 1 7953 -1 200 140 1;
#X restore 13 27 graph;
#N canvas 0 22 450 278 (subpatch) 0;
#X array A_snare_2 36073 float 0;
#X coords 0 1 36072 -1 200 140 1;
#X restore 217 27 graph;
#N canvas 0 22 450 278 (subpatch) 0;
#X array A_snare_3 17777 float 0;
#X coords 0 1 17776 -1 200 140 1;
#X restore 421 27 graph;
#X restore 1074 74 pd snare_arrays;
#N canvas 486 201 634 176 other_arrays 0;
#N canvas 0 22 450 278 (subpatch) 0;
#X array A_hh 18257 float 0;
#X coords 0 1 18256 -1 200 140 1;
#X restore 13 23 graph;
#N canvas 0 22 450 278 (subpatch) 0;
#X array A_openhihat 34300 float 0;
#X coords 0 1 34299 -1 200 140 1;
#X restore 217 23 graph;
#N canvas 0 22 450 278 (subpatch) 0;
#X array A_tom 32979 float 0;
#X coords 0 1 32978 -1 200 140 1;
#X restore 421 23 graph;
#X restore 1074 98 pd other_arrays;
#X msg 16 51 read -resize sounds/kitA/A_kick_1.wav A_kick_1;
#X msg 16 75 read -resize sounds/kitA/A_kick_2.wav A_kick_2;
#X msg 16 100 read -resize sounds/kitA/A_kick_3.wav A_kick_3;
#X msg 346 51 read -resize sounds/kitA/A_snare_1.wav A_snare_1;
#X msg 345 76 read -resize sounds/kitA/A_snare_2.wav A_snare_2;
#X msg 346 101 read -resize sounds/kitA/A_snare_3.wav A_snare_3;
#X msg 695 51 read -resize sounds/kitA/A_hh.wav A_hh;
#X msg 696 76 read -resize sounds/kitA/A_openhihat.wav A_openhihat
;
#X msg 697 100 read -resize sounds/kitA/A_tom.wav A_tom;
#X obj 20 214 tabplay~ A_kick_1;
#X obj 147 214 tabplay~ A_kick_2;
#X obj 274 214 tabplay~ A_kick_3;
#X obj 402 214 tabplay~ A_snare_1;
#X obj 537 214 tabplay~ A_snare_2;
#X obj 672 214 tabplay~ A_snare_3;
#X obj 807 214 tabplay~ A_hh;
#X obj 907 214 tabplay~ A_openhihat;
#X obj 1056 214 tabplay~ A_tom;
#X obj 20 191 r \$0-click1;
#X obj 147 191 r \$0-click2;
#X obj 274 191 r \$0-click3;
#X obj 402 191 r \$0-click4;
#X obj 537 191 r \$0-click5;
#X obj 672 191 r \$0-click6;
#X obj 807 191 r \$0-click7;
#X obj 907 191 r \$0-click8;
#X obj 1056 191 r \$0-click9;
#X connect 0 0 7 0;
#X connect 0 0 8 0;
#X connect 0 0 14 0;
#X connect 0 0 9 0;
#X connect 0 0 15 0;
#X connect 0 0 10 0;
#X connect 0 0 11 0;
#X connect 0 0 12 0;
#X connect 0 0 13 0;
#X connect 2 0 3 0;
#X connect 7 0 1 0;
#X connect 8 0 1 0;
#X connect 9 0 1 0;
#X connect 10 0 1 0;
#X connect 11 0 1 0;
#X connect 12 0 1 0;
#X connect 13 0 1 0;
#X connect 14 0 1 0;
#X connect 15 0 1 0;
#X connect 16 0 2 0;
#X connect 17 0 2 0;
#X connect 18 0 2 0;
#X connect 19 0 2 0;
#X connect 20 0 2 0;
#X connect 21 0 2 0;
#X connect 22 0 2 0;
#X connect 23 0 2 0;
#X connect 24 0 2 0;
#X connect 25 0 16 0;
#X connect 26 0 17 0;
#X connect 27 0 18 0;
#X connect 28 0 19 0;
#X connect 29 0 20 0;
#X connect 30 0 21 0;
#X connect 31 0 22 0;
#X connect 32 0 23 0;
#X connect 33 0 24 0;
#X restore 135 27 pd initA;
#X obj 228 264 *~;
#X obj 265 136 select 0;
#X msg 265 191 1 10;
#X msg 318 191 0 10;
#X obj 246 233 line~;
#N canvas 149 115 1202 355 initB 0;
#X obj 463 13 loadbang;
#X obj 455 142 soundfiler;
#X obj 549 289 *~ 0.5;
#X obj 549 314 outlet~;
#N canvas 480 184 632 176 kicks_arrays 0;
#N canvas 0 22 450 278 (subpatch) 0;
#X array B_kick_1 39717 float 0;
#X coords 0 1 39716 -1 200 140 1;
#X restore 12 25 graph;
#N canvas 0 22 450 278 (subpatch) 0;
#X array B_kick_2 11400 float 0;
#X coords 0 1 11399 -1 200 140 1;
#X restore 215 25 graph;
#N canvas 0 22 450 278 (subpatch) 0;
#X array B_kick_3 8525 float 0;
#X coords 0 1 8524 -1 200 140 1;
#X restore 418 25 graph;
#X restore 1074 50 pd kicks_arrays;
#N canvas 305 101 635 182 snare_arrays 0;
#N canvas 0 22 450 278 (subpatch) 0;
#X array B_snare_1 39690 float 0;
#X coords 0 1 39689 -1 200 140 1;
#X restore 13 27 graph;
#N canvas 0 22 450 278 (subpatch) 0;
#X array B_snare_2 11587 float 0;
#X coords 0 1 11586 -1 200 140 1;
#X restore 217 27 graph;
#N canvas 0 22 450 278 (subpatch) 0;
#X array B_snare_3 28914 float 0;
#X coords 0 1 28913 -1 200 140 1;
#X restore 421 27 graph;
#X restore 1074 74 pd snare_arrays;
#N canvas 486 201 634 176 other_arrays 0;
#N canvas 0 22 450 278 (subpatch) 0;
#X array B_hh 13759 float 0;
#X coords 0 1 13758 -1 200 140 1;
#X restore 13 23 graph;
#N canvas 0 22 450 278 (subpatch) 0;
#X array B_openhihat 57315 float 0;
#X coords 0 1 57314 -1 200 140 1;
#X restore 217 23 graph;
#N canvas 0 22 450 278 (subpatch) 0;
#X array B_tom 52920 float 0;
#X coords 0 1 52919 -1 200 140 1;
#X restore 421 23 graph;
#X restore 1074 98 pd other_arrays;
#X msg 16 51 read -resize sounds/kitB/B_kick_1.wav B_kick_1;
#X msg 16 75 read -resize sounds/kitB/B_kick_2.wav B_kick_2;
#X msg 16 100 read -resize sounds/kitB/B_kick_3.wav B_kick_3;
#X msg 346 51 read -resize sounds/kitB/B_snare_1.wav B_snare_1;
#X msg 345 76 read -resize sounds/kitB/B_snare_2.wav B_snare_2;
#X msg 346 101 read -resize sounds/kitB/B_snare_3.wav B_snare_3;
#X msg 695 51 read -resize sounds/kitB/B_hh.wav B_hh;
#X msg 696 76 read -resize sounds/kitB/B_openhihat.wav B_openhihat
;
#X msg 697 100 read -resize sounds/kitB/B_tom.wav B_tom;
#X obj 20 214 tabplay~ B_kick_1;
#X obj 147 214 tabplay~ B_kick_2;
#X obj 274 214 tabplay~ B_kick_3;
#X obj 401 214 tabplay~ B_snare_1;
#X obj 535 214 tabplay~ B_snare_2;
#X obj 669 214 tabplay~ B_snare_3;
#X obj 803 214 tabplay~ B_hh;
#X obj 904 213 tabplay~ B_openhihat;
#X obj 1053 213 tabplay~ B_tom;
#X obj 20 191 r \$0-click1;
#X obj 147 191 r \$0-click2;
#X obj 274 191 r \$0-click3;
#X obj 401 191 r \$0-click4;
#X obj 535 191 r \$0-click5;
#X obj 669 191 r \$0-click6;
#X obj 803 191 r \$0-click7;
#X obj 904 190 r \$0-click8;
#X obj 1053 190 r \$0-click9;
#X connect 0 0 7 0;
#X connect 0 0 8 0;
#X connect 0 0 14 0;
#X connect 0 0 9 0;
#X connect 0 0 15 0;
#X connect 0 0 10 0;
#X connect 0 0 11 0;
#X connect 0 0 12 0;
#X connect 0 0 13 0;
#X connect 2 0 3 0;
#X connect 7 0 1 0;
#X connect 8 0 1 0;
#X connect 9 0 1 0;
#X connect 10 0 1 0;
#X connect 11 0 1 0;
#X connect 12 0 1 0;
#X connect 13 0 1 0;
#X connect 14 0 1 0;
#X connect 15 0 1 0;
#X connect 16 0 2 0;
#X connect 17 0 2 0;
#X connect 18 0 2 0;
#X connect 19 0 2 0;
#X connect 20 0 2 0;
#X connect 21 0 2 0;
#X connect 22 0 2 0;
#X connect 23 0 2 0;
#X connect 24 0 2 0;
#X connect 25 0 16 0;
#X connect 26 0 17 0;
#X connect 27 0 18 0;
#X connect 28 0 19 0;
#X connect 29 0 20 0;
#X connect 30 0 21 0;
#X connect 31 0 22 0;
#X connect 32 0 23 0;
#X connect 33 0 24 0;
#X restore 201 27 pd initB;
#X obj 377 136 select 1;
#X msg 377 191 1 10;
#X msg 430 191 0 10;
#X obj 358 233 line~;
#X obj 340 267 *~;
#N canvas 173 157 1200 361 initC 0;
#X obj 463 13 loadbang;
#X obj 455 142 soundfiler;
#X obj 549 289 *~ 0.5;
#X obj 549 314 outlet~;
#N canvas 480 184 632 176 kicks_arrays 0;
#N canvas 0 22 450 278 (subpatch) 0;
#X array C_kick_1 31998 float 0;
#X coords 0 1 31997 -1 200 140 1;
#X restore 12 25 graph;
#N canvas 0 22 450 278 (subpatch) 0;
#X array C_kick_2 9404 float 0;
#X coords 0 1 9403 -1 200 140 1;
#X restore 215 25 graph;
#N canvas 0 22 450 278 (subpatch) 0;
#X array C_kick_3 80832 float 0;
#X coords 0 1 80831 -1 200 140 1;
#X restore 418 25 graph;
#X restore 1074 50 pd kicks_arrays;
#N canvas 305 101 635 182 snare_arrays 0;
#N canvas 0 22 450 278 (subpatch) 0;
#X array C_snare_1 14905 float 0;
#X coords 0 1 14904 -1 200 140 1;
#X restore 13 27 graph;
#N canvas 0 22 450 278 (subpatch) 0;
#X array C_snare_2 15045 float 0;
#X coords 0 1 15044 -1 200 140 1;
#X restore 217 27 graph;
#N canvas 0 22 450 278 (subpatch) 0;
#X array C_snare_3 13283 float 0;
#X coords 0 1 13282 -1 200 140 1;
#X restore 421 27 graph;
#X restore 1074 74 pd snare_arrays;
#N canvas 486 201 634 176 other_arrays 0;
#N canvas 0 22 450 278 (subpatch) 0;
#X array C_hh 5755 float 0;
#X coords 0 1 5754 -1 200 140 1;
#X restore 13 23 graph;
#N canvas 0 22 450 278 (subpatch) 0;
#X array C_clap 33356 float 0;
#X coords 0 1 33355 -1 200 140 1;
#X restore 217 23 graph;
#N canvas 0 22 450 278 (subpatch) 0;
#X array C_cymbal 18308 float 0;
#X coords 0 1 18307 -1 200 140 1;
#X restore 421 23 graph;
#X restore 1074 98 pd other_arrays;
#X msg 16 51 read -resize sounds/kitC/C_kick_1.wav C_kick_1;
#X msg 16 75 read -resize sounds/kitC/C_kick_2.wav C_kick_2;
#X msg 16 100 read -resize sounds/kitC/C_kick_3.wav C_kick_3;
#X msg 346 51 read -resize sounds/kitC/C_snare_1.wav C_snare_1;
#X msg 345 76 read -resize sounds/kitC/C_snare_2.wav C_snare_2;
#X msg 346 101 read -resize sounds/kitC/C_snare_3.wav C_snare_3;
#X msg 695 51 read -resize sounds/kitC/C_hh.wav C_hh;
#X msg 696 76 read -resize sounds/kitC/C_clap.wav C_clap;
#X msg 697 100 read -resize sounds/kitC/C_cymbal.wav C_cymbal;
#X obj 20 214 tabplay~ C_kick_1;
#X obj 147 214 tabplay~ C_kick_2;
#X obj 274 214 tabplay~ C_kick_3;
#X obj 401 214 tabplay~ C_snare_1;
#X obj 535 214 tabplay~ C_snare_2;
#X obj 669 214 tabplay~ C_snare_3;
#X obj 803 214 tabplay~ C_hh;
#X obj 904 214 tabplay~ C_clap;
#X obj 1019 213 tabplay~ C_cymbal;
#X obj 20 191 r \$0-click1;
#X obj 147 191 r \$0-click2;
#X obj 274 191 r \$0-click3;
#X obj 401 191 r \$0-click4;
#X obj 535 191 r \$0-click5;
#X obj 669 191 r \$0-click6;
#X obj 803 191 r \$0-click7;
#X obj 904 191 r \$0-click8;
#X obj 1019 190 r \$0-click9;
#X connect 0 0 7 0;
#X connect 0 0 8 0;
#X connect 0 0 14 0;
#X connect 0 0 9 0;
#X connect 0 0 15 0;
#X connect 0 0 10 0;
#X connect 0 0 11 0;
#X connect 0 0 12 0;
#X connect 0 0 13 0;
#X connect 2 0 3 0;
#X connect 7 0 1 0;
#X connect 8 0 1 0;
#X connect 9 0 1 0;
#X connect 10 0 1 0;
#X connect 11 0 1 0;
#X connect 12 0 1 0;
#X connect 13 0 1 0;
#X connect 14 0 1 0;
#X connect 15 0 1 0;
#X connect 16 0 2 0;
#X connect 17 0 2 0;
#X connect 18 0 2 0;
#X connect 19 0 2 0;
#X connect 20 0 2 0;
#X connect 21 0 2 0;
#X connect 22 0 2 0;
#X connect 23 0 2 0;
#X connect 24 0 2 0;
#X connect 25 0 16 0;
#X connect 26 0 17 0;
#X connect 27 0 18 0;
#X connect 28 0 19 0;
#X connect 29 0 20 0;
#X connect 30 0 21 0;
#X connect 31 0 22 0;
#X connect 32 0 23 0;
#X connect 33 0 24 0;
#X restore 271 28 pd initC;
#X obj 515 136 select 2;
#X msg 512 196 1 10;
#X msg 565 196 0 10;
#X obj 493 238 line~;
#X obj 475 270 *~;
#X obj 639 134 select 3;
#X msg 640 191 1 10;
#X msg 693 191 0 10;
#X obj 621 233 line~;
#X obj 603 273 *~;
#N canvas 63 131 1358 648 initD 0;
#X obj 463 13 loadbang;
#X obj 455 142 soundfiler;
#X obj 549 289 *~ 0.5;
#X obj 549 314 outlet~;
#N canvas 480 184 632 176 kicks_arrays 0;
#N canvas 0 22 450 278 (subpatch) 0;
#X array D_kick_1 41687 float 0;
#X coords 0 1 41686 -1 200 140 1;
#X restore 12 25 graph;
#N canvas 0 22 450 278 (subpatch) 0;
#X array D_kick_2 13624 float 0;
#X coords 0 1 13623 -1 200 140 1;
#X restore 215 25 graph;
#N canvas 0 22 450 278 (subpatch) 0;
#X array D_kick_3 15699 float 0;
#X coords 0 1 15698 -1 200 140 1;
#X restore 418 25 graph;
#X restore 1074 50 pd kicks_arrays;
#N canvas 305 101 635 182 snare_arrays 0;
#N canvas 0 22 450 278 (subpatch) 0;
#X array D_snare_1 25170 float 0;
#X coords 0 1 25169 -1 200 140 1;
#X restore 13 27 graph;
#N canvas 0 22 450 278 (subpatch) 0;
#X array D_snare_2 9632 float 0;
#X coords 0 1 9631 -1 200 140 1;
#X restore 217 27 graph;
#N canvas 0 22 450 278 (subpatch) 0;
#X array D_snare_3 45361 float 0;
#X coords 0 1 45360 -1 200 140 1;
#X restore 421 27 graph;
#X restore 1074 74 pd snare_arrays;
#N canvas 486 201 634 176 other_arrays 0;
#N canvas 0 22 450 278 (subpatch) 0;
#X array D_hh 13671 float 0;
#X coords 0 1 13670 -1 200 140 1;
#X restore 13 23 graph;
#N canvas 0 22 450 278 (subpatch) 0;
#X array D_clap 8267 float 0;
#X coords 0 1 8266 -1 200 140 1;
#X restore 217 23 graph;
#N canvas 0 22 450 278 (subpatch) 0;
#X array D_cymbal 33792 float 0;
#X coords 0 1 33791 -1 200 140 1;
#X restore 421 23 graph;
#X restore 1074 98 pd other_arrays;
#X msg 16 51 read -resize sounds/kitD/D_kick_1.wav D_kick_1;
#X msg 16 75 read -resize sounds/kitD/D_kick_2.wav D_kick_2;
#X msg 16 100 read -resize sounds/kitD/D_kick_3.wav D_kick_3;
#X msg 346 51 read -resize sounds/kitD/D_snare_1.wav D_snare_1;
#X msg 345 76 read -resize sounds/kitD/D_snare_2.wav D_snare_2;
#X msg 346 101 read -resize sounds/kitD/D_snare_3.wav D_snare_3;
#X msg 696 76 read -resize sounds/kitD/D_clap.wav D_clap;
#X msg 695 51 read -resize sounds/kitD/D_hh.wav D_hh;
#X msg 697 100 read -resize sounds/kitD/D_cymbal.wav D_cymbal;
#X obj 20 214 tabplay~ D_kick_1;
#X obj 147 214 tabplay~ D_kick_2;
#X obj 274 214 tabplay~ D_kick_3;
#X obj 401 214 tabplay~ D_snare_1;
#X obj 535 214 tabplay~ D_snare_2;
#X obj 669 214 tabplay~ D_snare_3;
#X obj 803 214 tabplay~ D_hh;
#X obj 904 214 tabplay~ D_clap;
#X obj 1019 213 tabplay~ D_cymbal;
#X obj 20 191 r \$0-click1;
#X obj 147 191 r \$0-click2;
#X obj 274 191 r \$0-click3;
#X obj 401 191 r \$0-click4;
#X obj 535 191 r \$0-click5;
#X obj 669 191 r \$0-click6;
#X obj 803 191 r \$0-click7;
#X obj 904 191 r \$0-click8;
#X obj 1019 190 r \$0-click9;
#X connect 0 0 7 0;
#X connect 0 0 8 0;
#X connect 0 0 13 0;
#X connect 0 0 9 0;
#X connect 0 0 15 0;
#X connect 0 0 10 0;
#X connect 0 0 11 0;
#X connect 0 0 12 0;
#X connect 0 0 14 0;
#X connect 2 0 3 0;
#X connect 7 0 1 0;
#X connect 8 0 1 0;
#X connect 9 0 1 0;
#X connect 10 0 1 0;
#X connect 11 0 1 0;
#X connect 12 0 1 0;
#X connect 13 0 1 0;
#X connect 14 0 1 0;
#X connect 15 0 1 0;
#X connect 16 0 2 0;
#X connect 17 0 2 0;
#X connect 18 0 2 0;
#X connect 19 0 2 0;
#X connect 20 0 2 0;
#X connect 21 0 2 0;
#X connect 22 0 2 0;
#X connect 23 0 2 0;
#X connect 24 0 2 0;
#X connect 25 0 16 0;
#X connect 26 0 17 0;
#X connect 27 0 18 0;
#X connect 28 0 19 0;
#X connect 29 0 20 0;
#X connect 30 0 21 0;
#X connect 31 0 22 0;
#X connect 32 0 23 0;
#X connect 33 0 24 0;
#X restore 346 28 pd initD;
#N canvas 560 230 185 177 init 0;
#X obj 47 40 loadbang;
#X obj 47 65 float \$0;
#X msg 47 91 \; pd dsp 1 \; \$1-drumkit 1 \;;
#X connect 0 0 1 0;
#X connect 1 0 2 0;
#X restore 577 25 pd init;
#X obj 298 459 outlet~;
#X obj 362 73 r \$0-drumkit;
#N canvas 44 26 1094 777 mysamples 0;
#X obj 36 365 adc~;
#X obj 128 442 delay 1000;
#X msg 128 473 stop;
#X obj 135 141 metro 1000;
#X msg 176 45 stop, f 5;
#X obj 135 251 int;
#X msg 153 211 5;
#X obj 182 253 - 1;
#X floatatom 135 289 5 0 0 0 - - - 0;
#X obj 269 316 sel 0;
#X obj 153 184 loadbang;
#X obj 349 350 bng 15 250 50 0 empty empty empty 17 7 0 10 #fcfcfc
#000000 #000000;
#X obj 35 507 writesf~ 1;
#X obj 135 15 r \$0-mysound1;
#X msg 79 412 open sounds/recorded/mysound1.wav \, start;
#X obj 385 367 adc~;
#X obj 477 444 delay 1000;
#X msg 477 475 stop;
#X obj 484 143 metro 1000;
#X msg 525 47 stop, f 5;
#X obj 484 253 int;
#X msg 502 213 5;
#X obj 531 255 - 1;
#X floatatom 484 291 5 0 0 0 - - - 0;
#X obj 618 318 sel 0;
#X obj 502 186 loadbang;
#X obj 698 352 bng 15 250 50 0 empty empty empty 17 7 0 10 #fcfcfc
#000000 #000000;
#X obj 384 509 writesf~ 1;
#X obj 731 385 adc~;
#X obj 823 462 delay 1000;
#X msg 823 493 stop;
#X obj 830 161 metro 1000;
#X msg 871 65 stop, f 5;
#X obj 830 271 int;
#X msg 848 231 5;
#X obj 877 273 - 1;
#X floatatom 830 309 5 0 0 0 - - - 0;
#X obj 964 336 sel 0;
#X obj 848 204 loadbang;
#X obj 1044 370 bng 15 250 50 0 empty empty empty 17 7 0 10 #fcfcfc
#000000 #000000;
#X obj 730 527 writesf~ 1;
#X obj 484 17 r \$0-mysound2;
#X obj 830 35 r \$0-mysound3;
#X msg 428 414 open sounds/recorded/mysound2.wav \, start;
#X msg 774 432 open sounds/recorded/mysound3.wav \, start;
#X obj 34 607 list;
#X msg 34 639 open \$1 \, 1;
#X obj 34 673 readsf~;
#X obj 34 548 r \$0-myclick1;
#X obj 385 611 list;
#X msg 385 643 open \$1 \, 1;
#X obj 385 677 readsf~;
#X obj 385 552 r \$0-myclick2;
#X msg 34 577 sounds/recorded/mysound1.wav;
#X msg 385 581 sounds/recorded/mysound2.wav;
#X obj 731 618 list;
#X msg 731 650 open \$1 \, 1;
#X obj 731 684 readsf~;
#X obj 731 559 r \$0-myclick3;
#X msg 731 588 sounds/recorded/mysound3.wav;
#X obj 34 703 outlet~;
#X obj 385 705 outlet~;
#X obj 731 710 outlet~;
#X obj 74 320 s \$0-counter1;
#X obj 423 322 s \$0-counter2;
#X obj 769 340 s \$0-counter3;
#X connect 0 0 12 0;
#X connect 1 0 2 0;
#X connect 2 0 12 0;
#X connect 3 0 5 0;
#X connect 4 0 3 0;
#X connect 5 0 7 0;
#X connect 5 0 8 0;
#X connect 6 0 5 1;
#X connect 7 0 5 1;
#X connect 8 0 9 0;
#X connect 8 0 63 0;
#X connect 9 0 6 0;
#X connect 9 0 4 0;
#X connect 9 0 14 0;
#X connect 9 0 11 0;
#X connect 9 0 1 0;
#X connect 10 0 6 0;
#X connect 13 0 3 0;
#X connect 14 0 12 0;
#X connect 15 0 27 0;
#X connect 16 0 17 0;
#X connect 17 0 27 0;
#X connect 18 0 20 0;
#X connect 19 0 18 0;
#X connect 20 0 22 0;
#X connect 20 0 23 0;
#X connect 21 0 20 1;
#X connect 22 0 20 1;
#X connect 23 0 24 0;
#X connect 23 0 64 0;
#X connect 24 0 21 0;
#X connect 24 0 19 0;
#X connect 24 0 43 0;
#X connect 24 0 26 0;
#X connect 24 0 16 0;
#X connect 25 0 21 0;
#X connect 28 0 40 0;
#X connect 29 0 30 0;
#X connect 30 0 40 0;
#X connect 31 0 33 0;
#X connect 32 0 31 0;
#X connect 33 0 35 0;
#X connect 33 0 36 0;
#X connect 34 0 33 1;
#X connect 35 0 33 1;
#X connect 36 0 37 0;
#X connect 36 0 65 0;
#X connect 37 0 34 0;
#X connect 37 0 32 0;
#X connect 37 0 44 0;
#X connect 37 0 39 0;
#X connect 37 0 29 0;
#X connect 38 0 34 0;
#X connect 41 0 18 0;
#X connect 42 0 31 0;
#X connect 43 0 27 0;
#X connect 44 0 40 0;
#X connect 45 0 46 0;
#X connect 46 0 47 0;
#X connect 47 0 60 0;
#X connect 48 0 53 0;
#X connect 49 0 50 0;
#X connect 50 0 51 0;
#X connect 51 0 61 0;
#X connect 52 0 54 0;
#X connect 53 0 45 0;
#X connect 54 0 49 0;
#X connect 55 0 56 0;
#X connect 56 0 57 0;
#X connect 57 0 62 0;
#X connect 58 0 59 0;
#X connect 59 0 55 0;
#X restore 29 185 pd mysamples;
#N canvas 213 65 750 354 selectsamples 0;
#X obj 118 130 openpanel;
#X msg 118 239 open \$1;
#X obj 44 134 t b b;
#X listbox 118 169 20 0 0 0 - - - 0;
#X obj 118 272 readsf~;
#X obj 119 305 outlet~;
#X msg 44 196 1;
#X obj 44 36 r \$0-selclick1;
#X obj 351 133 openpanel;
#X msg 351 242 open \$1;
#X obj 277 137 t b b;
#X listbox 351 172 20 0 0 0 - - - 0;
#X obj 351 275 readsf~;
#X obj 352 308 outlet~;
#X msg 277 199 1;
#X obj 277 39 r \$0-selclick2;
#X obj 118 62 r \$0-selectsound1;
#X obj 351 65 r \$0-selectsound2;
#X obj 584 130 openpanel;
#X msg 584 239 open \$1;
#X obj 510 134 t b b;
#X listbox 584 169 20 0 0 0 - - - 0;
#X obj 584 272 readsf~;
#X obj 585 305 outlet~;
#X msg 510 196 1;
#X obj 510 36 r \$0-selclick3;
#X obj 584 62 r \$0-selectsound3;
#X connect 0 0 3 0;
#X connect 1 0 4 0;
#X connect 2 0 6 0;
#X connect 2 1 3 0;
#X connect 3 0 1 0;
#X connect 4 0 5 0;
#X connect 6 0 4 0;
#X connect 7 0 2 0;
#X connect 8 0 11 0;
#X connect 9 0 12 0;
#X connect 10 0 14 0;
#X connect 10 1 11 0;
#X connect 11 0 9 0;
#X connect 12 0 13 0;
#X connect 14 0 12 0;
#X connect 15 0 10 0;
#X connect 16 0 0 0;
#X connect 17 0 8 0;
#X connect 18 0 21 0;
#X connect 19 0 22 0;
#X connect 20 0 24 0;
#X connect 20 1 21 0;
#X connect 21 0 19 0;
#X connect 22 0 23 0;
#X connect 24 0 22 0;
#X connect 25 0 20 0;
#X connect 26 0 18 0;
#X restore 38 316 pd selectsamples;
#X obj 298 428 *~ 0.5;
#X connect 0 0 1 0;
#X connect 1 0 29 0;
#X connect 2 0 3 0;
#X connect 2 1 4 0;
#X connect 3 0 5 0;
#X connect 4 0 5 0;
#X connect 5 0 1 1;
#X connect 6 0 11 0;
#X connect 7 0 8 0;
#X connect 7 1 9 0;
#X connect 8 0 10 0;
#X connect 9 0 10 0;
#X connect 10 0 11 1;
#X connect 11 0 29 0;
#X connect 12 0 17 0;
#X connect 13 0 14 0;
#X connect 13 1 15 0;
#X connect 14 0 16 0;
#X connect 15 0 16 0;
#X connect 16 0 17 1;
#X connect 17 0 29 0;
#X connect 18 0 19 0;
#X connect 18 1 20 0;
#X connect 19 0 21 0;
#X connect 20 0 21 0;
#X connect 21 0 22 1;
#X connect 22 0 29 0;
#X connect 23 0 22 0;
#X connect 26 0 2 0;
#X connect 26 0 7 0;
#X connect 26 0 13 0;
#X connect 26 0 18 0;
#X connect 27 0 29 0;
#X connect 27 1 29 0;
#X connect 27 2 29 0;
#X connect 28 0 29 0;
#X connect 28 1 29 0;
#X connect 28 2 29 0;
#X connect 29 0 25 0;
#X restore 41 45 pd drums;
#N canvas 336 228 744 505 reverb 0;
#X obj 51 375 outlet~;
#X obj 55 266 inlet~;
#X obj 310 293 expr 1 - $f1;
#X obj 296 59 loadbang;
#X obj 112 119 hsl 128 15 0 1 0 1 empty empty 'roomsize' 20 8 0 10
#fcfcfc #fc8000 #000000 8000 0;
#X obj 127 162 hsl 128 15 0 2.4 0 1 empty empty damp 20 8 0 10 #fcfcfc
#fc8000 #000000 0 0;
#X obj 157 255 hsl 128 15 0 1 0 1 empty empty wet 20 8 0 10 #fcfcfc
#fc8000 #000000 2000 0;
#X obj 142 205 hsl 128 15 0 1 0 1 empty empty dry 20 8 0 10 #fcfcfc
#fc8000 #000000 10700 0;
#N canvas 256 339 634 321 vfreeverb~ 0;
#N canvas 824 312 778 367 combfilters-left1 0;
#X obj 46 244 +~;
#X obj 61 219 *~ 0.3;
#X obj 61 194 lop~ 1000;
#X obj 231 244 +~;
#X obj 246 219 *~ 0.3;
#X obj 246 194 lop~ 1000;
#X obj 429 218 *~ 0.3;
#X obj 429 193 lop~ 1000;
#X obj 414 241 +~;
#X obj 610 218 *~ 0.3;
#X obj 610 193 lop~ 1000;
#X obj 595 241 +~;
#X obj 61 141 delread~ \$0-comb1left;
#X obj 246 142 delread~ \$0-comb2left;
#X obj 429 141 delread~ \$0-comb3left;
#X obj 610 141 delread~ \$0-comb4left;
#X obj 46 268 delwrite~ \$0-comb1left 100;
#X obj 231 268 delwrite~ \$0-comb2left 100;
#X obj 414 267 delwrite~ \$0-comb3left 100;
#X obj 595 267 delwrite~ \$0-comb4left 100;
#X obj 61 97 r \$0-comb1left;
#X obj 246 97 r \$0-comb2left;
#X obj 429 95 r \$0-comb3left;
#X obj 610 96 r \$0-comb4left;
#X obj 112 170 r \$0-frequency;
#X obj 297 170 r \$0-frequency;
#X obj 480 167 r \$0-frequency;
#X obj 661 167 r \$0-frequency;
#X obj 46 28 inlet~;
#X obj 338 326 outlet~;
#X floatatom 70 119 5 0 0 0 - - - 0;
#X floatatom 255 121 5 0 0 0 - - - 0;
#X floatatom 439 119 5 0 0 0 - - - 0;
#X floatatom 622 121 5 0 0 0 - - - 0;
#X obj 279 58 clip 0 0.99;
#X obj 279 29 r \$0-room;
#X connect 0 0 16 0;
#X connect 1 0 0 1;
#X connect 2 0 1 0;
#X connect 2 0 29 0;
#X connect 3 0 17 0;
#X connect 4 0 3 1;
#X connect 5 0 4 0;
#X connect 5 0 29 0;
#X connect 6 0 8 1;
#X connect 7 0 6 0;
#X connect 7 0 29 0;
#X connect 8 0 18 0;
#X connect 9 0 11 1;
#X connect 10 0 9 0;
#X connect 10 0 29 0;
#X connect 11 0 19 0;
#X connect 12 0 2 0;
#X connect 13 0 5 0;
#X connect 14 0 7 0;
#X connect 15 0 10 0;
#X connect 20 0 12 0;
#X connect 20 0 30 0;
#X connect 21 0 13 0;
#X connect 21 0 31 0;
#X connect 22 0 14 0;
#X connect 22 0 32 0;
#X connect 23 0 15 0;
#X connect 23 0 33 0;
#X connect 24 0 2 1;
#X connect 25 0 5 1;
#X connect 26 0 7 1;
#X connect 27 0 10 1;
#X connect 28 0 0 0;
#X connect 28 0 3 0;
#X connect 28 0 8 0;
#X connect 28 0 11 0;
#X connect 34 0 1 1;
#X connect 34 0 4 1;
#X connect 34 0 6 1;
#X connect 34 0 9 1;
#X connect 35 0 34 0;
#X restore 15 100 pd combfilters-left1;
#N canvas 27 56 358 650 diffusor-left 0;
#X obj 51 107 *~ 0.5;
#X obj 36 132 +~;
#X obj 66 132 -~;
#X obj 36 26 inlet~;
#X obj 81 238 *~ 0.5;
#X obj 66 263 +~;
#X obj 96 263 -~;
#X obj 111 368 *~ 0.5;
#X obj 96 393 +~;
#X obj 126 393 -~;
#X obj 141 498 *~ 0.5;
#X obj 126 523 +~;
#X obj 156 523 -~;
#X obj 156 605 outlet~;
#X text 95 28 freeverb's diffusor;
#X obj 156 576 hip~ 5;
#X floatatom 214 70 5 0 0 0 - - - 0;
#X floatatom 246 203 5 0 0 0 - - - 0;
#X floatatom 280 334 5 0 0 0 - - - 0;
#X floatatom 304 464 5 0 0 0 - - - 0;
#X obj 51 53 r \$0-allpass1left;
#X obj 51 80 delread~ \$0-allpass1left;
#X obj 36 158 delwrite~ \$0-allpass1left 40;
#X obj 81 186 r \$0-allpass2left;
#X obj 81 211 delread~ \$0-allpass2left;
#X obj 66 290 delwrite~ \$0-allpass2left 40;
#X obj 111 317 r \$0-allpass3left;
#X obj 111 341 delread~ \$0-allpass3left;
#X obj 96 420 delwrite~ \$0-allpass3left 40;
#X obj 141 447 r \$0-allpass4left;
#X obj 141 471 delread~ \$0-allpass4left;
#X obj 126 550 delwrite~ \$0-allpass4left 40;
#X connect 0 0 1 1;
#X connect 1 0 22 0;
#X connect 2 0 5 0;
#X connect 2 0 6 1;
#X connect 3 0 1 0;
#X connect 3 0 2 1;
#X connect 4 0 5 1;
#X connect 5 0 25 0;
#X connect 6 0 8 0;
#X connect 6 0 9 1;
#X connect 7 0 8 1;
#X connect 8 0 28 0;
#X connect 9 0 11 0;
#X connect 9 0 12 1;
#X connect 10 0 11 1;
#X connect 11 0 31 0;
#X connect 12 0 15 0;
#X connect 15 0 13 0;
#X connect 20 0 16 0;
#X connect 20 0 21 0;
#X connect 21 0 0 0;
#X connect 21 0 2 0;
#X connect 23 0 17 0;
#X connect 23 0 24 0;
#X connect 24 0 4 0;
#X connect 24 0 6 0;
#X connect 26 0 18 0;
#X connect 26 0 27 0;
#X connect 27 0 7 0;
#X connect 27 0 9 0;
#X connect 29 0 19 0;
#X connect 29 0 30 0;
#X connect 30 0 10 0;
#X connect 30 0 12 0;
#X restore 15 168 pd diffusor-left;
#N canvas 312 366 778 367 combfilters-left2 0;
#X obj 46 244 +~;
#X obj 61 219 *~ 0.3;
#X obj 61 194 lop~ 1000;
#X obj 231 244 +~;
#X obj 246 219 *~ 0.3;
#X obj 246 194 lop~ 1000;
#X obj 429 218 *~ 0.3;
#X obj 429 193 lop~ 1000;
#X obj 414 241 +~;
#X obj 610 218 *~ 0.3;
#X obj 610 193 lop~ 1000;
#X obj 595 241 +~;
#X obj 112 170 r \$0-frequency;
#X obj 297 170 r \$0-frequency;
#X obj 480 167 r \$0-frequency;
#X obj 661 167 r \$0-frequency;
#X obj 46 28 inlet~;
#X obj 338 326 outlet~;
#X obj 61 90 r \$0-comb5left;
#X obj 61 141 delread~ \$0-comb5left;
#X obj 46 268 delwrite~ \$0-comb5left 100;
#X obj 246 90 r \$0-comb6left;
#X obj 246 142 delread~ \$0-comb6left;
#X obj 231 268 delwrite~ \$0-comb6left 100;
#X obj 429 88 r \$0-comb7left;
#X obj 429 141 delread~ \$0-comb7left;
#X obj 414 267 delwrite~ \$0-comb7left 100;
#X obj 610 89 r \$0-comb8left;
#X obj 610 141 delread~ \$0-comb8left;
#X obj 595 267 delwrite~ \$0-comb8left 100;
#X floatatom 70 116 5 0 0 0 - - - 0;
#X floatatom 261 118 5 0 0 0 - - - 0;
#X floatatom 440 117 5 0 0 0 - - - 0;
#X floatatom 620 116 5 0 0 0 - - - 0;
#X obj 279 58 clip 0 0.99;
#X obj 279 28 r \$0-room;
#X connect 0 0 20 0;
#X connect 1 0 0 1;
#X connect 2 0 1 0;
#X connect 2 0 17 0;
#X connect 3 0 23 0;
#X connect 4 0 3 1;
#X connect 5 0 4 0;
#X connect 5 0 17 0;
#X connect 6 0 8 1;
#X connect 7 0 6 0;
#X connect 7 0 17 0;
#X connect 8 0 26 0;
#X connect 9 0 11 1;
#X connect 10 0 9 0;
#X connect 10 0 17 0;
#X connect 11 0 29 0;
#X connect 12 0 2 1;
#X connect 13 0 5 1;
#X connect 14 0 7 1;
#X connect 15 0 10 1;
#X connect 16 0 0 0;
#X connect 16 0 3 0;
#X connect 16 0 8 0;
#X connect 16 0 11 0;
#X connect 18 0 19 0;
#X connect 18 0 30 0;
#X connect 19 0 2 0;
#X connect 21 0 22 0;
#X connect 21 0 31 0;
#X connect 22 0 5 0;
#X connect 24 0 25 0;
#X connect 24 0 32 0;
#X connect 25 0 7 0;
#X connect 27 0 28 0;
#X connect 27 0 33 0;
#X connect 28 0 10 0;
#X connect 34 0 1 1;
#X connect 34 0 4 1;
#X connect 34 0 6 1;
#X connect 34 0 9 1;
#X connect 35 0 34 0;
#X restore 36 134 pd combfilters-left2;
#N canvas 261 41 778 367 combfilters-right1 0;
#X obj 46 244 +~;
#X obj 61 219 *~ 0.3;
#X obj 61 194 lop~ 1000;
#X obj 231 244 +~;
#X obj 246 219 *~ 0.3;
#X obj 246 194 lop~ 1000;
#X obj 429 218 *~ 0.3;
#X obj 429 193 lop~ 1000;
#X obj 414 241 +~;
#X obj 610 218 *~ 0.3;
#X obj 610 193 lop~ 1000;
#X obj 595 241 +~;
#X obj 112 170 r \$0-frequency;
#X obj 297 170 r \$0-frequency;
#X obj 480 167 r \$0-frequency;
#X obj 661 167 r \$0-frequency;
#X obj 46 28 inlet~;
#X obj 338 326 outlet~;
#X floatatom 70 119 5 0 0 0 - - - 0;
#X floatatom 255 121 5 0 0 0 - - - 0;
#X floatatom 439 119 5 0 0 0 - - - 0;
#X floatatom 622 121 5 0 0 0 - - - 0;
#X obj 61 141 delread~ \$0-comb1right;
#X obj 246 142 delread~ \$0-comb2right;
#X obj 429 141 delread~ \$0-comb3right;
#X obj 610 141 delread~ \$0-comb4right;
#X obj 61 97 r \$0-comb1right;
#X obj 246 97 r \$0-comb2right;
#X obj 429 95 r \$0-comb3right;
#X obj 610 97 r \$0-comb4right;
#X obj 46 268 delwrite~ \$0-comb1right 100;
#X obj 231 268 delwrite~ \$0-comb2right 100;
#X obj 414 267 delwrite~ \$0-comb3right 100;
#X obj 595 267 delwrite~ \$0-comb4right 100;
#X obj 279 58 clip 0 0.99;
#X obj 279 28 r \$0-room;
#X connect 0 0 30 0;
#X connect 1 0 0 1;
#X connect 2 0 1 0;
#X connect 2 0 17 0;
#X connect 3 0 31 0;
#X connect 4 0 3 1;
#X connect 5 0 4 0;
#X connect 5 0 17 0;
#X connect 6 0 8 1;
#X connect 7 0 6 0;
#X connect 7 0 17 0;
#X connect 8 0 32 0;
#X connect 9 0 11 1;
#X connect 10 0 9 0;
#X connect 10 0 17 0;
#X connect 11 0 33 0;
#X connect 12 0 2 1;
#X connect 13 0 5 1;
#X connect 14 0 7 1;
#X connect 15 0 10 1;
#X connect 16 0 0 0;
#X connect 16 0 3 0;
#X connect 16 0 8 0;
#X connect 16 0 11 0;
#X connect 22 0 2 0;
#X connect 23 0 5 0;
#X connect 24 0 7 0;
#X connect 25 0 10 0;
#X connect 26 0 18 0;
#X connect 26 0 22 0;
#X connect 27 0 19 0;
#X connect 27 0 23 0;
#X connect 28 0 20 0;
#X connect 28 0 24 0;
#X connect 29 0 21 0;
#X connect 29 0 25 0;
#X connect 34 0 1 1;
#X connect 34 0 4 1;
#X connect 34 0 6 1;
#X connect 34 0 9 1;
#X connect 35 0 34 0;
#X restore 208 99 pd combfilters-right1;
#N canvas 312 366 778 367 combfilters-right2 0;
#X obj 46 244 +~;
#X obj 61 219 *~ 0.3;
#X obj 61 194 lop~ 1000;
#X obj 231 244 +~;
#X obj 246 219 *~ 0.3;
#X obj 246 194 lop~ 1000;
#X obj 429 218 *~ 0.3;
#X obj 429 193 lop~ 1000;
#X obj 414 241 +~;
#X obj 610 218 *~ 0.3;
#X obj 610 193 lop~ 1000;
#X obj 595 241 +~;
#X obj 112 170 r \$0-frequency;
#X obj 297 170 r \$0-frequency;
#X obj 480 167 r \$0-frequency;
#X obj 661 167 r \$0-frequency;
#X obj 46 28 inlet~;
#X obj 338 326 outlet~;
#X floatatom 70 116 5 0 0 0 - - - 0;
#X floatatom 261 118 5 0 0 0 - - - 0;
#X floatatom 440 117 5 0 0 0 - - - 0;
#X floatatom 620 116 5 0 0 0 - - - 0;
#X obj 279 58 clip 0 0.99;
#X obj 61 90 r \$0-comb5right;
#X obj 246 90 r \$0-comb6right;
#X obj 429 88 r \$0-comb7right;
#X obj 610 89 r \$0-comb8right;
#X obj 61 141 delread~ \$0-comb5right;
#X obj 246 142 delread~ \$0-comb6right;
#X obj 429 141 delread~ \$0-comb7right;
#X obj 610 141 delread~ \$0-comb8right;
#X obj 46 268 delwrite~ \$0-comb5right 100;
#X obj 231 268 delwrite~ \$0-comb6right 100;
#X obj 414 267 delwrite~ \$0-comb7right 100;
#X obj 595 267 delwrite~ \$0-comb8right 100;
#X obj 279 28 r \$0-room;
#X connect 0 0 31 0;
#X connect 1 0 0 1;
#X connect 2 0 1 0;
#X connect 2 0 17 0;
#X connect 3 0 32 0;
#X connect 4 0 3 1;
#X connect 5 0 4 0;
#X connect 5 0 17 0;
#X connect 6 0 8 1;
#X connect 7 0 6 0;
#X connect 7 0 17 0;
#X connect 8 0 33 0;
#X connect 9 0 11 1;
#X connect 10 0 9 0;
#X connect 10 0 17 0;
#X connect 11 0 34 0;
#X connect 12 0 2 1;
#X connect 13 0 5 1;
#X connect 14 0 7 1;
#X connect 15 0 10 1;
#X connect 16 0 0 0;
#X connect 16 0 3 0;
#X connect 16 0 8 0;
#X connect 16 0 11 0;
#X connect 22 0 1 1;
#X connect 22 0 4 1;
#X connect 22 0 6 1;
#X connect 22 0 9 1;
#X connect 23 0 18 0;
#X connect 23 0 27 0;
#X connect 24 0 19 0;
#X connect 24 0 28 0;
#X connect 25 0 20 0;
#X connect 25 0 29 0;
#X connect 26 0 21 0;
#X connect 26 0 30 0;
#X connect 27 0 2 0;
#X connect 28 0 5 0;
#X connect 29 0 7 0;
#X connect 30 0 10 0;
#X connect 35 0 22 0;
#X restore 225 133 pd combfilters-right2;
#N canvas 27 56 358 650 diffusor-right 0;
#X obj 51 107 *~ 0.5;
#X obj 36 132 +~;
#X obj 66 132 -~;
#X obj 36 26 inlet~;
#X obj 81 238 *~ 0.5;
#X obj 66 263 +~;
#X obj 96 263 -~;
#X obj 111 368 *~ 0.5;
#X obj 96 393 +~;
#X obj 126 393 -~;
#X obj 141 498 *~ 0.5;
#X obj 126 523 +~;
#X obj 156 523 -~;
#X obj 156 605 outlet~;
#X text 95 28 freeverb's diffusor;
#X obj 156 576 hip~ 5;
#X floatatom 214 70 5 0 0 0 - - - 0;
#X floatatom 244 203 5 0 0 0 - - - 0;
#X floatatom 280 334 5 0 0 0 - - - 0;
#X floatatom 304 464 5 0 0 0 - - - 0;
#X obj 51 53 r \$0-allpass1right;
#X obj 51 80 delread~ \$0-allpass1right;
#X obj 36 158 delwrite~ \$0-allpass1right 40;
#X obj 81 186 r \$0-allpass2right;
#X obj 81 211 delread~ \$0-allpass2right;
#X obj 66 290 delwrite~ \$0-allpass2right 40;
#X obj 111 317 r \$0-allpass3right;
#X obj 111 341 delread~ \$0-allpass3right;
#X obj 96 420 delwrite~ \$0-allpass3right 40;
#X obj 141 447 r \$0-allpass4right;
#X obj 141 471 delread~ \$0-allpass4right;
#X obj 126 550 delwrite~ \$0-allpass4right 40;
#X connect 0 0 1 1;
#X connect 1 0 22 0;
#X connect 2 0 5 0;
#X connect 2 0 6 1;
#X connect 3 0 1 0;
#X connect 3 0 2 1;
#X connect 4 0 5 1;
#X connect 5 0 25 0;
#X connect 6 0 8 0;
#X connect 6 0 9 1;
#X connect 7 0 8 1;
#X connect 8 0 28 0;
#X connect 9 0 11 0;
#X connect 9 0 12 1;
#X connect 10 0 11 1;
#X connect 11 0 31 0;
#X connect 12 0 15 0;
#X connect 15 0 13 0;
#X connect 20 0 16 0;
#X connect 20 0 21 0;
#X connect 21 0 0 0;
#X connect 21 0 2 0;
#X connect 23 0 17 0;
#X connect 23 0 24 0;
#X connect 24 0 4 0;
#X connect 24 0 6 0;
#X connect 26 0 18 0;
#X connect 26 0 27 0;
#X connect 27 0 7 0;
#X connect 27 0 9 0;
#X connect 29 0 19 0;
#X connect 29 0 30 0;
#X connect 30 0 10 0;
#X connect 30 0 12 0;
#X restore 208 169 pd diffusor-right;
#X obj 208 61 *~ 0.015;
#X obj 15 226 *~ 1;
#X obj 208 228 *~ 1;
#X obj 94 228 *~ 1;
#X obj 169 228 *~ 1;
#X obj 115 202 r \$0-dry;
#X obj 229 203 r \$0-wet;
#X obj 36 201 r \$0-wet;
#X obj 94 14 inlet~;
#X obj 208 14 inlet~;
#X obj 15 268 outlet~;
#X obj 169 269 outlet~;
#X obj 312 14 inlet;
#X obj 374 14 inlet;
#X obj 462 14 inlet;
#X obj 544 16 inlet;
#N canvas 92 117 207 207 room 0;
#X obj 32 35 inlet;
#X obj 32 63 * 0.28;
#X obj 32 94 + 0.7;
#X obj 32 160 outlet;
#X text 80 65 scaleroom;
#X text 76 94 offsetroom;
#X obj 47 126 s \$0-room;
#X connect 0 0 1 0;
#X connect 1 0 2 0;
#X connect 2 0 3 0;
#X connect 2 0 6 0;
#X restore 312 45 pd room;
#N canvas 684 169 244 376 frequency 0;
#X obj 60 222 samplerate~;
#X obj 33 8 inlet;
#X obj 33 194 t f b;
#X obj 33 249 *;
#X obj 53 303 s \$0-frequency;
#X obj 33 327 outlet;
#X obj 33 64 * 0.4;
#X text 76 66 scaledamp;
#X obj 33 90 t b f;
#X obj 33 141 -;
#X msg 33 116 1;
#X obj 33 168 abs;
#X obj 33 275 * 0.5;
#X text 153 303 for [lop~];
#X obj 33 38 clip 0 2.4;
#X connect 0 0 3 1;
#X connect 1 0 14 0;
#X connect 2 0 3 0;
#X connect 2 1 0 0;
#X connect 3 0 12 0;
#X connect 6 0 8 0;
#X connect 8 0 10 0;
#X connect 8 1 9 1;
#X connect 9 0 11 0;
#X connect 10 0 9 0;
#X connect 11 0 2 0;
#X connect 12 0 5 0;
#X connect 12 0 4 0;
#X connect 14 0 6 0;
#X restore 374 45 pd frequency;
#N canvas 150 175 170 187 scalewet 0;
#X obj 22 42 inlet;
#X obj 22 143 outlet;
#X obj 22 73 * 3;
#X text 49 74 scalewet;
#X obj 40 112 s \$0-wet;
#X connect 0 0 2 0;
#X connect 2 0 1 0;
#X connect 2 0 4 0;
#X restore 544 45 pd scalewet;
#N canvas 121 146 220 198 scaledry 0;
#X obj 32 74 * 2;
#X obj 32 40 inlet;
#X obj 32 141 outlet;
#X text 58 75 scaledry;
#X obj 41 105 s \$0-dry;
#X connect 0 0 2 0;
#X connect 0 0 4 0;
#X connect 1 0 0 0;
#X restore 462 45 pd scaledry;
#X floatatom 312 70 5 0 0 0 - - - 0;
#X floatatom 374 70 10 0 0 0 - - - 0;
#X floatatom 462 69 5 0 0 0 - - - 0;
#X floatatom 544 69 5 0 0 0 - - - 0;
#N canvas 405 27 635 684 tuning 0;
#X msg 332 81 1139 \, 1211 \, 1300 \, 1379 \, 1445 \, 1514 \, 1580
\, 1640;
#X text 72 57 combfilter tunings left;
#X text 377 56 combfilter tunings right;
#X text 71 360 allpass tunings left;
#X text 383 355 allpass tunings right;
#N canvas 243 170 195 233 sampstoms 0;
#X obj 27 21 inlet;
#X obj 54 86 samplerate~;
#X obj 27 111 /;
#X obj 27 57 t f b;
#X obj 27 136 * 1000;
#X obj 27 162 outlet;
#X connect 0 0 3 0;
#X connect 1 0 2 1;
#X connect 2 0 4 0;
#X connect 3 0 2 0;
#X connect 3 1 1 0;
#X connect 4 0 5 0;
#X restore 30 107 pd sampstoms;
#X msg 30 82 1116 \, 1188 \, 1277 \, 1356 \, 1422 \, 1491 \, 1557 \,
1617;
#X obj 57 188 +;
#X msg 57 159 1;
#X obj 30 135 t f b;
#X obj 87 188 f;
#X obj 30 56 t b b;
#X msg 87 159 0;
#X obj 57 212 pack f \$0;
#X msg 57 238 \$2-comb\$1left;
#X obj 30 282 s;
#X obj 57 265 symbol;
#N canvas 0 22 195 233 sampstoms 0;
#X obj 27 21 inlet;
#X obj 54 86 samplerate~;
#X obj 27 111 /;
#X obj 27 57 t f b;
#X obj 27 136 * 1000;
#X obj 27 162 outlet;
#X connect 0 0 3 0;
#X connect 1 0 2 1;
#X connect 2 0 4 0;
#X connect 3 0 2 0;
#X connect 3 1 1 0;
#X connect 4 0 5 0;
#X restore 332 107 pd sampstoms;
#X obj 359 188 +;
#X msg 359 159 1;
#X obj 332 135 t f b;
#X obj 389 188 f;
#X msg 389 159 0;
#X obj 359 212 pack f \$0;
#X obj 332 282 s;
#X obj 359 265 symbol;
#X obj 332 56 t b b;
#X msg 359 238 \$2-comb\$1right;
#X obj 30 360 t b b;
#N canvas 0 22 195 233 sampstoms 0;
#X obj 27 21 inlet;
#X obj 54 86 samplerate~;
#X obj 27 111 /;
#X obj 27 57 t f b;
#X obj 27 136 * 1000;
#X obj 27 162 outlet;
#X connect 0 0 3 0;
#X connect 1 0 2 1;
#X connect 2 0 4 0;
#X connect 3 0 2 0;
#X connect 3 1 1 0;
#X connect 4 0 5 0;
#X restore 30 411 pd sampstoms;
#X obj 57 492 +;
#X msg 57 463 1;
#X obj 30 439 t f b;
#X obj 87 492 f;
#X msg 87 463 0;
#X obj 57 516 pack f \$0;
#X obj 30 586 s;
#X obj 57 569 symbol;
#X obj 334 356 t b b;
#N canvas 0 22 195 233 sampstoms 0;
#X obj 27 21 inlet;
#X obj 54 86 samplerate~;
#X obj 27 111 /;
#X obj 27 57 t f b;
#X obj 27 136 * 1000;
#X obj 27 162 outlet;
#X connect 0 0 3 0;
#X connect 1 0 2 1;
#X connect 2 0 4 0;
#X connect 3 0 2 0;
#X connect 3 1 1 0;
#X connect 4 0 5 0;
#X restore 334 407 pd sampstoms;
#X obj 361 488 +;
#X msg 361 459 1;
#X obj 334 435 t f b;
#X obj 391 488 f;
#X msg 391 459 0;
#X obj 361 512 pack f \$0;
#X obj 334 582 s;
#X obj 361 565 symbol;
#X obj 30 22 loadbang;
#X obj 332 27 loadbang;
#X obj 30 334 loadbang;
#X obj 334 331 loadbang;
#X obj 268 41 bng 15 250 50 0 empty empty empty 17 7 0 10 #fcfcfc #000000
#000000;
#X msg 30 386 225 \, 556 \, 441 \, 341;
#X msg 334 380 248 \, 579 \, 464 \, 364;
#X msg 57 542 \$2-allpass\$1left;
#X msg 361 539 \$2-allpass\$1right;
#X text 27 624 Original Freeverb delay line lengths are converted to
milliseconds \, based on samplerate.;
#X connect 0 0 17 0;
#X connect 5 0 9 0;
#X connect 6 0 5 0;
#X connect 7 0 10 0;
#X connect 7 0 13 0;
#X connect 8 0 7 0;
#X connect 9 0 15 0;
#X connect 9 1 8 0;
#X connect 10 0 7 1;
#X connect 11 0 6 0;
#X connect 11 1 12 0;
#X connect 12 0 10 0;
#X connect 13 0 14 0;
#X connect 14 0 16 0;
#X connect 16 0 15 1;
#X connect 17 0 20 0;
#X connect 18 0 21 0;
#X connect 18 0 23 0;
#X connect 19 0 18 0;
#X connect 20 0 24 0;
#X connect 20 1 19 0;
#X connect 21 0 18 1;
#X connect 22 0 21 0;
#X connect 23 0 27 0;
#X connect 25 0 24 1;
#X connect 26 0 0 0;
#X connect 26 1 22 0;
#X connect 27 0 25 0;
#X connect 28 0 53 0;
#X connect 28 1 34 0;
#X connect 29 0 32 0;
#X connect 30 0 33 0;
#X connect 30 0 35 0;
#X connect 31 0 30 0;
#X connect 32 0 36 0;
#X connect 32 1 31 0;
#X connect 33 0 30 1;
#X connect 34 0 33 0;
#X connect 35 0 55 0;
#X connect 37 0 36 1;
#X connect 38 0 54 0;
#X connect 38 1 44 0;
#X connect 39 0 42 0;
#X connect 40 0 43 0;
#X connect 40 0 45 0;
#X connect 41 0 40 0;
#X connect 42 0 46 0;
#X connect 42 1 41 0;
#X connect 43 0 40 1;
#X connect 44 0 43 0;
#X connect 45 0 56 0;
#X connect 47 0 46 1;
#X connect 48 0 11 0;
#X connect 49 0 26 0;
#X connect 50 0 28 0;
#X connect 51 0 38 0;
#X connect 52 0 11 0;
#X connect 52 0 28 0;
#X connect 52 0 26 0;
#X connect 52 0 38 0;
#X connect 53 0 29 0;
#X connect 54 0 39 0;
#X connect 55 0 37 0;
#X connect 56 0 47 0;
#X restore 410 141 pd tuning;
#X connect 0 0 1 0;
#X connect 1 0 7 0;
#X connect 2 0 1 0;
#X connect 3 0 5 0;
#X connect 4 0 5 0;
#X connect 5 0 8 0;
#X connect 6 0 3 0;
#X connect 6 0 0 0;
#X connect 6 0 4 0;
#X connect 6 0 2 0;
#X connect 7 0 16 0;
#X connect 8 0 17 0;
#X connect 9 0 16 0;
#X connect 10 0 17 0;
#X connect 11 0 10 1;
#X connect 11 0 9 1;
#X connect 12 0 8 1;
#X connect 13 0 7 1;
#X connect 14 0 6 0;
#X connect 14 0 9 0;
#X connect 15 0 6 0;
#X connect 15 0 10 0;
#X connect 18 0 22 0;
#X connect 19 0 23 0;
#X connect 20 0 25 0;
#X connect 21 0 24 0;
#X connect 22 0 26 0;
#X connect 23 0 27 0;
#X connect 24 0 29 0;
#X connect 25 0 28 0;
#X restore 79 311 pd vfreeverb~;
#X obj 311 267 / 508, f 8;
#X msg 235 74 0;
#X msg 295 87 0;
#X obj 343 222 / 127;
#X obj 311 186 r \$0-reverb;
#X connect 1 0 8 0;
#X connect 1 0 8 1;
#X connect 2 0 7 0;
#X connect 3 0 11 0;
#X connect 3 0 10 0;
#X connect 4 0 8 2;
#X connect 5 0 8 3;
#X connect 6 0 8 5;
#X connect 7 0 8 4;
#X connect 8 0 0 0;
#X connect 8 1 0 0;
#X connect 9 0 2 0;
#X connect 9 0 6 0;
#X connect 10 0 4 0;
#X connect 10 0 6 0;
#X connect 11 0 5 0;
#X connect 12 0 4 0;
#X connect 13 0 9 0;
#X connect 13 0 12 0;
#X restore 41 85 pd reverb;
#X obj 31 326 dac~;
#N canvas 119 125 690 377 bitcrush 0;
#X obj 425 188 samphold~;
#X obj 480 165 phasor~;
#X obj 184 83 inlet~;
#X obj 200 302 outlet~;
#X obj 480 76 expr (127 - $f1) / 127;
#X obj 184 269 *~ 1;
#X obj 225 267 *~ 0;
#X obj 246 143 > 0.95;
#X obj 205 223 line;
#X msg 205 198 \$1 15;
#X obj 246 222 line;
#X msg 246 197 \$1 15;
#X obj 246 171 expr 1 - $f1;
#X obj 480 105 * 4000;
#X obj 480 135 + 3000;
#X obj 480 48 r \$0-bitcrush;
#X connect 0 0 6 0;
#X connect 1 0 0 1;
#X connect 2 0 0 0;
#X connect 2 0 5 0;
#X connect 4 0 7 0;
#X connect 4 0 13 0;
#X connect 5 0 3 0;
#X connect 6 0 3 0;
#X connect 7 0 12 0;
#X connect 7 0 9 0;
#X connect 8 0 5 1;
#X connect 9 0 8 0;
#X connect 10 0 6 1;
#X connect 11 0 10 0;
#X connect 12 0 11 0;
#X connect 13 0 14 0;
#X connect 14 0 1 0;
#X connect 15 0 4 0;
#X restore 41 111 pd bitcrush;
#N canvas 86 238 591 408 ringMod 0;
#X obj 76 360 outlet~;
#X obj 139 318 *~;
#X obj 18 320 *~;
#X obj 179 116 loadbang;
#X msg 179 137 0;
#X obj 18 141 inlet~;
#X obj 33 223 mtof;
#X obj 33 246 osc~;
#X obj 18 271 *~;
#X text 158 10 wet/dry/freq;
#X obj 33 297 line~, f 6;
#X msg 155 191 0 15;
#X msg 242 191 0.5 15;
#X msg 196 191 1 15;
#X obj 154 290 line~;
#X obj 155 162 moses 5;
#X obj 159 36 r \$0-ringMod;
#X connect 1 0 0 0;
#X connect 2 0 0 0;
#X connect 3 0 4 0;
#X connect 4 0 15 0;
#X connect 5 0 8 0;
#X connect 5 0 1 0;
#X connect 6 0 7 0;
#X connect 7 0 8 1;
#X connect 8 0 2 0;
#X connect 10 0 2 1;
#X connect 11 0 10 0;
#X connect 12 0 10 0;
#X connect 12 0 14 0;
#X connect 13 0 14 0;
#X connect 14 0 1 1;
#X connect 15 0 13 0;
#X connect 15 0 11 0;
#X connect 15 1 12 0;
#X connect 16 0 6 0;
#X connect 16 0 15 0;
#X restore 41 137 pd ringMod;
#N canvas 492 210 459 417 delay 0;
#X obj 153 156 vline~;
#X msg 153 135 \$1 200;
#X obj 56 211 inlet~;
#X obj 70 342 outlet~;
#X obj 218 98 / 127;
#X obj 154 47 * 16;
#X obj 191 235 *~ 0;
#X obj 56 296 *~ 0.5;
#X obj 102 296 *~ 0.5;
#X obj 154 20 r \$0-delaytime;
#X obj 218 71 r \$0-feedback;
#X obj 79 237 s~ \$0-drumPitch;
#X obj 245 261 r~ \$0-drumPitch;
#X obj 171 193 vd~ \$0-drumPitch;
#X obj 241 299 delwrite~ \$0-drumPitch 2000;
#X connect 0 0 13 0;
#X connect 1 0 0 0;
#X connect 2 0 7 0;
#X connect 2 0 11 0;
#X connect 4 0 6 1;
#X connect 5 0 1 0;
#X connect 6 0 8 0;
#X connect 6 0 14 0;
#X connect 7 0 3 0;
#X connect 8 0 3 0;
#X connect 9 0 5 0;
#X connect 10 0 4 0;
#X connect 12 0 14 0;
#X connect 13 0 6 0;
#X restore 41 188 pd delay;
#N canvas 158 162 477 481 distortion 0;
#X obj 71 28 inlet~;
#X obj 71 408 outlet~;
#X obj 148 61 *~ 40;
#X obj 148 84 clip~ -0.5 0.5;
#X obj 148 349 *~ 0.3;
#X obj 71 321 *~ 1;
#X obj 148 321 *~ 0;
#X msg 92 275 \$1 15;
#X msg 169 273 \$1 15;
#X obj 92 297 line;
#X obj 169 295 line;
#X obj 169 204 / 127;
#X obj 254 207 expr (127 - $f1) / 127;
#X obj 184 124 r \$0-distortion;
#X connect 0 0 2 0;
#X connect 0 0 5 0;
#X connect 2 0 3 0;
#X connect 3 0 6 0;
#X connect 4 0 1 0;
#X connect 5 0 1 0;
#X connect 6 0 4 0;
#X connect 7 0 9 0;
#X connect 8 0 10 0;
#X connect 9 0 5 1;
#X connect 10 0 6 1;
#X connect 11 0 8 0;
#X connect 12 0 7 0;
#X connect 13 0 11 0;
#X connect 13 0 12 0;
#X restore 41 163 pd distortion;
#X obj 41 295 *~;
#X obj 120 215 / 127;
#X msg 120 241 \$1 15;
#X obj 120 267 line~;
#N canvas 256 150 237 265 init 0;
#X obj 34 39 loadbang;
#X obj 34 71 float \$0;
#X msg 34 103 \; pd dsp 1 \; drumvol 60 \; \$1-reverb-set 50 \; \$1-bitcrush-set
0 \; \$1-ringMod-set 0 \; \$1-distortion-set 20 \; \$1-delaytime-set
30 \; \$1-feedback-set 50 \;;
#X connect 0 0 1 0;
#X connect 1 0 2 0;
#X restore 41 12 pd init;
#X obj 147 165 r closevol;
#X obj 120 190 r \$0-drumvol;
#X connect 0 0 1 0;
#X connect 1 0 3 0;
#X connect 3 0 4 0;
#X connect 4 0 6 0;
#X connect 5 0 7 0;
#X connect 6 0 5 0;
#X connect 7 0 2 0;
#X connect 7 0 2 1;
#X connect 8 0 9 0;
#X connect 9 0 10 0;
#X connect 10 0 7 1;
#X connect 12 0 8 0;
#X connect 13 0 8 0;
#X restore 1094 32 pd FX;
#X obj 591 142 cnv 15 400 550 empty empty empty 20 12 0 14 #82cbd5
#404040 0;
#X text 679 167 reverb;
#X text 836 167 distortion;
#X text 668 298 delay time;
#X text 677 431 feedback;
#X obj 639 188 hsl 128 60 0 127 0 0 \$0-reverb \$0-reverb-set empty
-2 -8 0 10 #027da2 #00314b #000000 0 1;
#X obj 641 319 hsl 128 60 0 127 0 0 \$0-delaytime \$0-delaytime-set
empty -2 -8 0 10 #027da1 #00314b #000000 0 1;
#X obj 642 454 hsl 128 60 0 127 0 0 \$0-feedback \$0-feedback-set empty
-2 -8 0 10 #027da2 #00314b #000000 0 1;
#X obj 810 454 hsl 128 60 0 127 0 0 \$0-ringMod \$0-ringMod-set empty
-2 -8 0 10 #027da2 #00314b #000000 0 1;
#X obj 811 319 hsl 128 60 0 127 0 0 \$0-bitcrush \$0-bitcrush-set empty
-2 -8 0 10 #027da2 #00314b #000000 0 1;
#X obj 810 188 hsl 128 60 0 127 0 0 \$0-distortion \$0-distortion-set
empty -2 -8 0 10 #027da2 #00314b #000000 0 1;
#X text 858 297 crush;
#X text 858 432 ring;
#X obj 209 444 bng 60 250 50 0 \$0-myclick1 \$0-myclick1-set empty
17 7 0 10 #027da1 #00314b #000000;
#X obj 297 443 bng 60 250 50 0 \$0-myclick2 \$0-myclick2-set empty
17 7 0 10 #037da4 #00314b #000000;
#X obj 385 442 bng 60 250 50 0 \$0-myclick3 \$0-myclick3-set empty
17 7 0 10 #037da4 #00314b #000000;
#X text 33 425 record your samples -->;
#X text 75 464 play your samples;
#X obj 233 423 bng 15 250 50 0 \$0-mysound1 \$0-mysound1 empty 17 7
0 10 #5aa4d6 #376ea5 #000000;
#X obj 320 423 bng 15 250 50 0 \$0-mysound2 \$0-mysound2 empty 17 7
0 10 #5aa4d6 #376ea5 #000000;
#X obj 406 422 bng 15 250 50 0 \$0-mysound3 \$0-mysound3 empty 17 7
0 10 #5aa4d6 #376ea5 #000000;
#X text 54 609 try selected samples;
#X text 75 572 select samples-->;
#X obj 229 567 bng 15 250 50 0 \$0-selectsound1 \$0-selectsound1 empty
17 7 0 10 #5aa4d6 #376ea5 #000000;
#X obj 323 567 bng 15 250 50 0 \$0-selectsound2 \$0-selectsound2 empty
17 7 0 10 #5aa4d6 #376ea5 #000000;
#X obj 410 566 bng 15 250 50 0 \$0-selectsound3 \$0-selectsound3 empty
17 7 0 10 #5aa4d6 #376ea5 #000000;
#X obj 208 586 bng 60 250 50 0 \$0-selclick1 \$0-selclick1-set empty
17 7 0 10 #037da4 #00314b #000000;
#X obj 298 586 bng 60 250 50 0 \$0-selclick2 \$0-selclick2-set empty
17 7 0 10 #037da4 #00314b #000000;
#X obj 387 586 bng 60 250 50 0 \$0-selclick3 \$0-selclick3-set empty
17 7 0 10 #037da4 #00314b #000000;
#X floatatom 223 531 5 0 0 0 - \$0-counter1 \$0-counter1-s 0;
#X text 89 530 recording in...;
#X floatatom 313 531 5 0 0 0 - \$0-counter2 \$0-counter2-s 0;
#X floatatom 400 531 5 0 0 0 - \$0-counter3 \$0-counter3-s 0;
#N canvas 183 93 442 261 FXpresets 0;
#X obj 40 52 r \$0-preset1-s;
#X obj 40 87 float \$0;
#X msg 40 116 \; \$1-reverb-set 80 \; \$1-delaytime-set 30 \; \$1-feedback-set
30 \; \$1-distortion-set 0 \; \$1-bitcrush-set 0 \; \$1-ringMod-set
0 \;;
#X obj 233 89 float \$0;
#X obj 233 54 r \$0-preset2-s;
#X msg 233 118 \; \$1-reverb-set 0 \; \$1-delaytime-set 0 \; \$1-feedback-set
0 \; \$1-distortion-set 20 \; \$1-bitcrush-set 30 \; \$1-ringMod-set
40 \;;
#X connect 0 0 1 0;
#X connect 1 0 2 0;
#X connect 3 0 5 0;
#X connect 4 0 3 0;
#X restore 1094 54 pd FXpresets;
#X text 233 509 I;
#X text 322 507 O;
#X text 412 505 P;
#X text 231 650 B;
#X text 322 650 N;
#X text 410 651 M;
#X obj 10 10 cnv 15 1080 100 empty empty empty 20 12 0 14 #5aa4d6 #404040
0;
#X obj 216 26 hradio 60 1 0 4 \$0-drumkit \$0-drumkit empty 0 -8 0
10 #00314b #037da4 #000000 0;
#X text 147 47 drum kit;
#X text 621 47 drum volume;
#X text 242 89 A;
#X text 301 88 B;
#X text 361 88 C;
#X text 422 88 D;
#X obj 714 28 hsl 235 60 0 127 0 0 \$0-drumvol drumvol empty -2 -8
0 10 #00314b #037da4 #000000 0 1;
#X obj 682 561 bng 60 250 50 0 \$0-preset1-s \$0-preset1-r empty 17
7 0 10 #00314b #037da4 #091418;
#X obj 851 562 bng 60 250 50 0 \$0-preset2-s \$0-preset2-r empty 17
7 0 10 #00314b #037da4 #000000;
#X text 680 636 preset 1;
#X text 851 635 preset 2;
#X coords 0 -1 1 1 1080 720 1 10 10;
