#N canvas 910 277 596 451 12;
#X obj 97 344 pack 0 0 0 0 0 0 0 0 0 0 0 0 0 0 0 0;
#X obj 97 51 r \$2-stepAct-\$1-0;
#X obj 113 76 r \$2-stepAct-\$1-1;
#X obj 130 101 r \$2-stepAct-\$1-2;
#X obj 146 125 r \$2-stepAct-\$1-3;
#X obj 163 151 r \$2-stepAct-\$1-4;
#X obj 180 176 r \$2-stepAct-\$1-5;
#X obj 196 201 r \$2-stepAct-\$1-6;
#X obj 213 225 r \$2-stepAct-\$1-7;
#X obj 230 40 r \$2-stepAct-\$1-8;
#X obj 246 65 r \$2-stepAct-\$1-9;
#X obj 263 90 r \$2-stepAct-\$1-10;
#X obj 279 114 r \$2-stepAct-\$1-11;
#X obj 296 140 r \$2-stepAct-\$1-12;
#X obj 312 165 r \$2-stepAct-\$1-13;
#X obj 329 190 r \$2-stepAct-\$1-14;
#X obj 346 214 r \$2-stepAct-\$1-15;
#X obj 97 371 outlet;
#X obj 42 46 inlet;
#X connect 0 0 17 0;
#X connect 1 0 0 0;
#X connect 2 0 0 1;
#X connect 3 0 0 2;
#X connect 4 0 0 3;
#X connect 5 0 0 4;
#X connect 6 0 0 5;
#X connect 7 0 0 6;
#X connect 8 0 0 7;
#X connect 9 0 0 8;
#X connect 10 0 0 9;
#X connect 11 0 0 10;
#X connect 12 0 0 11;
#X connect 13 0 0 12;
#X connect 14 0 0 13;
#X connect 15 0 0 14;
#X connect 16 0 0 15;
#X connect 18 0 0 0;
