#N canvas 63 88 1280 802 12;
#X obj 25 32 r \$0-stepAct-0-0-s;
#X obj 78 55 r \$0-int;
#X obj 25 81 pack 0 0;
#X obj 25 112 line 0 50;
#X obj 25 141 s \$0-stepAct-0-0;
#X obj 217 55 r \$0-int;
#X obj 164 81 pack 0 0;
#X obj 164 112 line 0 50;
#X obj 164 32 r \$0-stepAct-0-1-s;
#X obj 164 141 s \$0-stepAct-0-1;
#X obj 355 55 r \$0-int;
#X obj 302 81 pack 0 0;
#X obj 302 112 line 0 50;
#X obj 494 55 r \$0-int;
#X obj 441 81 pack 0 0;
#X obj 441 112 line 0 50;
#X obj 302 32 r \$0-stepAct-0-2-s;
#X obj 302 141 s \$0-stepAct-0-2;
#X obj 441 32 r \$0-stepAct-0-3-s;
#X obj 441 141 s \$0-stepAct-0-3;
#X obj 628 55 r \$0-int;
#X obj 575 81 pack 0 0;
#X obj 575 112 line 0 50;
#X obj 767 55 r \$0-int;
#X obj 714 81 pack 0 0;
#X obj 714 112 line 0 50;
#X obj 905 55 r \$0-int;
#X obj 852 81 pack 0 0;
#X obj 852 112 line 0 50;
#X obj 1044 55 r \$0-int;
#X obj 991 81 pack 0 0;
#X obj 991 112 line 0 50;
#X obj 575 32 r \$0-stepAct-0-4-s;
#X obj 575 141 s \$0-stepAct-0-4;
#X obj 714 32 r \$0-stepAct-0-5-s;
#X obj 714 141 s \$0-stepAct-0-5;
#X obj 852 32 r \$0-stepAct-0-6-s;
#X obj 852 141 s \$0-stepAct-0-6;
#X obj 991 32 r \$0-stepAct-0-7-s;
#X obj 991 141 s \$0-stepAct-0-7;
#X obj 78 205 r \$0-int;
#X obj 25 231 pack 0 0;
#X obj 25 262 line 0 50;
#X obj 217 205 r \$0-int;
#X obj 164 231 pack 0 0;
#X obj 164 262 line 0 50;
#X obj 355 205 r \$0-int;
#X obj 302 231 pack 0 0;
#X obj 302 262 line 0 50;
#X obj 494 205 r \$0-int;
#X obj 441 231 pack 0 0;
#X obj 441 262 line 0 50;
#X obj 638 205 r \$0-int;
#X obj 585 231 pack 0 0;
#X obj 585 262 line 0 50;
#X obj 787 205 r \$0-int;
#X obj 734 231 pack 0 0;
#X obj 734 262 line 0 50;
#X obj 935 205 r \$0-int;
#X obj 882 231 pack 0 0;
#X obj 882 262 line 0 50;
#X obj 1077 205 r \$0-int;
#X obj 1024 231 pack 0 0;
#X obj 1024 262 line 0 50;
#X obj 25 182 r \$0-stepAct-0-8-s;
#X obj 25 291 s \$0-stepAct-0-8;
#X obj 164 182 r \$0-stepAct-0-9-s;
#X obj 164 291 s \$0-stepAct-0-9;
#X obj 302 182 r \$0-stepAct-0-10-s;
#X obj 302 291 s \$0-stepAct-0-10;
#X obj 441 182 r \$0-stepAct-0-11-s;
#X obj 441 291 s \$0-stepAct-0-11;
#X obj 585 182 r \$0-stepAct-0-12-s;
#X obj 585 291 s \$0-stepAct-0-12;
#X obj 734 182 r \$0-stepAct-0-13-s;
#X obj 734 291 s \$0-stepAct-0-13;
#X obj 882 182 r \$0-stepAct-0-14-s;
#X obj 882 291 s \$0-stepAct-0-14;
#X obj 1024 182 r \$0-stepAct-0-15-s;
#X obj 1024 291 s \$0-stepAct-0-15;
#X obj 30 415 unpack 0 0 0 0 0 0 0 0 0 0 0 0 0 0 0 0;
#X obj 30 443 s \$0-stepAct-0-0-r;
#X obj 320 388 r \$0-presets;
#X obj 320 415 unpack 0 0 0 0 0 0 0 0 0 0 0 0 0 0 0 0;
#X obj 600 388 r \$0-presets;
#X obj 600 415 unpack 0 0 0 0 0 0 0 0 0 0 0 0 0 0 0 0;
#X obj 880 388 r \$0-presets;
#X obj 880 415 unpack 0 0 0 0 0 0 0 0 0 0 0 0 0 0 0 0;
#X obj 337 441 s \$0-stepAct-0-1-r;
#X obj 635 441 s \$0-stepAct-0-2-r;
#X obj 932 440 s \$0-stepAct-0-3-r;
#X obj 30 478 r \$0-presets;
#X obj 30 505 unpack 0 0 0 0 0 0 0 0 0 0 0 0 0 0 0 0;
#X obj 320 478 r \$0-presets;
#X obj 320 505 unpack 0 0 0 0 0 0 0 0 0 0 0 0 0 0 0 0;
#X obj 600 478 r \$0-presets;
#X obj 600 505 unpack 0 0 0 0 0 0 0 0 0 0 0 0 0 0 0 0;
#X obj 880 478 r \$0-presets;
#X obj 880 505 unpack 0 0 0 0 0 0 0 0 0 0 0 0 0 0 0 0;
#X obj 30 568 r \$0-presets;
#X obj 30 595 unpack 0 0 0 0 0 0 0 0 0 0 0 0 0 0 0 0;
#X obj 320 568 r \$0-presets;
#X obj 320 595 unpack 0 0 0 0 0 0 0 0 0 0 0 0 0 0 0 0;
#X obj 600 568 r \$0-presets;
#X obj 600 595 unpack 0 0 0 0 0 0 0 0 0 0 0 0 0 0 0 0;
#X obj 880 568 r \$0-presets;
#X obj 880 595 unpack 0 0 0 0 0 0 0 0 0 0 0 0 0 0 0 0;
#X obj 30 658 r \$0-presets;
#X obj 30 685 unpack 0 0 0 0 0 0 0 0 0 0 0 0 0 0 0 0;
#X obj 320 658 r \$0-presets;
#X obj 320 685 unpack 0 0 0 0 0 0 0 0 0 0 0 0 0 0 0 0;
#X obj 600 658 r \$0-presets;
#X obj 600 685 unpack 0 0 0 0 0 0 0 0 0 0 0 0 0 0 0 0;
#X obj 880 658 r \$0-presets;
#X obj 880 685 unpack 0 0 0 0 0 0 0 0 0 0 0 0 0 0 0 0;
#X obj 100 532 s \$0-stepAct-0-4-r;
#X obj 407 531 s \$0-stepAct-0-5-r;
#X obj 705 531 s \$0-stepAct-0-6-r;
#X obj 1002 530 s \$0-stepAct-0-7-r;
#X obj 170 622 s \$0-stepAct-0-8-r;
#X obj 477 619 s \$0-stepAct-0-9-r;
#X obj 775 621 s \$0-stepAct-0-10-r;
#X obj 1072 619 s \$0-stepAct-0-11-r;
#X obj 240 713 s \$0-stepAct-0-12-r;
#X obj 547 711 s \$0-stepAct-0-13-r;
#X obj 845 710 s \$0-stepAct-0-14-r;
#X obj 1070 712 s \$0-stepAct-0-15-r;
#X obj 30 388 r \$0-presets;
#X connect 0 0 2 0;
#X connect 1 0 2 1;
#X connect 2 0 3 0;
#X connect 3 0 4 0;
#X connect 5 0 6 1;
#X connect 6 0 7 0;
#X connect 7 0 9 0;
#X connect 8 0 6 0;
#X connect 10 0 11 1;
#X connect 11 0 12 0;
#X connect 12 0 17 0;
#X connect 13 0 14 1;
#X connect 14 0 15 0;
#X connect 15 0 19 0;
#X connect 16 0 11 0;
#X connect 18 0 14 0;
#X connect 20 0 21 1;
#X connect 21 0 22 0;
#X connect 22 0 33 0;
#X connect 23 0 24 1;
#X connect 24 0 25 0;
#X connect 25 0 35 0;
#X connect 26 0 27 1;
#X connect 27 0 28 0;
#X connect 28 0 37 0;
#X connect 29 0 30 1;
#X connect 30 0 31 0;
#X connect 31 0 39 0;
#X connect 32 0 21 0;
#X connect 34 0 24 0;
#X connect 36 0 27 0;
#X connect 38 0 30 0;
#X connect 40 0 41 1;
#X connect 41 0 42 0;
#X connect 42 0 65 0;
#X connect 43 0 44 1;
#X connect 44 0 45 0;
#X connect 45 0 67 0;
#X connect 46 0 47 1;
#X connect 47 0 48 0;
#X connect 48 0 69 0;
#X connect 49 0 50 1;
#X connect 50 0 51 0;
#X connect 51 0 71 0;
#X connect 52 0 53 1;
#X connect 53 0 54 0;
#X connect 54 0 73 0;
#X connect 55 0 56 1;
#X connect 56 0 57 0;
#X connect 57 0 75 0;
#X connect 58 0 59 1;
#X connect 59 0 60 0;
#X connect 60 0 77 0;
#X connect 61 0 62 1;
#X connect 62 0 63 0;
#X connect 63 0 79 0;
#X connect 64 0 41 0;
#X connect 66 0 44 0;
#X connect 68 0 47 0;
#X connect 70 0 50 0;
#X connect 72 0 53 0;
#X connect 74 0 56 0;
#X connect 76 0 59 0;
#X connect 78 0 62 0;
#X connect 80 0 81 0;
#X connect 82 0 83 0;
#X connect 83 1 88 0;
#X connect 84 0 85 0;
#X connect 85 2 89 0;
#X connect 86 0 87 0;
#X connect 87 3 90 0;
#X connect 91 0 92 0;
#X connect 92 4 115 0;
#X connect 93 0 94 0;
#X connect 94 5 116 0;
#X connect 95 0 96 0;
#X connect 96 6 117 0;
#X connect 97 0 98 0;
#X connect 98 7 118 0;
#X connect 99 0 100 0;
#X connect 100 8 119 0;
#X connect 101 0 102 0;
#X connect 102 9 120 0;
#X connect 103 0 104 0;
#X connect 104 10 121 0;
#X connect 105 0 106 0;
#X connect 106 11 122 0;
#X connect 107 0 108 0;
#X connect 108 12 123 0;
#X connect 109 0 110 0;
#X connect 110 13 124 0;
#X connect 111 0 112 0;
#X connect 112 14 125 0;
#X connect 113 0 114 0;
#X connect 114 15 126 0;
#X connect 127 0 80 0;
