#N canvas 80 25 1434 836 12;
#X obj 25 141 s \$2-stepAct-\$1-0;
#X obj 174 141 s \$2-stepAct-\$1-1;
#X obj 322 141 s \$2-stepAct-\$1-2;
#X obj 471 32 r \$2-stepAct-\$1-3-s;
#X obj 471 141 s \$2-stepAct-\$1-3;
#X obj 615 32 r \$2-stepAct-\$1-4-s;
#X obj 615 141 s \$2-stepAct-\$1-4;
#X obj 764 32 r \$2-stepAct-\$1-5-s;
#X obj 764 141 s \$2-stepAct-\$1-5;
#X obj 912 32 r \$2-stepAct-\$1-6-s;
#X obj 912 141 s \$2-stepAct-\$1-6;
#X obj 1061 32 r \$2-stepAct-\$1-7-s;
#X obj 1061 141 s \$2-stepAct-\$1-7;
#X obj 25 182 r \$2-stepAct-\$1-8-s;
#X obj 25 291 s \$2-stepAct-\$1-8;
#X obj 174 182 r \$2-stepAct-\$1-9-s;
#X obj 174 291 s \$2-stepAct-\$1-9;
#X obj 322 182 r \$2-stepAct-\$1-10-s;
#X obj 322 291 s \$2-stepAct-\$1-10;
#X obj 471 182 r \$2-stepAct-\$1-11-s;
#X obj 471 291 s \$2-stepAct-\$1-11;
#X obj 625 182 r \$2-stepAct-\$1-12-s;
#X obj 625 291 s \$2-stepAct-\$1-12;
#X obj 774 182 r \$2-stepAct-\$1-13-s;
#X obj 774 291 s \$2-stepAct-\$1-13;
#X obj 922 182 r \$2-stepAct-\$1-14-s;
#X obj 922 291 s \$2-stepAct-\$1-14;
#X obj 1074 182 r \$2-stepAct-\$1-15-s;
#X obj 1074 291 s \$2-stepAct-\$1-15;
#X obj 30 415 unpack 0 0 0 0 0 0 0 0 0 0 0 0 0 0 0 0;
#X obj 30 443 s \$2-stepAct-\$1-0-r;
#X obj 320 415 unpack 0 0 0 0 0 0 0 0 0 0 0 0 0 0 0 0;
#X obj 600 415 unpack 0 0 0 0 0 0 0 0 0 0 0 0 0 0 0 0;
#X obj 880 415 unpack 0 0 0 0 0 0 0 0 0 0 0 0 0 0 0 0;
#X obj 337 441 s \$2-stepAct-\$1-1-r;
#X obj 635 441 s \$2-stepAct-\$1-2-r;
#X obj 932 440 s \$2-stepAct-\$1-3-r;
#X obj 30 505 unpack 0 0 0 0 0 0 0 0 0 0 0 0 0 0 0 0;
#X obj 320 505 unpack 0 0 0 0 0 0 0 0 0 0 0 0 0 0 0 0;
#X obj 600 505 unpack 0 0 0 0 0 0 0 0 0 0 0 0 0 0 0 0;
#X obj 880 505 unpack 0 0 0 0 0 0 0 0 0 0 0 0 0 0 0 0;
#X obj 30 595 unpack 0 0 0 0 0 0 0 0 0 0 0 0 0 0 0 0;
#X obj 320 595 unpack 0 0 0 0 0 0 0 0 0 0 0 0 0 0 0 0;
#X obj 600 595 unpack 0 0 0 0 0 0 0 0 0 0 0 0 0 0 0 0;
#X obj 880 595 unpack 0 0 0 0 0 0 0 0 0 0 0 0 0 0 0 0;
#X obj 30 685 unpack 0 0 0 0 0 0 0 0 0 0 0 0 0 0 0 0;
#X obj 320 685 unpack 0 0 0 0 0 0 0 0 0 0 0 0 0 0 0 0;
#X obj 600 685 unpack 0 0 0 0 0 0 0 0 0 0 0 0 0 0 0 0;
#X obj 880 685 unpack 0 0 0 0 0 0 0 0 0 0 0 0 0 0 0 0;
#X obj 100 532 s \$2-stepAct-\$1-4-r;
#X obj 407 531 s \$2-stepAct-\$1-5-r;
#X obj 705 531 s \$2-stepAct-\$1-6-r;
#X obj 1002 530 s \$2-stepAct-\$1-7-r;
#X obj 170 622 s \$2-stepAct-\$1-8-r;
#X obj 477 619 s \$2-stepAct-\$1-9-r;
#X obj 775 621 s \$2-stepAct-\$1-10-r;
#X obj 1072 619 s \$2-stepAct-\$1-11-r;
#X obj 240 713 s \$2-stepAct-\$1-12-r;
#X obj 547 711 s \$2-stepAct-\$1-13-r;
#X obj 845 710 s \$2-stepAct-\$1-14-r;
#X obj 1143 712 s \$2-stepAct-\$1-15-r;
#X obj 174 32 r \$2-stepAct-\$1-1-s;
#X obj 322 32 r \$2-stepAct-\$1-2-s;
#X obj 25 32 r \$2-stepAct-\$1-0-s;
#X obj 1147 205 r \$2-int;
#X obj 1094 231 pack 0 0;
#X obj 1094 262 line 0 50;
#X text 1171 242 dont' understand what it does?;
#X obj 30 388 r \$2-presets-\$1;
#X obj 320 388 r \$2-presets-\$1;
#X obj 600 388 r \$2-presets-\$1;
#X obj 880 388 r \$2-presets-\$1;
#X obj 880 478 r \$2-presets-\$1;
#X obj 600 478 r \$2-presets-\$1;
#X obj 320 478 r \$2-presets-\$1;
#X obj 30 478 r \$2-presets-\$1;
#X obj 30 568 r \$2-presets-\$1;
#X obj 320 568 r \$2-presets-\$1;
#X obj 600 568 r \$2-presets-\$1;
#X obj 880 568 r \$2-presets-\$1;
#X obj 880 658 r \$2-presets-\$1;
#X obj 600 658 r \$2-presets-\$1;
#X obj 320 658 r \$2-presets-\$1;
#X obj 30 658 r \$2-presets-\$1;
#X connect 3 0 4 0;
#X connect 5 0 6 0;
#X connect 7 0 8 0;
#X connect 9 0 10 0;
#X connect 11 0 12 0;
#X connect 13 0 14 0;
#X connect 15 0 16 0;
#X connect 17 0 18 0;
#X connect 19 0 20 0;
#X connect 21 0 22 0;
#X connect 23 0 24 0;
#X connect 25 0 26 0;
#X connect 27 0 28 0;
#X connect 29 0 30 0;
#X connect 31 1 34 0;
#X connect 32 2 35 0;
#X connect 33 3 36 0;
#X connect 37 4 49 0;
#X connect 38 5 50 0;
#X connect 39 6 51 0;
#X connect 40 7 52 0;
#X connect 41 8 53 0;
#X connect 42 9 54 0;
#X connect 43 10 55 0;
#X connect 44 11 56 0;
#X connect 45 12 57 0;
#X connect 46 13 58 0;
#X connect 47 14 59 0;
#X connect 48 15 60 0;
#X connect 61 0 1 0;
#X connect 62 0 2 0;
#X connect 63 0 0 0;
#X connect 64 0 65 1;
#X connect 65 0 66 0;
#X connect 68 0 29 0;
#X connect 69 0 31 0;
#X connect 70 0 32 0;
#X connect 71 0 33 0;
#X connect 72 0 40 0;
#X connect 73 0 39 0;
#X connect 74 0 38 0;
#X connect 75 0 37 0;
#X connect 76 0 41 0;
#X connect 77 0 42 0;
#X connect 78 0 43 0;
#X connect 79 0 44 0;
#X connect 80 0 48 0;
#X connect 81 0 47 0;
#X connect 82 0 46 0;
#X connect 83 0 45 0;
