#N canvas 75 25 1330 777 12;
#X obj 10 10 cnv 15 1080 720 empty empty empty 20 12 0 14 #cddcdc #404040
0;
#X obj 117 148 cnv 15 400 550 empty empty empty 20 12 0 14 #82ccd6
#404040 0;
#X obj 166 233 tgl 40 0 \$0-c \$0-1c empty 17 7 0 10 #ffffff #000000
#000000 0 1;
#X obj 210 233 tgl 40 0 \$0-d \$0-2d empty 17 7 0 10 #ffffff #000000
#000000 0 1;
#X obj 254 233 tgl 40 0 \$0-e \$0-3e empty 17 7 0 10 #ffffff #000000
#000000 0 1;
#X obj 298 233 tgl 40 0 \$0-fN \$0-4fN empty 17 7 0 10 #ffffff #000000
#000000 0 1;
#X obj 342 233 tgl 40 0 \$0-g \$0-5g empty 17 7 0 10 #ffffff #000000
#000000 0 1;
#X obj 386 233 tgl 40 0 \$0-a \$0-6a empty 17 7 0 10 #ffffff #000000
#000000 0 1;
#X obj 430 233 tgl 40 0 \$0-b \$0-7b empty 17 7 0 10 #ffffff #000000
#000000 0 1;
#X obj 411 189 tgl 40 0 \$0-aS \$0-paS empty 17 7 0 10 #606060 #000000
#000000 0 1;
#X obj 367 189 tgl 40 0 \$0-gS \$0-ogS empty 17 7 0 10 #606060 #000000
#000000 0 1;
#X obj 323 189 tgl 40 0 \$0-fs \$0-ifs empty 17 7 0 10 #606060 #000000
#000000 0 1;
#X obj 234 189 tgl 40 0 \$0-dS \$0-udS empty 17 7 0 10 #606060 #000000
#000000 0 1;
#X obj 190 189 tgl 40 0 \$0-cS \$0-ycS empty 17 7 0 10 #606060 #000000
#000000 0 1;
#X text 206 314 attack;
#X text 203 391 release;
#X text 213 472 shape;
#X text 348 392 vibrato rate;
#X text 377 471 glide;
#X obj 169 339 hsl 128 15 0 127 0 0 \$0-attack \$0-attack empty -2
-8 0 10 #9bd1d1 #000000 #000000 0 1;
#X obj 170 419 hsl 128 15 0 127 0 0 \$0-release \$0-release empty -2
-8 0 10 #9bd1d1 #000000 #000000 0 1;
#X obj 170 497 hsl 128 15 0 127 0 0 \$0-synthshape \$0-synthshape empty
-2 -8 0 10 #9bd1d1 #000000 #000000 0 1;
#X obj 330 339 hsl 128 15 0 127 0 0 \$0-index \$0-index empty -2 -8
0 10 #9bd1d0 #000000 #000000 0 1;
#X obj 330 419 hsl 128 15 0 127 0 0 \$0-synthrate \$0-synthrate empty
-2 -8 0 10 #9bd1cf #000000 #000000 0 1;
#X obj 331 497 hsl 128 15 0 127 0 0 \$0-glide \$0-glide empty -2 -8
0 10 #9bd0ce #000000 #000000 0 1;
#X text 363 315 vibrato;
#N canvas 742 25 683 715 keys 0;
#X obj 40 230 s \$0-1c;
#X obj 39 37 key;
#X obj 39 60 select 49;
#X obj 113 37 keyup;
#X obj 113 60 select 49;
#X obj 39 83 t b b;
#X msg 71 108 stop;
#X obj 40 205 change;
#X obj 113 144 delay 50;
#X msg 39 108 1;
#X msg 113 168 0;
#X listbox 77 10 20 0 0 0 - - - 0;
#X obj 189 37 key;
#X obj 263 37 keyup;
#X obj 189 83 t b b;
#X msg 221 108 stop;
#X obj 190 205 change;
#X obj 263 144 delay 50;
#X msg 189 108 1;
#X msg 263 168 0;
#X obj 339 36 key;
#X obj 413 36 keyup;
#X obj 339 82 t b b;
#X msg 371 107 stop;
#X obj 340 204 change;
#X obj 413 143 delay 50;
#X msg 339 107 1;
#X msg 413 167 0;
#X obj 488 36 key;
#X obj 562 36 keyup;
#X obj 488 82 t b b;
#X msg 520 107 stop;
#X obj 489 204 change;
#X obj 562 143 delay 50;
#X msg 488 107 1;
#X msg 562 167 0;
#X obj 40 264 key;
#X obj 114 264 keyup;
#X obj 40 310 t b b;
#X msg 72 335 stop;
#X obj 41 432 change;
#X obj 114 371 delay 50;
#X msg 40 335 1;
#X msg 114 395 0;
#X obj 190 264 key;
#X obj 264 264 keyup;
#X obj 190 310 t b b;
#X msg 222 335 stop;
#X obj 191 432 change;
#X obj 264 371 delay 50;
#X msg 190 335 1;
#X msg 264 395 0;
#X obj 340 263 key;
#X obj 414 263 keyup;
#X obj 340 309 t b b;
#X msg 372 334 stop;
#X obj 341 431 change;
#X obj 414 370 delay 50;
#X msg 340 334 1;
#X msg 414 394 0;
#X obj 489 263 key;
#X obj 563 263 keyup;
#X obj 489 309 t b b;
#X msg 521 334 stop;
#X obj 490 431 change;
#X obj 563 370 delay 50;
#X msg 489 334 1;
#X msg 563 394 0;
#X obj 39 491 key;
#X obj 113 491 keyup;
#X obj 39 537 t b b;
#X msg 71 562 stop;
#X obj 40 659 change;
#X obj 113 598 delay 50;
#X msg 39 562 1;
#X msg 113 622 0;
#X obj 189 491 key;
#X obj 263 491 keyup;
#X obj 189 537 t b b;
#X msg 221 562 stop;
#X obj 190 659 change;
#X obj 263 598 delay 50;
#X msg 189 562 1;
#X msg 263 622 0;
#X obj 339 490 key;
#X obj 413 490 keyup;
#X obj 339 536 t b b;
#X msg 371 561 stop;
#X obj 340 658 change;
#X obj 413 597 delay 50;
#X msg 339 561 1;
#X msg 413 621 0;
#X obj 488 490 key;
#X obj 562 490 keyup;
#X obj 488 536 t b b;
#X msg 520 561 stop;
#X obj 489 658 change;
#X obj 562 597 delay 50;
#X msg 488 561 1;
#X msg 562 621 0;
#X obj 189 60 select 50;
#X obj 263 60 select 50;
#X obj 339 59 select 51;
#X obj 413 59 select 51;
#X obj 488 59 select 52;
#X obj 562 59 select 52;
#X obj 40 287 select 53;
#X obj 114 287 select 53;
#X obj 190 287 select 54;
#X obj 264 287 select 54;
#X obj 340 286 select 55;
#X obj 414 286 select 55;
#X obj 489 286 select 121;
#X obj 563 286 select 121;
#X obj 39 514 select 117;
#X obj 113 514 select 117;
#X obj 189 514 select 105;
#X obj 263 514 select 105;
#X obj 339 513 select 111;
#X obj 413 513 select 111;
#X obj 488 513 select 112;
#X obj 562 513 select 112;
#X obj 190 230 s \$0-2d;
#X obj 340 229 s \$0-3e;
#X obj 489 229 s \$0-4fN;
#X obj 41 457 s \$0-5g;
#X obj 191 457 s \$0-6a;
#X obj 341 456 s \$0-7b;
#X obj 490 456 s \$0-ycS;
#X obj 40 684 s \$0-udS;
#X obj 190 684 s \$0-ifs;
#X obj 340 683 s \$0-ogS;
#X obj 489 683 s \$0-paS;
#X connect 1 0 2 0;
#X connect 1 0 11 0;
#X connect 2 0 5 0;
#X connect 3 0 4 0;
#X connect 4 0 8 0;
#X connect 5 0 9 0;
#X connect 5 1 6 0;
#X connect 6 0 8 0;
#X connect 7 0 0 0;
#X connect 8 0 10 0;
#X connect 9 0 7 0;
#X connect 10 0 7 0;
#X connect 12 0 100 0;
#X connect 13 0 101 0;
#X connect 14 0 18 0;
#X connect 14 1 15 0;
#X connect 15 0 17 0;
#X connect 16 0 122 0;
#X connect 17 0 19 0;
#X connect 18 0 16 0;
#X connect 19 0 16 0;
#X connect 20 0 102 0;
#X connect 21 0 103 0;
#X connect 22 0 26 0;
#X connect 22 1 23 0;
#X connect 23 0 25 0;
#X connect 24 0 123 0;
#X connect 25 0 27 0;
#X connect 26 0 24 0;
#X connect 27 0 24 0;
#X connect 28 0 104 0;
#X connect 29 0 105 0;
#X connect 30 0 34 0;
#X connect 30 1 31 0;
#X connect 31 0 33 0;
#X connect 32 0 124 0;
#X connect 33 0 35 0;
#X connect 34 0 32 0;
#X connect 35 0 32 0;
#X connect 36 0 106 0;
#X connect 37 0 107 0;
#X connect 38 0 42 0;
#X connect 38 1 39 0;
#X connect 39 0 41 0;
#X connect 40 0 125 0;
#X connect 41 0 43 0;
#X connect 42 0 40 0;
#X connect 43 0 40 0;
#X connect 44 0 108 0;
#X connect 45 0 109 0;
#X connect 46 0 50 0;
#X connect 46 1 47 0;
#X connect 47 0 49 0;
#X connect 48 0 126 0;
#X connect 49 0 51 0;
#X connect 50 0 48 0;
#X connect 51 0 48 0;
#X connect 52 0 110 0;
#X connect 53 0 111 0;
#X connect 54 0 58 0;
#X connect 54 1 55 0;
#X connect 55 0 57 0;
#X connect 56 0 127 0;
#X connect 57 0 59 0;
#X connect 58 0 56 0;
#X connect 59 0 56 0;
#X connect 60 0 112 0;
#X connect 61 0 113 0;
#X connect 62 0 66 0;
#X connect 62 1 63 0;
#X connect 63 0 65 0;
#X connect 64 0 128 0;
#X connect 65 0 67 0;
#X connect 66 0 64 0;
#X connect 67 0 64 0;
#X connect 68 0 114 0;
#X connect 69 0 115 0;
#X connect 70 0 74 0;
#X connect 70 1 71 0;
#X connect 71 0 73 0;
#X connect 72 0 129 0;
#X connect 73 0 75 0;
#X connect 74 0 72 0;
#X connect 75 0 72 0;
#X connect 76 0 116 0;
#X connect 77 0 117 0;
#X connect 78 0 82 0;
#X connect 78 1 79 0;
#X connect 79 0 81 0;
#X connect 80 0 130 0;
#X connect 81 0 83 0;
#X connect 82 0 80 0;
#X connect 83 0 80 0;
#X connect 84 0 118 0;
#X connect 85 0 119 0;
#X connect 86 0 90 0;
#X connect 86 1 87 0;
#X connect 87 0 89 0;
#X connect 88 0 131 0;
#X connect 89 0 91 0;
#X connect 90 0 88 0;
#X connect 91 0 88 0;
#X connect 92 0 120 0;
#X connect 93 0 121 0;
#X connect 94 0 98 0;
#X connect 94 1 95 0;
#X connect 95 0 97 0;
#X connect 96 0 132 0;
#X connect 97 0 99 0;
#X connect 98 0 96 0;
#X connect 99 0 96 0;
#X connect 100 0 14 0;
#X connect 101 0 17 0;
#X connect 102 0 22 0;
#X connect 103 0 25 0;
#X connect 104 0 30 0;
#X connect 105 0 33 0;
#X connect 106 0 38 0;
#X connect 107 0 41 0;
#X connect 108 0 46 0;
#X connect 109 0 49 0;
#X connect 110 0 54 0;
#X connect 111 0 57 0;
#X connect 112 0 62 0;
#X connect 113 0 65 0;
#X connect 114 0 70 0;
#X connect 115 0 73 0;
#X connect 116 0 78 0;
#X connect 117 0 81 0;
#X connect 118 0 86 0;
#X connect 119 0 89 0;
#X connect 120 0 94 0;
#X connect 121 0 97 0;
#X restore 1095 10 pd keys;
#N canvas 773 238 246 356 FX 1;
#N canvas 394 119 652 394 keyboard 0;
#X obj 25 38 poly 4 1;
#X obj 25 63 pack 0 0 0;
#X obj 25 88 route 1 2 3 4;
#N canvas 0 25 1176 620 note 0;
#X obj 39 260 select 1, f 9;
#X obj 129 260 select 1, f 9;
#X obj 219 260 select 1, f 9;
#X obj 583 568 outlet;
#X obj 319 260 select 1, f 9;
#X obj 419 260 select 1, f 9;
#X obj 509 260 select 1, f 9;
#X obj 599 260 select 1, f 9;
#X obj 689 260 select 1, f 9;
#X obj 789 260 select 1, f 9;
#X obj 879 260 select 1, f 9;
#X obj 969 260 select 1, f 9;
#X obj 1059 260 select 1, f 9;
#X msg 39 383 \$1 127;
#X msg 90 383 \$1 0;
#X obj 39 344 60;
#X obj 90 344 60;
#X obj 180 315 bng 15 250 50 0 empty empty empty 17 7 0 10 #fcfcfc
#000000 #000000;
#X msg 129 383 \$1 127;
#X msg 180 383 \$1 0;
#X obj 180 344 61;
#X obj 129 344 61;
#X msg 219 383 \$1 127;
#X msg 270 383 \$1 0;
#X msg 319 383 \$1 127;
#X msg 370 383 \$1 0;
#X obj 270 315 bng 15 250 50 0 empty empty empty 17 7 0 10 #fcfcfc
#000000 #000000;
#X obj 219 344 62;
#X obj 270 344 62;
#X obj 370 315 bng 15 250 50 0 empty empty empty 17 7 0 10 #fcfcfc
#000000 #000000;
#X obj 319 344 63;
#X obj 370 344 63;
#X obj 470 315 bng 15 250 50 0 empty empty empty 17 7 0 10 #fcfcfc
#000000 #000000;
#X msg 419 383 \$1 127;
#X msg 470 383 \$1 0;
#X obj 419 344 64;
#X obj 470 344 64;
#X obj 560 315 bng 15 250 50 0 empty empty empty 17 7 0 10 #fcfcfc
#000000 #000000;
#X obj 509 344 65;
#X obj 560 344 65;
#X msg 509 383 \$1 127;
#X msg 560 383 \$1 0;
#X obj 650 315 bng 15 250 50 0 empty empty empty 17 7 0 10 #fcfcfc
#000000 #000000;
#X msg 599 383 \$1 127;
#X msg 650 383 \$1 0;
#X obj 599 344 66;
#X obj 650 344 66;
#X obj 740 315 bng 15 250 50 0 empty empty empty 17 7 0 10 #fcfcfc
#000000 #000000;
#X obj 689 344 67;
#X obj 740 344 67;
#X msg 689 383 \$1 127;
#X msg 740 383 \$1 0;
#X obj 840 315 bng 15 250 50 0 empty empty empty 17 7 0 10 #fcfcfc
#000000 #000000;
#X obj 789 344 68;
#X obj 840 344 68;
#X msg 789 383 \$1 127;
#X msg 840 383 \$1 0;
#X obj 930 315 bng 15 250 50 0 empty empty empty 17 7 0 10 #fcfcfc
#000000 #000000;
#X obj 879 344 69;
#X obj 930 344 69;
#X msg 879 383 \$1 127;
#X msg 930 383 \$1 0;
#X obj 1020 315 bng 15 250 50 0 empty empty empty 17 7 0 10 #fcfcfc
#000000 #000000;
#X obj 969 344 70;
#X obj 1020 344 70;
#X msg 969 383 \$1 127;
#X msg 1020 383 \$1 0;
#X obj 1110 315 bng 15 250 50 0 empty empty empty 17 7 0 10 #fcfcfc
#000000 #000000;
#X obj 1059 344 71;
#X obj 1110 344 71;
#X msg 1059 383 \$1 127;
#X msg 1110 383 \$1 0;
#X obj 56 67 sel 0 1 2;
#X obj 32 173 guiKeys 60 cK;
#X obj 112 152 guiKeys 61 cSK;
#X obj 205 175 guiKeys 62 dK;
#X obj 270 150 guiKeys 63 dSK;
#X obj 360 176 guiKeys 64 eK;
#X obj 469 178 guiKeys 65 fNK;
#X obj 552 151 guiKeys 66 fsK;
#X obj 643 177 guiKeys 67 gK;
#X obj 718 149 guiKeys 68 gSK;
#X obj 820 172 guiKeys 69 aK;
#X obj 907 149 guiKeys 70 aSK;
#X obj 1006 170 guiKeys 71 bK;
#X obj 59 300 r cK;
#X obj 149 300 r cSK;
#X obj 239 300 r dK;
#X obj 339 300 r dSK;
#X obj 439 300 r eK;
#X obj 529 300 r fNK;
#X obj 619 300 r fsK;
#X obj 709 300 r gK;
#X obj 809 300 r gSK;
#X obj 899 300 r aK;
#X obj 989 300 r aSK;
#X obj 1079 300 r bK;
#X obj 94 302 bng 15 250 50 0 empty empty empty 17 7 0 10 #fcfcfc #000000
#000000;
#X obj 56 27 r \$0-octave;
#X obj 39 232 r \$0-c;
#X obj 128 227 r \$0-cS;
#X obj 216 228 r \$0-d;
#X obj 315 228 r \$0-dS;
#X obj 417 225 r \$0-e;
#X obj 503 226 r \$0-fN;
#X obj 595 226 r \$0-fs;
#X obj 684 223 r \$0-g;
#X obj 783 228 r \$0-gS;
#X obj 877 231 r \$0-a;
#X obj 970 226 r \$0-aS;
#X obj 1056 225 r \$0-b;
#X obj 38 105 s octMin;
#X obj 126 104 s octMax;
#X obj 88 124 s octCen;
#X connect 0 0 15 0;
#X connect 0 1 97 0;
#X connect 1 0 21 0;
#X connect 1 1 17 0;
#X connect 2 0 27 0;
#X connect 2 1 26 0;
#X connect 4 0 30 0;
#X connect 4 1 29 0;
#X connect 5 0 35 0;
#X connect 5 1 32 0;
#X connect 6 0 38 0;
#X connect 6 1 37 0;
#X connect 7 0 45 0;
#X connect 7 1 42 0;
#X connect 8 0 48 0;
#X connect 8 1 47 0;
#X connect 9 0 53 0;
#X connect 9 1 52 0;
#X connect 10 0 58 0;
#X connect 10 1 57 0;
#X connect 11 0 63 0;
#X connect 11 1 62 0;
#X connect 12 0 68 0;
#X connect 12 1 67 0;
#X connect 13 0 3 0;
#X connect 14 0 3 0;
#X connect 15 0 13 0;
#X connect 16 0 14 0;
#X connect 17 0 20 0;
#X connect 18 0 3 0;
#X connect 19 0 3 0;
#X connect 20 0 19 0;
#X connect 21 0 18 0;
#X connect 22 0 3 0;
#X connect 23 0 3 0;
#X connect 24 0 3 0;
#X connect 25 0 3 0;
#X connect 26 0 28 0;
#X connect 27 0 22 0;
#X connect 28 0 23 0;
#X connect 29 0 31 0;
#X connect 30 0 24 0;
#X connect 31 0 25 0;
#X connect 32 0 36 0;
#X connect 33 0 3 0;
#X connect 34 0 3 0;
#X connect 35 0 33 0;
#X connect 36 0 34 0;
#X connect 37 0 39 0;
#X connect 38 0 40 0;
#X connect 39 0 41 0;
#X connect 40 0 3 0;
#X connect 41 0 3 0;
#X connect 42 0 46 0;
#X connect 43 0 3 0;
#X connect 44 0 3 0;
#X connect 45 0 43 0;
#X connect 46 0 44 0;
#X connect 47 0 49 0;
#X connect 48 0 50 0;
#X connect 49 0 51 0;
#X connect 50 0 3 0;
#X connect 51 0 3 0;
#X connect 52 0 54 0;
#X connect 53 0 55 0;
#X connect 54 0 56 0;
#X connect 55 0 3 0;
#X connect 56 0 3 0;
#X connect 57 0 59 0;
#X connect 58 0 60 0;
#X connect 59 0 61 0;
#X connect 60 0 3 0;
#X connect 61 0 3 0;
#X connect 62 0 64 0;
#X connect 63 0 65 0;
#X connect 64 0 66 0;
#X connect 65 0 3 0;
#X connect 66 0 3 0;
#X connect 67 0 69 0;
#X connect 68 0 70 0;
#X connect 69 0 71 0;
#X connect 70 0 3 0;
#X connect 71 0 3 0;
#X connect 72 0 111 0;
#X connect 72 1 113 0;
#X connect 72 2 112 0;
#X connect 85 0 15 1;
#X connect 85 0 16 1;
#X connect 86 0 20 1;
#X connect 86 0 21 1;
#X connect 87 0 27 1;
#X connect 87 0 28 1;
#X connect 88 0 30 1;
#X connect 88 0 31 1;
#X connect 89 0 35 1;
#X connect 89 0 36 1;
#X connect 90 0 38 1;
#X connect 90 0 39 1;
#X connect 91 0 45 1;
#X connect 91 0 46 1;
#X connect 92 0 48 1;
#X connect 92 0 49 1;
#X connect 93 0 53 1;
#X connect 93 0 54 1;
#X connect 94 0 58 1;
#X connect 94 0 59 1;
#X connect 95 0 63 1;
#X connect 95 0 64 1;
#X connect 96 0 68 1;
#X connect 96 0 69 1;
#X connect 97 0 16 0;
#X connect 98 0 72 0;
#X connect 99 0 0 0;
#X connect 100 0 1 0;
#X connect 101 0 2 0;
#X connect 102 0 4 0;
#X connect 103 0 5 0;
#X connect 104 0 6 0;
#X connect 105 0 7 0;
#X connect 106 0 8 0;
#X connect 107 0 9 0;
#X connect 108 0 10 0;
#X connect 109 0 11 0;
#X connect 110 0 12 0;
#X restore 25 14 pd note;
#N canvas 100 57 1207 688 synth 0;
#X obj 49 107 mtof;
#X obj 906 1162 outlet~;
#X obj 49 24 inlet, f 7;
#X obj 49 70 unpack 0 0;
#X obj 126 116 sel 0;
#X obj 936 846 * 20;
#X obj 1008 850 * 20;
#X obj 1008 825 + 1;
#X obj 937 823 + 1;
#X obj 921 1024 vline~;
#X msg 921 988 0 \$1;
#X msg 994 988 1 \$1 \, 0.5 1000 1000;
#X obj 994 962 10;
#X obj 921 938 bng 15 250 50 0 empty empty empty 17 7 0 10 #fcfcfc
#000000 #000000;
#X obj 906 1050 *~;
#X obj 994 941 bng 15 250 50 0 empty empty empty 17 7 0 10 #fcfcfc
#000000 #000000;
#X obj 521 418 +~;
#X obj 521 484 osc~;
#X obj 560 484 osc~;
#X obj 560 460 *~ 2;
#X obj 521 309 osc~ 30;
#X obj 521 363 *~ 10;
#X obj 839 643 noise~;
#X obj 839 676 *~ 0.01;
#X obj 921 962 500;
#X obj 646 315 expr~ $v1 > 0.5;
#X obj 646 415 +~;
#X obj 722 446 *~ 2;
#X obj 743 494 expr~ $v1 > 0.5;
#X obj 743 471 phasor~ 30;
#X obj 646 494 expr~ $v1 > 0.5;
#X obj 646 471 phasor~ 30;
#X obj 646 292 phasor~ 10;
#X obj 743 641 *~;
#X obj 758 617 line~;
#X obj 758 563 expr 1 - $f1;
#X msg 758 590 \$1 15;
#X obj 603 641 *~;
#X obj 618 617 line~;
#X msg 618 590 \$1 15;
#X obj 646 360 *~ 10;
#X obj 878 494 / 127;
#X obj 521 251 inlet;
#X obj 790 312 inlet;
#X obj 878 458 inlet;
#X obj 906 1137 *~ 0.2;
#X obj 743 669 *~ 0.5;
#X msg 96 236 \$1 \$2;
#X obj 96 259 line;
#X obj 96 211 pack \$1 0;
#X obj 1133 143 inlet;
#X obj 898 801 r \$0-release;
#X obj 998 801 r \$0-attack;
#X connect 0 0 49 0;
#X connect 2 0 3 0;
#X connect 3 0 0 0;
#X connect 3 1 4 0;
#X connect 4 0 13 0;
#X connect 4 1 15 0;
#X connect 5 0 24 1;
#X connect 6 0 12 1;
#X connect 7 0 6 0;
#X connect 8 0 5 0;
#X connect 9 0 14 1;
#X connect 10 0 9 0;
#X connect 11 0 9 0;
#X connect 12 0 11 0;
#X connect 13 0 24 0;
#X connect 14 0 45 0;
#X connect 15 0 12 0;
#X connect 16 0 17 0;
#X connect 16 0 19 0;
#X connect 17 0 37 0;
#X connect 18 0 37 0;
#X connect 19 0 18 0;
#X connect 20 0 21 0;
#X connect 21 0 16 0;
#X connect 22 0 23 0;
#X connect 23 0 14 0;
#X connect 24 0 10 0;
#X connect 25 0 40 0;
#X connect 26 0 27 0;
#X connect 26 0 31 0;
#X connect 27 0 29 0;
#X connect 28 0 33 0;
#X connect 29 0 28 0;
#X connect 30 0 33 0;
#X connect 31 0 30 0;
#X connect 32 0 25 0;
#X connect 33 0 46 0;
#X connect 34 0 33 1;
#X connect 35 0 36 0;
#X connect 36 0 34 0;
#X connect 37 0 14 0;
#X connect 38 0 37 1;
#X connect 39 0 38 0;
#X connect 40 0 26 0;
#X connect 41 0 39 0;
#X connect 41 0 35 0;
#X connect 42 0 20 0;
#X connect 42 0 32 0;
#X connect 43 0 21 1;
#X connect 43 0 40 1;
#X connect 44 0 41 0;
#X connect 45 0 1 0;
#X connect 46 0 14 0;
#X connect 47 0 48 0;
#X connect 48 0 26 1;
#X connect 48 0 16 1;
#X connect 49 0 47 0;
#X connect 50 0 49 1;
#X connect 51 0 8 0;
#X connect 52 0 7 0;
#X restore 25 205 pd synth;
#N canvas 0 25 1440 778 synth 0;
#X obj 49 107 mtof;
#X obj 906 1162 outlet~;
#X obj 49 24 inlet, f 7;
#X obj 49 70 unpack 0 0;
#X obj 126 116 sel 0;
#X obj 936 846 * 20;
#X obj 1008 850 * 20;
#X obj 1008 825 + 1;
#X obj 937 823 + 1;
#X obj 921 1024 vline~;
#X msg 921 988 0 \$1;
#X msg 994 988 1 \$1 \, 0.5 1000 1000;
#X obj 994 962 10;
#X obj 921 938 bng 15 250 50 0 empty empty empty 17 7 0 10 #fcfcfc
#000000 #000000;
#X obj 906 1050 *~;
#X obj 994 941 bng 15 250 50 0 empty empty empty 17 7 0 10 #fcfcfc
#000000 #000000;
#X obj 521 418 +~;
#X obj 521 484 osc~;
#X obj 560 484 osc~;
#X obj 560 460 *~ 2;
#X obj 521 309 osc~ 30;
#X obj 521 363 *~ 10;
#X obj 839 643 noise~;
#X obj 839 676 *~ 0.01;
#X obj 921 962 500;
#X obj 646 315 expr~ $v1 > 0.5;
#X obj 646 415 +~;
#X obj 722 446 *~ 2;
#X obj 743 494 expr~ $v1 > 0.5;
#X obj 743 471 phasor~ 30;
#X obj 646 494 expr~ $v1 > 0.5;
#X obj 646 471 phasor~ 30;
#X obj 646 292 phasor~ 10;
#X obj 743 641 *~;
#X obj 758 617 line~;
#X obj 758 563 expr 1 - $f1;
#X msg 758 590 \$1 15;
#X obj 603 641 *~;
#X obj 618 617 line~;
#X msg 618 590 \$1 15;
#X obj 646 360 *~ 10;
#X obj 878 494 / 127;
#X obj 521 251 inlet;
#X obj 790 312 inlet;
#X obj 878 458 inlet;
#X obj 906 1137 *~ 0.2;
#X obj 743 669 *~ 0.5;
#X msg 96 236 \$1 \$2;
#X obj 96 259 line;
#X obj 96 211 pack \$1 0;
#X obj 1133 143 inlet;
#X obj 898 801 r \$0-release;
#X obj 998 801 r \$0-attack;
#X connect 0 0 49 0;
#X connect 2 0 3 0;
#X connect 3 0 0 0;
#X connect 3 1 4 0;
#X connect 4 0 13 0;
#X connect 4 1 15 0;
#X connect 5 0 24 1;
#X connect 6 0 12 1;
#X connect 7 0 6 0;
#X connect 8 0 5 0;
#X connect 9 0 14 1;
#X connect 10 0 9 0;
#X connect 11 0 9 0;
#X connect 12 0 11 0;
#X connect 13 0 24 0;
#X connect 14 0 45 0;
#X connect 15 0 12 0;
#X connect 16 0 17 0;
#X connect 16 0 19 0;
#X connect 17 0 37 0;
#X connect 18 0 37 0;
#X connect 19 0 18 0;
#X connect 20 0 21 0;
#X connect 21 0 16 0;
#X connect 22 0 23 0;
#X connect 23 0 14 0;
#X connect 24 0 10 0;
#X connect 25 0 40 0;
#X connect 26 0 27 0;
#X connect 26 0 31 0;
#X connect 27 0 29 0;
#X connect 28 0 33 0;
#X connect 29 0 28 0;
#X connect 30 0 33 0;
#X connect 31 0 30 0;
#X connect 32 0 25 0;
#X connect 33 0 46 0;
#X connect 34 0 33 1;
#X connect 35 0 36 0;
#X connect 36 0 34 0;
#X connect 37 0 14 0;
#X connect 38 0 37 1;
#X connect 39 0 38 0;
#X connect 40 0 26 0;
#X connect 41 0 39 0;
#X connect 41 0 35 0;
#X connect 42 0 20 0;
#X connect 42 0 32 0;
#X connect 43 0 21 1;
#X connect 43 0 40 1;
#X connect 44 0 41 0;
#X connect 45 0 1 0;
#X connect 46 0 14 0;
#X connect 47 0 48 0;
#X connect 48 0 26 1;
#X connect 48 0 16 1;
#X connect 49 0 47 0;
#X connect 50 0 49 1;
#X connect 51 0 8 0;
#X connect 52 0 7 0;
#X restore 397 204 pd synth;
#N canvas 0 25 1440 778 synth 0;
#X obj 49 107 mtof;
#X obj 906 1162 outlet~;
#X obj 49 24 inlet, f 7;
#X obj 49 70 unpack 0 0;
#X obj 126 116 sel 0;
#X obj 936 846 * 20;
#X obj 1008 850 * 20;
#X obj 1008 825 + 1;
#X obj 937 823 + 1;
#X obj 921 1024 vline~;
#X msg 921 988 0 \$1;
#X msg 994 988 1 \$1 \, 0.5 1000 1000;
#X obj 994 962 10;
#X obj 921 938 bng 15 250 50 0 empty empty empty 17 7 0 10 #fcfcfc
#000000 #000000;
#X obj 906 1050 *~;
#X obj 994 941 bng 15 250 50 0 empty empty empty 17 7 0 10 #fcfcfc
#000000 #000000;
#X obj 521 418 +~;
#X obj 521 484 osc~;
#X obj 560 484 osc~;
#X obj 560 460 *~ 2;
#X obj 521 309 osc~ 30;
#X obj 521 363 *~ 10;
#X obj 839 643 noise~;
#X obj 839 676 *~ 0.01;
#X obj 921 962 500;
#X obj 646 315 expr~ $v1 > 0.5;
#X obj 646 415 +~;
#X obj 722 446 *~ 2;
#X obj 743 494 expr~ $v1 > 0.5;
#X obj 743 471 phasor~ 30;
#X obj 646 494 expr~ $v1 > 0.5;
#X obj 646 471 phasor~ 30;
#X obj 646 292 phasor~ 10;
#X obj 743 641 *~;
#X obj 758 617 line~;
#X obj 758 563 expr 1 - $f1;
#X msg 758 590 \$1 15;
#X obj 603 641 *~;
#X obj 618 617 line~;
#X msg 618 590 \$1 15;
#X obj 646 360 *~ 10;
#X obj 878 494 / 127;
#X obj 521 251 inlet;
#X obj 790 312 inlet;
#X obj 878 458 inlet;
#X obj 906 1137 *~ 0.2;
#X obj 743 669 *~ 0.5;
#X msg 96 236 \$1 \$2;
#X obj 96 259 line;
#X obj 96 211 pack \$1 0;
#X obj 1133 143 inlet;
#X obj 898 801 r \$0-release;
#X obj 998 801 r \$0-attack;
#X connect 0 0 49 0;
#X connect 2 0 3 0;
#X connect 3 0 0 0;
#X connect 3 1 4 0;
#X connect 4 0 13 0;
#X connect 4 1 15 0;
#X connect 5 0 24 1;
#X connect 6 0 12 1;
#X connect 7 0 6 0;
#X connect 8 0 5 0;
#X connect 9 0 14 1;
#X connect 10 0 9 0;
#X connect 11 0 9 0;
#X connect 12 0 11 0;
#X connect 13 0 24 0;
#X connect 14 0 45 0;
#X connect 15 0 12 0;
#X connect 16 0 17 0;
#X connect 16 0 19 0;
#X connect 17 0 37 0;
#X connect 18 0 37 0;
#X connect 19 0 18 0;
#X connect 20 0 21 0;
#X connect 21 0 16 0;
#X connect 22 0 23 0;
#X connect 23 0 14 0;
#X connect 24 0 10 0;
#X connect 25 0 40 0;
#X connect 26 0 27 0;
#X connect 26 0 31 0;
#X connect 27 0 29 0;
#X connect 28 0 33 0;
#X connect 29 0 28 0;
#X connect 30 0 33 0;
#X connect 31 0 30 0;
#X connect 32 0 25 0;
#X connect 33 0 46 0;
#X connect 34 0 33 1;
#X connect 35 0 36 0;
#X connect 36 0 34 0;
#X connect 37 0 14 0;
#X connect 38 0 37 1;
#X connect 39 0 38 0;
#X connect 40 0 26 0;
#X connect 41 0 39 0;
#X connect 41 0 35 0;
#X connect 42 0 20 0;
#X connect 42 0 32 0;
#X connect 43 0 21 1;
#X connect 43 0 40 1;
#X connect 44 0 41 0;
#X connect 45 0 1 0;
#X connect 46 0 14 0;
#X connect 47 0 48 0;
#X connect 48 0 26 1;
#X connect 48 0 16 1;
#X connect 49 0 47 0;
#X connect 50 0 49 1;
#X connect 51 0 8 0;
#X connect 52 0 7 0;
#X restore 146 205 pd synth;
#N canvas 0 25 1440 778 synth 0;
#X obj 49 107 mtof;
#X obj 906 1162 outlet~;
#X obj 49 24 inlet, f 7;
#X obj 49 70 unpack 0 0;
#X obj 126 116 sel 0;
#X obj 936 846 * 20;
#X obj 1008 850 * 20;
#X obj 1008 825 + 1;
#X obj 937 823 + 1;
#X obj 921 1024 vline~;
#X msg 921 988 0 \$1;
#X msg 994 988 1 \$1 \, 0.5 1000 1000;
#X obj 994 962 10;
#X obj 921 938 bng 15 250 50 0 empty empty empty 17 7 0 10 #fcfcfc
#000000 #000000;
#X obj 906 1050 *~;
#X obj 994 941 bng 15 250 50 0 empty empty empty 17 7 0 10 #fcfcfc
#000000 #000000;
#X obj 521 418 +~;
#X obj 521 484 osc~;
#X obj 560 484 osc~;
#X obj 560 460 *~ 2;
#X obj 521 309 osc~ 30;
#X obj 521 363 *~ 10;
#X obj 839 643 noise~;
#X obj 839 676 *~ 0.01;
#X obj 921 962 500;
#X obj 646 315 expr~ $v1 > 0.5;
#X obj 646 415 +~;
#X obj 722 446 *~ 2;
#X obj 743 494 expr~ $v1 > 0.5;
#X obj 743 471 phasor~ 30;
#X obj 646 494 expr~ $v1 > 0.5;
#X obj 646 471 phasor~ 30;
#X obj 646 292 phasor~ 10;
#X obj 743 641 *~;
#X obj 758 617 line~;
#X obj 758 563 expr 1 - $f1;
#X msg 758 590 \$1 15;
#X obj 603 641 *~;
#X obj 618 617 line~;
#X msg 618 590 \$1 15;
#X obj 646 360 *~ 10;
#X obj 878 494 / 127;
#X obj 521 251 inlet;
#X obj 790 312 inlet;
#X obj 878 458 inlet;
#X obj 906 1137 *~ 0.2;
#X obj 743 669 *~ 0.5;
#X msg 96 236 \$1 \$2;
#X obj 96 259 line;
#X obj 96 211 pack \$1 0;
#X obj 1133 143 inlet;
#X obj 898 801 r \$0-release;
#X obj 998 801 r \$0-attack;
#X connect 0 0 49 0;
#X connect 2 0 3 0;
#X connect 3 0 0 0;
#X connect 3 1 4 0;
#X connect 4 0 13 0;
#X connect 4 1 15 0;
#X connect 5 0 24 1;
#X connect 6 0 12 1;
#X connect 7 0 6 0;
#X connect 8 0 5 0;
#X connect 9 0 14 1;
#X connect 10 0 9 0;
#X connect 11 0 9 0;
#X connect 12 0 11 0;
#X connect 13 0 24 0;
#X connect 14 0 45 0;
#X connect 15 0 12 0;
#X connect 16 0 17 0;
#X connect 16 0 19 0;
#X connect 17 0 37 0;
#X connect 18 0 37 0;
#X connect 19 0 18 0;
#X connect 20 0 21 0;
#X connect 21 0 16 0;
#X connect 22 0 23 0;
#X connect 23 0 14 0;
#X connect 24 0 10 0;
#X connect 25 0 40 0;
#X connect 26 0 27 0;
#X connect 26 0 31 0;
#X connect 27 0 29 0;
#X connect 28 0 33 0;
#X connect 29 0 28 0;
#X connect 30 0 33 0;
#X connect 31 0 30 0;
#X connect 32 0 25 0;
#X connect 33 0 46 0;
#X connect 34 0 33 1;
#X connect 35 0 36 0;
#X connect 36 0 34 0;
#X connect 37 0 14 0;
#X connect 38 0 37 1;
#X connect 39 0 38 0;
#X connect 40 0 26 0;
#X connect 41 0 39 0;
#X connect 41 0 35 0;
#X connect 42 0 20 0;
#X connect 42 0 32 0;
#X connect 43 0 21 1;
#X connect 43 0 40 1;
#X connect 44 0 41 0;
#X connect 45 0 1 0;
#X connect 46 0 14 0;
#X connect 47 0 48 0;
#X connect 48 0 26 1;
#X connect 48 0 16 1;
#X connect 49 0 47 0;
#X connect 50 0 49 1;
#X connect 51 0 8 0;
#X connect 52 0 7 0;
#X restore 266 203 pd synth;
#X obj 134 86 / 5;
#X obj 251 86 / 5;
#X obj 442 84 * 2;
#X obj 25 274 expr~ $v1+$v2+$v3+$v4;
#N canvas 556 397 276 237 init 0;
#X obj 83 19 loadbang;
#X obj 83 43 float \$0;
#X msg 83 67 \; pd dsp 1 \; \$1-octave 1 \; \$1-attack 10 \; \$1-release
10 \; \$1-synthshape 10 \; \$1-index 0 \; \$1-synthrate 0 \; \$1-glide
10 \;;
#X connect 0 0 1 0;
#X connect 1 0 2 0;
#X restore 565 21 pd init;
#X obj 25 349 outlet~;
#X obj 134 61 r \$0-synthrate;
#X obj 251 61 r \$0-index;
#X obj 442 60 r \$0-glide;
#X obj 327 85 r \$0-synthshape;
#X obj 25 322 *~ 0.5;
#X connect 0 0 1 0;
#X connect 0 1 1 1;
#X connect 0 2 1 2;
#X connect 1 0 2 0;
#X connect 2 0 4 0;
#X connect 2 1 6 0;
#X connect 2 2 7 0;
#X connect 2 3 5 0;
#X connect 3 0 0 0;
#X connect 4 0 11 0;
#X connect 5 0 11 3;
#X connect 6 0 11 1;
#X connect 7 0 11 2;
#X connect 8 0 4 1;
#X connect 8 0 6 1;
#X connect 8 0 7 1;
#X connect 8 0 5 1;
#X connect 9 0 4 2;
#X connect 9 0 6 2;
#X connect 9 0 7 2;
#X connect 9 0 5 2;
#X connect 10 0 4 4;
#X connect 10 0 6 4;
#X connect 10 0 7 4;
#X connect 10 0 5 4;
#X connect 11 0 18 0;
#X connect 14 0 8 0;
#X connect 15 0 9 0;
#X connect 16 0 10 0;
#X connect 17 0 4 3;
#X connect 17 0 6 3;
#X connect 17 0 7 3;
#X connect 17 0 5 3;
#X connect 18 0 13 0;
#X restore 41 53 pd keyboard;
#N canvas 336 228 744 505 reverb 0;
#X obj 51 375 outlet~;
#X obj 55 266 inlet~;
#X obj 310 293 expr 1 - $f1;
#X obj 296 59 loadbang;
#X obj 112 119 hsl 128 15 0 1 0 1 empty empty 'roomsize' 20 8 0 10
#fcfcfc #fc8000 #000000 5000 0;
#X obj 127 162 hsl 128 15 0 2.4 0 1 empty empty damp 20 8 0 10 #fcfcfc
#fc8000 #000000 0 0;
#X obj 157 255 hsl 128 15 0 1 0 1 empty empty wet 20 8 0 10 #fcfcfc
#fc8000 #000000 1250 0;
#X obj 142 205 hsl 128 15 0 1 0 1 empty empty dry 20 8 0 10 #fcfcfc
#fc8000 #000000 11450 0;
#N canvas 256 339 634 321 vfreeverb~ 0;
#N canvas 662 312 778 367 combfilters-left1 0;
#X obj 46 244 +~;
#X obj 61 219 *~ 0.3;
#X obj 61 194 lop~ 1000;
#X obj 231 244 +~;
#X obj 246 219 *~ 0.3;
#X obj 246 194 lop~ 1000;
#X obj 429 218 *~ 0.3;
#X obj 429 193 lop~ 1000;
#X obj 414 241 +~;
#X obj 610 218 *~ 0.3;
#X obj 610 193 lop~ 1000;
#X obj 595 241 +~;
#X obj 61 141 delread~ \$0-comb1left;
#X obj 246 142 delread~ \$0-comb2left;
#X obj 429 141 delread~ \$0-comb3left;
#X obj 610 141 delread~ \$0-comb4left;
#X obj 46 268 delwrite~ \$0-comb1left 100;
#X obj 231 268 delwrite~ \$0-comb2left 100;
#X obj 414 267 delwrite~ \$0-comb3left 100;
#X obj 595 267 delwrite~ \$0-comb4left 100;
#X obj 61 97 r \$0-comb1left;
#X obj 246 97 r \$0-comb2left;
#X obj 429 95 r \$0-comb3left;
#X obj 610 96 r \$0-comb4left;
#X obj 112 170 r \$0-frequency;
#X obj 297 170 r \$0-frequency;
#X obj 480 167 r \$0-frequency;
#X obj 661 167 r \$0-frequency;
#X obj 46 28 inlet~;
#X obj 338 326 outlet~;
#X floatatom 70 119 5 0 0 0 - - - 0;
#X floatatom 255 121 5 0 0 0 - - - 0;
#X floatatom 439 119 5 0 0 0 - - - 0;
#X floatatom 622 121 5 0 0 0 - - - 0;
#X obj 279 58 clip 0 0.99;
#X obj 279 29 r \$0-room;
#X connect 0 0 16 0;
#X connect 1 0 0 1;
#X connect 2 0 1 0;
#X connect 2 0 29 0;
#X connect 3 0 17 0;
#X connect 4 0 3 1;
#X connect 5 0 4 0;
#X connect 5 0 29 0;
#X connect 6 0 8 1;
#X connect 7 0 6 0;
#X connect 7 0 29 0;
#X connect 8 0 18 0;
#X connect 9 0 11 1;
#X connect 10 0 9 0;
#X connect 10 0 29 0;
#X connect 11 0 19 0;
#X connect 12 0 2 0;
#X connect 13 0 5 0;
#X connect 14 0 7 0;
#X connect 15 0 10 0;
#X connect 20 0 12 0;
#X connect 20 0 30 0;
#X connect 21 0 13 0;
#X connect 21 0 31 0;
#X connect 22 0 14 0;
#X connect 22 0 32 0;
#X connect 23 0 15 0;
#X connect 23 0 33 0;
#X connect 24 0 2 1;
#X connect 25 0 5 1;
#X connect 26 0 7 1;
#X connect 27 0 10 1;
#X connect 28 0 0 0;
#X connect 28 0 3 0;
#X connect 28 0 8 0;
#X connect 28 0 11 0;
#X connect 34 0 1 1;
#X connect 34 0 4 1;
#X connect 34 0 6 1;
#X connect 34 0 9 1;
#X connect 35 0 34 0;
#X restore 15 100 pd combfilters-left1;
#N canvas 27 56 358 650 diffusor-left 0;
#X obj 51 107 *~ 0.5;
#X obj 36 132 +~;
#X obj 66 132 -~;
#X obj 36 26 inlet~;
#X obj 81 238 *~ 0.5;
#X obj 66 263 +~;
#X obj 96 263 -~;
#X obj 111 368 *~ 0.5;
#X obj 96 393 +~;
#X obj 126 393 -~;
#X obj 141 498 *~ 0.5;
#X obj 126 523 +~;
#X obj 156 523 -~;
#X obj 156 605 outlet~;
#X text 95 28 freeverb's diffusor;
#X obj 156 576 hip~ 5;
#X floatatom 214 70 5 0 0 0 - - - 0;
#X floatatom 246 203 5 0 0 0 - - - 0;
#X floatatom 280 334 5 0 0 0 - - - 0;
#X floatatom 304 464 5 0 0 0 - - - 0;
#X obj 51 53 r \$0-allpass1left;
#X obj 51 80 delread~ \$0-allpass1left;
#X obj 36 158 delwrite~ \$0-allpass1left 40;
#X obj 81 186 r \$0-allpass2left;
#X obj 81 211 delread~ \$0-allpass2left;
#X obj 66 290 delwrite~ \$0-allpass2left 40;
#X obj 111 317 r \$0-allpass3left;
#X obj 111 341 delread~ \$0-allpass3left;
#X obj 96 420 delwrite~ \$0-allpass3left 40;
#X obj 141 447 r \$0-allpass4left;
#X obj 141 471 delread~ \$0-allpass4left;
#X obj 126 550 delwrite~ \$0-allpass4left 40;
#X connect 0 0 1 1;
#X connect 1 0 22 0;
#X connect 2 0 5 0;
#X connect 2 0 6 1;
#X connect 3 0 1 0;
#X connect 3 0 2 1;
#X connect 4 0 5 1;
#X connect 5 0 25 0;
#X connect 6 0 8 0;
#X connect 6 0 9 1;
#X connect 7 0 8 1;
#X connect 8 0 28 0;
#X connect 9 0 11 0;
#X connect 9 0 12 1;
#X connect 10 0 11 1;
#X connect 11 0 31 0;
#X connect 12 0 15 0;
#X connect 15 0 13 0;
#X connect 20 0 16 0;
#X connect 20 0 21 0;
#X connect 21 0 0 0;
#X connect 21 0 2 0;
#X connect 23 0 17 0;
#X connect 23 0 24 0;
#X connect 24 0 4 0;
#X connect 24 0 6 0;
#X connect 26 0 18 0;
#X connect 26 0 27 0;
#X connect 27 0 7 0;
#X connect 27 0 9 0;
#X connect 29 0 19 0;
#X connect 29 0 30 0;
#X connect 30 0 10 0;
#X connect 30 0 12 0;
#X restore 15 168 pd diffusor-left;
#N canvas 312 366 778 367 combfilters-left2 0;
#X obj 46 244 +~;
#X obj 61 219 *~ 0.3;
#X obj 61 194 lop~ 1000;
#X obj 231 244 +~;
#X obj 246 219 *~ 0.3;
#X obj 246 194 lop~ 1000;
#X obj 429 218 *~ 0.3;
#X obj 429 193 lop~ 1000;
#X obj 414 241 +~;
#X obj 610 218 *~ 0.3;
#X obj 610 193 lop~ 1000;
#X obj 595 241 +~;
#X obj 112 170 r \$0-frequency;
#X obj 297 170 r \$0-frequency;
#X obj 480 167 r \$0-frequency;
#X obj 661 167 r \$0-frequency;
#X obj 46 28 inlet~;
#X obj 338 326 outlet~;
#X obj 61 90 r \$0-comb5left;
#X obj 61 141 delread~ \$0-comb5left;
#X obj 46 268 delwrite~ \$0-comb5left 100;
#X obj 246 90 r \$0-comb6left;
#X obj 246 142 delread~ \$0-comb6left;
#X obj 231 268 delwrite~ \$0-comb6left 100;
#X obj 429 88 r \$0-comb7left;
#X obj 429 141 delread~ \$0-comb7left;
#X obj 414 267 delwrite~ \$0-comb7left 100;
#X obj 610 89 r \$0-comb8left;
#X obj 610 141 delread~ \$0-comb8left;
#X obj 595 267 delwrite~ \$0-comb8left 100;
#X floatatom 70 116 5 0 0 0 - - - 0;
#X floatatom 261 118 5 0 0 0 - - - 0;
#X floatatom 440 117 5 0 0 0 - - - 0;
#X floatatom 620 116 5 0 0 0 - - - 0;
#X obj 279 58 clip 0 0.99;
#X obj 279 28 r \$0-room;
#X connect 0 0 20 0;
#X connect 1 0 0 1;
#X connect 2 0 1 0;
#X connect 2 0 17 0;
#X connect 3 0 23 0;
#X connect 4 0 3 1;
#X connect 5 0 4 0;
#X connect 5 0 17 0;
#X connect 6 0 8 1;
#X connect 7 0 6 0;
#X connect 7 0 17 0;
#X connect 8 0 26 0;
#X connect 9 0 11 1;
#X connect 10 0 9 0;
#X connect 10 0 17 0;
#X connect 11 0 29 0;
#X connect 12 0 2 1;
#X connect 13 0 5 1;
#X connect 14 0 7 1;
#X connect 15 0 10 1;
#X connect 16 0 0 0;
#X connect 16 0 3 0;
#X connect 16 0 8 0;
#X connect 16 0 11 0;
#X connect 18 0 19 0;
#X connect 18 0 30 0;
#X connect 19 0 2 0;
#X connect 21 0 22 0;
#X connect 21 0 31 0;
#X connect 22 0 5 0;
#X connect 24 0 25 0;
#X connect 24 0 32 0;
#X connect 25 0 7 0;
#X connect 27 0 28 0;
#X connect 27 0 33 0;
#X connect 28 0 10 0;
#X connect 34 0 1 1;
#X connect 34 0 4 1;
#X connect 34 0 6 1;
#X connect 34 0 9 1;
#X connect 35 0 34 0;
#X restore 36 134 pd combfilters-left2;
#N canvas 261 41 778 367 combfilters-right1 0;
#X obj 46 244 +~;
#X obj 61 219 *~ 0.3;
#X obj 61 194 lop~ 1000;
#X obj 231 244 +~;
#X obj 246 219 *~ 0.3;
#X obj 246 194 lop~ 1000;
#X obj 429 218 *~ 0.3;
#X obj 429 193 lop~ 1000;
#X obj 414 241 +~;
#X obj 610 218 *~ 0.3;
#X obj 610 193 lop~ 1000;
#X obj 595 241 +~;
#X obj 112 170 r \$0-frequency;
#X obj 297 170 r \$0-frequency;
#X obj 480 167 r \$0-frequency;
#X obj 661 167 r \$0-frequency;
#X obj 46 28 inlet~;
#X obj 338 326 outlet~;
#X floatatom 70 119 5 0 0 0 - - - 0;
#X floatatom 255 121 5 0 0 0 - - - 0;
#X floatatom 439 119 5 0 0 0 - - - 0;
#X floatatom 622 121 5 0 0 0 - - - 0;
#X obj 61 141 delread~ \$0-comb1right;
#X obj 246 142 delread~ \$0-comb2right;
#X obj 429 141 delread~ \$0-comb3right;
#X obj 610 141 delread~ \$0-comb4right;
#X obj 61 97 r \$0-comb1right;
#X obj 246 97 r \$0-comb2right;
#X obj 429 95 r \$0-comb3right;
#X obj 610 97 r \$0-comb4right;
#X obj 46 268 delwrite~ \$0-comb1right 100;
#X obj 231 268 delwrite~ \$0-comb2right 100;
#X obj 414 267 delwrite~ \$0-comb3right 100;
#X obj 595 267 delwrite~ \$0-comb4right 100;
#X obj 279 58 clip 0 0.99;
#X obj 279 28 r \$0-room;
#X connect 0 0 30 0;
#X connect 1 0 0 1;
#X connect 2 0 1 0;
#X connect 2 0 17 0;
#X connect 3 0 31 0;
#X connect 4 0 3 1;
#X connect 5 0 4 0;
#X connect 5 0 17 0;
#X connect 6 0 8 1;
#X connect 7 0 6 0;
#X connect 7 0 17 0;
#X connect 8 0 32 0;
#X connect 9 0 11 1;
#X connect 10 0 9 0;
#X connect 10 0 17 0;
#X connect 11 0 33 0;
#X connect 12 0 2 1;
#X connect 13 0 5 1;
#X connect 14 0 7 1;
#X connect 15 0 10 1;
#X connect 16 0 0 0;
#X connect 16 0 3 0;
#X connect 16 0 8 0;
#X connect 16 0 11 0;
#X connect 22 0 2 0;
#X connect 23 0 5 0;
#X connect 24 0 7 0;
#X connect 25 0 10 0;
#X connect 26 0 18 0;
#X connect 26 0 22 0;
#X connect 27 0 19 0;
#X connect 27 0 23 0;
#X connect 28 0 20 0;
#X connect 28 0 24 0;
#X connect 29 0 21 0;
#X connect 29 0 25 0;
#X connect 34 0 1 1;
#X connect 34 0 4 1;
#X connect 34 0 6 1;
#X connect 34 0 9 1;
#X connect 35 0 34 0;
#X restore 208 99 pd combfilters-right1;
#N canvas 312 366 778 367 combfilters-right2 0;
#X obj 46 244 +~;
#X obj 61 219 *~ 0.3;
#X obj 61 194 lop~ 1000;
#X obj 231 244 +~;
#X obj 246 219 *~ 0.3;
#X obj 246 194 lop~ 1000;
#X obj 429 218 *~ 0.3;
#X obj 429 193 lop~ 1000;
#X obj 414 241 +~;
#X obj 610 218 *~ 0.3;
#X obj 610 193 lop~ 1000;
#X obj 595 241 +~;
#X obj 112 170 r \$0-frequency;
#X obj 297 170 r \$0-frequency;
#X obj 480 167 r \$0-frequency;
#X obj 661 167 r \$0-frequency;
#X obj 46 28 inlet~;
#X obj 338 326 outlet~;
#X floatatom 70 116 5 0 0 0 - - - 0;
#X floatatom 261 118 5 0 0 0 - - - 0;
#X floatatom 440 117 5 0 0 0 - - - 0;
#X floatatom 620 116 5 0 0 0 - - - 0;
#X obj 279 58 clip 0 0.99;
#X obj 61 90 r \$0-comb5right;
#X obj 246 90 r \$0-comb6right;
#X obj 429 88 r \$0-comb7right;
#X obj 610 89 r \$0-comb8right;
#X obj 61 141 delread~ \$0-comb5right;
#X obj 246 142 delread~ \$0-comb6right;
#X obj 429 141 delread~ \$0-comb7right;
#X obj 610 141 delread~ \$0-comb8right;
#X obj 46 268 delwrite~ \$0-comb5right 100;
#X obj 231 268 delwrite~ \$0-comb6right 100;
#X obj 414 267 delwrite~ \$0-comb7right 100;
#X obj 595 267 delwrite~ \$0-comb8right 100;
#X obj 279 28 r \$0-room;
#X connect 0 0 31 0;
#X connect 1 0 0 1;
#X connect 2 0 1 0;
#X connect 2 0 17 0;
#X connect 3 0 32 0;
#X connect 4 0 3 1;
#X connect 5 0 4 0;
#X connect 5 0 17 0;
#X connect 6 0 8 1;
#X connect 7 0 6 0;
#X connect 7 0 17 0;
#X connect 8 0 33 0;
#X connect 9 0 11 1;
#X connect 10 0 9 0;
#X connect 10 0 17 0;
#X connect 11 0 34 0;
#X connect 12 0 2 1;
#X connect 13 0 5 1;
#X connect 14 0 7 1;
#X connect 15 0 10 1;
#X connect 16 0 0 0;
#X connect 16 0 3 0;
#X connect 16 0 8 0;
#X connect 16 0 11 0;
#X connect 22 0 1 1;
#X connect 22 0 4 1;
#X connect 22 0 6 1;
#X connect 22 0 9 1;
#X connect 23 0 18 0;
#X connect 23 0 27 0;
#X connect 24 0 19 0;
#X connect 24 0 28 0;
#X connect 25 0 20 0;
#X connect 25 0 29 0;
#X connect 26 0 21 0;
#X connect 26 0 30 0;
#X connect 27 0 2 0;
#X connect 28 0 5 0;
#X connect 29 0 7 0;
#X connect 30 0 10 0;
#X connect 35 0 22 0;
#X restore 225 133 pd combfilters-right2;
#N canvas 27 56 358 650 diffusor-right 0;
#X obj 51 107 *~ 0.5;
#X obj 36 132 +~;
#X obj 66 132 -~;
#X obj 36 26 inlet~;
#X obj 81 238 *~ 0.5;
#X obj 66 263 +~;
#X obj 96 263 -~;
#X obj 111 368 *~ 0.5;
#X obj 96 393 +~;
#X obj 126 393 -~;
#X obj 141 498 *~ 0.5;
#X obj 126 523 +~;
#X obj 156 523 -~;
#X obj 156 605 outlet~;
#X text 95 28 freeverb's diffusor;
#X obj 156 576 hip~ 5;
#X floatatom 214 70 5 0 0 0 - - - 0;
#X floatatom 244 203 5 0 0 0 - - - 0;
#X floatatom 280 334 5 0 0 0 - - - 0;
#X floatatom 304 464 5 0 0 0 - - - 0;
#X obj 51 53 r \$0-allpass1right;
#X obj 51 80 delread~ \$0-allpass1right;
#X obj 36 158 delwrite~ \$0-allpass1right 40;
#X obj 81 186 r \$0-allpass2right;
#X obj 81 211 delread~ \$0-allpass2right;
#X obj 66 290 delwrite~ \$0-allpass2right 40;
#X obj 111 317 r \$0-allpass3right;
#X obj 111 341 delread~ \$0-allpass3right;
#X obj 96 420 delwrite~ \$0-allpass3right 40;
#X obj 141 447 r \$0-allpass4right;
#X obj 141 471 delread~ \$0-allpass4right;
#X obj 126 550 delwrite~ \$0-allpass4right 40;
#X connect 0 0 1 1;
#X connect 1 0 22 0;
#X connect 2 0 5 0;
#X connect 2 0 6 1;
#X connect 3 0 1 0;
#X connect 3 0 2 1;
#X connect 4 0 5 1;
#X connect 5 0 25 0;
#X connect 6 0 8 0;
#X connect 6 0 9 1;
#X connect 7 0 8 1;
#X connect 8 0 28 0;
#X connect 9 0 11 0;
#X connect 9 0 12 1;
#X connect 10 0 11 1;
#X connect 11 0 31 0;
#X connect 12 0 15 0;
#X connect 15 0 13 0;
#X connect 20 0 16 0;
#X connect 20 0 21 0;
#X connect 21 0 0 0;
#X connect 21 0 2 0;
#X connect 23 0 17 0;
#X connect 23 0 24 0;
#X connect 24 0 4 0;
#X connect 24 0 6 0;
#X connect 26 0 18 0;
#X connect 26 0 27 0;
#X connect 27 0 7 0;
#X connect 27 0 9 0;
#X connect 29 0 19 0;
#X connect 29 0 30 0;
#X connect 30 0 10 0;
#X connect 30 0 12 0;
#X restore 208 169 pd diffusor-right;
#X obj 208 61 *~ 0.015;
#X obj 15 226 *~ 1;
#X obj 208 228 *~ 1;
#X obj 94 228 *~ 1;
#X obj 169 228 *~ 1;
#X obj 115 202 r \$0-dry;
#X obj 229 203 r \$0-wet;
#X obj 36 201 r \$0-wet;
#X obj 94 14 inlet~;
#X obj 208 14 inlet~;
#X obj 15 268 outlet~;
#X obj 169 269 outlet~;
#X obj 312 14 inlet;
#X obj 374 14 inlet;
#X obj 462 14 inlet;
#X obj 544 16 inlet;
#N canvas 92 117 207 207 room 0;
#X obj 32 35 inlet;
#X obj 32 63 * 0.28;
#X obj 32 94 + 0.7;
#X obj 32 160 outlet;
#X text 80 65 scaleroom;
#X text 76 94 offsetroom;
#X obj 47 126 s \$0-room;
#X connect 0 0 1 0;
#X connect 1 0 2 0;
#X connect 2 0 3 0;
#X connect 2 0 6 0;
#X restore 312 45 pd room;
#N canvas 684 169 244 376 frequency 0;
#X obj 60 222 samplerate~;
#X obj 33 8 inlet;
#X obj 33 194 t f b;
#X obj 33 249 *;
#X obj 53 303 s \$0-frequency;
#X obj 33 327 outlet;
#X obj 33 64 * 0.4;
#X text 76 66 scaledamp;
#X obj 33 90 t b f;
#X obj 33 141 -;
#X msg 33 116 1;
#X obj 33 168 abs;
#X obj 33 275 * 0.5;
#X text 153 303 for [lop~];
#X obj 33 38 clip 0 2.4;
#X connect 0 0 3 1;
#X connect 1 0 14 0;
#X connect 2 0 3 0;
#X connect 2 1 0 0;
#X connect 3 0 12 0;
#X connect 6 0 8 0;
#X connect 8 0 10 0;
#X connect 8 1 9 1;
#X connect 9 0 11 0;
#X connect 10 0 9 0;
#X connect 11 0 2 0;
#X connect 12 0 5 0;
#X connect 12 0 4 0;
#X connect 14 0 6 0;
#X restore 374 45 pd frequency;
#N canvas 150 175 170 187 scalewet 0;
#X obj 22 42 inlet;
#X obj 22 143 outlet;
#X obj 22 73 * 3;
#X text 49 74 scalewet;
#X obj 40 112 s \$0-wet;
#X connect 0 0 2 0;
#X connect 2 0 1 0;
#X connect 2 0 4 0;
#X restore 544 45 pd scalewet;
#N canvas 121 146 220 198 scaledry 0;
#X obj 32 74 * 2;
#X obj 32 40 inlet;
#X obj 32 141 outlet;
#X text 58 75 scaledry;
#X obj 41 105 s \$0-dry;
#X connect 0 0 2 0;
#X connect 0 0 4 0;
#X connect 1 0 0 0;
#X restore 462 45 pd scaledry;
#X floatatom 312 70 5 0 0 0 - - - 0;
#X floatatom 374 70 10 0 0 0 - - - 0;
#X floatatom 462 69 5 0 0 0 - - - 0;
#X floatatom 544 69 5 0 0 0 - - - 0;
#N canvas 405 27 635 684 tuning 0;
#X msg 332 81 1139 \, 1211 \, 1300 \, 1379 \, 1445 \, 1514 \, 1580
\, 1640;
#X text 72 57 combfilter tunings left;
#X text 377 56 combfilter tunings right;
#X text 71 360 allpass tunings left;
#X text 383 355 allpass tunings right;
#N canvas 243 170 195 233 sampstoms 0;
#X obj 27 21 inlet;
#X obj 54 86 samplerate~;
#X obj 27 111 /;
#X obj 27 57 t f b;
#X obj 27 136 * 1000;
#X obj 27 162 outlet;
#X connect 0 0 3 0;
#X connect 1 0 2 1;
#X connect 2 0 4 0;
#X connect 3 0 2 0;
#X connect 3 1 1 0;
#X connect 4 0 5 0;
#X restore 30 107 pd sampstoms;
#X msg 30 82 1116 \, 1188 \, 1277 \, 1356 \, 1422 \, 1491 \, 1557 \,
1617;
#X obj 57 188 +;
#X msg 57 159 1;
#X obj 30 135 t f b;
#X obj 87 188 f;
#X obj 30 56 t b b;
#X msg 87 159 0;
#X obj 57 212 pack f \$0;
#X msg 57 238 \$2-comb\$1left;
#X obj 30 282 s;
#X obj 57 265 symbol;
#N canvas 0 22 195 233 sampstoms 0;
#X obj 27 21 inlet;
#X obj 54 86 samplerate~;
#X obj 27 111 /;
#X obj 27 57 t f b;
#X obj 27 136 * 1000;
#X obj 27 162 outlet;
#X connect 0 0 3 0;
#X connect 1 0 2 1;
#X connect 2 0 4 0;
#X connect 3 0 2 0;
#X connect 3 1 1 0;
#X connect 4 0 5 0;
#X restore 332 107 pd sampstoms;
#X obj 359 188 +;
#X msg 359 159 1;
#X obj 332 135 t f b;
#X obj 389 188 f;
#X msg 389 159 0;
#X obj 359 212 pack f \$0;
#X obj 332 282 s;
#X obj 359 265 symbol;
#X obj 332 56 t b b;
#X msg 359 238 \$2-comb\$1right;
#X obj 30 360 t b b;
#N canvas 0 22 195 233 sampstoms 0;
#X obj 27 21 inlet;
#X obj 54 86 samplerate~;
#X obj 27 111 /;
#X obj 27 57 t f b;
#X obj 27 136 * 1000;
#X obj 27 162 outlet;
#X connect 0 0 3 0;
#X connect 1 0 2 1;
#X connect 2 0 4 0;
#X connect 3 0 2 0;
#X connect 3 1 1 0;
#X connect 4 0 5 0;
#X restore 30 411 pd sampstoms;
#X obj 57 492 +;
#X msg 57 463 1;
#X obj 30 439 t f b;
#X obj 87 492 f;
#X msg 87 463 0;
#X obj 57 516 pack f \$0;
#X obj 30 586 s;
#X obj 57 569 symbol;
#X obj 334 356 t b b;
#N canvas 0 22 195 233 sampstoms 0;
#X obj 27 21 inlet;
#X obj 54 86 samplerate~;
#X obj 27 111 /;
#X obj 27 57 t f b;
#X obj 27 136 * 1000;
#X obj 27 162 outlet;
#X connect 0 0 3 0;
#X connect 1 0 2 1;
#X connect 2 0 4 0;
#X connect 3 0 2 0;
#X connect 3 1 1 0;
#X connect 4 0 5 0;
#X restore 334 407 pd sampstoms;
#X obj 361 488 +;
#X msg 361 459 1;
#X obj 334 435 t f b;
#X obj 391 488 f;
#X msg 391 459 0;
#X obj 361 512 pack f \$0;
#X obj 334 582 s;
#X obj 361 565 symbol;
#X obj 30 22 loadbang;
#X obj 332 27 loadbang;
#X obj 30 334 loadbang;
#X obj 334 331 loadbang;
#X obj 268 41 bng 15 250 50 0 empty empty empty 17 7 0 10 #fcfcfc #000000
#000000;
#X msg 30 386 225 \, 556 \, 441 \, 341;
#X msg 334 380 248 \, 579 \, 464 \, 364;
#X msg 57 542 \$2-allpass\$1left;
#X msg 361 539 \$2-allpass\$1right;
#X text 27 624 Original Freeverb delay line lengths are converted to
milliseconds \, based on samplerate.;
#X connect 0 0 17 0;
#X connect 5 0 9 0;
#X connect 6 0 5 0;
#X connect 7 0 10 0;
#X connect 7 0 13 0;
#X connect 8 0 7 0;
#X connect 9 0 15 0;
#X connect 9 1 8 0;
#X connect 10 0 7 1;
#X connect 11 0 6 0;
#X connect 11 1 12 0;
#X connect 12 0 10 0;
#X connect 13 0 14 0;
#X connect 14 0 16 0;
#X connect 16 0 15 1;
#X connect 17 0 20 0;
#X connect 18 0 21 0;
#X connect 18 0 23 0;
#X connect 19 0 18 0;
#X connect 20 0 24 0;
#X connect 20 1 19 0;
#X connect 21 0 18 1;
#X connect 22 0 21 0;
#X connect 23 0 27 0;
#X connect 25 0 24 1;
#X connect 26 0 0 0;
#X connect 26 1 22 0;
#X connect 27 0 25 0;
#X connect 28 0 53 0;
#X connect 28 1 34 0;
#X connect 29 0 32 0;
#X connect 30 0 33 0;
#X connect 30 0 35 0;
#X connect 31 0 30 0;
#X connect 32 0 36 0;
#X connect 32 1 31 0;
#X connect 33 0 30 1;
#X connect 34 0 33 0;
#X connect 35 0 55 0;
#X connect 37 0 36 1;
#X connect 38 0 54 0;
#X connect 38 1 44 0;
#X connect 39 0 42 0;
#X connect 40 0 43 0;
#X connect 40 0 45 0;
#X connect 41 0 40 0;
#X connect 42 0 46 0;
#X connect 42 1 41 0;
#X connect 43 0 40 1;
#X connect 44 0 43 0;
#X connect 45 0 56 0;
#X connect 47 0 46 1;
#X connect 48 0 11 0;
#X connect 49 0 26 0;
#X connect 50 0 28 0;
#X connect 51 0 38 0;
#X connect 52 0 11 0;
#X connect 52 0 28 0;
#X connect 52 0 26 0;
#X connect 52 0 38 0;
#X connect 53 0 29 0;
#X connect 54 0 39 0;
#X connect 55 0 37 0;
#X connect 56 0 47 0;
#X restore 410 141 pd tuning;
#X connect 0 0 1 0;
#X connect 1 0 7 0;
#X connect 2 0 1 0;
#X connect 3 0 5 0;
#X connect 4 0 5 0;
#X connect 5 0 8 0;
#X connect 6 0 3 0;
#X connect 6 0 0 0;
#X connect 6 0 4 0;
#X connect 6 0 2 0;
#X connect 7 0 16 0;
#X connect 8 0 17 0;
#X connect 9 0 16 0;
#X connect 10 0 17 0;
#X connect 11 0 10 1;
#X connect 11 0 9 1;
#X connect 12 0 8 1;
#X connect 13 0 7 1;
#X connect 14 0 6 0;
#X connect 14 0 9 0;
#X connect 15 0 6 0;
#X connect 15 0 10 0;
#X connect 18 0 22 0;
#X connect 19 0 23 0;
#X connect 20 0 25 0;
#X connect 21 0 24 0;
#X connect 22 0 26 0;
#X connect 23 0 27 0;
#X connect 24 0 29 0;
#X connect 25 0 28 0;
#X restore 79 311 pd vfreeverb~;
#X obj 311 267 / 508, f 8;
#X msg 235 74 0;
#X msg 295 87 0;
#X obj 343 222 / 127;
#X obj 311 186 r \$0-reverb;
#X connect 1 0 8 0;
#X connect 1 0 8 1;
#X connect 2 0 7 0;
#X connect 3 0 11 0;
#X connect 3 0 10 0;
#X connect 4 0 8 2;
#X connect 5 0 8 3;
#X connect 6 0 8 5;
#X connect 7 0 8 4;
#X connect 8 0 0 0;
#X connect 8 1 0 0;
#X connect 9 0 2 0;
#X connect 9 0 6 0;
#X connect 10 0 4 0;
#X connect 10 0 6 0;
#X connect 11 0 5 0;
#X connect 12 0 4 0;
#X connect 13 0 9 0;
#X connect 13 0 12 0;
#X restore 41 85 pd reverb;
#X obj 31 326 dac~;
#N canvas 119 125 690 377 bitcrush 0;
#X obj 425 188 samphold~;
#X obj 480 165 phasor~;
#X obj 184 83 inlet~;
#X obj 200 302 outlet~;
#X obj 480 76 expr (127 - $f1) / 127;
#X obj 184 269 *~ 1;
#X obj 225 267 *~ 0;
#X obj 246 143 > 0.95;
#X obj 205 223 line;
#X msg 205 198 \$1 15;
#X obj 246 222 line;
#X msg 246 197 \$1 15;
#X obj 246 171 expr 1 - $f1;
#X obj 480 105 * 4000;
#X obj 480 135 + 3000;
#X obj 480 48 r \$0-bitcrush;
#X connect 0 0 6 0;
#X connect 1 0 0 1;
#X connect 2 0 0 0;
#X connect 2 0 5 0;
#X connect 4 0 7 0;
#X connect 4 0 13 0;
#X connect 5 0 3 0;
#X connect 6 0 3 0;
#X connect 7 0 12 0;
#X connect 7 0 9 0;
#X connect 8 0 5 1;
#X connect 9 0 8 0;
#X connect 10 0 6 1;
#X connect 11 0 10 0;
#X connect 12 0 11 0;
#X connect 13 0 14 0;
#X connect 14 0 1 0;
#X connect 15 0 4 0;
#X restore 41 111 pd bitcrush;
#N canvas 86 238 591 408 ringMod 0;
#X obj 76 360 outlet~;
#X obj 139 318 *~;
#X obj 18 320 *~;
#X obj 179 116 loadbang;
#X msg 179 137 0;
#X obj 18 141 inlet~;
#X obj 33 223 mtof;
#X obj 33 246 osc~;
#X obj 18 271 *~;
#X text 158 10 wet/dry/freq;
#X obj 33 297 line~, f 6;
#X msg 155 191 0 15;
#X msg 242 191 0.5 15;
#X msg 196 191 1 15;
#X obj 154 290 line~;
#X obj 155 162 moses 5;
#X obj 159 36 r \$0-ringMod;
#X connect 1 0 0 0;
#X connect 2 0 0 0;
#X connect 3 0 4 0;
#X connect 4 0 15 0;
#X connect 5 0 8 0;
#X connect 5 0 1 0;
#X connect 6 0 7 0;
#X connect 7 0 8 1;
#X connect 8 0 2 0;
#X connect 10 0 2 1;
#X connect 11 0 10 0;
#X connect 12 0 10 0;
#X connect 12 0 14 0;
#X connect 13 0 14 0;
#X connect 14 0 1 1;
#X connect 15 0 13 0;
#X connect 15 0 11 0;
#X connect 15 1 12 0;
#X connect 16 0 6 0;
#X connect 16 0 15 0;
#X restore 41 137 pd ringMod;
#N canvas 442 208 459 417 delay 0;
#X obj 153 156 vline~;
#X msg 153 135 \$1 200;
#X obj 56 211 inlet~;
#X obj 70 342 outlet~;
#X obj 218 98 / 127;
#X obj 154 47 * 16;
#X obj 191 235 *~ 0;
#X obj 56 296 *~ 0.5;
#X obj 102 296 *~ 0.5;
#X obj 154 20 r \$0-delaytime;
#X obj 218 71 r \$0-feedback;
#X obj 79 237 s~ \$0-drumPitch;
#X obj 245 261 r~ \$0-drumPitch;
#X obj 171 193 vd~ \$0-drumPitch;
#X obj 241 299 delwrite~ \$0-drumPitch 2000;
#X connect 0 0 13 0;
#X connect 1 0 0 0;
#X connect 2 0 7 0;
#X connect 2 0 11 0;
#X connect 4 0 6 1;
#X connect 5 0 1 0;
#X connect 6 0 8 0;
#X connect 6 0 14 0;
#X connect 7 0 3 0;
#X connect 8 0 3 0;
#X connect 9 0 5 0;
#X connect 10 0 4 0;
#X connect 12 0 14 0;
#X connect 13 0 6 0;
#X restore 41 188 pd delay;
#N canvas 158 162 477 481 distortion 0;
#X obj 71 28 inlet~;
#X obj 71 408 outlet~;
#X obj 148 61 *~ 40;
#X obj 148 84 clip~ -0.5 0.5;
#X obj 148 349 *~ 0.3;
#X obj 71 321 *~ 1;
#X obj 148 321 *~ 0;
#X msg 92 275 \$1 15;
#X msg 169 273 \$1 15;
#X obj 92 297 line;
#X obj 169 295 line;
#X obj 169 204 / 127;
#X obj 254 207 expr (127 - $f1) / 127;
#X obj 184 124 r \$0-distortion;
#X connect 0 0 2 0;
#X connect 0 0 5 0;
#X connect 2 0 3 0;
#X connect 3 0 6 0;
#X connect 4 0 1 0;
#X connect 5 0 1 0;
#X connect 6 0 4 0;
#X connect 7 0 9 0;
#X connect 8 0 10 0;
#X connect 9 0 5 1;
#X connect 10 0 6 1;
#X connect 11 0 8 0;
#X connect 12 0 7 0;
#X connect 13 0 11 0;
#X connect 13 0 12 0;
#X restore 41 163 pd distortion;
#X obj 41 295 *~;
#X obj 120 215 / 127;
#X msg 120 241 \$1 15;
#X obj 120 267 line~;
#N canvas 256 150 234 265 init 0;
#X obj 34 39 loadbang;
#X obj 34 71 float \$0;
#X msg 34 105 \; pd dsp 1 \; synthvol 60 \; \$1-reverb-set 50 \; \$1-bitcrush-set
0 \; \$1-ringMod-set 0 \; \$1-distortion-set 20 \; \$1-delaytime-set
30 \; \$1-feedback-set 50 \;;
#X connect 0 0 1 0;
#X connect 1 0 2 0;
#X restore 41 12 pd init;
#X obj 120 189 r \$0-synthvol;
#X obj 151 163 r closesynth;
#X connect 0 0 1 0;
#X connect 1 0 3 0;
#X connect 3 0 4 0;
#X connect 4 0 6 0;
#X connect 5 0 7 0;
#X connect 6 0 5 0;
#X connect 7 0 2 0;
#X connect 7 0 2 1;
#X connect 8 0 9 0;
#X connect 9 0 10 0;
#X connect 10 0 7 1;
#X connect 12 0 8 0;
#X connect 13 0 8 0;
#X restore 1095 32 pd FX;
#X obj 580 148 cnv 15 400 550 empty empty empty 20 12 0 14 #82cbd5
#404040 0;
#X text 672 186 reverb;
#X text 829 186 distortion;
#X text 661 317 delay time;
#X text 670 450 feedback;
#X obj 632 207 hsl 128 60 0 127 0 0 \$0-reverb \$0-reverb-set empty
-2 -8 0 10 #027da2 #00314b #000000 0 1;
#X obj 634 338 hsl 128 60 0 127 0 0 \$0-delaytime \$0-delaytime-set
empty -2 -8 0 10 #027da1 #00314b #000000 0 1;
#X obj 635 473 hsl 128 60 0 127 0 0 \$0-feedback \$0-feedback-set empty
-2 -8 0 10 #027da2 #00314b #000000 0 1;
#X obj 803 473 hsl 128 60 0 127 0 0 \$0-ringMod \$0-ringMod-set empty
-2 -8 0 10 #027da2 #00314b #000000 0 1;
#X obj 804 338 hsl 128 60 0 127 0 0 \$0-bitcrush \$0-bitcrush-set empty
-2 -8 0 10 #027da2 #00314b #000000 0 1;
#X obj 803 207 hsl 128 60 0 127 0 0 \$0-distortion \$0-distortion-set
empty -2 -8 0 10 #027da2 #00314b #000000 0 1;
#X text 851 316 crush;
#X text 851 451 ring;
#X obj 672 569 bng 60 250 50 0 \$0-preset1-s \$0-preset1-r empty 17
7 0 10 #037da4 #00314b #000000;
#X obj 840 569 bng 60 250 50 0 \$0-preset2-s \$0-preset2-r empty 17
7 0 10 #037da4 #00314b #000000;
#X text 671 638 preset 1;
#X text 839 638 preset 2;
#N canvas 473 50 967 318 FXpresets 0;
#X obj 40 52 r \$0-preset1-s;
#X obj 40 87 float \$0;
#X msg 40 116 \; \$1-reverb-set 80 \; \$1-delaytime-set 30 \; \$1-feedback-set
30 \; \$1-distortion-set 0 \; \$1-bitcrush-set 0 \; \$1-ringMod-set
0 \;;
#X obj 233 89 float \$0;
#X obj 233 54 r \$0-preset2-s;
#X msg 233 118 \; \$1-reverb-set 0 \; \$1-delaytime-set 0 \; \$1-feedback-set
0 \; \$1-distortion-set 20 \; \$1-bitcrush-set 30 \; \$1-ringMod-set
40 \;;
#X obj 426 89 float \$0;
#X obj 619 91 float \$0;
#X obj 426 54 r \$0-presynth1-s;
#X obj 619 56 r \$0-presynth2-s;
#X msg 426 118 \; \$1-attack 30 \; \$1-release 50 \; \$1-synthshape
80 \; \$1-index 0 \; \$1-synthrate 0 \; \$1-glide 100 \;;
#X msg 619 120 \; \$1-attack 10 \; \$1-release 20 \; \$1-synthshape
30 \; \$1-index 40 \; \$1-synthrate 30 \; \$1-glide 20 \;;
#X connect 0 0 1 0;
#X connect 1 0 2 0;
#X connect 3 0 5 0;
#X connect 4 0 3 0;
#X connect 6 0 10 0;
#X connect 7 0 11 0;
#X connect 8 0 6 0;
#X connect 9 0 7 0;
#X restore 1095 54 pd FXpresets;
#X obj 199 568 bng 60 250 50 0 \$0-presynth1-s \$0-presynth1-r empty
17 7 0 10 #037da4 #00314b #000000;
#X obj 367 568 bng 60 250 50 0 \$0-presynth2-s \$0-presynth2-r empty
17 7 0 10 #037da4 #00314b #000000;
#X text 199 636 preset 1;
#X text 366 637 preset 2;
#X obj 10 10 cnv 15 1080 100 empty empty empty 20 12 0 14 #5aa4d6 #404040
0;
#X obj 247 33 hradio 60 1 0 3 \$0-octave \$0-octave empty 0 -8 0 10
#00314b #037da4 #000000 0;
#X text 192 53 octave;
#X text 655 52 volume;
#X obj 715 31 hsl 175 60 0 127 0 0 \$0-synthvol synthvol empty -2 -8
0 10 #00314b #037da4 #000000 0 1;
#X text 180 274 1;
#X text 223 273 2;
#X text 269 273 3;
#X text 312 272 4;
#X text 358 273 5;
#X text 401 273 6;
#X text 446 273 7;
#X text 203 172 Y;
#X text 248 172 U;
#X text 338 171 I;
#X text 381 171 O;
#X text 426 171 P;
#X coords 0 -1 1 1 1080 720 1 10 10;
