#N canvas 63 88 450 300 12;
#X obj 39 37 key;
#X obj 113 37 keyup;
#X obj 39 83 t b b;
#X msg 71 108 stop;
#X obj 40 205 change;
#X obj 113 144 delay 50;
#X msg 39 108 1;
#X msg 113 168 0;
#X obj 39 60 select \$1;
#X obj 113 60 select \$1;
#X obj 40 234 outlet;
#X connect 0 0 8 0;
#X connect 1 0 9 0;
#X connect 2 0 6 0;
#X connect 2 1 3 0;
#X connect 3 0 5 0;
#X connect 4 0 10 0;
#X connect 5 0 7 0;
#X connect 6 0 4 0;
#X connect 7 0 4 0;
#X connect 8 0 2 0;
#X connect 9 0 5 0;
