#N canvas 0 25 1440 778 12;
#N canvas 447 210 450 300 codigo 0;
#N canvas 449 240 450 300 sequencer 0;
#X restore 174 17 pd sequencer;
#N canvas 64 64 450 300 drumbox 0;
#N canvas 134 85 534 366 drumkeys 0;
#X obj 305 20 key;
#X msg 305 72 1;
#X obj 406 20 key;
#X msg 406 72 1;
#X obj 9 19 key;
#X msg 9 71 1;
#X obj 106 20 key;
#X msg 106 72 1;
#X obj 203 21 key;
#X msg 203 73 1;
#X obj 9 46 select 122;
#X obj 106 47 select 120;
#X obj 203 48 select 99;
#X obj 22 250 key;
#X msg 21 300 1;
#X obj 18 143 key;
#X msg 18 195 1;
#X obj 18 170 select 110;
#X obj 106 96 s \$0-x-click2;
#X obj 203 97 s \$0-c-click3;
#X obj 305 47 select 118;
#X obj 305 96 s \$0-v-click4;
#X obj 406 47 select 98;
#X obj 406 96 s \$0-b-click5;
#X obj 18 219 s \$0-selclick-set;
#X obj 21 275 select 109;
#X obj 21 324 s \$0-myclick-set;
#X obj 9 95 s \$0-z-click1;
#X connect 0 0 20 0;
#X connect 1 0 21 0;
#X connect 2 0 22 0;
#X connect 3 0 23 0;
#X connect 4 0 10 0;
#X connect 5 0 27 0;
#X connect 6 0 11 0;
#X connect 7 0 18 0;
#X connect 8 0 12 0;
#X connect 9 0 19 0;
#X connect 10 0 5 0;
#X connect 11 0 7 0;
#X connect 12 0 9 0;
#X connect 13 0 25 0;
#X connect 14 0 26 0;
#X connect 15 0 17 0;
#X connect 16 0 24 0;
#X connect 17 0 16 0;
#X connect 20 0 1 0;
#X connect 22 0 3 0;
#X connect 25 0 14 0;
#X restore 23 23 pd drumkeys;
#N canvas 796 168 247 343 FX 0;
#N canvas 171 59 751 504 drums 0;
#N canvas 94 94 1199 364 initA 0;
#X obj 463 13 loadbang;
#X obj 455 142 soundfiler;
#X obj 549 289 *~ 0.5;
#X obj 549 314 outlet~;
#X obj 260 223 r \$0-click1;
#X obj 387 223 r \$0-click2;
#X obj 514 223 r \$0-click3;
#X obj 617 223 r \$0-click4;
#X obj 777 223 r \$0-click5;
#X msg 58 39 read -resize patches/sounds/kitA/A_kick.wav A_kick;
#X msg 58 63 read -resize patches/sounds/kitA/A_snare.wav A_snare;
#X msg 58 88 read -resize patches/sounds/kitA/A_hh.wav A_hh;
#X msg 551 41 read -resize patches/sounds/kitA/A_openhihat.wav A_openhihat
;
#X msg 550 66 read -resize patches/sounds/kitA/A_clap.wav A_clap;
#N canvas 117 283 1043 176 arrays 0;
#N canvas 0 22 450 278 (subpatch) 0;
#X array A_kick 34580 float 0;
#X coords 0 1 34579 -1 200 140 1;
#X restore 13 23 graph;
#N canvas 0 22 450 278 (subpatch) 0;
#X array A_snare 36073 float 0;
#X coords 0 1 36072 -1 200 140 1;
#X restore 217 23 graph;
#N canvas 0 22 450 278 (subpatch) 0;
#X array A_hh 18257 float 0;
#X coords 0 1 18256 -1 200 140 1;
#X restore 421 23 graph;
#N canvas 0 22 450 278 (subpatch) 0;
#X array A_openhihat 34300 float 0;
#X coords 0 1 34299 -1 200 140 1;
#X restore 625 23 graph;
#N canvas 0 22 450 278 (subpatch) 0;
#X array A_clap 6016 float 0;
#X coords 0 1 6015 -1 200 140 1;
#X restore 829 23 graph;
#X restore 550 95 pd arrays;
#X obj 260 246 tabplay~ A_kick;
#X obj 387 246 tabplay~ A_snare;
#X obj 514 246 tabplay~ A_hh;
#X obj 617 246 tabplay~ A_openhihat;
#X obj 777 246 tabplay~ A_clap;
#X connect 0 0 9 0;
#X connect 0 0 10 0;
#X connect 0 0 12 0;
#X connect 0 0 13 0;
#X connect 0 0 11 0;
#X connect 2 0 3 0;
#X connect 4 0 15 0;
#X connect 5 0 16 0;
#X connect 6 0 17 0;
#X connect 7 0 18 0;
#X connect 8 0 19 0;
#X connect 9 0 1 0;
#X connect 10 0 1 0;
#X connect 11 0 1 0;
#X connect 12 0 1 0;
#X connect 13 0 1 0;
#X connect 15 0 2 0;
#X connect 16 0 2 0;
#X connect 17 0 2 0;
#X connect 18 0 2 0;
#X connect 19 0 2 0;
#X restore 135 27 pd initA;
#X obj 228 264 *~;
#X obj 265 136 select 0;
#X msg 265 191 1 10;
#X msg 318 191 0 10;
#X obj 246 233 line~;
#X obj 377 136 select 1;
#X msg 377 191 1 10;
#X msg 430 191 0 10;
#X obj 358 233 line~;
#X obj 340 267 *~;
#X obj 515 136 select 2;
#X msg 512 196 1 10;
#X msg 565 196 0 10;
#X obj 493 238 line~;
#X obj 475 270 *~;
#X obj 639 134 select 3;
#X msg 640 191 1 10;
#X msg 693 191 0 10;
#X obj 621 233 line~;
#X obj 603 273 *~;
#N canvas 560 230 185 177 init 0;
#X obj 47 40 loadbang;
#X obj 47 65 float \$0;
#X msg 47 91 \; pd dsp 1 \; \$1-drumkit 1 \;;
#X connect 0 0 1 0;
#X connect 1 0 2 0;
#X restore 577 25 pd init;
#X obj 298 459 outlet~;
#X obj 362 73 r \$0-drumkit;
#N canvas 44 26 463 777 mysamples 0;
#X obj 36 365 adc~;
#X obj 128 442 delay 1000;
#X msg 128 473 stop;
#X obj 135 141 metro 1000;
#X msg 176 45 stop, f 5;
#X obj 135 251 int;
#X msg 153 211 5;
#X obj 182 253 - 1;
#X floatatom 135 289 5 0 0 0 - - - 0;
#X obj 269 316 sel 0;
#X obj 153 184 loadbang;
#X obj 349 350 bng 15 250 50 0 empty empty empty 17 7 0 10 #fcfcfc
#000000 #000000;
#X obj 35 507 writesf~ 1;
#X obj 34 607 list;
#X msg 34 639 open \$1 \, 1;
#X obj 34 673 readsf~;
#X obj 34 703 outlet~;
#X obj 135 15 r \$0-mysound;
#X obj 74 320 s \$0-counter;
#X msg 79 412 open patches/sounds/recorded/mysound.wav \, start;
#X obj 34 548 r \$0-myclick;
#X msg 34 577 patches/sounds/recorded/mysound.wav;
#X connect 0 0 12 0;
#X connect 1 0 2 0;
#X connect 2 0 12 0;
#X connect 3 0 5 0;
#X connect 4 0 3 0;
#X connect 5 0 7 0;
#X connect 5 0 8 0;
#X connect 6 0 5 1;
#X connect 7 0 5 1;
#X connect 8 0 9 0;
#X connect 8 0 18 0;
#X connect 9 0 6 0;
#X connect 9 0 4 0;
#X connect 9 0 19 0;
#X connect 9 0 11 0;
#X connect 9 0 1 0;
#X connect 10 0 6 0;
#X connect 13 0 14 0;
#X connect 14 0 15 0;
#X connect 15 0 16 0;
#X connect 17 0 3 0;
#X connect 19 0 12 0;
#X connect 20 0 21 0;
#X connect 21 0 13 0;
#X restore 29 185 pd mysamples;
#N canvas 213 65 296 354 selectsamples 0;
#X obj 118 130 openpanel;
#X msg 118 239 open \$1;
#X obj 44 134 t b b;
#X listbox 118 169 20 0 0 0 - - - 0;
#X obj 118 272 readsf~;
#X obj 119 305 outlet~;
#X msg 44 196 1;
#X obj 44 36 r \$0-selclick;
#X obj 118 62 r \$0-selectsound;
#X connect 0 0 3 0;
#X connect 1 0 4 0;
#X connect 2 0 6 0;
#X connect 2 1 3 0;
#X connect 3 0 1 0;
#X connect 4 0 5 0;
#X connect 6 0 4 0;
#X connect 7 0 2 0;
#X connect 8 0 0 0;
#X restore 38 316 pd selectsamples;
#X obj 298 428 *~ 0.5;
#N canvas 94 94 1199 364 initB 0;
#X obj 463 13 loadbang;
#X obj 455 142 soundfiler;
#X obj 549 289 *~ 0.5;
#X obj 549 314 outlet~;
#X obj 260 223 r \$0-click1;
#X obj 387 223 r \$0-click2;
#X obj 514 223 r \$0-click3;
#X obj 617 223 r \$0-click4;
#X obj 777 223 r \$0-click5;
#N canvas 117 283 1043 176 arrays 0;
#N canvas 0 22 450 278 (subpatch) 0;
#X array B_kick 80832 float 0;
#X coords 0 1 80831 -1 200 140 1;
#X restore 13 23 graph;
#N canvas 0 22 450 278 (subpatch) 0;
#X array B_snare 11587 float 0;
#X coords 0 1 11586 -1 200 140 1;
#X restore 217 23 graph;
#N canvas 0 22 450 278 (subpatch) 0;
#X array B_hh 13759 float 0;
#X coords 0 1 13758 -1 200 140 1;
#X restore 421 23 graph;
#N canvas 0 22 450 278 (subpatch) 0;
#X array B_openhihat 57315 float 0;
#X coords 0 1 57314 -1 200 140 1;
#X restore 625 23 graph;
#N canvas 0 22 450 278 (subpatch) 0;
#X array B_clap 10543 float 0;
#X coords 0 1 10542 -1 200 140 1;
#X restore 829 23 graph;
#X restore 550 95 pd arrays;
#X msg 58 39 read -resize patches/sounds/kitB/B_kick.wav B_kick;
#X msg 58 63 read -resize patches/sounds/kitB/B_snare.wav B_snare;
#X msg 58 88 read -resize patches/sounds/kitB/B_hh.wav B_hh;
#X msg 551 41 read -resize patches/sounds/kitB/B_openhihat.wav B_openhihat
;
#X msg 550 66 read -resize patches/sounds/kitB/B_clap.wav B_clap;
#X obj 260 246 tabplay~ B_kick;
#X obj 387 246 tabplay~ B_snare;
#X obj 514 246 tabplay~ B_hh;
#X obj 617 246 tabplay~ B_openhihat;
#X obj 777 246 tabplay~ B_clap;
#X connect 0 0 10 0;
#X connect 0 0 11 0;
#X connect 0 0 13 0;
#X connect 0 0 14 0;
#X connect 0 0 12 0;
#X connect 2 0 3 0;
#X connect 4 0 15 0;
#X connect 5 0 16 0;
#X connect 6 0 17 0;
#X connect 7 0 18 0;
#X connect 8 0 19 0;
#X connect 10 0 1 0;
#X connect 11 0 1 0;
#X connect 12 0 1 0;
#X connect 13 0 1 0;
#X connect 14 0 1 0;
#X connect 15 0 2 0;
#X connect 16 0 2 0;
#X connect 17 0 2 0;
#X connect 18 0 2 0;
#X connect 19 0 2 0;
#X restore 201 27 pd initB;
#N canvas 94 94 1199 364 initC 0;
#X obj 463 13 loadbang;
#X obj 455 142 soundfiler;
#X obj 549 289 *~ 0.5;
#X obj 549 314 outlet~;
#X obj 260 223 r \$0-click1;
#X obj 387 223 r \$0-click2;
#X obj 514 223 r \$0-click3;
#X obj 617 223 r \$0-click4;
#X obj 777 223 r \$0-click5;
#N canvas 117 283 1043 176 arrays 0;
#N canvas 0 22 450 278 (subpatch) 0;
#X array C_kick 31998 float 0;
#X coords 0 1 31997 -1 200 140 1;
#X restore 13 23 graph;
#N canvas 0 22 450 278 (subpatch) 0;
#X array C_snare 14905 float 0;
#X coords 0 1 14904 -1 200 140 1;
#X restore 217 23 graph;
#N canvas 0 22 450 278 (subpatch) 0;
#X array C_hh 5755 float 0;
#X coords 0 1 5754 -1 200 140 1;
#X restore 421 23 graph;
#N canvas 0 22 450 278 (subpatch) 0;
#X array C_openhihat 37321 float 0;
#X coords 0 1 37320 -1 200 140 1;
#X restore 625 23 graph;
#N canvas 0 22 450 278 (subpatch) 0;
#X array C_clap 8267 float 0;
#X coords 0 1 8266 -1 200 140 1;
#X restore 829 23 graph;
#X restore 550 95 pd arrays;
#X msg 58 39 read -resize patches/sounds/kitC/C_kick.wav C_kick;
#X msg 58 63 read -resize patches/sounds/kitC/C_snare.wav C_snare;
#X msg 58 88 read -resize patches/sounds/kitC/C_hh.wav C_hh;
#X msg 551 41 read -resize patches/sounds/kitC/C_openhihat.wav C_openhihat
;
#X msg 550 66 read -resize patches/sounds/kitC/C_clap.wav C_clap;
#X obj 260 246 tabplay~ C_kick;
#X obj 387 246 tabplay~ C_snare;
#X obj 514 246 tabplay~ C_hh;
#X obj 617 246 tabplay~ C_openhihat;
#X obj 777 246 tabplay~ C_clap;
#X connect 0 0 10 0;
#X connect 0 0 11 0;
#X connect 0 0 13 0;
#X connect 0 0 14 0;
#X connect 0 0 12 0;
#X connect 2 0 3 0;
#X connect 4 0 15 0;
#X connect 5 0 16 0;
#X connect 6 0 17 0;
#X connect 7 0 18 0;
#X connect 8 0 19 0;
#X connect 10 0 1 0;
#X connect 11 0 1 0;
#X connect 12 0 1 0;
#X connect 13 0 1 0;
#X connect 14 0 1 0;
#X connect 15 0 2 0;
#X connect 16 0 2 0;
#X connect 17 0 2 0;
#X connect 18 0 2 0;
#X connect 19 0 2 0;
#X restore 271 27 pd initC;
#N canvas 94 94 1199 364 initD 0;
#X obj 463 13 loadbang;
#X obj 455 142 soundfiler;
#X obj 549 289 *~ 0.5;
#X obj 549 314 outlet~;
#X obj 260 223 r \$0-click1;
#X obj 387 223 r \$0-click2;
#X obj 514 223 r \$0-click3;
#X obj 617 223 r \$0-click4;
#X obj 777 223 r \$0-click5;
#N canvas 142 253 1043 176 arrays 0;
#N canvas 0 22 450 278 (subpatch) 0;
#X array D_kick 11400 float 0;
#X coords 0 1 11399 -1 200 140 1;
#X restore 13 23 graph;
#N canvas 0 22 450 278 (subpatch) 0;
#X array D_snare 13283 float 0;
#X coords 0 1 13282 -1 200 140 1;
#X restore 217 23 graph;
#N canvas 0 22 450 278 (subpatch) 0;
#X array D_hh 13671 float 0;
#X coords 0 1 13670 -1 200 140 1;
#X restore 421 23 graph;
#N canvas 0 22 450 278 (subpatch) 0;
#X array D_openhihat 24046 float 0;
#X coords 0 1 24045 -1 200 140 1;
#X restore 625 23 graph;
#N canvas 0 22 450 278 (subpatch) 0;
#X array D_clap 33356 float 0;
#X coords 0 1 33355 -1 200 140 1;
#X restore 829 23 graph;
#X restore 550 95 pd arrays;
#X msg 58 39 read -resize patches/sounds/kitD/D_kick.wav D_kick;
#X msg 58 63 read -resize patches/sounds/kitD/D_snare.wav D_snare;
#X msg 58 88 read -resize patches/sounds/kitD/D_hh.wav D_hh;
#X msg 551 41 read -resize patches/sounds/kitD/D_openhihat.wav D_openhihat
;
#X msg 550 66 read -resize patches/sounds/kitD/D_clap.wav D_clap;
#X obj 260 246 tabplay~ D_kick;
#X obj 387 246 tabplay~ D_snare;
#X obj 514 246 tabplay~ D_hh;
#X obj 617 246 tabplay~ D_openhihat;
#X obj 777 246 tabplay~ D_clap;
#X connect 0 0 10 0;
#X connect 0 0 11 0;
#X connect 0 0 13 0;
#X connect 0 0 14 0;
#X connect 0 0 12 0;
#X connect 2 0 3 0;
#X connect 4 0 15 0;
#X connect 5 0 16 0;
#X connect 6 0 17 0;
#X connect 7 0 18 0;
#X connect 8 0 19 0;
#X connect 10 0 1 0;
#X connect 11 0 1 0;
#X connect 12 0 1 0;
#X connect 13 0 1 0;
#X connect 14 0 1 0;
#X connect 15 0 2 0;
#X connect 16 0 2 0;
#X connect 17 0 2 0;
#X connect 18 0 2 0;
#X connect 19 0 2 0;
#X restore 338 27 pd initD;
#X connect 0 0 1 0;
#X connect 1 0 26 0;
#X connect 2 0 3 0;
#X connect 2 1 4 0;
#X connect 3 0 5 0;
#X connect 4 0 5 0;
#X connect 5 0 1 1;
#X connect 6 0 7 0;
#X connect 6 1 8 0;
#X connect 7 0 9 0;
#X connect 8 0 9 0;
#X connect 9 0 10 1;
#X connect 10 0 26 0;
#X connect 11 0 12 0;
#X connect 11 1 13 0;
#X connect 12 0 14 0;
#X connect 13 0 14 0;
#X connect 14 0 15 1;
#X connect 15 0 26 0;
#X connect 16 0 17 0;
#X connect 16 1 18 0;
#X connect 17 0 19 0;
#X connect 18 0 19 0;
#X connect 19 0 20 1;
#X connect 20 0 26 0;
#X connect 23 0 2 0;
#X connect 23 0 6 0;
#X connect 23 0 11 0;
#X connect 23 0 16 0;
#X connect 24 0 26 0;
#X connect 25 0 26 0;
#X connect 26 0 22 0;
#X connect 27 0 10 0;
#X connect 28 0 15 0;
#X connect 29 0 20 0;
#X restore 41 45 pd drums;
#N canvas 336 228 744 505 reverb 0;
#X obj 51 375 outlet~;
#X obj 55 266 inlet~;
#X obj 310 293 expr 1 - $f1;
#X obj 296 59 loadbang;
#X obj 112 119 hsl 128 15 0 1 0 1 empty empty 'roomsize' 20 8 0 10
#fcfcfc #fc8000 #000000 5000 0;
#X obj 127 162 hsl 128 15 0 2.4 0 1 empty empty damp 20 8 0 10 #fcfcfc
#fc8000 #000000 0 0;
#X obj 157 255 hsl 128 15 0 1 0 1 empty empty wet 20 8 0 10 #fcfcfc
#fc8000 #000000 1250 0;
#X obj 142 205 hsl 128 15 0 1 0 1 empty empty dry 20 8 0 10 #fcfcfc
#fc8000 #000000 11450 0;
#N canvas 256 339 634 321 vfreeverb~ 0;
#N canvas 824 312 778 367 combfilters-left1 0;
#X obj 46 244 +~;
#X obj 61 219 *~ 0.3;
#X obj 61 194 lop~ 1000;
#X obj 231 244 +~;
#X obj 246 219 *~ 0.3;
#X obj 246 194 lop~ 1000;
#X obj 429 218 *~ 0.3;
#X obj 429 193 lop~ 1000;
#X obj 414 241 +~;
#X obj 610 218 *~ 0.3;
#X obj 610 193 lop~ 1000;
#X obj 595 241 +~;
#X obj 61 141 delread~ \$0-comb1left;
#X obj 246 142 delread~ \$0-comb2left;
#X obj 429 141 delread~ \$0-comb3left;
#X obj 610 141 delread~ \$0-comb4left;
#X obj 46 268 delwrite~ \$0-comb1left 100;
#X obj 231 268 delwrite~ \$0-comb2left 100;
#X obj 414 267 delwrite~ \$0-comb3left 100;
#X obj 595 267 delwrite~ \$0-comb4left 100;
#X obj 61 97 r \$0-comb1left;
#X obj 246 97 r \$0-comb2left;
#X obj 429 95 r \$0-comb3left;
#X obj 610 96 r \$0-comb4left;
#X obj 112 170 r \$0-frequency;
#X obj 297 170 r \$0-frequency;
#X obj 480 167 r \$0-frequency;
#X obj 661 167 r \$0-frequency;
#X obj 46 28 inlet~;
#X obj 338 326 outlet~;
#X floatatom 70 119 5 0 0 0 - - - 0;
#X floatatom 255 121 5 0 0 0 - - - 0;
#X floatatom 439 119 5 0 0 0 - - - 0;
#X floatatom 622 121 5 0 0 0 - - - 0;
#X obj 279 58 clip 0 0.99;
#X obj 279 29 r \$0-room;
#X connect 0 0 16 0;
#X connect 1 0 0 1;
#X connect 2 0 1 0;
#X connect 2 0 29 0;
#X connect 3 0 17 0;
#X connect 4 0 3 1;
#X connect 5 0 4 0;
#X connect 5 0 29 0;
#X connect 6 0 8 1;
#X connect 7 0 6 0;
#X connect 7 0 29 0;
#X connect 8 0 18 0;
#X connect 9 0 11 1;
#X connect 10 0 9 0;
#X connect 10 0 29 0;
#X connect 11 0 19 0;
#X connect 12 0 2 0;
#X connect 13 0 5 0;
#X connect 14 0 7 0;
#X connect 15 0 10 0;
#X connect 20 0 12 0;
#X connect 20 0 30 0;
#X connect 21 0 13 0;
#X connect 21 0 31 0;
#X connect 22 0 14 0;
#X connect 22 0 32 0;
#X connect 23 0 15 0;
#X connect 23 0 33 0;
#X connect 24 0 2 1;
#X connect 25 0 5 1;
#X connect 26 0 7 1;
#X connect 27 0 10 1;
#X connect 28 0 0 0;
#X connect 28 0 3 0;
#X connect 28 0 8 0;
#X connect 28 0 11 0;
#X connect 34 0 1 1;
#X connect 34 0 4 1;
#X connect 34 0 6 1;
#X connect 34 0 9 1;
#X connect 35 0 34 0;
#X restore 15 100 pd combfilters-left1;
#N canvas 27 56 358 650 diffusor-left 0;
#X obj 51 107 *~ 0.5;
#X obj 36 132 +~;
#X obj 66 132 -~;
#X obj 36 26 inlet~;
#X obj 81 238 *~ 0.5;
#X obj 66 263 +~;
#X obj 96 263 -~;
#X obj 111 368 *~ 0.5;
#X obj 96 393 +~;
#X obj 126 393 -~;
#X obj 141 498 *~ 0.5;
#X obj 126 523 +~;
#X obj 156 523 -~;
#X obj 156 605 outlet~;
#X text 95 28 freeverb's diffusor;
#X obj 156 576 hip~ 5;
#X floatatom 214 70 5 0 0 0 - - - 0;
#X floatatom 246 203 5 0 0 0 - - - 0;
#X floatatom 280 334 5 0 0 0 - - - 0;
#X floatatom 304 464 5 0 0 0 - - - 0;
#X obj 51 53 r \$0-allpass1left;
#X obj 51 80 delread~ \$0-allpass1left;
#X obj 36 158 delwrite~ \$0-allpass1left 40;
#X obj 81 186 r \$0-allpass2left;
#X obj 81 211 delread~ \$0-allpass2left;
#X obj 66 290 delwrite~ \$0-allpass2left 40;
#X obj 111 317 r \$0-allpass3left;
#X obj 111 341 delread~ \$0-allpass3left;
#X obj 96 420 delwrite~ \$0-allpass3left 40;
#X obj 141 447 r \$0-allpass4left;
#X obj 141 471 delread~ \$0-allpass4left;
#X obj 126 550 delwrite~ \$0-allpass4left 40;
#X connect 0 0 1 1;
#X connect 1 0 22 0;
#X connect 2 0 5 0;
#X connect 2 0 6 1;
#X connect 3 0 1 0;
#X connect 3 0 2 1;
#X connect 4 0 5 1;
#X connect 5 0 25 0;
#X connect 6 0 8 0;
#X connect 6 0 9 1;
#X connect 7 0 8 1;
#X connect 8 0 28 0;
#X connect 9 0 11 0;
#X connect 9 0 12 1;
#X connect 10 0 11 1;
#X connect 11 0 31 0;
#X connect 12 0 15 0;
#X connect 15 0 13 0;
#X connect 20 0 16 0;
#X connect 20 0 21 0;
#X connect 21 0 0 0;
#X connect 21 0 2 0;
#X connect 23 0 17 0;
#X connect 23 0 24 0;
#X connect 24 0 4 0;
#X connect 24 0 6 0;
#X connect 26 0 18 0;
#X connect 26 0 27 0;
#X connect 27 0 7 0;
#X connect 27 0 9 0;
#X connect 29 0 19 0;
#X connect 29 0 30 0;
#X connect 30 0 10 0;
#X connect 30 0 12 0;
#X restore 15 168 pd diffusor-left;
#N canvas 312 366 778 367 combfilters-left2 0;
#X obj 46 244 +~;
#X obj 61 219 *~ 0.3;
#X obj 61 194 lop~ 1000;
#X obj 231 244 +~;
#X obj 246 219 *~ 0.3;
#X obj 246 194 lop~ 1000;
#X obj 429 218 *~ 0.3;
#X obj 429 193 lop~ 1000;
#X obj 414 241 +~;
#X obj 610 218 *~ 0.3;
#X obj 610 193 lop~ 1000;
#X obj 595 241 +~;
#X obj 112 170 r \$0-frequency;
#X obj 297 170 r \$0-frequency;
#X obj 480 167 r \$0-frequency;
#X obj 661 167 r \$0-frequency;
#X obj 46 28 inlet~;
#X obj 338 326 outlet~;
#X obj 61 90 r \$0-comb5left;
#X obj 61 141 delread~ \$0-comb5left;
#X obj 46 268 delwrite~ \$0-comb5left 100;
#X obj 246 90 r \$0-comb6left;
#X obj 246 142 delread~ \$0-comb6left;
#X obj 231 268 delwrite~ \$0-comb6left 100;
#X obj 429 88 r \$0-comb7left;
#X obj 429 141 delread~ \$0-comb7left;
#X obj 414 267 delwrite~ \$0-comb7left 100;
#X obj 610 89 r \$0-comb8left;
#X obj 610 141 delread~ \$0-comb8left;
#X obj 595 267 delwrite~ \$0-comb8left 100;
#X floatatom 70 116 5 0 0 0 - - - 0;
#X floatatom 261 118 5 0 0 0 - - - 0;
#X floatatom 440 117 5 0 0 0 - - - 0;
#X floatatom 620 116 5 0 0 0 - - - 0;
#X obj 279 58 clip 0 0.99;
#X obj 279 28 r \$0-room;
#X connect 0 0 20 0;
#X connect 1 0 0 1;
#X connect 2 0 1 0;
#X connect 2 0 17 0;
#X connect 3 0 23 0;
#X connect 4 0 3 1;
#X connect 5 0 4 0;
#X connect 5 0 17 0;
#X connect 6 0 8 1;
#X connect 7 0 6 0;
#X connect 7 0 17 0;
#X connect 8 0 26 0;
#X connect 9 0 11 1;
#X connect 10 0 9 0;
#X connect 10 0 17 0;
#X connect 11 0 29 0;
#X connect 12 0 2 1;
#X connect 13 0 5 1;
#X connect 14 0 7 1;
#X connect 15 0 10 1;
#X connect 16 0 0 0;
#X connect 16 0 3 0;
#X connect 16 0 8 0;
#X connect 16 0 11 0;
#X connect 18 0 19 0;
#X connect 18 0 30 0;
#X connect 19 0 2 0;
#X connect 21 0 22 0;
#X connect 21 0 31 0;
#X connect 22 0 5 0;
#X connect 24 0 25 0;
#X connect 24 0 32 0;
#X connect 25 0 7 0;
#X connect 27 0 28 0;
#X connect 27 0 33 0;
#X connect 28 0 10 0;
#X connect 34 0 1 1;
#X connect 34 0 4 1;
#X connect 34 0 6 1;
#X connect 34 0 9 1;
#X connect 35 0 34 0;
#X restore 36 134 pd combfilters-left2;
#N canvas 261 41 778 367 combfilters-right1 0;
#X obj 46 244 +~;
#X obj 61 219 *~ 0.3;
#X obj 61 194 lop~ 1000;
#X obj 231 244 +~;
#X obj 246 219 *~ 0.3;
#X obj 246 194 lop~ 1000;
#X obj 429 218 *~ 0.3;
#X obj 429 193 lop~ 1000;
#X obj 414 241 +~;
#X obj 610 218 *~ 0.3;
#X obj 610 193 lop~ 1000;
#X obj 595 241 +~;
#X obj 112 170 r \$0-frequency;
#X obj 297 170 r \$0-frequency;
#X obj 480 167 r \$0-frequency;
#X obj 661 167 r \$0-frequency;
#X obj 46 28 inlet~;
#X obj 338 326 outlet~;
#X floatatom 70 119 5 0 0 0 - - - 0;
#X floatatom 255 121 5 0 0 0 - - - 0;
#X floatatom 439 119 5 0 0 0 - - - 0;
#X floatatom 622 121 5 0 0 0 - - - 0;
#X obj 61 141 delread~ \$0-comb1right;
#X obj 246 142 delread~ \$0-comb2right;
#X obj 429 141 delread~ \$0-comb3right;
#X obj 610 141 delread~ \$0-comb4right;
#X obj 61 97 r \$0-comb1right;
#X obj 246 97 r \$0-comb2right;
#X obj 429 95 r \$0-comb3right;
#X obj 610 97 r \$0-comb4right;
#X obj 46 268 delwrite~ \$0-comb1right 100;
#X obj 231 268 delwrite~ \$0-comb2right 100;
#X obj 414 267 delwrite~ \$0-comb3right 100;
#X obj 595 267 delwrite~ \$0-comb4right 100;
#X obj 279 58 clip 0 0.99;
#X obj 279 28 r \$0-room;
#X connect 0 0 30 0;
#X connect 1 0 0 1;
#X connect 2 0 1 0;
#X connect 2 0 17 0;
#X connect 3 0 31 0;
#X connect 4 0 3 1;
#X connect 5 0 4 0;
#X connect 5 0 17 0;
#X connect 6 0 8 1;
#X connect 7 0 6 0;
#X connect 7 0 17 0;
#X connect 8 0 32 0;
#X connect 9 0 11 1;
#X connect 10 0 9 0;
#X connect 10 0 17 0;
#X connect 11 0 33 0;
#X connect 12 0 2 1;
#X connect 13 0 5 1;
#X connect 14 0 7 1;
#X connect 15 0 10 1;
#X connect 16 0 0 0;
#X connect 16 0 3 0;
#X connect 16 0 8 0;
#X connect 16 0 11 0;
#X connect 22 0 2 0;
#X connect 23 0 5 0;
#X connect 24 0 7 0;
#X connect 25 0 10 0;
#X connect 26 0 18 0;
#X connect 26 0 22 0;
#X connect 27 0 19 0;
#X connect 27 0 23 0;
#X connect 28 0 20 0;
#X connect 28 0 24 0;
#X connect 29 0 21 0;
#X connect 29 0 25 0;
#X connect 34 0 1 1;
#X connect 34 0 4 1;
#X connect 34 0 6 1;
#X connect 34 0 9 1;
#X connect 35 0 34 0;
#X restore 208 99 pd combfilters-right1;
#N canvas 312 366 778 367 combfilters-right2 0;
#X obj 46 244 +~;
#X obj 61 219 *~ 0.3;
#X obj 61 194 lop~ 1000;
#X obj 231 244 +~;
#X obj 246 219 *~ 0.3;
#X obj 246 194 lop~ 1000;
#X obj 429 218 *~ 0.3;
#X obj 429 193 lop~ 1000;
#X obj 414 241 +~;
#X obj 610 218 *~ 0.3;
#X obj 610 193 lop~ 1000;
#X obj 595 241 +~;
#X obj 112 170 r \$0-frequency;
#X obj 297 170 r \$0-frequency;
#X obj 480 167 r \$0-frequency;
#X obj 661 167 r \$0-frequency;
#X obj 46 28 inlet~;
#X obj 338 326 outlet~;
#X floatatom 70 116 5 0 0 0 - - - 0;
#X floatatom 261 118 5 0 0 0 - - - 0;
#X floatatom 440 117 5 0 0 0 - - - 0;
#X floatatom 620 116 5 0 0 0 - - - 0;
#X obj 279 58 clip 0 0.99;
#X obj 61 90 r \$0-comb5right;
#X obj 246 90 r \$0-comb6right;
#X obj 429 88 r \$0-comb7right;
#X obj 610 89 r \$0-comb8right;
#X obj 61 141 delread~ \$0-comb5right;
#X obj 246 142 delread~ \$0-comb6right;
#X obj 429 141 delread~ \$0-comb7right;
#X obj 610 141 delread~ \$0-comb8right;
#X obj 46 268 delwrite~ \$0-comb5right 100;
#X obj 231 268 delwrite~ \$0-comb6right 100;
#X obj 414 267 delwrite~ \$0-comb7right 100;
#X obj 595 267 delwrite~ \$0-comb8right 100;
#X obj 279 28 r \$0-room;
#X connect 0 0 31 0;
#X connect 1 0 0 1;
#X connect 2 0 1 0;
#X connect 2 0 17 0;
#X connect 3 0 32 0;
#X connect 4 0 3 1;
#X connect 5 0 4 0;
#X connect 5 0 17 0;
#X connect 6 0 8 1;
#X connect 7 0 6 0;
#X connect 7 0 17 0;
#X connect 8 0 33 0;
#X connect 9 0 11 1;
#X connect 10 0 9 0;
#X connect 10 0 17 0;
#X connect 11 0 34 0;
#X connect 12 0 2 1;
#X connect 13 0 5 1;
#X connect 14 0 7 1;
#X connect 15 0 10 1;
#X connect 16 0 0 0;
#X connect 16 0 3 0;
#X connect 16 0 8 0;
#X connect 16 0 11 0;
#X connect 22 0 1 1;
#X connect 22 0 4 1;
#X connect 22 0 6 1;
#X connect 22 0 9 1;
#X connect 23 0 18 0;
#X connect 23 0 27 0;
#X connect 24 0 19 0;
#X connect 24 0 28 0;
#X connect 25 0 20 0;
#X connect 25 0 29 0;
#X connect 26 0 21 0;
#X connect 26 0 30 0;
#X connect 27 0 2 0;
#X connect 28 0 5 0;
#X connect 29 0 7 0;
#X connect 30 0 10 0;
#X connect 35 0 22 0;
#X restore 225 133 pd combfilters-right2;
#N canvas 27 56 358 650 diffusor-right 0;
#X obj 51 107 *~ 0.5;
#X obj 36 132 +~;
#X obj 66 132 -~;
#X obj 36 26 inlet~;
#X obj 81 238 *~ 0.5;
#X obj 66 263 +~;
#X obj 96 263 -~;
#X obj 111 368 *~ 0.5;
#X obj 96 393 +~;
#X obj 126 393 -~;
#X obj 141 498 *~ 0.5;
#X obj 126 523 +~;
#X obj 156 523 -~;
#X obj 156 605 outlet~;
#X text 95 28 freeverb's diffusor;
#X obj 156 576 hip~ 5;
#X floatatom 214 70 5 0 0 0 - - - 0;
#X floatatom 244 203 5 0 0 0 - - - 0;
#X floatatom 280 334 5 0 0 0 - - - 0;
#X floatatom 304 464 5 0 0 0 - - - 0;
#X obj 51 53 r \$0-allpass1right;
#X obj 51 80 delread~ \$0-allpass1right;
#X obj 36 158 delwrite~ \$0-allpass1right 40;
#X obj 81 186 r \$0-allpass2right;
#X obj 81 211 delread~ \$0-allpass2right;
#X obj 66 290 delwrite~ \$0-allpass2right 40;
#X obj 111 317 r \$0-allpass3right;
#X obj 111 341 delread~ \$0-allpass3right;
#X obj 96 420 delwrite~ \$0-allpass3right 40;
#X obj 141 447 r \$0-allpass4right;
#X obj 141 471 delread~ \$0-allpass4right;
#X obj 126 550 delwrite~ \$0-allpass4right 40;
#X connect 0 0 1 1;
#X connect 1 0 22 0;
#X connect 2 0 5 0;
#X connect 2 0 6 1;
#X connect 3 0 1 0;
#X connect 3 0 2 1;
#X connect 4 0 5 1;
#X connect 5 0 25 0;
#X connect 6 0 8 0;
#X connect 6 0 9 1;
#X connect 7 0 8 1;
#X connect 8 0 28 0;
#X connect 9 0 11 0;
#X connect 9 0 12 1;
#X connect 10 0 11 1;
#X connect 11 0 31 0;
#X connect 12 0 15 0;
#X connect 15 0 13 0;
#X connect 20 0 16 0;
#X connect 20 0 21 0;
#X connect 21 0 0 0;
#X connect 21 0 2 0;
#X connect 23 0 17 0;
#X connect 23 0 24 0;
#X connect 24 0 4 0;
#X connect 24 0 6 0;
#X connect 26 0 18 0;
#X connect 26 0 27 0;
#X connect 27 0 7 0;
#X connect 27 0 9 0;
#X connect 29 0 19 0;
#X connect 29 0 30 0;
#X connect 30 0 10 0;
#X connect 30 0 12 0;
#X restore 208 169 pd diffusor-right;
#X obj 208 61 *~ 0.015;
#X obj 15 226 *~ 1;
#X obj 208 228 *~ 1;
#X obj 94 228 *~ 1;
#X obj 169 228 *~ 1;
#X obj 115 202 r \$0-dry;
#X obj 229 203 r \$0-wet;
#X obj 36 201 r \$0-wet;
#X obj 94 14 inlet~;
#X obj 208 14 inlet~;
#X obj 15 268 outlet~;
#X obj 169 269 outlet~;
#X obj 312 14 inlet;
#X obj 374 14 inlet;
#X obj 462 14 inlet;
#X obj 544 16 inlet;
#N canvas 92 117 207 207 room 0;
#X obj 32 35 inlet;
#X obj 32 63 * 0.28;
#X obj 32 94 + 0.7;
#X obj 32 160 outlet;
#X text 80 65 scaleroom;
#X text 76 94 offsetroom;
#X obj 47 126 s \$0-room;
#X connect 0 0 1 0;
#X connect 1 0 2 0;
#X connect 2 0 3 0;
#X connect 2 0 6 0;
#X restore 312 45 pd room;
#N canvas 684 169 244 376 frequency 0;
#X obj 60 222 samplerate~;
#X obj 33 8 inlet;
#X obj 33 194 t f b;
#X obj 33 249 *;
#X obj 53 303 s \$0-frequency;
#X obj 33 327 outlet;
#X obj 33 64 * 0.4;
#X text 76 66 scaledamp;
#X obj 33 90 t b f;
#X obj 33 141 -;
#X msg 33 116 1;
#X obj 33 168 abs;
#X obj 33 275 * 0.5;
#X text 153 303 for [lop~];
#X obj 33 38 clip 0 2.4;
#X connect 0 0 3 1;
#X connect 1 0 14 0;
#X connect 2 0 3 0;
#X connect 2 1 0 0;
#X connect 3 0 12 0;
#X connect 6 0 8 0;
#X connect 8 0 10 0;
#X connect 8 1 9 1;
#X connect 9 0 11 0;
#X connect 10 0 9 0;
#X connect 11 0 2 0;
#X connect 12 0 5 0;
#X connect 12 0 4 0;
#X connect 14 0 6 0;
#X restore 374 45 pd frequency;
#N canvas 150 175 170 187 scalewet 0;
#X obj 22 42 inlet;
#X obj 22 143 outlet;
#X obj 22 73 * 3;
#X text 49 74 scalewet;
#X obj 40 112 s \$0-wet;
#X connect 0 0 2 0;
#X connect 2 0 1 0;
#X connect 2 0 4 0;
#X restore 544 45 pd scalewet;
#N canvas 121 146 220 198 scaledry 0;
#X obj 32 74 * 2;
#X obj 32 40 inlet;
#X obj 32 141 outlet;
#X text 58 75 scaledry;
#X obj 41 105 s \$0-dry;
#X connect 0 0 2 0;
#X connect 0 0 4 0;
#X connect 1 0 0 0;
#X restore 462 45 pd scaledry;
#X floatatom 312 70 5 0 0 0 - - - 0;
#X floatatom 374 70 10 0 0 0 - - - 0;
#X floatatom 462 69 5 0 0 0 - - - 0;
#X floatatom 544 69 5 0 0 0 - - - 0;
#N canvas 405 27 635 684 tuning 0;
#X msg 332 81 1139 \, 1211 \, 1300 \, 1379 \, 1445 \, 1514 \, 1580
\, 1640;
#X text 72 57 combfilter tunings left;
#X text 377 56 combfilter tunings right;
#X text 71 360 allpass tunings left;
#X text 383 355 allpass tunings right;
#N canvas 243 170 195 233 sampstoms 0;
#X obj 27 21 inlet;
#X obj 54 86 samplerate~;
#X obj 27 111 /;
#X obj 27 57 t f b;
#X obj 27 136 * 1000;
#X obj 27 162 outlet;
#X connect 0 0 3 0;
#X connect 1 0 2 1;
#X connect 2 0 4 0;
#X connect 3 0 2 0;
#X connect 3 1 1 0;
#X connect 4 0 5 0;
#X restore 30 107 pd sampstoms;
#X msg 30 82 1116 \, 1188 \, 1277 \, 1356 \, 1422 \, 1491 \, 1557 \,
1617;
#X obj 57 188 +;
#X msg 57 159 1;
#X obj 30 135 t f b;
#X obj 87 188 f;
#X obj 30 56 t b b;
#X msg 87 159 0;
#X obj 57 212 pack f \$0;
#X msg 57 238 \$2-comb\$1left;
#X obj 30 282 s;
#X obj 57 265 symbol;
#N canvas 0 22 195 233 sampstoms 0;
#X obj 27 21 inlet;
#X obj 54 86 samplerate~;
#X obj 27 111 /;
#X obj 27 57 t f b;
#X obj 27 136 * 1000;
#X obj 27 162 outlet;
#X connect 0 0 3 0;
#X connect 1 0 2 1;
#X connect 2 0 4 0;
#X connect 3 0 2 0;
#X connect 3 1 1 0;
#X connect 4 0 5 0;
#X restore 332 107 pd sampstoms;
#X obj 359 188 +;
#X msg 359 159 1;
#X obj 332 135 t f b;
#X obj 389 188 f;
#X msg 389 159 0;
#X obj 359 212 pack f \$0;
#X obj 332 282 s;
#X obj 359 265 symbol;
#X obj 332 56 t b b;
#X msg 359 238 \$2-comb\$1right;
#X obj 30 360 t b b;
#N canvas 0 22 195 233 sampstoms 0;
#X obj 27 21 inlet;
#X obj 54 86 samplerate~;
#X obj 27 111 /;
#X obj 27 57 t f b;
#X obj 27 136 * 1000;
#X obj 27 162 outlet;
#X connect 0 0 3 0;
#X connect 1 0 2 1;
#X connect 2 0 4 0;
#X connect 3 0 2 0;
#X connect 3 1 1 0;
#X connect 4 0 5 0;
#X restore 30 411 pd sampstoms;
#X obj 57 492 +;
#X msg 57 463 1;
#X obj 30 439 t f b;
#X obj 87 492 f;
#X msg 87 463 0;
#X obj 57 516 pack f \$0;
#X obj 30 586 s;
#X obj 57 569 symbol;
#X obj 334 356 t b b;
#N canvas 0 22 195 233 sampstoms 0;
#X obj 27 21 inlet;
#X obj 54 86 samplerate~;
#X obj 27 111 /;
#X obj 27 57 t f b;
#X obj 27 136 * 1000;
#X obj 27 162 outlet;
#X connect 0 0 3 0;
#X connect 1 0 2 1;
#X connect 2 0 4 0;
#X connect 3 0 2 0;
#X connect 3 1 1 0;
#X connect 4 0 5 0;
#X restore 334 407 pd sampstoms;
#X obj 361 488 +;
#X msg 361 459 1;
#X obj 334 435 t f b;
#X obj 391 488 f;
#X msg 391 459 0;
#X obj 361 512 pack f \$0;
#X obj 334 582 s;
#X obj 361 565 symbol;
#X obj 30 22 loadbang;
#X obj 332 27 loadbang;
#X obj 30 334 loadbang;
#X obj 334 331 loadbang;
#X obj 268 41 bng 15 250 50 0 empty empty empty 17 7 0 10 #fcfcfc #000000
#000000;
#X msg 30 386 225 \, 556 \, 441 \, 341;
#X msg 334 380 248 \, 579 \, 464 \, 364;
#X msg 57 542 \$2-allpass\$1left;
#X msg 361 539 \$2-allpass\$1right;
#X text 27 624 Original Freeverb delay line lengths are converted to
milliseconds \, based on samplerate.;
#X connect 0 0 17 0;
#X connect 5 0 9 0;
#X connect 6 0 5 0;
#X connect 7 0 10 0;
#X connect 7 0 13 0;
#X connect 8 0 7 0;
#X connect 9 0 15 0;
#X connect 9 1 8 0;
#X connect 10 0 7 1;
#X connect 11 0 6 0;
#X connect 11 1 12 0;
#X connect 12 0 10 0;
#X connect 13 0 14 0;
#X connect 14 0 16 0;
#X connect 16 0 15 1;
#X connect 17 0 20 0;
#X connect 18 0 21 0;
#X connect 18 0 23 0;
#X connect 19 0 18 0;
#X connect 20 0 24 0;
#X connect 20 1 19 0;
#X connect 21 0 18 1;
#X connect 22 0 21 0;
#X connect 23 0 27 0;
#X connect 25 0 24 1;
#X connect 26 0 0 0;
#X connect 26 1 22 0;
#X connect 27 0 25 0;
#X connect 28 0 53 0;
#X connect 28 1 34 0;
#X connect 29 0 32 0;
#X connect 30 0 33 0;
#X connect 30 0 35 0;
#X connect 31 0 30 0;
#X connect 32 0 36 0;
#X connect 32 1 31 0;
#X connect 33 0 30 1;
#X connect 34 0 33 0;
#X connect 35 0 55 0;
#X connect 37 0 36 1;
#X connect 38 0 54 0;
#X connect 38 1 44 0;
#X connect 39 0 42 0;
#X connect 40 0 43 0;
#X connect 40 0 45 0;
#X connect 41 0 40 0;
#X connect 42 0 46 0;
#X connect 42 1 41 0;
#X connect 43 0 40 1;
#X connect 44 0 43 0;
#X connect 45 0 56 0;
#X connect 47 0 46 1;
#X connect 48 0 11 0;
#X connect 49 0 26 0;
#X connect 50 0 28 0;
#X connect 51 0 38 0;
#X connect 52 0 11 0;
#X connect 52 0 28 0;
#X connect 52 0 26 0;
#X connect 52 0 38 0;
#X connect 53 0 29 0;
#X connect 54 0 39 0;
#X connect 55 0 37 0;
#X connect 56 0 47 0;
#X restore 410 141 pd tuning;
#X connect 0 0 1 0;
#X connect 1 0 7 0;
#X connect 2 0 1 0;
#X connect 3 0 5 0;
#X connect 4 0 5 0;
#X connect 5 0 8 0;
#X connect 6 0 3 0;
#X connect 6 0 0 0;
#X connect 6 0 4 0;
#X connect 6 0 2 0;
#X connect 7 0 16 0;
#X connect 8 0 17 0;
#X connect 9 0 16 0;
#X connect 10 0 17 0;
#X connect 11 0 10 1;
#X connect 11 0 9 1;
#X connect 12 0 8 1;
#X connect 13 0 7 1;
#X connect 14 0 6 0;
#X connect 14 0 9 0;
#X connect 15 0 6 0;
#X connect 15 0 10 0;
#X connect 18 0 22 0;
#X connect 19 0 23 0;
#X connect 20 0 25 0;
#X connect 21 0 24 0;
#X connect 22 0 26 0;
#X connect 23 0 27 0;
#X connect 24 0 29 0;
#X connect 25 0 28 0;
#X restore 79 311 pd vfreeverb~;
#X obj 311 267 / 508, f 8;
#X msg 235 74 0;
#X msg 295 87 0;
#X obj 343 222 / 127;
#X obj 311 186 r \$0-drumreverb;
#X connect 1 0 8 0;
#X connect 1 0 8 1;
#X connect 2 0 7 0;
#X connect 3 0 11 0;
#X connect 3 0 10 0;
#X connect 4 0 8 2;
#X connect 5 0 8 3;
#X connect 6 0 8 5;
#X connect 7 0 8 4;
#X connect 8 0 0 0;
#X connect 8 1 0 0;
#X connect 9 0 2 0;
#X connect 9 0 6 0;
#X connect 10 0 4 0;
#X connect 10 0 6 0;
#X connect 11 0 5 0;
#X connect 12 0 4 0;
#X connect 13 0 9 0;
#X connect 13 0 12 0;
#X restore 41 85 pd reverb;
#X obj 31 326 dac~;
#N canvas 119 125 690 377 bitcrush 0;
#X obj 425 188 samphold~;
#X obj 480 165 phasor~;
#X obj 184 83 inlet~;
#X obj 200 302 outlet~;
#X obj 480 76 expr (127 - $f1) / 127;
#X obj 184 269 *~ 1;
#X obj 225 267 *~ 0;
#X obj 246 143 > 0.95;
#X obj 205 223 line;
#X msg 205 198 \$1 15;
#X obj 246 222 line;
#X msg 246 197 \$1 15;
#X obj 246 171 expr 1 - $f1;
#X obj 480 105 * 4000;
#X obj 480 135 + 3000;
#X obj 480 48 r \$0-drumbitcrush;
#X connect 0 0 6 0;
#X connect 1 0 0 1;
#X connect 2 0 0 0;
#X connect 2 0 5 0;
#X connect 4 0 7 0;
#X connect 4 0 13 0;
#X connect 5 0 3 0;
#X connect 6 0 3 0;
#X connect 7 0 12 0;
#X connect 7 0 9 0;
#X connect 8 0 5 1;
#X connect 9 0 8 0;
#X connect 10 0 6 1;
#X connect 11 0 10 0;
#X connect 12 0 11 0;
#X connect 13 0 14 0;
#X connect 14 0 1 0;
#X connect 15 0 4 0;
#X restore 41 111 pd bitcrush;
#N canvas 86 238 591 408 ringMod 0;
#X obj 76 360 outlet~;
#X obj 139 318 *~;
#X obj 18 320 *~;
#X obj 179 116 loadbang;
#X msg 179 137 0;
#X obj 18 141 inlet~;
#X obj 33 223 mtof;
#X obj 33 246 osc~;
#X obj 18 271 *~;
#X text 158 10 wet/dry/freq;
#X obj 33 297 line~, f 6;
#X msg 155 191 0 15;
#X msg 242 191 0.5 15;
#X msg 196 191 1 15;
#X obj 154 290 line~;
#X obj 155 162 moses 5;
#X obj 159 36 r \$0-drumringMod;
#X connect 1 0 0 0;
#X connect 2 0 0 0;
#X connect 3 0 4 0;
#X connect 4 0 15 0;
#X connect 5 0 8 0;
#X connect 5 0 1 0;
#X connect 6 0 7 0;
#X connect 7 0 8 1;
#X connect 8 0 2 0;
#X connect 10 0 2 1;
#X connect 11 0 10 0;
#X connect 12 0 10 0;
#X connect 12 0 14 0;
#X connect 13 0 14 0;
#X connect 14 0 1 1;
#X connect 15 0 13 0;
#X connect 15 0 11 0;
#X connect 15 1 12 0;
#X connect 16 0 6 0;
#X connect 16 0 15 0;
#X restore 41 137 pd ringMod;
#N canvas 492 210 459 417 delay 0;
#X obj 153 156 vline~;
#X msg 153 135 \$1 200;
#X obj 56 211 inlet~;
#X obj 70 342 outlet~;
#X obj 218 98 / 127;
#X obj 154 47 * 16;
#X obj 191 235 *~ 0;
#X obj 56 296 *~ 0.5;
#X obj 102 296 *~ 0.5;
#X obj 79 237 s~ \$0-drumPitch;
#X obj 245 261 r~ \$0-drumPitch;
#X obj 171 193 vd~ \$0-drumPitch;
#X obj 241 299 delwrite~ \$0-drumPitch 2000;
#X obj 154 20 r \$0-drumdelaytime;
#X obj 218 71 r \$0-drumfeedback;
#X connect 0 0 11 0;
#X connect 1 0 0 0;
#X connect 2 0 7 0;
#X connect 2 0 9 0;
#X connect 4 0 6 1;
#X connect 5 0 1 0;
#X connect 6 0 8 0;
#X connect 6 0 12 0;
#X connect 7 0 3 0;
#X connect 8 0 3 0;
#X connect 10 0 12 0;
#X connect 11 0 6 0;
#X connect 13 0 5 0;
#X connect 14 0 4 0;
#X restore 41 188 pd delay;
#N canvas 158 162 477 481 distortion 0;
#X obj 71 28 inlet~;
#X obj 71 408 outlet~;
#X obj 148 61 *~ 40;
#X obj 148 84 clip~ -0.5 0.5;
#X obj 148 349 *~ 0.3;
#X obj 71 321 *~ 1;
#X obj 148 321 *~ 0;
#X msg 92 275 \$1 15;
#X msg 169 273 \$1 15;
#X obj 92 297 line;
#X obj 169 295 line;
#X obj 169 204 / 127;
#X obj 254 207 expr (127 - $f1) / 127;
#X obj 184 124 r \$0-drumdistortion;
#X connect 0 0 2 0;
#X connect 0 0 5 0;
#X connect 2 0 3 0;
#X connect 3 0 6 0;
#X connect 4 0 1 0;
#X connect 5 0 1 0;
#X connect 6 0 4 0;
#X connect 7 0 9 0;
#X connect 8 0 10 0;
#X connect 9 0 5 1;
#X connect 10 0 6 1;
#X connect 11 0 8 0;
#X connect 12 0 7 0;
#X connect 13 0 11 0;
#X connect 13 0 12 0;
#X restore 41 163 pd distortion;
#X obj 41 295 *~;
#X obj 120 215 / 127;
#X msg 120 241 \$1 15;
#X obj 120 267 line~;
#N canvas 256 150 300 265 init 0;
#X obj 34 39 loadbang;
#X obj 34 71 float \$0;
#X msg 34 103 \; pd dsp 1 \; \$1-drumvol 60 \; \$1-drumreverb-set 50
\; \$1-drumbitcrush-set 0 \; \$1-drumringMod-set 0 \; \$1-drumdistortion-set
20 \; \$1-drumdelaytime-set 30 \; \$1-drumfeedback-set 50 \;;
#X connect 0 0 1 0;
#X connect 1 0 2 0;
#X restore 41 12 pd init;
#X obj 120 190 r \$0-drumvol;
#X connect 0 0 1 0;
#X connect 1 0 3 0;
#X connect 3 0 4 0;
#X connect 4 0 6 0;
#X connect 5 0 7 0;
#X connect 6 0 5 0;
#X connect 7 0 2 0;
#X connect 7 0 2 1;
#X connect 8 0 9 0;
#X connect 9 0 10 0;
#X connect 10 0 7 1;
#X connect 12 0 8 0;
#X restore 23 45 pd FX;
#X restore 90 17 pd drumbox;
#N canvas 432 309 450 300 synth 0;
#N canvas 256 150 234 265 init 0;
#X obj 34 39 loadbang;
#X obj 34 71 float \$0;
#X msg 34 105 \; pd dsp 1 \; synthvol 60 \; \$1-reverb-set 50 \; \$1-bitcrush-set
0 \; \$1-ringMod-set 0 \; \$1-distortion-set 20 \; \$1-delaytime-set
30 \; \$1-feedback-set 50 \;;
#X connect 0 0 1 0;
#X connect 1 0 2 0;
#X restore 41 12 pd init;
#N canvas 222 58 683 715 keys 0;
#X obj 39 37 key;
#X obj 113 37 keyup;
#X obj 39 83 t b b;
#X msg 71 108 stop;
#X obj 40 205 change;
#X obj 113 144 delay 50;
#X msg 39 108 1;
#X msg 113 168 0;
#X listbox 77 10 20 0 0 0 - - - 0;
#X obj 189 37 key;
#X obj 263 37 keyup;
#X obj 189 83 t b b;
#X msg 221 108 stop;
#X obj 190 205 change;
#X obj 263 144 delay 50;
#X msg 189 108 1;
#X msg 263 168 0;
#X obj 339 36 key;
#X obj 413 36 keyup;
#X obj 339 82 t b b;
#X msg 371 107 stop;
#X obj 340 204 change;
#X obj 413 143 delay 50;
#X msg 339 107 1;
#X msg 413 167 0;
#X obj 488 36 key;
#X obj 562 36 keyup;
#X obj 488 82 t b b;
#X msg 520 107 stop;
#X obj 489 204 change;
#X obj 562 143 delay 50;
#X msg 488 107 1;
#X msg 562 167 0;
#X obj 40 264 key;
#X obj 114 264 keyup;
#X obj 40 310 t b b;
#X msg 72 335 stop;
#X obj 41 432 change;
#X obj 114 371 delay 50;
#X msg 40 335 1;
#X msg 114 395 0;
#X obj 190 264 key;
#X obj 264 264 keyup;
#X obj 190 310 t b b;
#X msg 222 335 stop;
#X obj 191 432 change;
#X obj 264 371 delay 50;
#X msg 190 335 1;
#X msg 264 395 0;
#X obj 340 263 key;
#X obj 414 263 keyup;
#X obj 340 309 t b b;
#X msg 372 334 stop;
#X obj 341 431 change;
#X obj 414 370 delay 50;
#X msg 340 334 1;
#X msg 414 394 0;
#X obj 489 263 key;
#X obj 563 263 keyup;
#X obj 489 309 t b b;
#X msg 521 334 stop;
#X obj 490 431 change;
#X obj 563 370 delay 50;
#X msg 489 334 1;
#X msg 563 394 0;
#X obj 39 491 key;
#X obj 113 491 keyup;
#X obj 39 537 t b b;
#X msg 71 562 stop;
#X obj 40 659 change;
#X obj 113 598 delay 50;
#X msg 39 562 1;
#X msg 113 622 0;
#X obj 189 491 key;
#X obj 263 491 keyup;
#X obj 189 537 t b b;
#X msg 221 562 stop;
#X obj 190 659 change;
#X obj 263 598 delay 50;
#X msg 189 562 1;
#X msg 263 622 0;
#X obj 339 490 key;
#X obj 413 490 keyup;
#X obj 339 536 t b b;
#X msg 371 561 stop;
#X obj 340 658 change;
#X obj 413 597 delay 50;
#X msg 339 561 1;
#X msg 413 621 0;
#X obj 488 490 key;
#X obj 562 490 keyup;
#X obj 488 536 t b b;
#X msg 520 561 stop;
#X obj 489 658 change;
#X obj 562 597 delay 50;
#X msg 488 561 1;
#X msg 562 621 0;
#X obj 39 60 select 113;
#X obj 113 60 select 113;
#X obj 189 60 select 119;
#X obj 263 60 select 119;
#X obj 339 59 select 101;
#X obj 413 59 select 101;
#X obj 488 59 select 114;
#X obj 562 59 select 114;
#X obj 40 287 select 116;
#X obj 114 287 select 116;
#X obj 190 287 select 121;
#X obj 264 287 select 121;
#X obj 340 286 select 117;
#X obj 414 286 select 117;
#X obj 489 286 select 50;
#X obj 563 286 select 50;
#X obj 39 514 select 51;
#X obj 113 514 select 51;
#X obj 189 514 select 53;
#X obj 263 514 select 53;
#X obj 339 513 select 54;
#X obj 413 513 select 54;
#X obj 488 513 select 55;
#X obj 562 513 select 55;
#X obj 40 230 s \$0-qc;
#X obj 190 230 s \$0-wd;
#X obj 340 229 s \$0-ee;
#X obj 489 229 s \$0-rfN;
#X obj 41 457 s \$0-tg;
#X obj 191 457 s \$0-ya;
#X obj 341 456 s \$0-ub;
#X obj 490 456 s \$0-2cS;
#X obj 190 684 s \$0-5fs;
#X obj 340 683 s \$0-6gS;
#X obj 489 683 s \$0-7aS;
#X obj 40 684 s \$0-3dS;
#X connect 0 0 8 0;
#X connect 0 0 97 0;
#X connect 1 0 98 0;
#X connect 2 0 6 0;
#X connect 2 1 3 0;
#X connect 3 0 5 0;
#X connect 4 0 121 0;
#X connect 5 0 7 0;
#X connect 6 0 4 0;
#X connect 7 0 4 0;
#X connect 9 0 99 0;
#X connect 10 0 100 0;
#X connect 11 0 15 0;
#X connect 11 1 12 0;
#X connect 12 0 14 0;
#X connect 13 0 122 0;
#X connect 14 0 16 0;
#X connect 15 0 13 0;
#X connect 16 0 13 0;
#X connect 17 0 101 0;
#X connect 18 0 102 0;
#X connect 19 0 23 0;
#X connect 19 1 20 0;
#X connect 20 0 22 0;
#X connect 21 0 123 0;
#X connect 22 0 24 0;
#X connect 23 0 21 0;
#X connect 24 0 21 0;
#X connect 25 0 103 0;
#X connect 26 0 104 0;
#X connect 27 0 31 0;
#X connect 27 1 28 0;
#X connect 28 0 30 0;
#X connect 29 0 124 0;
#X connect 30 0 32 0;
#X connect 31 0 29 0;
#X connect 32 0 29 0;
#X connect 33 0 105 0;
#X connect 34 0 106 0;
#X connect 35 0 39 0;
#X connect 35 1 36 0;
#X connect 36 0 38 0;
#X connect 37 0 125 0;
#X connect 38 0 40 0;
#X connect 39 0 37 0;
#X connect 40 0 37 0;
#X connect 41 0 107 0;
#X connect 42 0 108 0;
#X connect 43 0 47 0;
#X connect 43 1 44 0;
#X connect 44 0 46 0;
#X connect 45 0 126 0;
#X connect 46 0 48 0;
#X connect 47 0 45 0;
#X connect 48 0 45 0;
#X connect 49 0 109 0;
#X connect 50 0 110 0;
#X connect 51 0 55 0;
#X connect 51 1 52 0;
#X connect 52 0 54 0;
#X connect 53 0 127 0;
#X connect 54 0 56 0;
#X connect 55 0 53 0;
#X connect 56 0 53 0;
#X connect 57 0 111 0;
#X connect 58 0 112 0;
#X connect 59 0 63 0;
#X connect 59 1 60 0;
#X connect 60 0 62 0;
#X connect 61 0 128 0;
#X connect 62 0 64 0;
#X connect 63 0 61 0;
#X connect 64 0 61 0;
#X connect 65 0 113 0;
#X connect 66 0 114 0;
#X connect 67 0 71 0;
#X connect 67 1 68 0;
#X connect 68 0 70 0;
#X connect 69 0 132 0;
#X connect 70 0 72 0;
#X connect 71 0 69 0;
#X connect 72 0 69 0;
#X connect 73 0 115 0;
#X connect 74 0 116 0;
#X connect 75 0 79 0;
#X connect 75 1 76 0;
#X connect 76 0 78 0;
#X connect 77 0 129 0;
#X connect 78 0 80 0;
#X connect 79 0 77 0;
#X connect 80 0 77 0;
#X connect 81 0 117 0;
#X connect 82 0 118 0;
#X connect 83 0 87 0;
#X connect 83 1 84 0;
#X connect 84 0 86 0;
#X connect 85 0 130 0;
#X connect 86 0 88 0;
#X connect 87 0 85 0;
#X connect 88 0 85 0;
#X connect 89 0 119 0;
#X connect 90 0 120 0;
#X connect 91 0 95 0;
#X connect 91 1 92 0;
#X connect 92 0 94 0;
#X connect 93 0 131 0;
#X connect 94 0 96 0;
#X connect 95 0 93 0;
#X connect 96 0 93 0;
#X connect 97 0 2 0;
#X connect 98 0 5 0;
#X connect 99 0 11 0;
#X connect 100 0 14 0;
#X connect 101 0 19 0;
#X connect 102 0 22 0;
#X connect 103 0 27 0;
#X connect 104 0 30 0;
#X connect 105 0 35 0;
#X connect 106 0 38 0;
#X connect 107 0 43 0;
#X connect 108 0 46 0;
#X connect 109 0 51 0;
#X connect 110 0 54 0;
#X connect 111 0 59 0;
#X connect 112 0 62 0;
#X connect 113 0 67 0;
#X connect 114 0 70 0;
#X connect 115 0 75 0;
#X connect 116 0 78 0;
#X connect 117 0 83 0;
#X connect 118 0 86 0;
#X connect 119 0 91 0;
#X connect 120 0 94 0;
#X restore 40 36 pd keys;
#N canvas 708 168 278 391 FX 0;
#N canvas 394 119 652 394 keyboard 0;
#X obj 25 38 poly 4 1;
#X obj 25 63 pack 0 0 0;
#X obj 25 88 route 1 2 3 4;
#N canvas 0 25 1176 620 note 0;
#X obj 39 260 select 1, f 9;
#X obj 129 260 select 1, f 9;
#X obj 219 260 select 1, f 9;
#X obj 583 568 outlet;
#X obj 319 260 select 1, f 9;
#X obj 419 260 select 1, f 9;
#X obj 509 260 select 1, f 9;
#X obj 599 260 select 1, f 9;
#X obj 689 260 select 1, f 9;
#X obj 789 260 select 1, f 9;
#X obj 879 260 select 1, f 9;
#X obj 969 260 select 1, f 9;
#X obj 1059 260 select 1, f 9;
#X msg 39 383 \$1 127;
#X msg 90 383 \$1 0;
#X obj 39 344 60;
#X obj 90 344 60;
#X obj 180 315 bng 15 250 50 0 empty empty empty 17 7 0 10 #fcfcfc
#000000 #000000;
#X msg 129 383 \$1 127;
#X msg 180 383 \$1 0;
#X obj 180 344 61;
#X obj 129 344 61;
#X msg 219 383 \$1 127;
#X msg 270 383 \$1 0;
#X msg 319 383 \$1 127;
#X msg 370 383 \$1 0;
#X obj 270 315 bng 15 250 50 0 empty empty empty 17 7 0 10 #fcfcfc
#000000 #000000;
#X obj 219 344 62;
#X obj 270 344 62;
#X obj 370 315 bng 15 250 50 0 empty empty empty 17 7 0 10 #fcfcfc
#000000 #000000;
#X obj 319 344 63;
#X obj 370 344 63;
#X obj 470 315 bng 15 250 50 0 empty empty empty 17 7 0 10 #fcfcfc
#000000 #000000;
#X msg 419 383 \$1 127;
#X msg 470 383 \$1 0;
#X obj 419 344 64;
#X obj 470 344 64;
#X obj 560 315 bng 15 250 50 0 empty empty empty 17 7 0 10 #fcfcfc
#000000 #000000;
#X obj 509 344 65;
#X obj 560 344 65;
#X msg 509 383 \$1 127;
#X msg 560 383 \$1 0;
#X obj 650 315 bng 15 250 50 0 empty empty empty 17 7 0 10 #fcfcfc
#000000 #000000;
#X msg 599 383 \$1 127;
#X msg 650 383 \$1 0;
#X obj 599 344 66;
#X obj 650 344 66;
#X obj 740 315 bng 15 250 50 0 empty empty empty 17 7 0 10 #fcfcfc
#000000 #000000;
#X obj 689 344 67;
#X obj 740 344 67;
#X msg 689 383 \$1 127;
#X msg 740 383 \$1 0;
#X obj 840 315 bng 15 250 50 0 empty empty empty 17 7 0 10 #fcfcfc
#000000 #000000;
#X obj 789 344 68;
#X obj 840 344 68;
#X msg 789 383 \$1 127;
#X msg 840 383 \$1 0;
#X obj 930 315 bng 15 250 50 0 empty empty empty 17 7 0 10 #fcfcfc
#000000 #000000;
#X obj 879 344 69;
#X obj 930 344 69;
#X msg 879 383 \$1 127;
#X msg 930 383 \$1 0;
#X obj 1020 315 bng 15 250 50 0 empty empty empty 17 7 0 10 #fcfcfc
#000000 #000000;
#X obj 969 344 70;
#X obj 1020 344 70;
#X msg 969 383 \$1 127;
#X msg 1020 383 \$1 0;
#X obj 1110 315 bng 15 250 50 0 empty empty empty 17 7 0 10 #fcfcfc
#000000 #000000;
#X obj 1059 344 71;
#X obj 1110 344 71;
#X msg 1059 383 \$1 127;
#X msg 1110 383 \$1 0;
#X obj 56 67 sel 0 1 2;
#X obj 59 300 r cK;
#X obj 149 300 r cSK;
#X obj 239 300 r dK;
#X obj 339 300 r dSK;
#X obj 439 300 r eK;
#X obj 529 300 r fNK;
#X obj 619 300 r fsK;
#X obj 709 300 r gK;
#X obj 809 300 r gSK;
#X obj 899 300 r aK;
#X obj 989 300 r aSK;
#X obj 1079 300 r bK;
#X obj 94 302 bng 15 250 50 0 empty empty empty 17 7 0 10 #fcfcfc #000000
#000000;
#X obj 56 27 r \$0-octave;
#X obj 39 232 r \$0-c;
#X obj 128 227 r \$0-cS;
#X obj 216 228 r \$0-d;
#X obj 315 228 r \$0-dS;
#X obj 417 225 r \$0-e;
#X obj 503 226 r \$0-fN;
#X obj 595 226 r \$0-fs;
#X obj 684 223 r \$0-g;
#X obj 783 228 r \$0-gS;
#X obj 877 231 r \$0-a;
#X obj 970 226 r \$0-aS;
#X obj 1056 225 r \$0-b;
#X obj 38 105 s octMin;
#X obj 126 104 s octMax;
#X obj 88 124 s octCen;
#X obj 32 173 patches/guiKeys 60 cK;
#X obj 112 152 patches/guiKeys 61 cSK;
#X obj 187 173 patches/guiKeys 62 dK;
#X obj 273 152 patches/guiKeys 63 dSK;
#X obj 343 173 patches/guiKeys 64 eK;
#X obj 498 173 patches/guiKeys 65 fNK;
#X obj 659 173 patches/guiKeys 67 gK;
#X obj 816 173 patches/guiKeys 69 aK;
#X obj 972 173 patches/guiKeys 71 bK;
#X obj 552 151 patches/guiKeys 66 fsK;
#X obj 718 149 patches/guiKeys 68 gSK;
#X obj 880 148 patches/guiKeys 70 aSK;
#X connect 0 0 15 0;
#X connect 0 1 85 0;
#X connect 1 0 21 0;
#X connect 1 1 17 0;
#X connect 2 0 27 0;
#X connect 2 1 26 0;
#X connect 4 0 30 0;
#X connect 4 1 29 0;
#X connect 5 0 35 0;
#X connect 5 1 32 0;
#X connect 6 0 38 0;
#X connect 6 1 37 0;
#X connect 7 0 45 0;
#X connect 7 1 42 0;
#X connect 8 0 48 0;
#X connect 8 1 47 0;
#X connect 9 0 53 0;
#X connect 9 1 52 0;
#X connect 10 0 58 0;
#X connect 10 1 57 0;
#X connect 11 0 63 0;
#X connect 11 1 62 0;
#X connect 12 0 68 0;
#X connect 12 1 67 0;
#X connect 13 0 3 0;
#X connect 14 0 3 0;
#X connect 15 0 13 0;
#X connect 16 0 14 0;
#X connect 17 0 20 0;
#X connect 18 0 3 0;
#X connect 19 0 3 0;
#X connect 20 0 19 0;
#X connect 21 0 18 0;
#X connect 22 0 3 0;
#X connect 23 0 3 0;
#X connect 24 0 3 0;
#X connect 25 0 3 0;
#X connect 26 0 28 0;
#X connect 27 0 22 0;
#X connect 28 0 23 0;
#X connect 29 0 31 0;
#X connect 30 0 24 0;
#X connect 31 0 25 0;
#X connect 32 0 36 0;
#X connect 33 0 3 0;
#X connect 34 0 3 0;
#X connect 35 0 33 0;
#X connect 36 0 34 0;
#X connect 37 0 39 0;
#X connect 38 0 40 0;
#X connect 39 0 41 0;
#X connect 40 0 3 0;
#X connect 41 0 3 0;
#X connect 42 0 46 0;
#X connect 43 0 3 0;
#X connect 44 0 3 0;
#X connect 45 0 43 0;
#X connect 46 0 44 0;
#X connect 47 0 49 0;
#X connect 48 0 50 0;
#X connect 49 0 51 0;
#X connect 50 0 3 0;
#X connect 51 0 3 0;
#X connect 52 0 54 0;
#X connect 53 0 55 0;
#X connect 54 0 56 0;
#X connect 55 0 3 0;
#X connect 56 0 3 0;
#X connect 57 0 59 0;
#X connect 58 0 60 0;
#X connect 59 0 61 0;
#X connect 60 0 3 0;
#X connect 61 0 3 0;
#X connect 62 0 64 0;
#X connect 63 0 65 0;
#X connect 64 0 66 0;
#X connect 65 0 3 0;
#X connect 66 0 3 0;
#X connect 67 0 69 0;
#X connect 68 0 70 0;
#X connect 69 0 71 0;
#X connect 70 0 3 0;
#X connect 71 0 3 0;
#X connect 72 0 99 0;
#X connect 72 1 101 0;
#X connect 72 2 100 0;
#X connect 73 0 15 1;
#X connect 73 0 16 1;
#X connect 74 0 20 1;
#X connect 74 0 21 1;
#X connect 75 0 27 1;
#X connect 75 0 28 1;
#X connect 76 0 30 1;
#X connect 76 0 31 1;
#X connect 77 0 35 1;
#X connect 77 0 36 1;
#X connect 78 0 38 1;
#X connect 78 0 39 1;
#X connect 79 0 45 1;
#X connect 79 0 46 1;
#X connect 80 0 48 1;
#X connect 80 0 49 1;
#X connect 81 0 53 1;
#X connect 81 0 54 1;
#X connect 82 0 58 1;
#X connect 82 0 59 1;
#X connect 83 0 63 1;
#X connect 83 0 64 1;
#X connect 84 0 68 1;
#X connect 84 0 69 1;
#X connect 85 0 16 0;
#X connect 86 0 72 0;
#X connect 87 0 0 0;
#X connect 88 0 1 0;
#X connect 89 0 2 0;
#X connect 90 0 4 0;
#X connect 91 0 5 0;
#X connect 92 0 6 0;
#X connect 93 0 7 0;
#X connect 94 0 8 0;
#X connect 95 0 9 0;
#X connect 96 0 10 0;
#X connect 97 0 11 0;
#X connect 98 0 12 0;
#X restore 25 14 pd note;
#N canvas 100 57 1207 688 synth 0;
#X obj 49 107 mtof;
#X obj 906 1162 outlet~;
#X obj 49 24 inlet, f 7;
#X obj 49 70 unpack 0 0;
#X obj 126 116 sel 0;
#X obj 936 846 * 20;
#X obj 1008 850 * 20;
#X obj 1008 825 + 1;
#X obj 937 823 + 1;
#X obj 921 1024 vline~;
#X msg 921 988 0 \$1;
#X msg 994 988 1 \$1 \, 0.5 1000 1000;
#X obj 994 962 10;
#X obj 921 938 bng 15 250 50 0 empty empty empty 17 7 0 10 #fcfcfc
#000000 #000000;
#X obj 906 1050 *~;
#X obj 994 941 bng 15 250 50 0 empty empty empty 17 7 0 10 #fcfcfc
#000000 #000000;
#X obj 521 418 +~;
#X obj 521 484 osc~;
#X obj 560 484 osc~;
#X obj 560 460 *~ 2;
#X obj 521 309 osc~ 30;
#X obj 521 363 *~ 10;
#X obj 839 643 noise~;
#X obj 839 676 *~ 0.01;
#X obj 921 962 500;
#X obj 646 315 expr~ $v1 > 0.5;
#X obj 646 415 +~;
#X obj 722 446 *~ 2;
#X obj 743 494 expr~ $v1 > 0.5;
#X obj 743 471 phasor~ 30;
#X obj 646 494 expr~ $v1 > 0.5;
#X obj 646 471 phasor~ 30;
#X obj 646 292 phasor~ 10;
#X obj 743 641 *~;
#X obj 758 617 line~;
#X obj 758 563 expr 1 - $f1;
#X msg 758 590 \$1 15;
#X obj 603 641 *~;
#X obj 618 617 line~;
#X msg 618 590 \$1 15;
#X obj 646 360 *~ 10;
#X obj 878 494 / 127;
#X obj 521 251 inlet;
#X obj 790 312 inlet;
#X obj 878 458 inlet;
#X obj 906 1137 *~ 0.2;
#X obj 743 669 *~ 0.5;
#X msg 96 236 \$1 \$2;
#X obj 96 259 line;
#X obj 96 211 pack \$1 0;
#X obj 1133 143 inlet;
#X obj 898 801 r \$0-release;
#X obj 998 801 r \$0-attack;
#X connect 0 0 49 0;
#X connect 2 0 3 0;
#X connect 3 0 0 0;
#X connect 3 1 4 0;
#X connect 4 0 13 0;
#X connect 4 1 15 0;
#X connect 5 0 24 1;
#X connect 6 0 12 1;
#X connect 7 0 6 0;
#X connect 8 0 5 0;
#X connect 9 0 14 1;
#X connect 10 0 9 0;
#X connect 11 0 9 0;
#X connect 12 0 11 0;
#X connect 13 0 24 0;
#X connect 14 0 45 0;
#X connect 15 0 12 0;
#X connect 16 0 17 0;
#X connect 16 0 19 0;
#X connect 17 0 37 0;
#X connect 18 0 37 0;
#X connect 19 0 18 0;
#X connect 20 0 21 0;
#X connect 21 0 16 0;
#X connect 22 0 23 0;
#X connect 23 0 14 0;
#X connect 24 0 10 0;
#X connect 25 0 40 0;
#X connect 26 0 27 0;
#X connect 26 0 31 0;
#X connect 27 0 29 0;
#X connect 28 0 33 0;
#X connect 29 0 28 0;
#X connect 30 0 33 0;
#X connect 31 0 30 0;
#X connect 32 0 25 0;
#X connect 33 0 46 0;
#X connect 34 0 33 1;
#X connect 35 0 36 0;
#X connect 36 0 34 0;
#X connect 37 0 14 0;
#X connect 38 0 37 1;
#X connect 39 0 38 0;
#X connect 40 0 26 0;
#X connect 41 0 39 0;
#X connect 41 0 35 0;
#X connect 42 0 20 0;
#X connect 42 0 32 0;
#X connect 43 0 21 1;
#X connect 43 0 40 1;
#X connect 44 0 41 0;
#X connect 45 0 1 0;
#X connect 46 0 14 0;
#X connect 47 0 48 0;
#X connect 48 0 26 1;
#X connect 48 0 16 1;
#X connect 49 0 47 0;
#X connect 50 0 49 1;
#X connect 51 0 8 0;
#X connect 52 0 7 0;
#X restore 25 205 pd synth;
#N canvas 0 25 1440 778 synth 0;
#X obj 49 107 mtof;
#X obj 906 1162 outlet~;
#X obj 49 24 inlet, f 7;
#X obj 49 70 unpack 0 0;
#X obj 126 116 sel 0;
#X obj 936 846 * 20;
#X obj 1008 850 * 20;
#X obj 1008 825 + 1;
#X obj 937 823 + 1;
#X obj 921 1024 vline~;
#X msg 921 988 0 \$1;
#X msg 994 988 1 \$1 \, 0.5 1000 1000;
#X obj 994 962 10;
#X obj 921 938 bng 15 250 50 0 empty empty empty 17 7 0 10 #fcfcfc
#000000 #000000;
#X obj 906 1050 *~;
#X obj 994 941 bng 15 250 50 0 empty empty empty 17 7 0 10 #fcfcfc
#000000 #000000;
#X obj 521 418 +~;
#X obj 521 484 osc~;
#X obj 560 484 osc~;
#X obj 560 460 *~ 2;
#X obj 521 309 osc~ 30;
#X obj 521 363 *~ 10;
#X obj 839 643 noise~;
#X obj 839 676 *~ 0.01;
#X obj 921 962 500;
#X obj 646 315 expr~ $v1 > 0.5;
#X obj 646 415 +~;
#X obj 722 446 *~ 2;
#X obj 743 494 expr~ $v1 > 0.5;
#X obj 743 471 phasor~ 30;
#X obj 646 494 expr~ $v1 > 0.5;
#X obj 646 471 phasor~ 30;
#X obj 646 292 phasor~ 10;
#X obj 743 641 *~;
#X obj 758 617 line~;
#X obj 758 563 expr 1 - $f1;
#X msg 758 590 \$1 15;
#X obj 603 641 *~;
#X obj 618 617 line~;
#X msg 618 590 \$1 15;
#X obj 646 360 *~ 10;
#X obj 878 494 / 127;
#X obj 521 251 inlet;
#X obj 790 312 inlet;
#X obj 878 458 inlet;
#X obj 906 1137 *~ 0.2;
#X obj 743 669 *~ 0.5;
#X msg 96 236 \$1 \$2;
#X obj 96 259 line;
#X obj 96 211 pack \$1 0;
#X obj 1133 143 inlet;
#X obj 898 801 r \$0-release;
#X obj 998 801 r \$0-attack;
#X connect 0 0 49 0;
#X connect 2 0 3 0;
#X connect 3 0 0 0;
#X connect 3 1 4 0;
#X connect 4 0 13 0;
#X connect 4 1 15 0;
#X connect 5 0 24 1;
#X connect 6 0 12 1;
#X connect 7 0 6 0;
#X connect 8 0 5 0;
#X connect 9 0 14 1;
#X connect 10 0 9 0;
#X connect 11 0 9 0;
#X connect 12 0 11 0;
#X connect 13 0 24 0;
#X connect 14 0 45 0;
#X connect 15 0 12 0;
#X connect 16 0 17 0;
#X connect 16 0 19 0;
#X connect 17 0 37 0;
#X connect 18 0 37 0;
#X connect 19 0 18 0;
#X connect 20 0 21 0;
#X connect 21 0 16 0;
#X connect 22 0 23 0;
#X connect 23 0 14 0;
#X connect 24 0 10 0;
#X connect 25 0 40 0;
#X connect 26 0 27 0;
#X connect 26 0 31 0;
#X connect 27 0 29 0;
#X connect 28 0 33 0;
#X connect 29 0 28 0;
#X connect 30 0 33 0;
#X connect 31 0 30 0;
#X connect 32 0 25 0;
#X connect 33 0 46 0;
#X connect 34 0 33 1;
#X connect 35 0 36 0;
#X connect 36 0 34 0;
#X connect 37 0 14 0;
#X connect 38 0 37 1;
#X connect 39 0 38 0;
#X connect 40 0 26 0;
#X connect 41 0 39 0;
#X connect 41 0 35 0;
#X connect 42 0 20 0;
#X connect 42 0 32 0;
#X connect 43 0 21 1;
#X connect 43 0 40 1;
#X connect 44 0 41 0;
#X connect 45 0 1 0;
#X connect 46 0 14 0;
#X connect 47 0 48 0;
#X connect 48 0 26 1;
#X connect 48 0 16 1;
#X connect 49 0 47 0;
#X connect 50 0 49 1;
#X connect 51 0 8 0;
#X connect 52 0 7 0;
#X restore 397 204 pd synth;
#N canvas 0 25 1440 778 synth 0;
#X obj 49 107 mtof;
#X obj 906 1162 outlet~;
#X obj 49 24 inlet, f 7;
#X obj 49 70 unpack 0 0;
#X obj 126 116 sel 0;
#X obj 936 846 * 20;
#X obj 1008 850 * 20;
#X obj 1008 825 + 1;
#X obj 937 823 + 1;
#X obj 921 1024 vline~;
#X msg 921 988 0 \$1;
#X msg 994 988 1 \$1 \, 0.5 1000 1000;
#X obj 994 962 10;
#X obj 921 938 bng 15 250 50 0 empty empty empty 17 7 0 10 #fcfcfc
#000000 #000000;
#X obj 906 1050 *~;
#X obj 994 941 bng 15 250 50 0 empty empty empty 17 7 0 10 #fcfcfc
#000000 #000000;
#X obj 521 418 +~;
#X obj 521 484 osc~;
#X obj 560 484 osc~;
#X obj 560 460 *~ 2;
#X obj 521 309 osc~ 30;
#X obj 521 363 *~ 10;
#X obj 839 643 noise~;
#X obj 839 676 *~ 0.01;
#X obj 921 962 500;
#X obj 646 315 expr~ $v1 > 0.5;
#X obj 646 415 +~;
#X obj 722 446 *~ 2;
#X obj 743 494 expr~ $v1 > 0.5;
#X obj 743 471 phasor~ 30;
#X obj 646 494 expr~ $v1 > 0.5;
#X obj 646 471 phasor~ 30;
#X obj 646 292 phasor~ 10;
#X obj 743 641 *~;
#X obj 758 617 line~;
#X obj 758 563 expr 1 - $f1;
#X msg 758 590 \$1 15;
#X obj 603 641 *~;
#X obj 618 617 line~;
#X msg 618 590 \$1 15;
#X obj 646 360 *~ 10;
#X obj 878 494 / 127;
#X obj 521 251 inlet;
#X obj 790 312 inlet;
#X obj 878 458 inlet;
#X obj 906 1137 *~ 0.2;
#X obj 743 669 *~ 0.5;
#X msg 96 236 \$1 \$2;
#X obj 96 259 line;
#X obj 96 211 pack \$1 0;
#X obj 1133 143 inlet;
#X obj 898 801 r \$0-release;
#X obj 998 801 r \$0-attack;
#X connect 0 0 49 0;
#X connect 2 0 3 0;
#X connect 3 0 0 0;
#X connect 3 1 4 0;
#X connect 4 0 13 0;
#X connect 4 1 15 0;
#X connect 5 0 24 1;
#X connect 6 0 12 1;
#X connect 7 0 6 0;
#X connect 8 0 5 0;
#X connect 9 0 14 1;
#X connect 10 0 9 0;
#X connect 11 0 9 0;
#X connect 12 0 11 0;
#X connect 13 0 24 0;
#X connect 14 0 45 0;
#X connect 15 0 12 0;
#X connect 16 0 17 0;
#X connect 16 0 19 0;
#X connect 17 0 37 0;
#X connect 18 0 37 0;
#X connect 19 0 18 0;
#X connect 20 0 21 0;
#X connect 21 0 16 0;
#X connect 22 0 23 0;
#X connect 23 0 14 0;
#X connect 24 0 10 0;
#X connect 25 0 40 0;
#X connect 26 0 27 0;
#X connect 26 0 31 0;
#X connect 27 0 29 0;
#X connect 28 0 33 0;
#X connect 29 0 28 0;
#X connect 30 0 33 0;
#X connect 31 0 30 0;
#X connect 32 0 25 0;
#X connect 33 0 46 0;
#X connect 34 0 33 1;
#X connect 35 0 36 0;
#X connect 36 0 34 0;
#X connect 37 0 14 0;
#X connect 38 0 37 1;
#X connect 39 0 38 0;
#X connect 40 0 26 0;
#X connect 41 0 39 0;
#X connect 41 0 35 0;
#X connect 42 0 20 0;
#X connect 42 0 32 0;
#X connect 43 0 21 1;
#X connect 43 0 40 1;
#X connect 44 0 41 0;
#X connect 45 0 1 0;
#X connect 46 0 14 0;
#X connect 47 0 48 0;
#X connect 48 0 26 1;
#X connect 48 0 16 1;
#X connect 49 0 47 0;
#X connect 50 0 49 1;
#X connect 51 0 8 0;
#X connect 52 0 7 0;
#X restore 146 205 pd synth;
#N canvas 0 25 1440 778 synth 0;
#X obj 49 107 mtof;
#X obj 906 1162 outlet~;
#X obj 49 24 inlet, f 7;
#X obj 49 70 unpack 0 0;
#X obj 126 116 sel 0;
#X obj 936 846 * 20;
#X obj 1008 850 * 20;
#X obj 1008 825 + 1;
#X obj 937 823 + 1;
#X obj 921 1024 vline~;
#X msg 921 988 0 \$1;
#X msg 994 988 1 \$1 \, 0.5 1000 1000;
#X obj 994 962 10;
#X obj 921 938 bng 15 250 50 0 empty empty empty 17 7 0 10 #fcfcfc
#000000 #000000;
#X obj 906 1050 *~;
#X obj 994 941 bng 15 250 50 0 empty empty empty 17 7 0 10 #fcfcfc
#000000 #000000;
#X obj 521 418 +~;
#X obj 521 484 osc~;
#X obj 560 484 osc~;
#X obj 560 460 *~ 2;
#X obj 521 309 osc~ 30;
#X obj 521 363 *~ 10;
#X obj 839 643 noise~;
#X obj 839 676 *~ 0.01;
#X obj 921 962 500;
#X obj 646 315 expr~ $v1 > 0.5;
#X obj 646 415 +~;
#X obj 722 446 *~ 2;
#X obj 743 494 expr~ $v1 > 0.5;
#X obj 743 471 phasor~ 30;
#X obj 646 494 expr~ $v1 > 0.5;
#X obj 646 471 phasor~ 30;
#X obj 646 292 phasor~ 10;
#X obj 743 641 *~;
#X obj 758 617 line~;
#X obj 758 563 expr 1 - $f1;
#X msg 758 590 \$1 15;
#X obj 603 641 *~;
#X obj 618 617 line~;
#X msg 618 590 \$1 15;
#X obj 646 360 *~ 10;
#X obj 878 494 / 127;
#X obj 521 251 inlet;
#X obj 790 312 inlet;
#X obj 878 458 inlet;
#X obj 906 1137 *~ 0.2;
#X obj 743 669 *~ 0.5;
#X msg 96 236 \$1 \$2;
#X obj 96 259 line;
#X obj 96 211 pack \$1 0;
#X obj 1133 143 inlet;
#X obj 898 801 r \$0-release;
#X obj 998 801 r \$0-attack;
#X connect 0 0 49 0;
#X connect 2 0 3 0;
#X connect 3 0 0 0;
#X connect 3 1 4 0;
#X connect 4 0 13 0;
#X connect 4 1 15 0;
#X connect 5 0 24 1;
#X connect 6 0 12 1;
#X connect 7 0 6 0;
#X connect 8 0 5 0;
#X connect 9 0 14 1;
#X connect 10 0 9 0;
#X connect 11 0 9 0;
#X connect 12 0 11 0;
#X connect 13 0 24 0;
#X connect 14 0 45 0;
#X connect 15 0 12 0;
#X connect 16 0 17 0;
#X connect 16 0 19 0;
#X connect 17 0 37 0;
#X connect 18 0 37 0;
#X connect 19 0 18 0;
#X connect 20 0 21 0;
#X connect 21 0 16 0;
#X connect 22 0 23 0;
#X connect 23 0 14 0;
#X connect 24 0 10 0;
#X connect 25 0 40 0;
#X connect 26 0 27 0;
#X connect 26 0 31 0;
#X connect 27 0 29 0;
#X connect 28 0 33 0;
#X connect 29 0 28 0;
#X connect 30 0 33 0;
#X connect 31 0 30 0;
#X connect 32 0 25 0;
#X connect 33 0 46 0;
#X connect 34 0 33 1;
#X connect 35 0 36 0;
#X connect 36 0 34 0;
#X connect 37 0 14 0;
#X connect 38 0 37 1;
#X connect 39 0 38 0;
#X connect 40 0 26 0;
#X connect 41 0 39 0;
#X connect 41 0 35 0;
#X connect 42 0 20 0;
#X connect 42 0 32 0;
#X connect 43 0 21 1;
#X connect 43 0 40 1;
#X connect 44 0 41 0;
#X connect 45 0 1 0;
#X connect 46 0 14 0;
#X connect 47 0 48 0;
#X connect 48 0 26 1;
#X connect 48 0 16 1;
#X connect 49 0 47 0;
#X connect 50 0 49 1;
#X connect 51 0 8 0;
#X connect 52 0 7 0;
#X restore 266 203 pd synth;
#X obj 134 86 / 5;
#X obj 251 86 / 5;
#X obj 442 84 * 2;
#X obj 25 274 expr~ $v1+$v2+$v3+$v4;
#N canvas 556 397 276 237 init 0;
#X obj 83 19 loadbang;
#X obj 83 43 float \$0;
#X msg 83 67 \; pd dsp 1 \; \$1-octave 1 \; \$1-attack 10 \; \$1-release
10 \; \$1-synthshape 10 \; \$1-index 0 \; \$1-synthrate 0 \; \$1-glide
10 \;;
#X connect 0 0 1 0;
#X connect 1 0 2 0;
#X restore 565 21 pd init;
#X obj 25 349 outlet~;
#X obj 134 61 r \$0-synthrate;
#X obj 251 61 r \$0-index;
#X obj 442 60 r \$0-glide;
#X obj 327 85 r \$0-synthshape;
#X obj 25 322 *~ 0.5;
#X connect 0 0 1 0;
#X connect 0 1 1 1;
#X connect 0 2 1 2;
#X connect 1 0 2 0;
#X connect 2 0 4 0;
#X connect 2 1 6 0;
#X connect 2 2 7 0;
#X connect 2 3 5 0;
#X connect 3 0 0 0;
#X connect 4 0 11 0;
#X connect 5 0 11 3;
#X connect 6 0 11 1;
#X connect 7 0 11 2;
#X connect 8 0 4 1;
#X connect 8 0 6 1;
#X connect 8 0 7 1;
#X connect 8 0 5 1;
#X connect 9 0 4 2;
#X connect 9 0 6 2;
#X connect 9 0 7 2;
#X connect 9 0 5 2;
#X connect 10 0 4 4;
#X connect 10 0 6 4;
#X connect 10 0 7 4;
#X connect 10 0 5 4;
#X connect 11 0 18 0;
#X connect 14 0 8 0;
#X connect 15 0 9 0;
#X connect 16 0 10 0;
#X connect 17 0 4 3;
#X connect 17 0 6 3;
#X connect 17 0 7 3;
#X connect 17 0 5 3;
#X connect 18 0 13 0;
#X restore 41 53 pd keyboard;
#N canvas 336 228 744 505 reverb 0;
#X obj 51 375 outlet~;
#X obj 55 266 inlet~;
#X obj 310 293 expr 1 - $f1;
#X obj 296 59 loadbang;
#X obj 112 119 hsl 128 15 0 1 0 1 empty empty 'roomsize' 20 8 0 10
#fcfcfc #fc8000 #000000 5000 0;
#X obj 127 162 hsl 128 15 0 2.4 0 1 empty empty damp 20 8 0 10 #fcfcfc
#fc8000 #000000 0 0;
#X obj 157 255 hsl 128 15 0 1 0 1 empty empty wet 20 8 0 10 #fcfcfc
#fc8000 #000000 1250 0;
#X obj 142 205 hsl 128 15 0 1 0 1 empty empty dry 20 8 0 10 #fcfcfc
#fc8000 #000000 11450 0;
#N canvas 256 339 634 321 vfreeverb~ 0;
#N canvas 662 312 778 367 combfilters-left1 0;
#X obj 46 244 +~;
#X obj 61 219 *~ 0.3;
#X obj 61 194 lop~ 1000;
#X obj 231 244 +~;
#X obj 246 219 *~ 0.3;
#X obj 246 194 lop~ 1000;
#X obj 429 218 *~ 0.3;
#X obj 429 193 lop~ 1000;
#X obj 414 241 +~;
#X obj 610 218 *~ 0.3;
#X obj 610 193 lop~ 1000;
#X obj 595 241 +~;
#X obj 61 141 delread~ \$0-comb1left;
#X obj 246 142 delread~ \$0-comb2left;
#X obj 429 141 delread~ \$0-comb3left;
#X obj 610 141 delread~ \$0-comb4left;
#X obj 46 268 delwrite~ \$0-comb1left 100;
#X obj 231 268 delwrite~ \$0-comb2left 100;
#X obj 414 267 delwrite~ \$0-comb3left 100;
#X obj 595 267 delwrite~ \$0-comb4left 100;
#X obj 61 97 r \$0-comb1left;
#X obj 246 97 r \$0-comb2left;
#X obj 429 95 r \$0-comb3left;
#X obj 610 96 r \$0-comb4left;
#X obj 112 170 r \$0-frequency;
#X obj 297 170 r \$0-frequency;
#X obj 480 167 r \$0-frequency;
#X obj 661 167 r \$0-frequency;
#X obj 46 28 inlet~;
#X obj 338 326 outlet~;
#X floatatom 70 119 5 0 0 0 - - - 0;
#X floatatom 255 121 5 0 0 0 - - - 0;
#X floatatom 439 119 5 0 0 0 - - - 0;
#X floatatom 622 121 5 0 0 0 - - - 0;
#X obj 279 58 clip 0 0.99;
#X obj 279 29 r \$0-room;
#X connect 0 0 16 0;
#X connect 1 0 0 1;
#X connect 2 0 1 0;
#X connect 2 0 29 0;
#X connect 3 0 17 0;
#X connect 4 0 3 1;
#X connect 5 0 4 0;
#X connect 5 0 29 0;
#X connect 6 0 8 1;
#X connect 7 0 6 0;
#X connect 7 0 29 0;
#X connect 8 0 18 0;
#X connect 9 0 11 1;
#X connect 10 0 9 0;
#X connect 10 0 29 0;
#X connect 11 0 19 0;
#X connect 12 0 2 0;
#X connect 13 0 5 0;
#X connect 14 0 7 0;
#X connect 15 0 10 0;
#X connect 20 0 12 0;
#X connect 20 0 30 0;
#X connect 21 0 13 0;
#X connect 21 0 31 0;
#X connect 22 0 14 0;
#X connect 22 0 32 0;
#X connect 23 0 15 0;
#X connect 23 0 33 0;
#X connect 24 0 2 1;
#X connect 25 0 5 1;
#X connect 26 0 7 1;
#X connect 27 0 10 1;
#X connect 28 0 0 0;
#X connect 28 0 3 0;
#X connect 28 0 8 0;
#X connect 28 0 11 0;
#X connect 34 0 1 1;
#X connect 34 0 4 1;
#X connect 34 0 6 1;
#X connect 34 0 9 1;
#X connect 35 0 34 0;
#X restore 15 100 pd combfilters-left1;
#N canvas 27 56 358 650 diffusor-left 0;
#X obj 51 107 *~ 0.5;
#X obj 36 132 +~;
#X obj 66 132 -~;
#X obj 36 26 inlet~;
#X obj 81 238 *~ 0.5;
#X obj 66 263 +~;
#X obj 96 263 -~;
#X obj 111 368 *~ 0.5;
#X obj 96 393 +~;
#X obj 126 393 -~;
#X obj 141 498 *~ 0.5;
#X obj 126 523 +~;
#X obj 156 523 -~;
#X obj 156 605 outlet~;
#X text 95 28 freeverb's diffusor;
#X obj 156 576 hip~ 5;
#X floatatom 214 70 5 0 0 0 - - - 0;
#X floatatom 246 203 5 0 0 0 - - - 0;
#X floatatom 280 334 5 0 0 0 - - - 0;
#X floatatom 304 464 5 0 0 0 - - - 0;
#X obj 51 53 r \$0-allpass1left;
#X obj 51 80 delread~ \$0-allpass1left;
#X obj 36 158 delwrite~ \$0-allpass1left 40;
#X obj 81 186 r \$0-allpass2left;
#X obj 81 211 delread~ \$0-allpass2left;
#X obj 66 290 delwrite~ \$0-allpass2left 40;
#X obj 111 317 r \$0-allpass3left;
#X obj 111 341 delread~ \$0-allpass3left;
#X obj 96 420 delwrite~ \$0-allpass3left 40;
#X obj 141 447 r \$0-allpass4left;
#X obj 141 471 delread~ \$0-allpass4left;
#X obj 126 550 delwrite~ \$0-allpass4left 40;
#X connect 0 0 1 1;
#X connect 1 0 22 0;
#X connect 2 0 5 0;
#X connect 2 0 6 1;
#X connect 3 0 1 0;
#X connect 3 0 2 1;
#X connect 4 0 5 1;
#X connect 5 0 25 0;
#X connect 6 0 8 0;
#X connect 6 0 9 1;
#X connect 7 0 8 1;
#X connect 8 0 28 0;
#X connect 9 0 11 0;
#X connect 9 0 12 1;
#X connect 10 0 11 1;
#X connect 11 0 31 0;
#X connect 12 0 15 0;
#X connect 15 0 13 0;
#X connect 20 0 16 0;
#X connect 20 0 21 0;
#X connect 21 0 0 0;
#X connect 21 0 2 0;
#X connect 23 0 17 0;
#X connect 23 0 24 0;
#X connect 24 0 4 0;
#X connect 24 0 6 0;
#X connect 26 0 18 0;
#X connect 26 0 27 0;
#X connect 27 0 7 0;
#X connect 27 0 9 0;
#X connect 29 0 19 0;
#X connect 29 0 30 0;
#X connect 30 0 10 0;
#X connect 30 0 12 0;
#X restore 15 168 pd diffusor-left;
#N canvas 312 366 778 367 combfilters-left2 0;
#X obj 46 244 +~;
#X obj 61 219 *~ 0.3;
#X obj 61 194 lop~ 1000;
#X obj 231 244 +~;
#X obj 246 219 *~ 0.3;
#X obj 246 194 lop~ 1000;
#X obj 429 218 *~ 0.3;
#X obj 429 193 lop~ 1000;
#X obj 414 241 +~;
#X obj 610 218 *~ 0.3;
#X obj 610 193 lop~ 1000;
#X obj 595 241 +~;
#X obj 112 170 r \$0-frequency;
#X obj 297 170 r \$0-frequency;
#X obj 480 167 r \$0-frequency;
#X obj 661 167 r \$0-frequency;
#X obj 46 28 inlet~;
#X obj 338 326 outlet~;
#X obj 61 90 r \$0-comb5left;
#X obj 61 141 delread~ \$0-comb5left;
#X obj 46 268 delwrite~ \$0-comb5left 100;
#X obj 246 90 r \$0-comb6left;
#X obj 246 142 delread~ \$0-comb6left;
#X obj 231 268 delwrite~ \$0-comb6left 100;
#X obj 429 88 r \$0-comb7left;
#X obj 429 141 delread~ \$0-comb7left;
#X obj 414 267 delwrite~ \$0-comb7left 100;
#X obj 610 89 r \$0-comb8left;
#X obj 610 141 delread~ \$0-comb8left;
#X obj 595 267 delwrite~ \$0-comb8left 100;
#X floatatom 70 116 5 0 0 0 - - - 0;
#X floatatom 261 118 5 0 0 0 - - - 0;
#X floatatom 440 117 5 0 0 0 - - - 0;
#X floatatom 620 116 5 0 0 0 - - - 0;
#X obj 279 58 clip 0 0.99;
#X obj 279 28 r \$0-room;
#X connect 0 0 20 0;
#X connect 1 0 0 1;
#X connect 2 0 1 0;
#X connect 2 0 17 0;
#X connect 3 0 23 0;
#X connect 4 0 3 1;
#X connect 5 0 4 0;
#X connect 5 0 17 0;
#X connect 6 0 8 1;
#X connect 7 0 6 0;
#X connect 7 0 17 0;
#X connect 8 0 26 0;
#X connect 9 0 11 1;
#X connect 10 0 9 0;
#X connect 10 0 17 0;
#X connect 11 0 29 0;
#X connect 12 0 2 1;
#X connect 13 0 5 1;
#X connect 14 0 7 1;
#X connect 15 0 10 1;
#X connect 16 0 0 0;
#X connect 16 0 3 0;
#X connect 16 0 8 0;
#X connect 16 0 11 0;
#X connect 18 0 19 0;
#X connect 18 0 30 0;
#X connect 19 0 2 0;
#X connect 21 0 22 0;
#X connect 21 0 31 0;
#X connect 22 0 5 0;
#X connect 24 0 25 0;
#X connect 24 0 32 0;
#X connect 25 0 7 0;
#X connect 27 0 28 0;
#X connect 27 0 33 0;
#X connect 28 0 10 0;
#X connect 34 0 1 1;
#X connect 34 0 4 1;
#X connect 34 0 6 1;
#X connect 34 0 9 1;
#X connect 35 0 34 0;
#X restore 36 134 pd combfilters-left2;
#N canvas 261 41 778 367 combfilters-right1 0;
#X obj 46 244 +~;
#X obj 61 219 *~ 0.3;
#X obj 61 194 lop~ 1000;
#X obj 231 244 +~;
#X obj 246 219 *~ 0.3;
#X obj 246 194 lop~ 1000;
#X obj 429 218 *~ 0.3;
#X obj 429 193 lop~ 1000;
#X obj 414 241 +~;
#X obj 610 218 *~ 0.3;
#X obj 610 193 lop~ 1000;
#X obj 595 241 +~;
#X obj 112 170 r \$0-frequency;
#X obj 297 170 r \$0-frequency;
#X obj 480 167 r \$0-frequency;
#X obj 661 167 r \$0-frequency;
#X obj 46 28 inlet~;
#X obj 338 326 outlet~;
#X floatatom 70 119 5 0 0 0 - - - 0;
#X floatatom 255 121 5 0 0 0 - - - 0;
#X floatatom 439 119 5 0 0 0 - - - 0;
#X floatatom 622 121 5 0 0 0 - - - 0;
#X obj 61 141 delread~ \$0-comb1right;
#X obj 246 142 delread~ \$0-comb2right;
#X obj 429 141 delread~ \$0-comb3right;
#X obj 610 141 delread~ \$0-comb4right;
#X obj 61 97 r \$0-comb1right;
#X obj 246 97 r \$0-comb2right;
#X obj 429 95 r \$0-comb3right;
#X obj 610 97 r \$0-comb4right;
#X obj 46 268 delwrite~ \$0-comb1right 100;
#X obj 231 268 delwrite~ \$0-comb2right 100;
#X obj 414 267 delwrite~ \$0-comb3right 100;
#X obj 595 267 delwrite~ \$0-comb4right 100;
#X obj 279 58 clip 0 0.99;
#X obj 279 28 r \$0-room;
#X connect 0 0 30 0;
#X connect 1 0 0 1;
#X connect 2 0 1 0;
#X connect 2 0 17 0;
#X connect 3 0 31 0;
#X connect 4 0 3 1;
#X connect 5 0 4 0;
#X connect 5 0 17 0;
#X connect 6 0 8 1;
#X connect 7 0 6 0;
#X connect 7 0 17 0;
#X connect 8 0 32 0;
#X connect 9 0 11 1;
#X connect 10 0 9 0;
#X connect 10 0 17 0;
#X connect 11 0 33 0;
#X connect 12 0 2 1;
#X connect 13 0 5 1;
#X connect 14 0 7 1;
#X connect 15 0 10 1;
#X connect 16 0 0 0;
#X connect 16 0 3 0;
#X connect 16 0 8 0;
#X connect 16 0 11 0;
#X connect 22 0 2 0;
#X connect 23 0 5 0;
#X connect 24 0 7 0;
#X connect 25 0 10 0;
#X connect 26 0 18 0;
#X connect 26 0 22 0;
#X connect 27 0 19 0;
#X connect 27 0 23 0;
#X connect 28 0 20 0;
#X connect 28 0 24 0;
#X connect 29 0 21 0;
#X connect 29 0 25 0;
#X connect 34 0 1 1;
#X connect 34 0 4 1;
#X connect 34 0 6 1;
#X connect 34 0 9 1;
#X connect 35 0 34 0;
#X restore 208 99 pd combfilters-right1;
#N canvas 312 366 778 367 combfilters-right2 0;
#X obj 46 244 +~;
#X obj 61 219 *~ 0.3;
#X obj 61 194 lop~ 1000;
#X obj 231 244 +~;
#X obj 246 219 *~ 0.3;
#X obj 246 194 lop~ 1000;
#X obj 429 218 *~ 0.3;
#X obj 429 193 lop~ 1000;
#X obj 414 241 +~;
#X obj 610 218 *~ 0.3;
#X obj 610 193 lop~ 1000;
#X obj 595 241 +~;
#X obj 112 170 r \$0-frequency;
#X obj 297 170 r \$0-frequency;
#X obj 480 167 r \$0-frequency;
#X obj 661 167 r \$0-frequency;
#X obj 46 28 inlet~;
#X obj 338 326 outlet~;
#X floatatom 70 116 5 0 0 0 - - - 0;
#X floatatom 261 118 5 0 0 0 - - - 0;
#X floatatom 440 117 5 0 0 0 - - - 0;
#X floatatom 620 116 5 0 0 0 - - - 0;
#X obj 279 58 clip 0 0.99;
#X obj 61 90 r \$0-comb5right;
#X obj 246 90 r \$0-comb6right;
#X obj 429 88 r \$0-comb7right;
#X obj 610 89 r \$0-comb8right;
#X obj 61 141 delread~ \$0-comb5right;
#X obj 246 142 delread~ \$0-comb6right;
#X obj 429 141 delread~ \$0-comb7right;
#X obj 610 141 delread~ \$0-comb8right;
#X obj 46 268 delwrite~ \$0-comb5right 100;
#X obj 231 268 delwrite~ \$0-comb6right 100;
#X obj 414 267 delwrite~ \$0-comb7right 100;
#X obj 595 267 delwrite~ \$0-comb8right 100;
#X obj 279 28 r \$0-room;
#X connect 0 0 31 0;
#X connect 1 0 0 1;
#X connect 2 0 1 0;
#X connect 2 0 17 0;
#X connect 3 0 32 0;
#X connect 4 0 3 1;
#X connect 5 0 4 0;
#X connect 5 0 17 0;
#X connect 6 0 8 1;
#X connect 7 0 6 0;
#X connect 7 0 17 0;
#X connect 8 0 33 0;
#X connect 9 0 11 1;
#X connect 10 0 9 0;
#X connect 10 0 17 0;
#X connect 11 0 34 0;
#X connect 12 0 2 1;
#X connect 13 0 5 1;
#X connect 14 0 7 1;
#X connect 15 0 10 1;
#X connect 16 0 0 0;
#X connect 16 0 3 0;
#X connect 16 0 8 0;
#X connect 16 0 11 0;
#X connect 22 0 1 1;
#X connect 22 0 4 1;
#X connect 22 0 6 1;
#X connect 22 0 9 1;
#X connect 23 0 18 0;
#X connect 23 0 27 0;
#X connect 24 0 19 0;
#X connect 24 0 28 0;
#X connect 25 0 20 0;
#X connect 25 0 29 0;
#X connect 26 0 21 0;
#X connect 26 0 30 0;
#X connect 27 0 2 0;
#X connect 28 0 5 0;
#X connect 29 0 7 0;
#X connect 30 0 10 0;
#X connect 35 0 22 0;
#X restore 225 133 pd combfilters-right2;
#N canvas 27 56 358 650 diffusor-right 0;
#X obj 51 107 *~ 0.5;
#X obj 36 132 +~;
#X obj 66 132 -~;
#X obj 36 26 inlet~;
#X obj 81 238 *~ 0.5;
#X obj 66 263 +~;
#X obj 96 263 -~;
#X obj 111 368 *~ 0.5;
#X obj 96 393 +~;
#X obj 126 393 -~;
#X obj 141 498 *~ 0.5;
#X obj 126 523 +~;
#X obj 156 523 -~;
#X obj 156 605 outlet~;
#X text 95 28 freeverb's diffusor;
#X obj 156 576 hip~ 5;
#X floatatom 214 70 5 0 0 0 - - - 0;
#X floatatom 244 203 5 0 0 0 - - - 0;
#X floatatom 280 334 5 0 0 0 - - - 0;
#X floatatom 304 464 5 0 0 0 - - - 0;
#X obj 51 53 r \$0-allpass1right;
#X obj 51 80 delread~ \$0-allpass1right;
#X obj 36 158 delwrite~ \$0-allpass1right 40;
#X obj 81 186 r \$0-allpass2right;
#X obj 81 211 delread~ \$0-allpass2right;
#X obj 66 290 delwrite~ \$0-allpass2right 40;
#X obj 111 317 r \$0-allpass3right;
#X obj 111 341 delread~ \$0-allpass3right;
#X obj 96 420 delwrite~ \$0-allpass3right 40;
#X obj 141 447 r \$0-allpass4right;
#X obj 141 471 delread~ \$0-allpass4right;
#X obj 126 550 delwrite~ \$0-allpass4right 40;
#X connect 0 0 1 1;
#X connect 1 0 22 0;
#X connect 2 0 5 0;
#X connect 2 0 6 1;
#X connect 3 0 1 0;
#X connect 3 0 2 1;
#X connect 4 0 5 1;
#X connect 5 0 25 0;
#X connect 6 0 8 0;
#X connect 6 0 9 1;
#X connect 7 0 8 1;
#X connect 8 0 28 0;
#X connect 9 0 11 0;
#X connect 9 0 12 1;
#X connect 10 0 11 1;
#X connect 11 0 31 0;
#X connect 12 0 15 0;
#X connect 15 0 13 0;
#X connect 20 0 16 0;
#X connect 20 0 21 0;
#X connect 21 0 0 0;
#X connect 21 0 2 0;
#X connect 23 0 17 0;
#X connect 23 0 24 0;
#X connect 24 0 4 0;
#X connect 24 0 6 0;
#X connect 26 0 18 0;
#X connect 26 0 27 0;
#X connect 27 0 7 0;
#X connect 27 0 9 0;
#X connect 29 0 19 0;
#X connect 29 0 30 0;
#X connect 30 0 10 0;
#X connect 30 0 12 0;
#X restore 208 169 pd diffusor-right;
#X obj 208 61 *~ 0.015;
#X obj 15 226 *~ 1;
#X obj 208 228 *~ 1;
#X obj 94 228 *~ 1;
#X obj 169 228 *~ 1;
#X obj 115 202 r \$0-dry;
#X obj 229 203 r \$0-wet;
#X obj 36 201 r \$0-wet;
#X obj 94 14 inlet~;
#X obj 208 14 inlet~;
#X obj 15 268 outlet~;
#X obj 169 269 outlet~;
#X obj 312 14 inlet;
#X obj 374 14 inlet;
#X obj 462 14 inlet;
#X obj 544 16 inlet;
#N canvas 92 117 207 207 room 0;
#X obj 32 35 inlet;
#X obj 32 63 * 0.28;
#X obj 32 94 + 0.7;
#X obj 32 160 outlet;
#X text 80 65 scaleroom;
#X text 76 94 offsetroom;
#X obj 47 126 s \$0-room;
#X connect 0 0 1 0;
#X connect 1 0 2 0;
#X connect 2 0 3 0;
#X connect 2 0 6 0;
#X restore 312 45 pd room;
#N canvas 684 169 244 376 frequency 0;
#X obj 60 222 samplerate~;
#X obj 33 8 inlet;
#X obj 33 194 t f b;
#X obj 33 249 *;
#X obj 53 303 s \$0-frequency;
#X obj 33 327 outlet;
#X obj 33 64 * 0.4;
#X text 76 66 scaledamp;
#X obj 33 90 t b f;
#X obj 33 141 -;
#X msg 33 116 1;
#X obj 33 168 abs;
#X obj 33 275 * 0.5;
#X text 153 303 for [lop~];
#X obj 33 38 clip 0 2.4;
#X connect 0 0 3 1;
#X connect 1 0 14 0;
#X connect 2 0 3 0;
#X connect 2 1 0 0;
#X connect 3 0 12 0;
#X connect 6 0 8 0;
#X connect 8 0 10 0;
#X connect 8 1 9 1;
#X connect 9 0 11 0;
#X connect 10 0 9 0;
#X connect 11 0 2 0;
#X connect 12 0 5 0;
#X connect 12 0 4 0;
#X connect 14 0 6 0;
#X restore 374 45 pd frequency;
#N canvas 150 175 170 187 scalewet 0;
#X obj 22 42 inlet;
#X obj 22 143 outlet;
#X obj 22 73 * 3;
#X text 49 74 scalewet;
#X obj 40 112 s \$0-wet;
#X connect 0 0 2 0;
#X connect 2 0 1 0;
#X connect 2 0 4 0;
#X restore 544 45 pd scalewet;
#N canvas 121 146 220 198 scaledry 0;
#X obj 32 74 * 2;
#X obj 32 40 inlet;
#X obj 32 141 outlet;
#X text 58 75 scaledry;
#X obj 41 105 s \$0-dry;
#X connect 0 0 2 0;
#X connect 0 0 4 0;
#X connect 1 0 0 0;
#X restore 462 45 pd scaledry;
#X floatatom 312 70 5 0 0 0 - - - 0;
#X floatatom 374 70 10 0 0 0 - - - 0;
#X floatatom 462 69 5 0 0 0 - - - 0;
#X floatatom 544 69 5 0 0 0 - - - 0;
#N canvas 405 27 635 684 tuning 0;
#X msg 332 81 1139 \, 1211 \, 1300 \, 1379 \, 1445 \, 1514 \, 1580
\, 1640;
#X text 72 57 combfilter tunings left;
#X text 377 56 combfilter tunings right;
#X text 71 360 allpass tunings left;
#X text 383 355 allpass tunings right;
#N canvas 243 170 195 233 sampstoms 0;
#X obj 27 21 inlet;
#X obj 54 86 samplerate~;
#X obj 27 111 /;
#X obj 27 57 t f b;
#X obj 27 136 * 1000;
#X obj 27 162 outlet;
#X connect 0 0 3 0;
#X connect 1 0 2 1;
#X connect 2 0 4 0;
#X connect 3 0 2 0;
#X connect 3 1 1 0;
#X connect 4 0 5 0;
#X restore 30 107 pd sampstoms;
#X msg 30 82 1116 \, 1188 \, 1277 \, 1356 \, 1422 \, 1491 \, 1557 \,
1617;
#X obj 57 188 +;
#X msg 57 159 1;
#X obj 30 135 t f b;
#X obj 87 188 f;
#X obj 30 56 t b b;
#X msg 87 159 0;
#X obj 57 212 pack f \$0;
#X msg 57 238 \$2-comb\$1left;
#X obj 30 282 s;
#X obj 57 265 symbol;
#N canvas 0 22 195 233 sampstoms 0;
#X obj 27 21 inlet;
#X obj 54 86 samplerate~;
#X obj 27 111 /;
#X obj 27 57 t f b;
#X obj 27 136 * 1000;
#X obj 27 162 outlet;
#X connect 0 0 3 0;
#X connect 1 0 2 1;
#X connect 2 0 4 0;
#X connect 3 0 2 0;
#X connect 3 1 1 0;
#X connect 4 0 5 0;
#X restore 332 107 pd sampstoms;
#X obj 359 188 +;
#X msg 359 159 1;
#X obj 332 135 t f b;
#X obj 389 188 f;
#X msg 389 159 0;
#X obj 359 212 pack f \$0;
#X obj 332 282 s;
#X obj 359 265 symbol;
#X obj 332 56 t b b;
#X msg 359 238 \$2-comb\$1right;
#X obj 30 360 t b b;
#N canvas 0 22 195 233 sampstoms 0;
#X obj 27 21 inlet;
#X obj 54 86 samplerate~;
#X obj 27 111 /;
#X obj 27 57 t f b;
#X obj 27 136 * 1000;
#X obj 27 162 outlet;
#X connect 0 0 3 0;
#X connect 1 0 2 1;
#X connect 2 0 4 0;
#X connect 3 0 2 0;
#X connect 3 1 1 0;
#X connect 4 0 5 0;
#X restore 30 411 pd sampstoms;
#X obj 57 492 +;
#X msg 57 463 1;
#X obj 30 439 t f b;
#X obj 87 492 f;
#X msg 87 463 0;
#X obj 57 516 pack f \$0;
#X obj 30 586 s;
#X obj 57 569 symbol;
#X obj 334 356 t b b;
#N canvas 0 22 195 233 sampstoms 0;
#X obj 27 21 inlet;
#X obj 54 86 samplerate~;
#X obj 27 111 /;
#X obj 27 57 t f b;
#X obj 27 136 * 1000;
#X obj 27 162 outlet;
#X connect 0 0 3 0;
#X connect 1 0 2 1;
#X connect 2 0 4 0;
#X connect 3 0 2 0;
#X connect 3 1 1 0;
#X connect 4 0 5 0;
#X restore 334 407 pd sampstoms;
#X obj 361 488 +;
#X msg 361 459 1;
#X obj 334 435 t f b;
#X obj 391 488 f;
#X msg 391 459 0;
#X obj 361 512 pack f \$0;
#X obj 334 582 s;
#X obj 361 565 symbol;
#X obj 30 22 loadbang;
#X obj 332 27 loadbang;
#X obj 30 334 loadbang;
#X obj 334 331 loadbang;
#X obj 268 41 bng 15 250 50 0 empty empty empty 17 7 0 10 #fcfcfc #000000
#000000;
#X msg 30 386 225 \, 556 \, 441 \, 341;
#X msg 334 380 248 \, 579 \, 464 \, 364;
#X msg 57 542 \$2-allpass\$1left;
#X msg 361 539 \$2-allpass\$1right;
#X text 27 624 Original Freeverb delay line lengths are converted to
milliseconds \, based on samplerate.;
#X connect 0 0 17 0;
#X connect 5 0 9 0;
#X connect 6 0 5 0;
#X connect 7 0 10 0;
#X connect 7 0 13 0;
#X connect 8 0 7 0;
#X connect 9 0 15 0;
#X connect 9 1 8 0;
#X connect 10 0 7 1;
#X connect 11 0 6 0;
#X connect 11 1 12 0;
#X connect 12 0 10 0;
#X connect 13 0 14 0;
#X connect 14 0 16 0;
#X connect 16 0 15 1;
#X connect 17 0 20 0;
#X connect 18 0 21 0;
#X connect 18 0 23 0;
#X connect 19 0 18 0;
#X connect 20 0 24 0;
#X connect 20 1 19 0;
#X connect 21 0 18 1;
#X connect 22 0 21 0;
#X connect 23 0 27 0;
#X connect 25 0 24 1;
#X connect 26 0 0 0;
#X connect 26 1 22 0;
#X connect 27 0 25 0;
#X connect 28 0 53 0;
#X connect 28 1 34 0;
#X connect 29 0 32 0;
#X connect 30 0 33 0;
#X connect 30 0 35 0;
#X connect 31 0 30 0;
#X connect 32 0 36 0;
#X connect 32 1 31 0;
#X connect 33 0 30 1;
#X connect 34 0 33 0;
#X connect 35 0 55 0;
#X connect 37 0 36 1;
#X connect 38 0 54 0;
#X connect 38 1 44 0;
#X connect 39 0 42 0;
#X connect 40 0 43 0;
#X connect 40 0 45 0;
#X connect 41 0 40 0;
#X connect 42 0 46 0;
#X connect 42 1 41 0;
#X connect 43 0 40 1;
#X connect 44 0 43 0;
#X connect 45 0 56 0;
#X connect 47 0 46 1;
#X connect 48 0 11 0;
#X connect 49 0 26 0;
#X connect 50 0 28 0;
#X connect 51 0 38 0;
#X connect 52 0 11 0;
#X connect 52 0 28 0;
#X connect 52 0 26 0;
#X connect 52 0 38 0;
#X connect 53 0 29 0;
#X connect 54 0 39 0;
#X connect 55 0 37 0;
#X connect 56 0 47 0;
#X restore 410 141 pd tuning;
#X connect 0 0 1 0;
#X connect 1 0 7 0;
#X connect 2 0 1 0;
#X connect 3 0 5 0;
#X connect 4 0 5 0;
#X connect 5 0 8 0;
#X connect 6 0 3 0;
#X connect 6 0 0 0;
#X connect 6 0 4 0;
#X connect 6 0 2 0;
#X connect 7 0 16 0;
#X connect 8 0 17 0;
#X connect 9 0 16 0;
#X connect 10 0 17 0;
#X connect 11 0 10 1;
#X connect 11 0 9 1;
#X connect 12 0 8 1;
#X connect 13 0 7 1;
#X connect 14 0 6 0;
#X connect 14 0 9 0;
#X connect 15 0 6 0;
#X connect 15 0 10 0;
#X connect 18 0 22 0;
#X connect 19 0 23 0;
#X connect 20 0 25 0;
#X connect 21 0 24 0;
#X connect 22 0 26 0;
#X connect 23 0 27 0;
#X connect 24 0 29 0;
#X connect 25 0 28 0;
#X restore 79 311 pd vfreeverb~;
#X obj 311 267 / 508, f 8;
#X msg 235 74 0;
#X msg 295 87 0;
#X obj 343 222 / 127;
#X obj 311 186 r \$0-reverb;
#X connect 1 0 8 0;
#X connect 1 0 8 1;
#X connect 2 0 7 0;
#X connect 3 0 11 0;
#X connect 3 0 10 0;
#X connect 4 0 8 2;
#X connect 5 0 8 3;
#X connect 6 0 8 5;
#X connect 7 0 8 4;
#X connect 8 0 0 0;
#X connect 8 1 0 0;
#X connect 9 0 2 0;
#X connect 9 0 6 0;
#X connect 10 0 4 0;
#X connect 10 0 6 0;
#X connect 11 0 5 0;
#X connect 12 0 4 0;
#X connect 13 0 9 0;
#X connect 13 0 12 0;
#X restore 41 85 pd reverb;
#N canvas 119 125 690 377 bitcrush 0;
#X obj 425 188 samphold~;
#X obj 480 165 phasor~;
#X obj 184 83 inlet~;
#X obj 200 302 outlet~;
#X obj 480 76 expr (127 - $f1) / 127;
#X obj 184 269 *~ 1;
#X obj 225 267 *~ 0;
#X obj 246 143 > 0.95;
#X obj 205 223 line;
#X msg 205 198 \$1 15;
#X obj 246 222 line;
#X msg 246 197 \$1 15;
#X obj 246 171 expr 1 - $f1;
#X obj 480 105 * 4000;
#X obj 480 135 + 3000;
#X obj 480 48 r \$0-bitcrush;
#X connect 0 0 6 0;
#X connect 1 0 0 1;
#X connect 2 0 0 0;
#X connect 2 0 5 0;
#X connect 4 0 7 0;
#X connect 4 0 13 0;
#X connect 5 0 3 0;
#X connect 6 0 3 0;
#X connect 7 0 12 0;
#X connect 7 0 9 0;
#X connect 8 0 5 1;
#X connect 9 0 8 0;
#X connect 10 0 6 1;
#X connect 11 0 10 0;
#X connect 12 0 11 0;
#X connect 13 0 14 0;
#X connect 14 0 1 0;
#X connect 15 0 4 0;
#X restore 41 111 pd bitcrush;
#N canvas 86 238 591 408 ringMod 0;
#X obj 76 360 outlet~;
#X obj 139 318 *~;
#X obj 18 320 *~;
#X obj 179 116 loadbang;
#X msg 179 137 0;
#X obj 18 141 inlet~;
#X obj 33 223 mtof;
#X obj 33 246 osc~;
#X obj 18 271 *~;
#X text 158 10 wet/dry/freq;
#X obj 33 297 line~, f 6;
#X msg 155 191 0 15;
#X msg 242 191 0.5 15;
#X msg 196 191 1 15;
#X obj 154 290 line~;
#X obj 155 162 moses 5;
#X obj 159 36 r \$0-ringMod;
#X connect 1 0 0 0;
#X connect 2 0 0 0;
#X connect 3 0 4 0;
#X connect 4 0 15 0;
#X connect 5 0 8 0;
#X connect 5 0 1 0;
#X connect 6 0 7 0;
#X connect 7 0 8 1;
#X connect 8 0 2 0;
#X connect 10 0 2 1;
#X connect 11 0 10 0;
#X connect 12 0 10 0;
#X connect 12 0 14 0;
#X connect 13 0 14 0;
#X connect 14 0 1 1;
#X connect 15 0 13 0;
#X connect 15 0 11 0;
#X connect 15 1 12 0;
#X connect 16 0 6 0;
#X connect 16 0 15 0;
#X restore 41 137 pd ringMod;
#N canvas 442 208 459 417 delay 0;
#X obj 153 156 vline~;
#X msg 153 135 \$1 200;
#X obj 56 211 inlet~;
#X obj 70 342 outlet~;
#X obj 218 98 / 127;
#X obj 154 47 * 16;
#X obj 191 235 *~ 0;
#X obj 56 296 *~ 0.5;
#X obj 102 296 *~ 0.5;
#X obj 154 20 r \$0-delaytime;
#X obj 218 71 r \$0-feedback;
#X obj 79 237 s~ \$0-drumPitch;
#X obj 245 261 r~ \$0-drumPitch;
#X obj 171 193 vd~ \$0-drumPitch;
#X obj 241 299 delwrite~ \$0-drumPitch 2000;
#X connect 0 0 13 0;
#X connect 1 0 0 0;
#X connect 2 0 7 0;
#X connect 2 0 11 0;
#X connect 4 0 6 1;
#X connect 5 0 1 0;
#X connect 6 0 8 0;
#X connect 6 0 14 0;
#X connect 7 0 3 0;
#X connect 8 0 3 0;
#X connect 9 0 5 0;
#X connect 10 0 4 0;
#X connect 12 0 14 0;
#X connect 13 0 6 0;
#X restore 41 188 pd delay;
#N canvas 158 162 477 481 distortion 0;
#X obj 71 28 inlet~;
#X obj 71 408 outlet~;
#X obj 148 61 *~ 40;
#X obj 148 84 clip~ -0.5 0.5;
#X obj 148 349 *~ 0.3;
#X obj 71 321 *~ 1;
#X obj 148 321 *~ 0;
#X msg 92 275 \$1 15;
#X msg 169 273 \$1 15;
#X obj 92 297 line;
#X obj 169 295 line;
#X obj 169 204 / 127;
#X obj 254 207 expr (127 - $f1) / 127;
#X obj 184 124 r \$0-distortion;
#X connect 0 0 2 0;
#X connect 0 0 5 0;
#X connect 2 0 3 0;
#X connect 3 0 6 0;
#X connect 4 0 1 0;
#X connect 5 0 1 0;
#X connect 6 0 4 0;
#X connect 7 0 9 0;
#X connect 8 0 10 0;
#X connect 9 0 5 1;
#X connect 10 0 6 1;
#X connect 11 0 8 0;
#X connect 12 0 7 0;
#X connect 13 0 11 0;
#X connect 13 0 12 0;
#X restore 41 163 pd distortion;
#X obj 41 295 *~;
#X obj 120 215 / 127;
#X msg 120 241 \$1 15;
#X obj 120 267 line~;
#N canvas 256 150 234 265 init 0;
#X obj 34 39 loadbang;
#X obj 34 71 float \$0;
#X msg 34 105 \; pd dsp 1 \; \$1-synthvol 60 \; \$1-reverb-set 50 \;
\$1-bitcrush-set 0 \; \$1-ringMod-set 0 \; \$1-distortion-set 20 \;
\$1-delaytime-set 30 \; \$1-feedback-set 50 \;;
#X connect 0 0 1 0;
#X connect 1 0 2 0;
#X restore 41 12 pd init;
#X obj 120 189 r \$0-synthvol;
#X obj 41 321 outlet~;
#X connect 0 0 1 0;
#X connect 1 0 2 0;
#X connect 2 0 3 0;
#X connect 3 0 5 0;
#X connect 4 0 6 0;
#X connect 5 0 4 0;
#X connect 6 0 12 0;
#X connect 7 0 8 0;
#X connect 8 0 9 0;
#X connect 9 0 6 1;
#X connect 11 0 7 0;
#X restore 39 60 pd FX;
#X obj 39 89 outlet~;
#X connect 2 0 3 0;
#X restore 21 17 pd synth;
#N canvas 128 128 450 300 general 0;
#X restore 287 15 pd general;
#X obj 14 46 dac~;
#X connect 2 0 4 0;
#X connect 2 0 4 1;
#X restore 1630 14 pd codigo;
#X obj 1217 420 cnv 15 400 500 empty empty empty 20 12 0 14 #e0e0e0
#404040 0;
#X obj 1271 501 tgl 40 0 \$0-c \$0-qc empty 17 7 0 10 #ffffff #000000
#000000 0 1;
#X obj 1315 501 tgl 40 0 \$0-d \$0-wd empty 17 7 0 10 #ffffff #000000
#000000 0 1;
#X obj 1359 501 tgl 40 0 \$0-e \$0-ee empty 17 7 0 10 #ffffff #000000
#000000 0 1;
#X obj 1403 501 tgl 40 0 \$0-fN \$0-rfN empty 17 7 0 10 #ffffff #000000
#000000 0 1;
#X obj 1447 501 tgl 40 0 \$0-g \$0-tg empty 17 7 0 10 #ffffff #000000
#000000 0 1;
#X obj 1491 501 tgl 40 0 \$0-a \$0-ya empty 17 7 0 10 #ffffff #000000
#000000 0 1;
#X obj 1535 501 tgl 40 0 \$0-b \$0-ub empty 17 7 0 10 #ffffff #000000
#000000 0 1;
#X obj 1516 457 tgl 40 0 \$0-aS \$0-7aS empty 17 7 0 10 #606060 #000000
#000000 0 1;
#X obj 1472 457 tgl 40 0 \$0-gS \$0-6gS empty 17 7 0 10 #606060 #000000
#000000 0 1;
#X obj 1428 457 tgl 40 0 \$0-fs \$0-5fs empty 17 7 0 10 #606060 #000000
#000000 0 1;
#X obj 1339 457 tgl 40 0 \$0-dS \$0-3dS empty 17 7 0 10 #606060 #000000
#000000 0 1;
#X obj 1295 457 tgl 40 0 \$0-cS \$0-2cS empty 17 7 0 10 #606060 #000000
#000000 0 1;
#X obj 1309 577 hradio 30 1 0 3 \$0-octave \$0-octave empty 0 -8 0
10 #00314b #037da4 #000000 0;
#X text 1253 583 octave;
#X text 1421 585 volume;
#X obj 1481 578 hsl 90 30 0 127 0 0 \$0-synthvol synthvol empty -2
-8 0 10 #00314b #037da4 #000000 0 1;
#X text 1319 629 attack;
#X text 1316 706 release;
#X text 1326 787 shape;
#X text 1461 707 vibrato rate;
#X text 1490 786 glide;
#X obj 1282 654 hsl 128 15 0 127 0 0 \$0-attack \$0-attack empty -2
-8 0 10 #9bd1d1 #000000 #000000 0 1;
#X obj 1283 734 hsl 128 15 0 127 0 0 \$0-release \$0-release empty
-2 -8 0 10 #9bd1d1 #000000 #000000 0 1;
#X obj 1283 812 hsl 128 15 0 127 0 0 \$0-synthshape \$0-synthshape
empty -2 -8 0 10 #9bd1d1 #000000 #000000 0 1;
#X obj 1443 654 hsl 128 15 0 127 0 0 \$0-index \$0-index empty -2 -8
0 10 #9bd1d0 #000000 #000000 0 1;
#X obj 1443 734 hsl 128 15 0 127 0 0 \$0-synthrate \$0-synthrate empty
-2 -8 0 10 #9bd1cf #000000 #000000 0 1;
#X obj 1444 812 hsl 128 15 0 127 0 0 \$0-glide \$0-glide empty -2 -8
0 10 #9bd0ce #000000 #000000 0 1;
#X text 1476 630 vibrato;
#X text 1316 874 sound effects;
#N canvas 150 175 380 418 FXsynth 0;
#X text 79 28 reverb;
#X text 236 28 distortion;
#X text 68 159 delay time;
#X text 77 292 feedback;
#X obj 39 49 hsl 128 60 0 127 0 0 \$0-reverb \$0-reverb-set empty -2
-8 0 10 #027da2 #00314b #000000 0 1;
#X obj 41 180 hsl 128 60 0 127 0 0 \$0-delaytime \$0-delaytime-set
empty -2 -8 0 10 #027da1 #00314b #000000 0 1;
#X obj 42 315 hsl 128 60 0 127 0 0 \$0-feedback \$0-feedback-set empty
-2 -8 0 10 #027da2 #00314b #000000 0 1;
#X obj 210 315 hsl 128 60 0 127 0 0 \$0-ringMod \$0-ringMod-set empty
-2 -8 0 10 #027da2 #00314b #000000 0 1;
#X obj 211 180 hsl 128 60 0 127 0 0 \$0-bitcrush \$0-bitcrush-set empty
-2 -8 0 10 #027da2 #00314b #000000 0 1;
#X obj 210 49 hsl 128 60 0 127 0 0 \$0-distortion \$0-distortion-set
empty -2 -8 0 10 #027da2 #00314b #000000 0 1;
#X text 258 158 crush;
#X text 258 293 ring;
#X restore 1438 875 pd FXsynth;
#X obj 1218 93 cnv 15 400 300 empty empty empty 20 12 0 14 #e0e0e0
#404040 0;
#X text 1318 325 sound effects;
#N canvas 572 100 407 432 FXdrumbox 0;
#X text 94 33 reverb;
#X text 251 33 distortion;
#X text 83 164 delay time;
#X text 92 297 feedback;
#X obj 54 54 hsl 128 60 0 127 0 0 \$0-drumreverb \$0-drumreverb-set
empty -2 -8 0 10 #027da2 #00314b #000000 0 1;
#X obj 56 185 hsl 128 60 0 127 0 0 \$0-drumdelaytime \$0-drumdelaytime-set
empty -2 -8 0 10 #027da1 #00314b #000000 0 1;
#X obj 57 320 hsl 128 60 0 127 0 0 \$0-drumfeedback \$0-drumfeedback-set
empty -2 -8 0 10 #027da2 #00314b #000000 0 1;
#X obj 225 320 hsl 128 60 0 127 0 0 \$0-drumringMod \$0-drumringMod-set
empty -2 -8 0 10 #027da2 #00314b #000000 0 1;
#X obj 226 185 hsl 128 60 0 127 0 0 \$0-drumbitcrush \$0-drumbitcrush-set
empty -2 -8 0 10 #027da2 #00314b #000000 0 1;
#X obj 225 54 hsl 128 60 0 127 0 0 \$0-drumdistortion \$0-drumdistortion-set
empty -2 -8 0 10 #027da2 #00314b #000000 0 1;
#X text 273 163 crush;
#X text 273 298 ring;
#X restore 1438 326 pd FXdrumbox;
#X text 1357 277 drumbox;
#N canvas 121 132 456 477 drumbox 0;
#X obj 21 35 bng 60 250 50 0 \$0-click1 \$0-z-click1 empty 17 7 0 10
#037da4 #00314b #000000;
#X obj 109 34 bng 60 250 50 0 \$0-click2 \$0-x-click2 empty 17 7 0
10 #027da1 #00314b #000000;
#X obj 197 33 bng 60 250 50 0 \$0-click3 \$0-c-click3 empty 17 7 0
10 #027da0 #00314b #000000;
#X text 45 100 Z;
#X text 134 98 X;
#X text 221 97 C;
#X obj 197 305 bng 60 250 50 0 \$0-myclick \$0-myclick-set empty 17
7 0 10 #027da1 #00314b #000000;
#X text 21 286 record your samples -->;
#X text 63 325 play your samples;
#X obj 221 284 bng 15 250 50 0 \$0-mysound \$0-mysound empty 17 7 0
10 #5aa4d6 #376ea5 #000000;
#X text 35 190 try selected samples;
#X text 56 153 select samples-->;
#X obj 221 153 bng 15 250 50 0 \$0-selectsound \$0-selectsound empty
17 7 0 10 #5aa4d6 #376ea5 #000000;
#X obj 196 172 bng 60 250 50 0 \$0-selclick \$0-selclick-set empty
17 7 0 10 #037da4 #00314b #000000;
#X floatatom 211 392 5 0 0 0 - \$0-counter \$0-counter-s 0;
#X text 77 391 recording in...;
#X text 220 236 N;
#X obj 276 33 bng 60 250 50 0 \$0-click4 \$0-v-click4 empty 17 7 0
10 #037da4 #00314b #000000;
#X obj 364 32 bng 60 250 50 0 \$0-click5 \$0-b-click5 empty 17 7 0
10 #027da1 #00314b #000000;
#X text 300 98 V;
#X text 389 96 B;
#X text 221 370 M;
#X restore 1439 275 pd drumbox;
#X obj 1346 118 hradio 40 1 0 4 \$0-drumkit \$0-drumkit empty 0 -8
0 10 #00314b #037da4 #000000 0;
#X text 1278 130 drum kit;
#X text 1279 213 drum volume;
#X text 1362 160 A;
#X text 1402 161 B;
#X text 1443 161 C;
#X text 1486 160 D;
#X obj 1372 194 hsl 120 40 0 127 0 0 \$0-drumvol \$0-drumvol empty
-2 -8 0 10 #00314b #037da4 #000000 0 1;
#X text 888 170 teclas de muestra para el sequencer;
#X obj 971 211 bng 60 250 50 0 \$0-click1 \$0-z-click1 empty 17 7 0
10 #037da4 #00314b #000000;
#X obj 971 298 bng 60 250 50 0 \$0-click2 \$0-x-click2 empty 17 7 0
10 #027da1 #00314b #000000;
#X obj 971 384 bng 60 250 50 0 \$0-click3 \$0-c-click3 empty 17 7 0
10 #027da0 #00314b #000000;
#X text 995 276 Z;
#X text 996 362 X;
#X text 995 448 C;
#X obj 972 474 bng 60 250 50 0 \$0-click4 \$0-v-click4 empty 17 7 0
10 #037da4 #00314b #000000;
#X obj 972 563 bng 60 250 50 0 \$0-click5 \$0-b-click5 empty 17 7 0
10 #027da1 #00314b #000000;
#X text 996 539 V;
#X text 997 627 B;
#X obj 971 650 bng 60 250 50 0 \$0-selclick \$0-selclick-set empty
17 7 0 10 #037da4 #00314b #000000;
#X text 995 714 N;
#X obj 970 737 bng 60 250 50 0 \$0-myclick \$0-myclick-set empty 17
7 0 10 #027da1 #00314b #000000;
#X text 995 801 M;
#X text 85 749 faltara unificar el nombre que recibe y enva el
botn para grabar el sample (para hacerlo desde el sequencer y el
drumbox de la misma forma);
#X text 1285 542 Q;
#X text 1328 541 W;
#X text 1374 541 E;
#X text 1417 540 R;
#X text 1463 541 T;
#X text 1506 541 Y;
#X text 1551 541 U;
#X text 1308 440 2;
#X text 1353 440 3;
#X text 1443 439 5;
#X text 1486 439 6;
#X text 1531 439 7;
#X coords 0 -1 1 1 1690 950 1 10 10;
