#N canvas 295 65 1234 741 12;
#N canvas 226 184 776 462 menu_superlooper 0;
#X obj 21 29 r \$0-option1-s;
#X obj 156 28 r \$0-option2-s;
#X msg 21 165 vis \$1;
#X msg 156 164 vis \$1;
#X obj 156 187 s pd-drumsapp;
#N canvas 303 37 1100 743 sequencerapp 0;
#X obj 5 7 patches/page4;
#X restore 531 25 pd sequencerapp;
#X obj 21 188 s pd-sequencerapp;
#N canvas 747 33 1112 744 drumsapp 0;
#X obj 10 11 patches/drumbox_app;
#X restore 531 49 pd drumsapp;
#N canvas 475 43 1093 732 synthapp 0;
#X obj 5 8 patches/synthesizer_app;
#X restore 531 74 pd synthapp;
#X msg 270 165 vis \$1;
#X obj 270 29 r \$0-option3-s;
#X obj 270 188 s pd-synthapp;
#X obj 230 89 tgl 15 0 empty empty empty 17 7 0 10 #fcfcfc #000000
#000000 0 1;
#X obj 85 90 tgl 15 0 empty empty empty 17 7 0 10 #fcfcfc #000000 #000000
0 1;
#X floatatom 379 134 5 0 0 0 - - - 0;
#X msg 379 189 0;
#X obj 422 159 loadbang;
#X obj 379 219 s closevol;
#X floatatom 154 223 5 0 0 0 - - - 0;
#X msg 154 278 0;
#X obj 197 248 loadbang;
#X obj 154 308 s closevol;
#X msg 21 52 0;
#X obj 21 137 == 0;
#X msg 156 51 1;
#X obj 156 139 == 1;
#X msg 270 52 0;
#X obj 270 141 == 0;
#X obj 154 248 sel 0;
#X obj 379 159 sel 0;
#X obj 249 308 s drumvol;
#X msg 249 280 60;
#X obj 463 218 s drumvol;
#X msg 463 190 60;
#X floatatom 20 257 5 0 0 0 - - - 0;
#X msg 20 312 0;
#X obj 63 282 loadbang;
#X msg 115 314 60;
#X obj 20 282 sel 1;
#X obj 20 342 s closesynth;
#X obj 115 342 s synthvol;
#X floatatom 351 256 5 0 0 0 - - - 0;
#X msg 351 311 0;
#X obj 394 281 loadbang;
#X msg 446 313 60;
#X obj 351 281 sel 1;
#X obj 351 341 s closesynth;
#X obj 446 341 s synthvol;
#X connect 0 0 22 0;
#X connect 1 0 24 0;
#X connect 2 0 6 0;
#X connect 3 0 4 0;
#X connect 9 0 11 0;
#X connect 10 0 26 0;
#X connect 12 0 14 0;
#X connect 12 0 25 0;
#X connect 12 0 27 0;
#X connect 12 0 41 0;
#X connect 13 0 18 0;
#X connect 13 0 23 0;
#X connect 13 0 25 0;
#X connect 13 0 34 0;
#X connect 14 0 29 0;
#X connect 15 0 17 0;
#X connect 16 0 15 0;
#X connect 18 0 28 0;
#X connect 19 0 21 0;
#X connect 20 0 19 0;
#X connect 22 0 13 0;
#X connect 23 0 2 0;
#X connect 24 0 12 0;
#X connect 24 0 13 0;
#X connect 25 0 3 0;
#X connect 26 0 12 0;
#X connect 27 0 9 0;
#X connect 28 0 19 0;
#X connect 28 1 31 0;
#X connect 29 0 15 0;
#X connect 29 1 33 0;
#X connect 31 0 30 0;
#X connect 33 0 32 0;
#X connect 34 0 38 0;
#X connect 35 0 39 0;
#X connect 36 0 35 0;
#X connect 37 0 40 0;
#X connect 38 0 35 0;
#X connect 38 1 37 0;
#X connect 41 0 45 0;
#X connect 42 0 46 0;
#X connect 43 0 42 0;
#X connect 44 0 47 0;
#X connect 45 0 42 0;
#X connect 45 1 44 0;
#X restore 948 709 pd menu_superlooper;
#X obj 11 11 cnv 15 1078 718 empty empty empty 20 12 0 14 #e0e0e0 #404040
0;
#X obj 276 179 bng 150 250 50 0 \$0-option1-s \$0-option1-r empty 17
7 0 10 #fcfcfc #000000 #000000;
#X obj 467 179 bng 150 250 50 0 \$0-option2-s \$0-option2-r empty 17
7 0 10 #fcfcfc #000000 #000000;
#X text 493 72 MENU PRINCIPAL;
#X text 512 157 DRUMBOX;
#X text 312 157 SEQUENCER;
#X obj 661 179 bng 150 250 50 0 \$0-option3-s \$0-option3-r empty 17
7 0 10 #fcfcfc #000000 #000000;
#X text 710 155 SYNTH;
#N canvas 275 62 1463 661 audio1 0;
#X msg 205 517 stop;
#X obj 212 115 metro 1000;
#X msg 252 69 stop, f 5;
#X obj 212 225 int;
#X obj 259 227 - 1;
#X floatatom 212 263 5 0 0 0 - - - 0;
#X obj 346 290 sel 0;
#X obj 230 158 loadbang;
#X obj 426 324 bng 15 250 50 0 empty empty empty 17 7 0 10 #fcfcfc
#000000 #000000;
#X obj 112 571 writesf~ 1;
#X obj 487 150 list;
#X msg 487 182 open \$1 \, 1;
#X obj 487 216 readsf~;
#X msg 230 185 5;
#X obj 205 486 delay 5000;
#X obj 476 263 dac~;
#X obj 711 23 bng 15 250 50 0 empty empty empty 17 7 0 10 #fcfcfc #000000
#000000;
#X obj 151 294 s \$0-audiocounter1;
#X obj 212 36 r \$0-audiorec1;
#X obj 487 21 r \$0-audioplay1;
#X obj 366 120 r \$0-stopaudio1;
#X obj 28 332 r~ drumaudio;
#X obj 347 608 soundfiler;
#X obj 347 474 r \$0-audioplay1;
#X obj 890 10 r \$0-selectpatch-drumbox-s;
#X listbox 890 78 59 0 0 0 - - - 0;
#X obj 890 45 openpanel 1;
#X obj 890 264 pack s s;
#X listbox 943 234 20 0 0 0 - - - 0;
#X obj 943 200 list;
#X msg 890 435 C:/Users/horte/OneDrive/Escritorio/pruebaspd/audiodrumbox.wav
, f 63;
#X obj 943 143 loadbang;
#X msg 943 175 audiodrumbox.wav;
#X msg 890 337 set \$1/\$2;
#X msg 487 110 \$2;
#X obj 487 60 pack f s;
#X obj 347 520 pack f s;
#X msg 347 578 read -resize \$2 audio1;
#X obj 137 347 pack f s;
#X msg 137 448 open \$2 \, start;
#X obj 92 224 bng 15 250 50 0 empty empty empty 17 7 0 10 #fcfcfc #000000
#000000;
#X obj 890 470 list;
#X listbox 890 503 64 0 0 0 - - - 0;
#X obj 835 302 t b b;
#X connect 0 0 9 0;
#X connect 1 0 3 0;
#X connect 2 0 1 0;
#X connect 3 0 4 0;
#X connect 3 0 5 0;
#X connect 4 0 3 1;
#X connect 5 0 6 0;
#X connect 5 0 17 0;
#X connect 6 0 13 0;
#X connect 6 0 2 0;
#X connect 6 0 8 0;
#X connect 6 0 14 0;
#X connect 6 0 38 0;
#X connect 7 0 13 0;
#X connect 10 0 11 0;
#X connect 11 0 12 0;
#X connect 12 0 15 0;
#X connect 12 0 15 1;
#X connect 12 1 16 0;
#X connect 13 0 3 1;
#X connect 14 0 0 0;
#X connect 16 0 35 0;
#X connect 18 0 1 0;
#X connect 19 0 35 0;
#X connect 20 0 12 0;
#X connect 21 0 9 0;
#X connect 23 0 36 0;
#X connect 24 0 26 0;
#X connect 25 0 27 0;
#X connect 26 0 25 0;
#X connect 27 0 33 0;
#X connect 27 0 43 0;
#X connect 28 0 27 1;
#X connect 29 0 28 0;
#X connect 30 0 41 0;
#X connect 31 0 32 0;
#X connect 32 0 29 0;
#X connect 33 0 30 0;
#X connect 34 0 10 0;
#X connect 35 0 34 0;
#X connect 36 0 37 0;
#X connect 37 0 22 0;
#X connect 38 0 39 0;
#X connect 39 0 9 0;
#X connect 40 0 38 0;
#X connect 41 0 42 0;
#X connect 42 0 35 1;
#X connect 42 0 38 1;
#X connect 42 0 36 1;
#X connect 43 0 30 0;
#X restore 1097 11 pd audio1;
#N canvas 620 78 820 541 audio2 0;
#X msg 205 447 stop;
#X obj 212 115 metro 1000;
#X msg 252 69 stop, f 5;
#X obj 212 225 int;
#X obj 259 227 - 1;
#X floatatom 212 263 5 0 0 0 - - - 0;
#X obj 346 290 sel 0;
#X obj 230 158 loadbang;
#X obj 426 324 bng 15 250 50 0 empty empty empty 17 7 0 10 #fcfcfc
#000000 #000000;
#X obj 112 481 writesf~ 1;
#X obj 487 120 list;
#X msg 487 152 open \$1 \, 1;
#X obj 487 186 readsf~;
#X msg 230 185 5;
#X obj 205 416 delay 5000;
#X obj 476 233 dac~;
#X obj 672 61 bng 15 250 50 0 empty empty empty 17 7 0 10 #fcfcfc #000000
#000000;
#X obj 341 410 loadbang;
#X obj 341 472 soundfiler;
#X obj 212 36 r \$0-audiorec2;
#X obj 487 51 r \$0-audioplay2;
#X obj 366 90 r \$0-stopaudio2;
#X obj 408 410 r \$0-audioplay2;
#X obj 151 294 s \$0-audiocounter2;
#X obj 29 405 r~ synthaudio;
#X msg 135 365 open patches/sounds/audios/audiorecord2.wav \, start
;
#X msg 341 442 read -resize patches/sounds/audios/audiorecord2.wav
audio2;
#X msg 487 90 patches/sounds/audios/audiorecord2.wav;
#X connect 0 0 9 0;
#X connect 1 0 3 0;
#X connect 2 0 1 0;
#X connect 3 0 4 0;
#X connect 3 0 5 0;
#X connect 4 0 3 1;
#X connect 5 0 6 0;
#X connect 5 0 23 0;
#X connect 6 0 13 0;
#X connect 6 0 2 0;
#X connect 6 0 25 0;
#X connect 6 0 8 0;
#X connect 6 0 14 0;
#X connect 7 0 13 0;
#X connect 10 0 11 0;
#X connect 11 0 12 0;
#X connect 12 0 15 0;
#X connect 12 0 15 1;
#X connect 12 1 16 0;
#X connect 13 0 3 1;
#X connect 14 0 0 0;
#X connect 16 0 27 0;
#X connect 17 0 26 0;
#X connect 19 0 1 0;
#X connect 20 0 27 0;
#X connect 21 0 12 0;
#X connect 22 0 26 0;
#X connect 24 0 9 0;
#X connect 25 0 9 0;
#X connect 26 0 18 0;
#X connect 27 0 10 0;
#X restore 1097 34 pd audio2;
#X obj 36 355 cnv 15 500 300 empty empty empty 20 12 0 14 #bbbbbb #404040
0;
#X obj 559 355 cnv 15 500 300 empty empty empty 20 12 0 14 #bbbbbb
#404040 0;
#X obj 85 403 bng 60 250 50 0 \$0-audiorec1 \$0-audiorec1 empty 17
7 0 10 #fcfcfc #000000 #000000;
#X obj 84 506 bng 60 250 50 0 \$0-audioplay1 \$0-audioplay1 empty 17
7 0 10 #fcfcfc #000000 #000000;
#X text 74 483 play audio;
#X text 157 423 recording in ....;
#X listbox 304 445 7 0 0 0 - - - 0;
#X obj 304 418 r \$0-audiocounter1;
#X msg 148 579 0;
#X text 51 579 stop playing;
#X obj 148 606 s \$0-stopaudio1;
#N canvas 0 22 450 278 (subpatch) 0;
#X array audio1 220480 float 2;
#X coords 0 1 220480 -1 200 140 1;
#X restore 301 492 graph;
#X text 66 381 record drumbox;
#X obj 605 410 bng 60 250 50 0 \$0-audiorec2 \$0-audiorec2 empty 17
7 0 10 #fcfcfc #000000 #000000;
#X obj 604 513 bng 60 250 50 0 \$0-audioplay2 \$0-audioplay2 empty
17 7 0 10 #fcfcfc #000000 #000000;
#X text 594 490 play audio;
#X text 677 430 recording in ....;
#X listbox 824 432 8 0 0 0 - - - 0;
#X msg 668 586 0;
#X text 571 586 stop playing;
#N canvas 0 22 450 278 (subpatch) 0;
#X array audio2 220480 float 2;
#X coords 0 1 220480 -1 200 140 1;
#X restore 821 479 graph;
#X text 586 388 record synth;
#X obj 668 613 s \$0-stopaudio2;
#X obj 824 405 r \$0-audiocounter2;
#X obj 485 366 bng 40 250 50 0 \$0-selectpatch-drumbox-s \$0-selectpatch-drumbox-r
empty 17 7 0 10 #fcfcfc #000000 #000000;
#X connect 18 0 17 0;
#X connect 19 0 21 0;
#X connect 29 0 33 0;
#X connect 34 0 28 0;
#X coords 0 -1 1 1 1080 720 1 10 10;
