#N canvas 373 96 858 395 12;
#N canvas 226 184 776 462 menu_superlooper 1;
#X obj 21 29 r \$0-option1-s;
#X obj 156 28 r \$0-option2-s;
#X msg 21 165 vis \$1;
#X msg 156 164 vis \$1;
#X obj 156 187 s pd-drumsapp;
#N canvas 0 60 1100 743 sequencerapp 0;
#X obj 5 7 patches/page4;
#X restore 531 25 pd sequencerapp;
#X obj 21 188 s pd-sequencerapp;
#N canvas 258 385 1112 744 drumsapp 0;
#X obj 10 11 patches/drumbox_app;
#X restore 531 49 pd drumsapp;
#N canvas 208 71 1093 732 synthapp 0;
#X obj 5 8 patches/synthesizer_app;
#X restore 531 74 pd synthapp;
#X msg 270 165 vis \$1;
#X obj 270 29 r \$0-option3-s;
#X obj 270 188 s pd-synthapp;
#X obj 230 89 tgl 15 0 empty empty empty 17 7 0 10 #fcfcfc #000000
#000000 0 1;
#X obj 85 90 tgl 15 0 empty empty empty 17 7 0 10 #fcfcfc #000000 #000000
0 1;
#X floatatom 379 134 5 0 0 0 - - - 0;
#X msg 379 189 0;
#X obj 422 159 loadbang;
#X obj 379 219 s closevol;
#X floatatom 154 223 5 0 0 0 - - - 0;
#X msg 154 278 0;
#X obj 197 248 loadbang;
#X obj 154 308 s closevol;
#X msg 21 52 0;
#X obj 21 137 == 0;
#X msg 156 51 1;
#X obj 156 139 == 1;
#X msg 270 52 0;
#X obj 270 141 == 0;
#X obj 154 248 sel 0;
#X obj 379 159 sel 0;
#X obj 249 308 s drumvol;
#X msg 249 280 60;
#X obj 463 218 s drumvol;
#X msg 463 190 60;
#X floatatom 20 257 5 0 0 0 - - - 0;
#X msg 20 312 0;
#X obj 63 282 loadbang;
#X msg 115 314 60;
#X obj 20 282 sel 1;
#X obj 20 342 s closesynth;
#X obj 115 342 s synthvol;
#X floatatom 351 256 5 0 0 0 - - - 0;
#X msg 351 311 0;
#X obj 394 281 loadbang;
#X msg 446 313 60;
#X obj 351 281 sel 1;
#X obj 351 341 s closesynth;
#X obj 446 341 s synthvol;
#X connect 0 0 22 0;
#X connect 1 0 24 0;
#X connect 2 0 6 0;
#X connect 3 0 4 0;
#X connect 9 0 11 0;
#X connect 10 0 26 0;
#X connect 12 0 14 0;
#X connect 12 0 25 0;
#X connect 12 0 27 0;
#X connect 12 0 41 0;
#X connect 13 0 18 0;
#X connect 13 0 23 0;
#X connect 13 0 25 0;
#X connect 13 0 34 0;
#X connect 14 0 29 0;
#X connect 15 0 17 0;
#X connect 16 0 15 0;
#X connect 18 0 28 0;
#X connect 19 0 21 0;
#X connect 20 0 19 0;
#X connect 22 0 13 0;
#X connect 23 0 2 0;
#X connect 24 0 12 0;
#X connect 24 0 13 0;
#X connect 25 0 3 0;
#X connect 26 0 12 0;
#X connect 27 0 9 0;
#X connect 28 0 19 0;
#X connect 28 1 31 0;
#X connect 29 0 15 0;
#X connect 29 1 33 0;
#X connect 31 0 30 0;
#X connect 33 0 32 0;
#X connect 34 0 38 0;
#X connect 35 0 39 0;
#X connect 36 0 35 0;
#X connect 37 0 40 0;
#X connect 38 0 35 0;
#X connect 38 1 37 0;
#X connect 41 0 45 0;
#X connect 42 0 46 0;
#X connect 43 0 42 0;
#X connect 44 0 47 0;
#X connect 45 0 42 0;
#X connect 45 1 44 0;
#X restore 571 349 pd menu_superlooper;
#X obj 11 11 cnv 15 700 360 empty empty empty 20 12 0 14 #e0e0e0 #404040
0;
#X obj 91 156 bng 150 250 50 0 \$0-option1-s \$0-option1-r empty 17
7 0 10 #fcfcfc #000000 #000000;
#X obj 282 156 bng 150 250 50 0 \$0-option2-s \$0-option2-r empty 17
7 0 10 #fcfcfc #000000 #000000;
#X text 301 63 MENU PRINCIPAL;
#X text 327 134 DRUMBOX;
#X text 127 134 SEQUENCER;
#X obj 476 156 bng 150 250 50 0 \$0-option3-s \$0-option3-r empty 17
7 0 10 #fcfcfc #000000 #000000;
#X text 525 132 SYNTH;
#X coords 0 -1 1 1 700 360 1 10 10;
