#N canvas 127 53 1505 885 12;
#X obj 9 -80 cnv 15 1280 768 empty empty empty 20 12 0 14 #e0e0e0 #404040
0;
#X obj 69 290 vradio 30 1 0 4 \$0-speedgrid empty SPEED 0 -8 0 10 #fcfcfc
#000000 #000000 0;
#X obj 70 506 vradio 30 1 0 4 \$0-drumkits empty DRUM\\\ BANK 0 -8
0 10 #fcfcfc #000000 #000000 0;
#X obj 69 443 bng 30 250 50 0 \$0-clearseqBang empty empty 17 7 0 10
#fcfcfc #000000 #000000;
#X text 63 424 CLEAR;
#N canvas 1058 333 502 300 recievesFromGUI 0;
#X obj 15 41 int;
#X obj 15 67 s /bpmKnob;
#X obj 107 45 s /gridSpeed;
#X obj 226 47 s /kits;
#X obj 331 50 s /clearGrid;
#X obj 15 15 r \$0-bpm-in;
#X obj 107 15 r \$0-speedgrid;
#X obj 226 17 r \$0-drumkits;
#X obj 331 18 r \$0-clearseqBang;
#X connect 0 0 1 0;
#X connect 5 0 0 0;
#X connect 6 0 2 0;
#X connect 7 0 3 0;
#X connect 8 0 4 0;
#X restore 1295 -74 pd recievesFromGUI;
#X obj 78 113 vsl 15 128 60 180 0 0 \$0-bpm-in empty empty 0 -9 0 10
#fcfcfc #000000 #000000 0 1;
#X obj 458 378 tgl 25 0 \$0-stepAct-0-0-s \$0-stepAct-0-0-r empty 17
7 0 10 #fcfcfc #000000 #000000 0 1;
#X obj 594 313 hradio 30 1 0 16 empty step-number empty 0 -8 0 10 #fcfcfc
#000000 #000000 0;
#N canvas 223 87 1193 764 triggerActivations 0;
#N canvas 495 23 450 300 packActivations 0;
#X obj 91 63 inlet;
#X obj 140 63 inlet;
#X obj 190 64 inlet;
#X obj 239 64 inlet;
#X obj 140 96 t b f;
#X obj 190 96 t b f;
#X obj 239 96 t b f;
#X obj 91 223 outlet;
#X obj 91 181 pack f f f f;
#X connect 0 0 8 0;
#X connect 1 0 4 0;
#X connect 2 0 5 0;
#X connect 3 0 6 0;
#X connect 4 0 8 0;
#X connect 4 1 8 1;
#X connect 5 0 8 0;
#X connect 5 1 8 2;
#X connect 6 0 8 0;
#X connect 6 1 8 3;
#X connect 8 0 7 0;
#X restore 25 147 pd packActivations;
#X obj 25 190 s act-00-03;
#N canvas 495 23 450 300 packActivations 0;
#X obj 91 63 inlet;
#X obj 140 63 inlet;
#X obj 190 64 inlet;
#X obj 239 64 inlet;
#X obj 140 96 t b f;
#X obj 190 96 t b f;
#X obj 239 96 t b f;
#X obj 91 223 outlet;
#X obj 91 181 pack f f f f;
#X connect 0 0 8 0;
#X connect 1 0 4 0;
#X connect 2 0 5 0;
#X connect 3 0 6 0;
#X connect 4 0 8 0;
#X connect 4 1 8 1;
#X connect 5 0 8 0;
#X connect 5 1 8 2;
#X connect 6 0 8 0;
#X connect 6 1 8 3;
#X connect 8 0 7 0;
#X restore 284 151 pd packActivations;
#N canvas 495 23 450 300 packActivations 0;
#X obj 91 63 inlet;
#X obj 140 63 inlet;
#X obj 190 64 inlet;
#X obj 239 64 inlet;
#X obj 140 96 t b f;
#X obj 190 96 t b f;
#X obj 239 96 t b f;
#X obj 91 223 outlet;
#X obj 91 181 pack f f f f;
#X connect 0 0 8 0;
#X connect 1 0 4 0;
#X connect 2 0 5 0;
#X connect 3 0 6 0;
#X connect 4 0 8 0;
#X connect 4 1 8 1;
#X connect 5 0 8 0;
#X connect 5 1 8 2;
#X connect 6 0 8 0;
#X connect 6 1 8 3;
#X connect 8 0 7 0;
#X restore 547 155 pd packActivations;
#N canvas 495 23 450 300 packActivations 0;
#X obj 91 63 inlet;
#X obj 140 63 inlet;
#X obj 190 64 inlet;
#X obj 239 64 inlet;
#X obj 140 96 t b f;
#X obj 190 96 t b f;
#X obj 239 96 t b f;
#X obj 91 223 outlet;
#X obj 91 181 pack f f f f;
#X connect 0 0 8 0;
#X connect 1 0 4 0;
#X connect 2 0 5 0;
#X connect 3 0 6 0;
#X connect 4 0 8 0;
#X connect 4 1 8 1;
#X connect 5 0 8 0;
#X connect 5 1 8 2;
#X connect 6 0 8 0;
#X connect 6 1 8 3;
#X connect 8 0 7 0;
#X restore 821 152 pd packActivations;
#N canvas 495 23 450 300 packActivations 0;
#X obj 91 63 inlet;
#X obj 140 63 inlet;
#X obj 190 64 inlet;
#X obj 239 64 inlet;
#X obj 140 96 t b f;
#X obj 190 96 t b f;
#X obj 239 96 t b f;
#X obj 91 223 outlet;
#X obj 91 181 pack f f f f;
#X connect 0 0 8 0;
#X connect 1 0 4 0;
#X connect 2 0 5 0;
#X connect 3 0 6 0;
#X connect 4 0 8 0;
#X connect 4 1 8 1;
#X connect 5 0 8 0;
#X connect 5 1 8 2;
#X connect 6 0 8 0;
#X connect 6 1 8 3;
#X connect 8 0 7 0;
#X restore 26 351 pd packActivations;
#N canvas 495 23 450 300 packActivations 0;
#X obj 91 63 inlet;
#X obj 140 63 inlet;
#X obj 190 64 inlet;
#X obj 239 64 inlet;
#X obj 140 96 t b f;
#X obj 190 96 t b f;
#X obj 239 96 t b f;
#X obj 91 223 outlet;
#X obj 91 181 pack f f f f;
#X connect 0 0 8 0;
#X connect 1 0 4 0;
#X connect 2 0 5 0;
#X connect 3 0 6 0;
#X connect 4 0 8 0;
#X connect 4 1 8 1;
#X connect 5 0 8 0;
#X connect 5 1 8 2;
#X connect 6 0 8 0;
#X connect 6 1 8 3;
#X connect 8 0 7 0;
#X restore 285 355 pd packActivations;
#N canvas 495 23 450 300 packActivations 0;
#X obj 91 63 inlet;
#X obj 140 63 inlet;
#X obj 190 64 inlet;
#X obj 239 64 inlet;
#X obj 140 96 t b f;
#X obj 190 96 t b f;
#X obj 239 96 t b f;
#X obj 91 223 outlet;
#X obj 91 181 pack f f f f;
#X connect 0 0 8 0;
#X connect 1 0 4 0;
#X connect 2 0 5 0;
#X connect 3 0 6 0;
#X connect 4 0 8 0;
#X connect 4 1 8 1;
#X connect 5 0 8 0;
#X connect 5 1 8 2;
#X connect 6 0 8 0;
#X connect 6 1 8 3;
#X connect 8 0 7 0;
#X restore 548 359 pd packActivations;
#N canvas 495 23 450 300 packActivations 0;
#X obj 91 63 inlet;
#X obj 140 63 inlet;
#X obj 190 64 inlet;
#X obj 239 64 inlet;
#X obj 140 96 t b f;
#X obj 190 96 t b f;
#X obj 239 96 t b f;
#X obj 91 223 outlet;
#X obj 91 181 pack f f f f;
#X connect 0 0 8 0;
#X connect 1 0 4 0;
#X connect 2 0 5 0;
#X connect 3 0 6 0;
#X connect 4 0 8 0;
#X connect 4 1 8 1;
#X connect 5 0 8 0;
#X connect 5 1 8 2;
#X connect 6 0 8 0;
#X connect 6 1 8 3;
#X connect 8 0 7 0;
#X restore 822 356 pd packActivations;
#X obj 547 198 s act-08-011;
#X obj 821 195 s act-012-015;
#X obj 26 394 s act-10-13;
#X obj 285 398 s act-14-17;
#X obj 548 402 s act-18-111;
#X obj 822 399 s act-112-115;
#N canvas 495 23 450 300 packActivations 0;
#X obj 91 63 inlet;
#X obj 140 63 inlet;
#X obj 190 64 inlet;
#X obj 239 64 inlet;
#X obj 140 96 t b f;
#X obj 190 96 t b f;
#X obj 239 96 t b f;
#X obj 91 223 outlet;
#X obj 91 181 pack f f f f;
#X connect 0 0 8 0;
#X connect 1 0 4 0;
#X connect 2 0 5 0;
#X connect 3 0 6 0;
#X connect 4 0 8 0;
#X connect 4 1 8 1;
#X connect 5 0 8 0;
#X connect 5 1 8 2;
#X connect 6 0 8 0;
#X connect 6 1 8 3;
#X connect 8 0 7 0;
#X restore 25 562 pd packActivations;
#N canvas 495 23 450 300 packActivations 0;
#X obj 91 63 inlet;
#X obj 140 63 inlet;
#X obj 190 64 inlet;
#X obj 239 64 inlet;
#X obj 140 96 t b f;
#X obj 190 96 t b f;
#X obj 239 96 t b f;
#X obj 91 223 outlet;
#X obj 91 181 pack f f f f;
#X connect 0 0 8 0;
#X connect 1 0 4 0;
#X connect 2 0 5 0;
#X connect 3 0 6 0;
#X connect 4 0 8 0;
#X connect 4 1 8 1;
#X connect 5 0 8 0;
#X connect 5 1 8 2;
#X connect 6 0 8 0;
#X connect 6 1 8 3;
#X connect 8 0 7 0;
#X restore 284 566 pd packActivations;
#N canvas 495 23 450 300 packActivations 0;
#X obj 91 63 inlet;
#X obj 140 63 inlet;
#X obj 190 64 inlet;
#X obj 239 64 inlet;
#X obj 140 96 t b f;
#X obj 190 96 t b f;
#X obj 239 96 t b f;
#X obj 91 223 outlet;
#X obj 91 181 pack f f f f;
#X connect 0 0 8 0;
#X connect 1 0 4 0;
#X connect 2 0 5 0;
#X connect 3 0 6 0;
#X connect 4 0 8 0;
#X connect 4 1 8 1;
#X connect 5 0 8 0;
#X connect 5 1 8 2;
#X connect 6 0 8 0;
#X connect 6 1 8 3;
#X connect 8 0 7 0;
#X restore 547 570 pd packActivations;
#N canvas 495 23 450 300 packActivations 0;
#X obj 91 63 inlet;
#X obj 140 63 inlet;
#X obj 190 64 inlet;
#X obj 239 64 inlet;
#X obj 140 96 t b f;
#X obj 190 96 t b f;
#X obj 239 96 t b f;
#X obj 91 223 outlet;
#X obj 91 181 pack f f f f;
#X connect 0 0 8 0;
#X connect 1 0 4 0;
#X connect 2 0 5 0;
#X connect 3 0 6 0;
#X connect 4 0 8 0;
#X connect 4 1 8 1;
#X connect 5 0 8 0;
#X connect 5 1 8 2;
#X connect 6 0 8 0;
#X connect 6 1 8 3;
#X connect 8 0 7 0;
#X restore 821 567 pd packActivations;
#X obj 25 605 s act-20-23;
#X obj 284 609 s act-24-27;
#X obj 547 613 s act-28-211;
#X obj 821 610 s act-212-215;
#X obj 25 32 r \$0-stepAct-0-0-s;
#X obj 66 58 r \$0-stepAct-0-1-s;
#X obj 107 86 r \$0-stepAct-0-2-s;
#X obj 148 112 r \$0-stepAct-0-3-s;
#X obj 284 36 r \$0-stepAct-0-4-s;
#X obj 325 62 r \$0-stepAct-0-5-s;
#X obj 366 90 r \$0-stepAct-0-6-s;
#X obj 407 116 r \$0-stepAct-0-7-s;
#X obj 547 40 r \$0-stepAct-0-8-s;
#X obj 588 66 r \$0-stepAct-0-9-s;
#X obj 629 94 r \$0-stepAct-0-10-s;
#X obj 670 120 r \$0-stepAct-0-11-s;
#X obj 821 37 r \$0-stepAct-0-12-s;
#X obj 862 63 r \$0-stepAct-0-13-s;
#X obj 903 91 r \$0-stepAct-0-14-s;
#X obj 944 117 r \$0-stepAct-0-15-s;
#X obj 284 194 s act-04-07;
#X obj 26 236 r \$0-stepAct-1-0-s;
#X obj 67 262 r \$0-stepAct-1-1-s;
#X obj 108 290 r \$0-stepAct-1-2-s;
#X obj 149 316 r \$0-stepAct-1-3-s;
#X obj 285 240 r \$0-stepAct-1-4-s;
#X obj 326 265 r \$0-stepAct-1-5-s;
#X obj 367 294 r \$0-stepAct-1-6-s;
#X obj 408 320 r \$0-stepAct-1-7-s;
#X obj 548 244 r \$0-stepAct-1-8-s;
#X obj 589 270 r \$0-stepAct-1-9-s;
#X obj 630 298 r \$0-stepAct-1-10-s;
#X obj 671 324 r \$0-stepAct-1-11-s;
#X obj 822 241 r \$0-stepAct-1-12-s;
#X obj 863 267 r \$0-stepAct-1-13-s;
#X obj 904 295 r \$0-stepAct-1-14-s;
#X obj 945 322 r \$0-stepAct-1-15-s;
#X obj 25 447 r \$0-stepAct-2-0-s;
#X obj 66 473 r \$0-stepAct-2-1-s;
#X obj 107 501 r \$0-stepAct-2-2-s;
#X obj 148 527 r \$0-stepAct-2-3-s;
#X obj 284 451 r \$0-stepAct-2-4-s;
#X obj 325 476 r \$0-stepAct-2-5-s;
#X obj 366 505 r \$0-stepAct-2-6-s;
#X obj 407 531 r \$0-stepAct-2-7-s;
#X obj 547 455 r \$0-stepAct-2-8-s;
#X obj 588 481 r \$0-stepAct-2-9-s;
#X obj 629 509 r \$0-stepAct-2-10-s;
#X obj 670 535 r \$0-stepAct-2-11-s;
#X obj 821 452 r \$0-stepAct-2-12-s;
#X obj 862 478 r \$0-stepAct-2-13-s;
#X obj 903 506 r \$0-stepAct-2-14-s;
#X obj 944 533 r \$0-stepAct-2-15-s;
#X connect 0 0 1 0;
#X connect 2 0 39 0;
#X connect 3 0 9 0;
#X connect 4 0 10 0;
#X connect 5 0 11 0;
#X connect 6 0 12 0;
#X connect 7 0 13 0;
#X connect 8 0 14 0;
#X connect 15 0 19 0;
#X connect 16 0 20 0;
#X connect 17 0 21 0;
#X connect 18 0 22 0;
#X connect 23 0 0 0;
#X connect 24 0 0 1;
#X connect 25 0 0 2;
#X connect 26 0 0 3;
#X connect 27 0 2 0;
#X connect 28 0 2 1;
#X connect 29 0 2 2;
#X connect 30 0 2 3;
#X connect 31 0 3 0;
#X connect 32 0 3 1;
#X connect 33 0 3 2;
#X connect 34 0 3 3;
#X connect 35 0 4 0;
#X connect 36 0 4 1;
#X connect 37 0 4 2;
#X connect 38 0 4 3;
#X connect 40 0 5 0;
#X connect 41 0 5 1;
#X connect 42 0 5 2;
#X connect 43 0 5 3;
#X connect 44 0 6 0;
#X connect 45 0 6 1;
#X connect 46 0 6 2;
#X connect 47 0 6 3;
#X connect 48 0 7 0;
#X connect 49 0 7 1;
#X connect 50 0 7 2;
#X connect 51 0 7 3;
#X connect 52 0 8 0;
#X connect 53 0 8 1;
#X connect 54 0 8 2;
#X connect 55 0 8 3;
#X connect 56 0 15 0;
#X connect 57 0 15 1;
#X connect 58 0 15 2;
#X connect 59 0 15 3;
#X connect 60 0 16 0;
#X connect 61 0 16 1;
#X connect 62 0 16 2;
#X connect 63 0 16 3;
#X connect 64 0 17 0;
#X connect 65 0 17 1;
#X connect 66 0 17 2;
#X connect 67 0 17 3;
#X connect 68 0 18 0;
#X connect 69 0 18 1;
#X connect 70 0 18 2;
#X connect 71 0 18 3;
#X restore 1295 -46 pd triggerActivations;
#X obj 504 378 tgl 25 0 \$0-stepAct-0-1-s \$0-stepAct-0-1-r empty 17
7 0 10 #fcfcfc #000000 #000000 0 1;
#X obj 550 378 tgl 25 0 \$0-stepAct-0-2-s \$0-stepAct-0-2-r empty 17
7 0 10 #fcfcfc #000000 #000000 0 1;
#X obj 596 378 tgl 25 0 \$0-stepAct-0-3-s \$0-stepAct-0-3-r empty 17
7 0 10 #fcfcfc #000000 #000000 0 1;
#X obj 642 378 tgl 25 0 \$0-stepAct-0-4-s \$0-stepAct-0-4-r empty 17
7 0 10 #fcfcfc #000000 #000000 0 1;
#X obj 688 378 tgl 25 0 \$0-stepAct-0-5-s \$0-stepAct-0-5-r empty 17
7 0 10 #fcfcfc #000000 #000000 0 1;
#X obj 734 378 tgl 25 0 \$0-stepAct-0-6-s \$0-stepAct-0-6-r empty 17
7 0 10 #fcfcfc #000000 #000000 0 1;
#X obj 780 378 tgl 25 0 \$0-stepAct-0-7-s \$0-stepAct-0-7-r empty 17
7 0 10 #fcfcfc #000000 #000000 0 1;
#X obj 826 378 tgl 25 0 \$0-stepAct-0-8-s \$0-stepAct-0-8-r empty 17
7 0 10 #fcfcfc #000000 #000000 0 1;
#X obj 872 378 tgl 25 0 \$0-stepAct-0-9-s \$0-stepAct-0-9-r empty 17
7 0 10 #fcfcfc #000000 #000000 0 1;
#X obj 918 378 tgl 25 0 \$0-stepAct-0-10-s \$0-stepAct-0-10-r empty
17 7 0 10 #fcfcfc #000000 #000000 0 1;
#X obj 964 378 tgl 25 0 \$0-stepAct-0-11-s \$0-stepAct-0-11-r empty
17 7 0 10 #fcfcfc #000000 #000000 0 1;
#X obj 1010 378 tgl 25 0 \$0-stepAct-0-12-s \$0-stepAct-0-12-r empty
17 7 0 10 #fcfcfc #000000 #000000 0 1;
#X obj 1056 378 tgl 25 0 \$0-stepAct-0-13-s \$0-stepAct-0-13-r empty
17 7 0 10 #fcfcfc #000000 #000000 0 1;
#X obj 1102 378 tgl 25 0 \$0-stepAct-0-14-s \$0-stepAct-0-14-r empty
17 7 0 10 #fcfcfc #000000 #000000 0 1;
#X obj 1148 378 tgl 25 0 \$0-stepAct-0-15-s \$0-stepAct-0-15-r empty
17 7 0 10 #fcfcfc #000000 #000000 0 1;
#X obj 458 444 tgl 25 0 \$0-stepAct-1-0-s \$0-stepAct-1-0-r empty 17
7 0 10 #fcfcfc #000000 #000000 0 1;
#X obj 504 444 tgl 25 0 \$0-stepAct-1-1-s \$0-stepAct-1-1-r empty 17
7 0 10 #fcfcfc #000000 #000000 0 1;
#X obj 550 444 tgl 25 0 \$0-stepAct-1-2-s \$0-stepAct-1-2-r empty 17
7 0 10 #fcfcfc #000000 #000000 0 1;
#X obj 596 444 tgl 25 0 \$0-stepAct-1-3-s \$0-stepAct-1-3-r empty 17
7 0 10 #fcfcfc #000000 #000000 0 1;
#X obj 642 444 tgl 25 0 \$0-stepAct-1-4-s \$0-stepAct-1-4-r empty 17
7 0 10 #fcfcfc #000000 #000000 0 1;
#X obj 688 444 tgl 25 0 \$0-stepAct-1-5-s \$0-stepAct-1-5-r empty 17
7 0 10 #fcfcfc #000000 #000000 0 1;
#X obj 734 444 tgl 25 0 \$0-stepAct-1-6-s \$0-stepAct-1-6-r empty 17
7 0 10 #fcfcfc #000000 #000000 0 1;
#X obj 780 444 tgl 25 0 \$0-stepAct-1-7-s \$0-stepAct-1-7-r empty 17
7 0 10 #fcfcfc #000000 #000000 0 1;
#X obj 826 444 tgl 25 0 \$0-stepAct-1-8-s \$0-stepAct-1-8-r empty 17
7 0 10 #fcfcfc #000000 #000000 0 1;
#X obj 872 444 tgl 25 0 \$0-stepAct-1-9-s \$0-stepAct-1-9-r empty 17
7 0 10 #fcfcfc #000000 #000000 0 1;
#X obj 918 444 tgl 25 0 \$0-stepAct-1-10-s \$0-stepAct-1-10-r empty
17 7 0 10 #fcfcfc #000000 #000000 0 1;
#X obj 964 444 tgl 25 0 \$0-stepAct-1-11-s \$0-stepAct-1-11-r empty
17 7 0 10 #fcfcfc #000000 #000000 0 1;
#X obj 1010 444 tgl 25 0 \$0-stepAct-1-12-s \$0-stepAct-1-12-r empty
17 7 0 10 #fcfcfc #000000 #000000 0 1;
#X obj 1056 444 tgl 25 0 \$0-stepAct-1-13-s \$0-stepAct-1-13-r empty
17 7 0 10 #fcfcfc #000000 #000000 0 1;
#X obj 1102 444 tgl 25 0 \$0-stepAct-1-14-s \$0-stepAct-1-14-r empty
17 7 0 10 #fcfcfc #000000 #000000 0 1;
#X obj 1148 444 tgl 25 0 \$0-stepAct-1-15-s \$0-stepAct-1-15-r empty
17 7 0 10 #fcfcfc #000000 #000000 0 1;
#X obj 458 510 tgl 25 0 \$0-stepAct-2-0-s \$0-stepAct-2-0-r empty 17
7 0 10 #fcfcfc #000000 #000000 0 1;
#X obj 504 510 tgl 25 0 \$0-stepAct-2-1-s \$0-stepAct-2-1-r empty 17
7 0 10 #fcfcfc #000000 #000000 0 1;
#X obj 550 510 tgl 25 0 \$0-stepAct-2-2-s \$0-stepAct-2-2-r empty 17
7 0 10 #fcfcfc #000000 #000000 0 1;
#X obj 596 510 tgl 25 0 \$0-stepAct-2-3-s \$0-stepAct-2-3-r empty 17
7 0 10 #fcfcfc #000000 #000000 0 1;
#X obj 642 510 tgl 25 0 \$0-stepAct-2-4-s \$0-stepAct-2-4-r empty 17
7 0 10 #fcfcfc #000000 #000000 0 1;
#X obj 688 510 tgl 25 0 \$0-stepAct-2-5-s \$0-stepAct-2-5-r empty 17
7 0 10 #fcfcfc #000000 #000000 0 1;
#X obj 734 510 tgl 25 0 \$0-stepAct-2-6-s \$0-stepAct-2-6-r empty 17
7 0 10 #fcfcfc #000000 #000000 0 1;
#X obj 780 510 tgl 25 0 \$0-stepAct-2-7-s \$0-stepAct-2-7-r empty 17
7 0 10 #fcfcfc #000000 #000000 0 1;
#X obj 826 510 tgl 25 0 \$0-stepAct-2-8-s \$0-stepAct-2-8-r empty 17
7 0 10 #fcfcfc #000000 #000000 0 1;
#X obj 872 510 tgl 25 0 \$0-stepAct-2-9-s \$0-stepAct-2-9-r empty 17
7 0 10 #fcfcfc #000000 #000000 0 1;
#X obj 918 510 tgl 25 0 \$0-stepAct-2-10-s \$0-stepAct-2-10-r empty
17 7 0 10 #fcfcfc #000000 #000000 0 1;
#X obj 964 510 tgl 25 0 \$0-stepAct-2-11-s \$0-stepAct-2-11-r empty
17 7 0 10 #fcfcfc #000000 #000000 0 1;
#X obj 1010 510 tgl 25 0 \$0-stepAct-2-12-s \$0-stepAct-2-12-r empty
17 7 0 10 #fcfcfc #000000 #000000 0 1;
#X obj 1056 510 tgl 25 0 \$0-stepAct-2-13-s \$0-stepAct-2-13-r empty
17 7 0 10 #fcfcfc #000000 #000000 0 1;
#X obj 1102 510 tgl 25 0 \$0-stepAct-2-14-s \$0-stepAct-2-14-r empty
17 7 0 10 #fcfcfc #000000 #000000 0 1;
#X obj 1148 510 tgl 25 0 \$0-stepAct-2-15-s \$0-stepAct-2-15-r empty
17 7 0 10 #fcfcfc #000000 #000000 0 1;
#N canvas 927 244 450 300 counter 0;
#X obj 32 14 r \$0-bpm-in;
#X obj 106 51 r \$0-play;
#X obj 32 115 int 1;
#X obj 95 115 + 1;
#X floatatom 32 211 5 0 0 0 - - - 0;
#X obj 32 145 - 1;
#X obj 32 172 % 16;
#X obj 32 239 s step-number;
#X obj 32 76 bpm2trigger;
#X connect 0 0 8 0;
#X connect 1 0 8 1;
#X connect 2 0 3 0;
#X connect 2 0 5 0;
#X connect 3 0 2 1;
#X connect 4 0 7 0;
#X connect 5 0 6 0;
#X connect 6 0 4 0;
#X connect 8 0 2 0;
#X restore 1295 -18 pd counter;
#X f 11;
#X obj 188 121 tgl 45 0 \$0-play empty empty 17 7 0 10 #fcfcfc #000000
#000000 0 1;
#X text 192 102 PLAY;
#N canvas 684 77 993 753 sequencer 1;
#N canvas 1144 156 699 565 seq2trigger 0;
#X text 270 25 Step Count;
#X obj 105 145 tgl 20 0 empty empty empty 17 7 0 10 #fcfcfc #000000
#000000 0 1;
#X obj 136 144 tgl 20 0 empty empty empty 17 7 0 10 #fcfcfc #000000
#000000 0 1;
#X obj 176 144 tgl 20 0 empty empty empty 17 7 0 10 #fcfcfc #000000
#000000 0 1;
#X obj 212 144 tgl 20 0 empty empty empty 17 7 0 10 #fcfcfc #000000
#000000 0 1;
#X obj 89 288 sel 0 1;
#X obj 112 321 bng 15 250 50 0 empty empty empty 17 7 0 10 #fcfcfc
#000000 #000000;
#X obj 149 288 sel 0 1;
#X obj 172 321 bng 15 250 50 0 empty empty empty 17 7 0 10 #fcfcfc
#000000 #000000;
#X obj 209 288 sel 0 1;
#X obj 232 321 bng 15 250 50 0 empty empty empty 17 7 0 10 #fcfcfc
#000000 #000000;
#X obj 271 288 sel 0 1;
#X obj 294 321 bng 15 250 50 0 empty empty empty 17 7 0 10 #fcfcfc
#000000 #000000;
#X obj 105 44 inlet;
#X obj 116 441 outlet;
#X obj 275 46 inlet;
#X text 86 19 Step Activations;
#X text 116 464 Trigger;
#X obj 89 173 sel 0 1 2 3, f 24;
#X obj 275 86 - 0;
#X obj 112 382 t b b;
#X obj 232 397 t b b;
#X obj 162 367 t b b;
#X obj 294 351 t b b;
#X obj 105 84 unpack f f f f;
#X obj 89 203 f;
#X obj 130 202 f;
#X obj 171 202 f;
#X obj 212 202 f;
#X obj 381 45 inlet;
#X text 376 24 Step Shift;
#X connect 1 0 25 1;
#X connect 2 0 26 1;
#X connect 3 0 27 1;
#X connect 4 0 28 1;
#X connect 5 1 6 0;
#X connect 6 0 20 0;
#X connect 7 1 8 0;
#X connect 8 0 22 0;
#X connect 9 1 10 0;
#X connect 10 0 21 0;
#X connect 11 1 12 0;
#X connect 12 0 23 0;
#X connect 13 0 24 0;
#X connect 15 0 19 0;
#X connect 18 0 25 0;
#X connect 18 1 26 0;
#X connect 18 2 27 0;
#X connect 18 3 28 0;
#X connect 19 0 18 0;
#X connect 20 0 14 0;
#X connect 21 0 14 0;
#X connect 22 0 14 0;
#X connect 23 0 14 0;
#X connect 24 0 1 0;
#X connect 24 1 2 0;
#X connect 24 2 3 0;
#X connect 24 3 4 0;
#X connect 25 0 5 0;
#X connect 26 0 7 0;
#X connect 27 0 9 0;
#X connect 28 0 11 0;
#X connect 29 0 19 1;
#X restore 48 82 pd seq2trigger;
#X obj 48 15 r act-00-03;
#X obj 143 15 r step-number;
#X obj 342 15 r step-number;
#X obj 572 15 r step-number;
#X obj 790 14 r step-number;
#X obj 247 15 r act-04-07;
#X obj 477 15 r act-08-011;
#X obj 688 14 r act-012-015;
#X obj 135 265 r step-number;
#X obj 334 265 r step-number;
#X obj 564 266 r step-number;
#X obj 782 265 r step-number;
#X obj 133 526 r step-number;
#X obj 332 526 r step-number;
#X obj 562 527 r step-number;
#X obj 780 526 r step-number;
#X obj 40 265 r act-10-13;
#X obj 239 265 r act-14-17;
#X obj 469 266 r act-18-111;
#X obj 680 265 r act-112-115;
#X obj 37 526 r act-20-23;
#X obj 237 526 r act-24-27;
#X obj 467 527 r act-28-211;
#X obj 678 526 r act-212-215;
#X obj 49 212 throw~;
#X obj 48 177 readsf~;
#X obj 41 433 throw~;
#X obj 40 398 readsf~;
#X msg 48 146 open sounds/kick_01.wav \, 1;
#X msg 40 367 open sounds/snare_01.wav \, 1;
#X obj 38 706 throw~;
#X obj 37 671 readsf~;
#X msg 37 640 open sounds/hh_01.wav \, 1;
#N canvas 67 121 699 565 seq2trigger 0;
#X text 270 25 Step Count;
#X obj 105 145 tgl 20 0 empty empty empty 17 7 0 10 #fcfcfc #000000
#000000 0 1;
#X obj 136 144 tgl 20 0 empty empty empty 17 7 0 10 #fcfcfc #000000
#000000 0 1;
#X obj 176 144 tgl 20 0 empty empty empty 17 7 0 10 #fcfcfc #000000
#000000 0 1;
#X obj 212 144 tgl 20 0 empty empty empty 17 7 0 10 #fcfcfc #000000
#000000 0 1;
#X obj 89 288 sel 0 1;
#X obj 112 321 bng 15 250 50 0 empty empty empty 17 7 0 10 #fcfcfc
#000000 #000000;
#X obj 149 288 sel 0 1;
#X obj 172 321 bng 15 250 50 0 empty empty empty 17 7 0 10 #fcfcfc
#000000 #000000;
#X obj 209 288 sel 0 1;
#X obj 232 321 bng 15 250 50 0 empty empty empty 17 7 0 10 #fcfcfc
#000000 #000000;
#X obj 271 288 sel 0 1;
#X obj 294 321 bng 15 250 50 0 empty empty empty 17 7 0 10 #fcfcfc
#000000 #000000;
#X obj 105 44 inlet;
#X obj 116 441 outlet;
#X obj 275 46 inlet;
#X text 86 19 Step Activations;
#X text 116 464 Trigger;
#X obj 89 173 sel 0 1 2 3, f 24;
#X obj 275 86 - 0;
#X obj 112 382 t b b;
#X obj 232 397 t b b;
#X obj 162 367 t b b;
#X obj 294 351 t b b;
#X obj 105 84 unpack f f f f;
#X obj 89 203 f;
#X obj 130 202 f;
#X obj 171 202 f;
#X obj 212 202 f;
#X obj 381 45 inlet;
#X text 376 24 Step Shift;
#X connect 1 0 25 1;
#X connect 2 0 26 1;
#X connect 3 0 27 1;
#X connect 4 0 28 1;
#X connect 5 1 6 0;
#X connect 6 0 20 0;
#X connect 7 1 8 0;
#X connect 8 0 22 0;
#X connect 9 1 10 0;
#X connect 10 0 21 0;
#X connect 11 1 12 0;
#X connect 12 0 23 0;
#X connect 13 0 24 0;
#X connect 15 0 19 0;
#X connect 18 0 25 0;
#X connect 18 1 26 0;
#X connect 18 2 27 0;
#X connect 18 3 28 0;
#X connect 19 0 18 0;
#X connect 20 0 14 0;
#X connect 21 0 14 0;
#X connect 22 0 14 0;
#X connect 23 0 14 0;
#X connect 24 0 1 0;
#X connect 24 1 2 0;
#X connect 24 2 3 0;
#X connect 24 3 4 0;
#X connect 25 0 5 0;
#X connect 26 0 7 0;
#X connect 27 0 9 0;
#X connect 28 0 11 0;
#X connect 29 0 19 1;
#X restore 247 82 pd seq2trigger;
#N canvas 67 121 699 565 seq2trigger 0;
#X text 270 25 Step Count;
#X obj 105 145 tgl 20 0 empty empty empty 17 7 0 10 #fcfcfc #000000
#000000 0 1;
#X obj 136 144 tgl 20 0 empty empty empty 17 7 0 10 #fcfcfc #000000
#000000 0 1;
#X obj 176 144 tgl 20 0 empty empty empty 17 7 0 10 #fcfcfc #000000
#000000 0 1;
#X obj 212 144 tgl 20 0 empty empty empty 17 7 0 10 #fcfcfc #000000
#000000 0 1;
#X obj 89 288 sel 0 1;
#X obj 112 321 bng 15 250 50 0 empty empty empty 17 7 0 10 #fcfcfc
#000000 #000000;
#X obj 149 288 sel 0 1;
#X obj 172 321 bng 15 250 50 0 empty empty empty 17 7 0 10 #fcfcfc
#000000 #000000;
#X obj 209 288 sel 0 1;
#X obj 232 321 bng 15 250 50 0 empty empty empty 17 7 0 10 #fcfcfc
#000000 #000000;
#X obj 271 288 sel 0 1;
#X obj 294 321 bng 15 250 50 0 empty empty empty 17 7 0 10 #fcfcfc
#000000 #000000;
#X obj 105 44 inlet;
#X obj 116 441 outlet;
#X obj 275 46 inlet;
#X text 86 19 Step Activations;
#X text 116 464 Trigger;
#X obj 89 173 sel 0 1 2 3, f 24;
#X obj 275 86 - 0;
#X obj 112 382 t b b;
#X obj 232 397 t b b;
#X obj 162 367 t b b;
#X obj 294 351 t b b;
#X obj 105 84 unpack f f f f;
#X obj 89 203 f;
#X obj 130 202 f;
#X obj 171 202 f;
#X obj 212 202 f;
#X obj 381 45 inlet;
#X text 376 24 Step Shift;
#X connect 1 0 25 1;
#X connect 2 0 26 1;
#X connect 3 0 27 1;
#X connect 4 0 28 1;
#X connect 5 1 6 0;
#X connect 6 0 20 0;
#X connect 7 1 8 0;
#X connect 8 0 22 0;
#X connect 9 1 10 0;
#X connect 10 0 21 0;
#X connect 11 1 12 0;
#X connect 12 0 23 0;
#X connect 13 0 24 0;
#X connect 15 0 19 0;
#X connect 18 0 25 0;
#X connect 18 1 26 0;
#X connect 18 2 27 0;
#X connect 18 3 28 0;
#X connect 19 0 18 0;
#X connect 20 0 14 0;
#X connect 21 0 14 0;
#X connect 22 0 14 0;
#X connect 23 0 14 0;
#X connect 24 0 1 0;
#X connect 24 1 2 0;
#X connect 24 2 3 0;
#X connect 24 3 4 0;
#X connect 25 0 5 0;
#X connect 26 0 7 0;
#X connect 27 0 9 0;
#X connect 28 0 11 0;
#X connect 29 0 19 1;
#X restore 477 80 pd seq2trigger;
#N canvas 67 121 699 565 seq2trigger 0;
#X text 270 25 Step Count;
#X obj 105 145 tgl 20 0 empty empty empty 17 7 0 10 #fcfcfc #000000
#000000 0 1;
#X obj 136 144 tgl 20 0 empty empty empty 17 7 0 10 #fcfcfc #000000
#000000 0 1;
#X obj 176 144 tgl 20 0 empty empty empty 17 7 0 10 #fcfcfc #000000
#000000 0 1;
#X obj 212 144 tgl 20 0 empty empty empty 17 7 0 10 #fcfcfc #000000
#000000 0 1;
#X obj 89 288 sel 0 1;
#X obj 112 321 bng 15 250 50 0 empty empty empty 17 7 0 10 #fcfcfc
#000000 #000000;
#X obj 149 288 sel 0 1;
#X obj 172 321 bng 15 250 50 0 empty empty empty 17 7 0 10 #fcfcfc
#000000 #000000;
#X obj 209 288 sel 0 1;
#X obj 232 321 bng 15 250 50 0 empty empty empty 17 7 0 10 #fcfcfc
#000000 #000000;
#X obj 271 288 sel 0 1;
#X obj 294 321 bng 15 250 50 0 empty empty empty 17 7 0 10 #fcfcfc
#000000 #000000;
#X obj 105 44 inlet;
#X obj 116 441 outlet;
#X obj 275 46 inlet;
#X text 86 19 Step Activations;
#X text 116 464 Trigger;
#X obj 89 173 sel 0 1 2 3, f 24;
#X obj 275 86 - 0;
#X obj 112 382 t b b;
#X obj 232 397 t b b;
#X obj 162 367 t b b;
#X obj 294 351 t b b;
#X obj 105 84 unpack f f f f;
#X obj 89 203 f;
#X obj 130 202 f;
#X obj 171 202 f;
#X obj 212 202 f;
#X obj 381 45 inlet;
#X text 376 24 Step Shift;
#X connect 1 0 25 1;
#X connect 2 0 26 1;
#X connect 3 0 27 1;
#X connect 4 0 28 1;
#X connect 5 1 6 0;
#X connect 6 0 20 0;
#X connect 7 1 8 0;
#X connect 8 0 22 0;
#X connect 9 1 10 0;
#X connect 10 0 21 0;
#X connect 11 1 12 0;
#X connect 12 0 23 0;
#X connect 13 0 24 0;
#X connect 15 0 19 0;
#X connect 18 0 25 0;
#X connect 18 1 26 0;
#X connect 18 2 27 0;
#X connect 18 3 28 0;
#X connect 19 0 18 0;
#X connect 20 0 14 0;
#X connect 21 0 14 0;
#X connect 22 0 14 0;
#X connect 23 0 14 0;
#X connect 24 0 1 0;
#X connect 24 1 2 0;
#X connect 24 2 3 0;
#X connect 24 3 4 0;
#X connect 25 0 5 0;
#X connect 26 0 7 0;
#X connect 27 0 9 0;
#X connect 28 0 11 0;
#X connect 29 0 19 1;
#X restore 688 82 pd seq2trigger;
#X obj 908 34 loadbang;
#X msg 163 55 0;
#X msg 347 54 4;
#X msg 591 53 8;
#X msg 815 53 12;
#N canvas 67 121 699 565 seq2trigger 0;
#X text 270 25 Step Count;
#X obj 105 145 tgl 20 0 empty empty empty 17 7 0 10 #fcfcfc #000000
#000000 0 1;
#X obj 136 144 tgl 20 0 empty empty empty 17 7 0 10 #fcfcfc #000000
#000000 0 1;
#X obj 176 144 tgl 20 0 empty empty empty 17 7 0 10 #fcfcfc #000000
#000000 0 1;
#X obj 212 144 tgl 20 0 empty empty empty 17 7 0 10 #fcfcfc #000000
#000000 0 1;
#X obj 89 288 sel 0 1;
#X obj 112 321 bng 15 250 50 0 empty empty empty 17 7 0 10 #fcfcfc
#000000 #000000;
#X obj 149 288 sel 0 1;
#X obj 172 321 bng 15 250 50 0 empty empty empty 17 7 0 10 #fcfcfc
#000000 #000000;
#X obj 209 288 sel 0 1;
#X obj 232 321 bng 15 250 50 0 empty empty empty 17 7 0 10 #fcfcfc
#000000 #000000;
#X obj 271 288 sel 0 1;
#X obj 294 321 bng 15 250 50 0 empty empty empty 17 7 0 10 #fcfcfc
#000000 #000000;
#X obj 105 44 inlet;
#X obj 116 441 outlet;
#X obj 275 46 inlet;
#X text 86 19 Step Activations;
#X text 116 464 Trigger;
#X obj 89 173 sel 0 1 2 3, f 24;
#X obj 275 86 - 0;
#X obj 112 382 t b b;
#X obj 232 397 t b b;
#X obj 162 367 t b b;
#X obj 294 351 t b b;
#X obj 105 84 unpack f f f f;
#X obj 89 203 f;
#X obj 130 202 f;
#X obj 171 202 f;
#X obj 212 202 f;
#X obj 381 45 inlet;
#X text 376 24 Step Shift;
#X connect 1 0 25 1;
#X connect 2 0 26 1;
#X connect 3 0 27 1;
#X connect 4 0 28 1;
#X connect 5 1 6 0;
#X connect 6 0 20 0;
#X connect 7 1 8 0;
#X connect 8 0 22 0;
#X connect 9 1 10 0;
#X connect 10 0 21 0;
#X connect 11 1 12 0;
#X connect 12 0 23 0;
#X connect 13 0 24 0;
#X connect 15 0 19 0;
#X connect 18 0 25 0;
#X connect 18 1 26 0;
#X connect 18 2 27 0;
#X connect 18 3 28 0;
#X connect 19 0 18 0;
#X connect 20 0 14 0;
#X connect 21 0 14 0;
#X connect 22 0 14 0;
#X connect 23 0 14 0;
#X connect 24 0 1 0;
#X connect 24 1 2 0;
#X connect 24 2 3 0;
#X connect 24 3 4 0;
#X connect 25 0 5 0;
#X connect 26 0 7 0;
#X connect 27 0 9 0;
#X connect 28 0 11 0;
#X connect 29 0 19 1;
#X restore 40 328 pd seq2trigger;
#N canvas 67 121 699 565 seq2trigger 0;
#X text 270 25 Step Count;
#X obj 105 145 tgl 20 0 empty empty empty 17 7 0 10 #fcfcfc #000000
#000000 0 1;
#X obj 136 144 tgl 20 0 empty empty empty 17 7 0 10 #fcfcfc #000000
#000000 0 1;
#X obj 176 144 tgl 20 0 empty empty empty 17 7 0 10 #fcfcfc #000000
#000000 0 1;
#X obj 212 144 tgl 20 0 empty empty empty 17 7 0 10 #fcfcfc #000000
#000000 0 1;
#X obj 89 288 sel 0 1;
#X obj 112 321 bng 15 250 50 0 empty empty empty 17 7 0 10 #fcfcfc
#000000 #000000;
#X obj 149 288 sel 0 1;
#X obj 172 321 bng 15 250 50 0 empty empty empty 17 7 0 10 #fcfcfc
#000000 #000000;
#X obj 209 288 sel 0 1;
#X obj 232 321 bng 15 250 50 0 empty empty empty 17 7 0 10 #fcfcfc
#000000 #000000;
#X obj 271 288 sel 0 1;
#X obj 294 321 bng 15 250 50 0 empty empty empty 17 7 0 10 #fcfcfc
#000000 #000000;
#X obj 105 44 inlet;
#X obj 116 441 outlet;
#X obj 275 46 inlet;
#X text 86 19 Step Activations;
#X text 116 464 Trigger;
#X obj 89 173 sel 0 1 2 3, f 24;
#X obj 275 86 - 0;
#X obj 112 382 t b b;
#X obj 232 397 t b b;
#X obj 162 367 t b b;
#X obj 294 351 t b b;
#X obj 105 84 unpack f f f f;
#X obj 89 203 f;
#X obj 130 202 f;
#X obj 171 202 f;
#X obj 212 202 f;
#X obj 381 45 inlet;
#X text 376 24 Step Shift;
#X connect 1 0 25 1;
#X connect 2 0 26 1;
#X connect 3 0 27 1;
#X connect 4 0 28 1;
#X connect 5 1 6 0;
#X connect 6 0 20 0;
#X connect 7 1 8 0;
#X connect 8 0 22 0;
#X connect 9 1 10 0;
#X connect 10 0 21 0;
#X connect 11 1 12 0;
#X connect 12 0 23 0;
#X connect 13 0 24 0;
#X connect 15 0 19 0;
#X connect 18 0 25 0;
#X connect 18 1 26 0;
#X connect 18 2 27 0;
#X connect 18 3 28 0;
#X connect 19 0 18 0;
#X connect 20 0 14 0;
#X connect 21 0 14 0;
#X connect 22 0 14 0;
#X connect 23 0 14 0;
#X connect 24 0 1 0;
#X connect 24 1 2 0;
#X connect 24 2 3 0;
#X connect 24 3 4 0;
#X connect 25 0 5 0;
#X connect 26 0 7 0;
#X connect 27 0 9 0;
#X connect 28 0 11 0;
#X connect 29 0 19 1;
#X restore 239 328 pd seq2trigger;
#N canvas 67 121 699 565 seq2trigger 0;
#X text 270 25 Step Count;
#X obj 105 145 tgl 20 0 empty empty empty 17 7 0 10 #fcfcfc #000000
#000000 0 1;
#X obj 136 144 tgl 20 0 empty empty empty 17 7 0 10 #fcfcfc #000000
#000000 0 1;
#X obj 176 144 tgl 20 0 empty empty empty 17 7 0 10 #fcfcfc #000000
#000000 0 1;
#X obj 212 144 tgl 20 0 empty empty empty 17 7 0 10 #fcfcfc #000000
#000000 0 1;
#X obj 89 288 sel 0 1;
#X obj 112 321 bng 15 250 50 0 empty empty empty 17 7 0 10 #fcfcfc
#000000 #000000;
#X obj 149 288 sel 0 1;
#X obj 172 321 bng 15 250 50 0 empty empty empty 17 7 0 10 #fcfcfc
#000000 #000000;
#X obj 209 288 sel 0 1;
#X obj 232 321 bng 15 250 50 0 empty empty empty 17 7 0 10 #fcfcfc
#000000 #000000;
#X obj 271 288 sel 0 1;
#X obj 294 321 bng 15 250 50 0 empty empty empty 17 7 0 10 #fcfcfc
#000000 #000000;
#X obj 105 44 inlet;
#X obj 116 441 outlet;
#X obj 275 46 inlet;
#X text 86 19 Step Activations;
#X text 116 464 Trigger;
#X obj 89 173 sel 0 1 2 3, f 24;
#X obj 275 86 - 0;
#X obj 112 382 t b b;
#X obj 232 397 t b b;
#X obj 162 367 t b b;
#X obj 294 351 t b b;
#X obj 105 84 unpack f f f f;
#X obj 89 203 f;
#X obj 130 202 f;
#X obj 171 202 f;
#X obj 212 202 f;
#X obj 381 45 inlet;
#X text 376 24 Step Shift;
#X connect 1 0 25 1;
#X connect 2 0 26 1;
#X connect 3 0 27 1;
#X connect 4 0 28 1;
#X connect 5 1 6 0;
#X connect 6 0 20 0;
#X connect 7 1 8 0;
#X connect 8 0 22 0;
#X connect 9 1 10 0;
#X connect 10 0 21 0;
#X connect 11 1 12 0;
#X connect 12 0 23 0;
#X connect 13 0 24 0;
#X connect 15 0 19 0;
#X connect 18 0 25 0;
#X connect 18 1 26 0;
#X connect 18 2 27 0;
#X connect 18 3 28 0;
#X connect 19 0 18 0;
#X connect 20 0 14 0;
#X connect 21 0 14 0;
#X connect 22 0 14 0;
#X connect 23 0 14 0;
#X connect 24 0 1 0;
#X connect 24 1 2 0;
#X connect 24 2 3 0;
#X connect 24 3 4 0;
#X connect 25 0 5 0;
#X connect 26 0 7 0;
#X connect 27 0 9 0;
#X connect 28 0 11 0;
#X connect 29 0 19 1;
#X restore 469 326 pd seq2trigger;
#N canvas 67 121 699 565 seq2trigger 0;
#X text 270 25 Step Count;
#X obj 105 145 tgl 20 0 empty empty empty 17 7 0 10 #fcfcfc #000000
#000000 0 1;
#X obj 136 144 tgl 20 0 empty empty empty 17 7 0 10 #fcfcfc #000000
#000000 0 1;
#X obj 176 144 tgl 20 0 empty empty empty 17 7 0 10 #fcfcfc #000000
#000000 0 1;
#X obj 212 144 tgl 20 0 empty empty empty 17 7 0 10 #fcfcfc #000000
#000000 0 1;
#X obj 89 288 sel 0 1;
#X obj 112 321 bng 15 250 50 0 empty empty empty 17 7 0 10 #fcfcfc
#000000 #000000;
#X obj 149 288 sel 0 1;
#X obj 172 321 bng 15 250 50 0 empty empty empty 17 7 0 10 #fcfcfc
#000000 #000000;
#X obj 209 288 sel 0 1;
#X obj 232 321 bng 15 250 50 0 empty empty empty 17 7 0 10 #fcfcfc
#000000 #000000;
#X obj 271 288 sel 0 1;
#X obj 294 321 bng 15 250 50 0 empty empty empty 17 7 0 10 #fcfcfc
#000000 #000000;
#X obj 105 44 inlet;
#X obj 116 441 outlet;
#X obj 275 46 inlet;
#X text 86 19 Step Activations;
#X text 116 464 Trigger;
#X obj 89 173 sel 0 1 2 3, f 24;
#X obj 275 86 - 0;
#X obj 112 382 t b b;
#X obj 232 397 t b b;
#X obj 162 367 t b b;
#X obj 294 351 t b b;
#X obj 105 84 unpack f f f f;
#X obj 89 203 f;
#X obj 130 202 f;
#X obj 171 202 f;
#X obj 212 202 f;
#X obj 381 45 inlet;
#X text 376 24 Step Shift;
#X connect 1 0 25 1;
#X connect 2 0 26 1;
#X connect 3 0 27 1;
#X connect 4 0 28 1;
#X connect 5 1 6 0;
#X connect 6 0 20 0;
#X connect 7 1 8 0;
#X connect 8 0 22 0;
#X connect 9 1 10 0;
#X connect 10 0 21 0;
#X connect 11 1 12 0;
#X connect 12 0 23 0;
#X connect 13 0 24 0;
#X connect 15 0 19 0;
#X connect 18 0 25 0;
#X connect 18 1 26 0;
#X connect 18 2 27 0;
#X connect 18 3 28 0;
#X connect 19 0 18 0;
#X connect 20 0 14 0;
#X connect 21 0 14 0;
#X connect 22 0 14 0;
#X connect 23 0 14 0;
#X connect 24 0 1 0;
#X connect 24 1 2 0;
#X connect 24 2 3 0;
#X connect 24 3 4 0;
#X connect 25 0 5 0;
#X connect 26 0 7 0;
#X connect 27 0 9 0;
#X connect 28 0 11 0;
#X connect 29 0 19 1;
#X restore 680 328 pd seq2trigger;
#X obj 900 280 loadbang;
#X msg 155 301 0;
#X msg 339 300 4;
#X msg 583 299 8;
#X msg 807 299 12;
#N canvas 67 121 699 565 seq2trigger 0;
#X text 270 25 Step Count;
#X obj 105 145 tgl 20 0 empty empty empty 17 7 0 10 #fcfcfc #000000
#000000 0 1;
#X obj 136 144 tgl 20 0 empty empty empty 17 7 0 10 #fcfcfc #000000
#000000 0 1;
#X obj 176 144 tgl 20 0 empty empty empty 17 7 0 10 #fcfcfc #000000
#000000 0 1;
#X obj 212 144 tgl 20 0 empty empty empty 17 7 0 10 #fcfcfc #000000
#000000 0 1;
#X obj 89 288 sel 0 1;
#X obj 112 321 bng 15 250 50 0 empty empty empty 17 7 0 10 #fcfcfc
#000000 #000000;
#X obj 149 288 sel 0 1;
#X obj 172 321 bng 15 250 50 0 empty empty empty 17 7 0 10 #fcfcfc
#000000 #000000;
#X obj 209 288 sel 0 1;
#X obj 232 321 bng 15 250 50 0 empty empty empty 17 7 0 10 #fcfcfc
#000000 #000000;
#X obj 271 288 sel 0 1;
#X obj 294 321 bng 15 250 50 0 empty empty empty 17 7 0 10 #fcfcfc
#000000 #000000;
#X obj 105 44 inlet;
#X obj 116 441 outlet;
#X obj 275 46 inlet;
#X text 86 19 Step Activations;
#X text 116 464 Trigger;
#X obj 89 173 sel 0 1 2 3, f 24;
#X obj 275 86 - 0;
#X obj 112 382 t b b;
#X obj 232 397 t b b;
#X obj 162 367 t b b;
#X obj 294 351 t b b;
#X obj 105 84 unpack f f f f;
#X obj 89 203 f;
#X obj 130 202 f;
#X obj 171 202 f;
#X obj 212 202 f;
#X obj 381 45 inlet;
#X text 376 24 Step Shift;
#X connect 1 0 25 1;
#X connect 2 0 26 1;
#X connect 3 0 27 1;
#X connect 4 0 28 1;
#X connect 5 1 6 0;
#X connect 6 0 20 0;
#X connect 7 1 8 0;
#X connect 8 0 22 0;
#X connect 9 1 10 0;
#X connect 10 0 21 0;
#X connect 11 1 12 0;
#X connect 12 0 23 0;
#X connect 13 0 24 0;
#X connect 15 0 19 0;
#X connect 18 0 25 0;
#X connect 18 1 26 0;
#X connect 18 2 27 0;
#X connect 18 3 28 0;
#X connect 19 0 18 0;
#X connect 20 0 14 0;
#X connect 21 0 14 0;
#X connect 22 0 14 0;
#X connect 23 0 14 0;
#X connect 24 0 1 0;
#X connect 24 1 2 0;
#X connect 24 2 3 0;
#X connect 24 3 4 0;
#X connect 25 0 5 0;
#X connect 26 0 7 0;
#X connect 27 0 9 0;
#X connect 28 0 11 0;
#X connect 29 0 19 1;
#X restore 37 597 pd seq2trigger;
#N canvas 67 121 699 565 seq2trigger 0;
#X text 270 25 Step Count;
#X obj 105 145 tgl 20 0 empty empty empty 17 7 0 10 #fcfcfc #000000
#000000 0 1;
#X obj 136 144 tgl 20 0 empty empty empty 17 7 0 10 #fcfcfc #000000
#000000 0 1;
#X obj 176 144 tgl 20 0 empty empty empty 17 7 0 10 #fcfcfc #000000
#000000 0 1;
#X obj 212 144 tgl 20 0 empty empty empty 17 7 0 10 #fcfcfc #000000
#000000 0 1;
#X obj 89 288 sel 0 1;
#X obj 112 321 bng 15 250 50 0 empty empty empty 17 7 0 10 #fcfcfc
#000000 #000000;
#X obj 149 288 sel 0 1;
#X obj 172 321 bng 15 250 50 0 empty empty empty 17 7 0 10 #fcfcfc
#000000 #000000;
#X obj 209 288 sel 0 1;
#X obj 232 321 bng 15 250 50 0 empty empty empty 17 7 0 10 #fcfcfc
#000000 #000000;
#X obj 271 288 sel 0 1;
#X obj 294 321 bng 15 250 50 0 empty empty empty 17 7 0 10 #fcfcfc
#000000 #000000;
#X obj 105 44 inlet;
#X obj 116 441 outlet;
#X obj 275 46 inlet;
#X text 86 19 Step Activations;
#X text 116 464 Trigger;
#X obj 89 173 sel 0 1 2 3, f 24;
#X obj 275 86 - 0;
#X obj 112 382 t b b;
#X obj 232 397 t b b;
#X obj 162 367 t b b;
#X obj 294 351 t b b;
#X obj 105 84 unpack f f f f;
#X obj 89 203 f;
#X obj 130 202 f;
#X obj 171 202 f;
#X obj 212 202 f;
#X obj 381 45 inlet;
#X text 376 24 Step Shift;
#X connect 1 0 25 1;
#X connect 2 0 26 1;
#X connect 3 0 27 1;
#X connect 4 0 28 1;
#X connect 5 1 6 0;
#X connect 6 0 20 0;
#X connect 7 1 8 0;
#X connect 8 0 22 0;
#X connect 9 1 10 0;
#X connect 10 0 21 0;
#X connect 11 1 12 0;
#X connect 12 0 23 0;
#X connect 13 0 24 0;
#X connect 15 0 19 0;
#X connect 18 0 25 0;
#X connect 18 1 26 0;
#X connect 18 2 27 0;
#X connect 18 3 28 0;
#X connect 19 0 18 0;
#X connect 20 0 14 0;
#X connect 21 0 14 0;
#X connect 22 0 14 0;
#X connect 23 0 14 0;
#X connect 24 0 1 0;
#X connect 24 1 2 0;
#X connect 24 2 3 0;
#X connect 24 3 4 0;
#X connect 25 0 5 0;
#X connect 26 0 7 0;
#X connect 27 0 9 0;
#X connect 28 0 11 0;
#X connect 29 0 19 1;
#X restore 237 597 pd seq2trigger;
#N canvas 67 121 699 565 seq2trigger 0;
#X text 270 25 Step Count;
#X obj 105 145 tgl 20 0 empty empty empty 17 7 0 10 #fcfcfc #000000
#000000 0 1;
#X obj 136 144 tgl 20 0 empty empty empty 17 7 0 10 #fcfcfc #000000
#000000 0 1;
#X obj 176 144 tgl 20 0 empty empty empty 17 7 0 10 #fcfcfc #000000
#000000 0 1;
#X obj 212 144 tgl 20 0 empty empty empty 17 7 0 10 #fcfcfc #000000
#000000 0 1;
#X obj 89 288 sel 0 1;
#X obj 112 321 bng 15 250 50 0 empty empty empty 17 7 0 10 #fcfcfc
#000000 #000000;
#X obj 149 288 sel 0 1;
#X obj 172 321 bng 15 250 50 0 empty empty empty 17 7 0 10 #fcfcfc
#000000 #000000;
#X obj 209 288 sel 0 1;
#X obj 232 321 bng 15 250 50 0 empty empty empty 17 7 0 10 #fcfcfc
#000000 #000000;
#X obj 271 288 sel 0 1;
#X obj 294 321 bng 15 250 50 0 empty empty empty 17 7 0 10 #fcfcfc
#000000 #000000;
#X obj 105 44 inlet;
#X obj 116 441 outlet;
#X obj 275 46 inlet;
#X text 86 19 Step Activations;
#X text 116 464 Trigger;
#X obj 89 173 sel 0 1 2 3, f 24;
#X obj 275 86 - 0;
#X obj 112 382 t b b;
#X obj 232 397 t b b;
#X obj 162 367 t b b;
#X obj 294 351 t b b;
#X obj 105 84 unpack f f f f;
#X obj 89 203 f;
#X obj 130 202 f;
#X obj 171 202 f;
#X obj 212 202 f;
#X obj 381 45 inlet;
#X text 376 24 Step Shift;
#X connect 1 0 25 1;
#X connect 2 0 26 1;
#X connect 3 0 27 1;
#X connect 4 0 28 1;
#X connect 5 1 6 0;
#X connect 6 0 20 0;
#X connect 7 1 8 0;
#X connect 8 0 22 0;
#X connect 9 1 10 0;
#X connect 10 0 21 0;
#X connect 11 1 12 0;
#X connect 12 0 23 0;
#X connect 13 0 24 0;
#X connect 15 0 19 0;
#X connect 18 0 25 0;
#X connect 18 1 26 0;
#X connect 18 2 27 0;
#X connect 18 3 28 0;
#X connect 19 0 18 0;
#X connect 20 0 14 0;
#X connect 21 0 14 0;
#X connect 22 0 14 0;
#X connect 23 0 14 0;
#X connect 24 0 1 0;
#X connect 24 1 2 0;
#X connect 24 2 3 0;
#X connect 24 3 4 0;
#X connect 25 0 5 0;
#X connect 26 0 7 0;
#X connect 27 0 9 0;
#X connect 28 0 11 0;
#X connect 29 0 19 1;
#X restore 467 595 pd seq2trigger;
#N canvas 67 121 699 565 seq2trigger 0;
#X text 270 25 Step Count;
#X obj 105 145 tgl 20 0 empty empty empty 17 7 0 10 #fcfcfc #000000
#000000 0 1;
#X obj 136 144 tgl 20 0 empty empty empty 17 7 0 10 #fcfcfc #000000
#000000 0 1;
#X obj 176 144 tgl 20 0 empty empty empty 17 7 0 10 #fcfcfc #000000
#000000 0 1;
#X obj 212 144 tgl 20 0 empty empty empty 17 7 0 10 #fcfcfc #000000
#000000 0 1;
#X obj 89 288 sel 0 1;
#X obj 112 321 bng 15 250 50 0 empty empty empty 17 7 0 10 #fcfcfc
#000000 #000000;
#X obj 149 288 sel 0 1;
#X obj 172 321 bng 15 250 50 0 empty empty empty 17 7 0 10 #fcfcfc
#000000 #000000;
#X obj 209 288 sel 0 1;
#X obj 232 321 bng 15 250 50 0 empty empty empty 17 7 0 10 #fcfcfc
#000000 #000000;
#X obj 271 288 sel 0 1;
#X obj 294 321 bng 15 250 50 0 empty empty empty 17 7 0 10 #fcfcfc
#000000 #000000;
#X obj 105 44 inlet;
#X obj 116 441 outlet;
#X obj 275 46 inlet;
#X text 86 19 Step Activations;
#X text 116 464 Trigger;
#X obj 89 173 sel 0 1 2 3, f 24;
#X obj 275 86 - 0;
#X obj 112 382 t b b;
#X obj 232 397 t b b;
#X obj 162 367 t b b;
#X obj 294 351 t b b;
#X obj 105 84 unpack f f f f;
#X obj 89 203 f;
#X obj 130 202 f;
#X obj 171 202 f;
#X obj 212 202 f;
#X obj 381 45 inlet;
#X text 376 24 Step Shift;
#X connect 1 0 25 1;
#X connect 2 0 26 1;
#X connect 3 0 27 1;
#X connect 4 0 28 1;
#X connect 5 1 6 0;
#X connect 6 0 20 0;
#X connect 7 1 8 0;
#X connect 8 0 22 0;
#X connect 9 1 10 0;
#X connect 10 0 21 0;
#X connect 11 1 12 0;
#X connect 12 0 23 0;
#X connect 13 0 24 0;
#X connect 15 0 19 0;
#X connect 18 0 25 0;
#X connect 18 1 26 0;
#X connect 18 2 27 0;
#X connect 18 3 28 0;
#X connect 19 0 18 0;
#X connect 20 0 14 0;
#X connect 21 0 14 0;
#X connect 22 0 14 0;
#X connect 23 0 14 0;
#X connect 24 0 1 0;
#X connect 24 1 2 0;
#X connect 24 2 3 0;
#X connect 24 3 4 0;
#X connect 25 0 5 0;
#X connect 26 0 7 0;
#X connect 27 0 9 0;
#X connect 28 0 11 0;
#X connect 29 0 19 1;
#X restore 678 597 pd seq2trigger;
#X obj 898 549 loadbang;
#X msg 153 570 0;
#X msg 337 569 4;
#X msg 581 568 8;
#X msg 805 568 12;
#X connect 0 0 29 0;
#X connect 1 0 0 0;
#X connect 2 0 0 1;
#X connect 3 0 34 1;
#X connect 4 0 35 1;
#X connect 5 0 36 1;
#X connect 6 0 34 0;
#X connect 7 0 35 0;
#X connect 8 0 36 0;
#X connect 9 0 42 1;
#X connect 10 0 43 1;
#X connect 11 0 44 1;
#X connect 12 0 45 1;
#X connect 13 0 51 1;
#X connect 14 0 52 1;
#X connect 15 0 53 1;
#X connect 16 0 54 1;
#X connect 17 0 42 0;
#X connect 18 0 43 0;
#X connect 19 0 44 0;
#X connect 20 0 45 0;
#X connect 21 0 51 0;
#X connect 22 0 52 0;
#X connect 23 0 53 0;
#X connect 24 0 54 0;
#X connect 26 0 25 0;
#X connect 28 0 27 0;
#X connect 29 0 26 0;
#X connect 30 0 28 0;
#X connect 32 0 31 0;
#X connect 33 0 32 0;
#X connect 34 0 29 0;
#X connect 35 0 29 0;
#X connect 36 0 29 0;
#X connect 37 0 41 0;
#X connect 37 0 40 0;
#X connect 37 0 39 0;
#X connect 37 0 38 0;
#X connect 38 0 0 2;
#X connect 39 0 34 2;
#X connect 40 0 35 2;
#X connect 41 0 36 2;
#X connect 42 0 30 0;
#X connect 43 0 30 0;
#X connect 44 0 30 0;
#X connect 45 0 30 0;
#X connect 46 0 50 0;
#X connect 46 0 49 0;
#X connect 46 0 48 0;
#X connect 46 0 47 0;
#X connect 47 0 42 2;
#X connect 48 0 43 2;
#X connect 49 0 44 2;
#X connect 50 0 45 2;
#X connect 51 0 33 0;
#X connect 52 0 33 0;
#X connect 53 0 33 0;
#X connect 54 0 33 0;
#X connect 55 0 59 0;
#X connect 55 0 58 0;
#X connect 55 0 57 0;
#X connect 55 0 56 0;
#X connect 56 0 51 2;
#X connect 57 0 52 2;
#X connect 58 0 53 2;
#X connect 59 0 54 2;
#X restore 1295 9 pd sequencer;
#X obj 1295 62 catch~;
#X obj 1294 89 *~ 0.5;
#X obj 1293 149 dac~;
#X connect 61 0 62 0;
#X connect 62 0 63 0;
#X connect 62 0 63 1;
#X coords 0 885 1 884 1080 720 0;
