#N canvas 159 4 1685 762 12;
#N canvas 503 69 888 551 codiPage4 0;
#N canvas 179 68 1410 764 triggerActivations 0;
#N canvas 623 101 895 778 clearsequencer 0;
#X obj 407 13 r \$0-clearseqBang;
#X msg 407 46 0;
#X obj 90 88 s \$0-stepAct-0-0-r;
#X obj 76 114 s \$0-stepAct-0-1-r;
#X obj 46 136 s \$0-stepAct-0-2-r;
#X obj 32 162 s \$0-stepAct-0-3-r;
#X obj 266 94 s \$0-stepAct-0-4-r;
#X obj 252 120 s \$0-stepAct-0-5-r;
#X obj 222 142 s \$0-stepAct-0-6-r;
#X obj 208 168 s \$0-stepAct-0-7-r;
#X obj 456 97 s \$0-stepAct-0-8-r;
#X obj 442 123 s \$0-stepAct-0-9-r;
#X obj 412 145 s \$0-stepAct-0-10-r;
#X obj 398 171 s \$0-stepAct-0-11-r;
#X obj 632 103 s \$0-stepAct-0-12-r;
#X obj 618 129 s \$0-stepAct-0-13-r;
#X obj 588 151 s \$0-stepAct-0-14-r;
#X obj 574 177 s \$0-stepAct-0-15-r;
#X obj 421 212 r \$0-clearseqBang;
#X msg 421 245 0;
#X obj 421 410 r \$0-clearseqBang;
#X msg 421 443 0;
#X obj 104 485 s \$0-stepAct-2-0-r;
#X obj 90 511 s \$0-stepAct-2-1-r;
#X obj 60 533 s \$0-stepAct-2-2-r;
#X obj 46 559 s \$0-stepAct-2-3-r;
#X obj 280 491 s \$0-stepAct-2-4-r;
#X obj 266 517 s \$0-stepAct-2-5-r;
#X obj 236 539 s \$0-stepAct-2-6-r;
#X obj 222 565 s \$0-stepAct-2-7-r;
#X obj 470 494 s \$0-stepAct-2-8-r;
#X obj 456 520 s \$0-stepAct-2-9-r;
#X obj 426 542 s \$0-stepAct-2-10-r;
#X obj 412 568 s \$0-stepAct-2-11-r;
#X obj 646 500 s \$0-stepAct-2-12-r;
#X obj 632 526 s \$0-stepAct-2-13-r;
#X obj 602 548 s \$0-stepAct-2-14-r;
#X obj 588 574 s \$0-stepAct-2-15-r;
#X obj 104 287 s \$0-stepAct-1-0-r;
#X obj 90 313 s \$0-stepAct-1-1-r;
#X obj 60 335 s \$0-stepAct-1-2-r;
#X obj 46 361 s \$0-stepAct-1-3-r;
#X obj 280 293 s \$0-stepAct-1-4-r;
#X obj 266 319 s \$0-stepAct-1-5-r;
#X obj 236 341 s \$0-stepAct-1-6-r;
#X obj 222 367 s \$0-stepAct-1-7-r;
#X obj 470 296 s \$0-stepAct-1-8-r;
#X obj 456 322 s \$0-stepAct-1-9-r;
#X obj 426 344 s \$0-stepAct-1-10-r;
#X obj 412 370 s \$0-stepAct-1-11-r;
#X obj 646 302 s \$0-stepAct-1-12-r;
#X obj 632 328 s \$0-stepAct-1-13-r;
#X obj 602 350 s \$0-stepAct-1-14-r;
#X obj 588 376 s \$0-stepAct-1-15-r;
#X connect 0 0 1 0;
#X connect 1 0 2 0;
#X connect 1 0 3 0;
#X connect 1 0 4 0;
#X connect 1 0 5 0;
#X connect 1 0 6 0;
#X connect 1 0 7 0;
#X connect 1 0 8 0;
#X connect 1 0 9 0;
#X connect 1 0 10 0;
#X connect 1 0 11 0;
#X connect 1 0 12 0;
#X connect 1 0 13 0;
#X connect 1 0 14 0;
#X connect 1 0 15 0;
#X connect 1 0 16 0;
#X connect 1 0 17 0;
#X connect 18 0 19 0;
#X connect 19 0 38 0;
#X connect 19 0 39 0;
#X connect 19 0 40 0;
#X connect 19 0 41 0;
#X connect 19 0 42 0;
#X connect 19 0 43 0;
#X connect 19 0 44 0;
#X connect 19 0 45 0;
#X connect 19 0 46 0;
#X connect 19 0 47 0;
#X connect 19 0 48 0;
#X connect 19 0 49 0;
#X connect 19 0 50 0;
#X connect 19 0 51 0;
#X connect 19 0 52 0;
#X connect 19 0 53 0;
#X connect 20 0 21 0;
#X connect 21 0 22 0;
#X connect 21 0 23 0;
#X connect 21 0 24 0;
#X connect 21 0 25 0;
#X connect 21 0 26 0;
#X connect 21 0 27 0;
#X connect 21 0 28 0;
#X connect 21 0 29 0;
#X connect 21 0 30 0;
#X connect 21 0 31 0;
#X connect 21 0 32 0;
#X connect 21 0 33 0;
#X connect 21 0 34 0;
#X connect 21 0 35 0;
#X connect 21 0 36 0;
#X connect 21 0 37 0;
#X restore 189 33 pd clearsequencer;
#N canvas 275 111 1350 300 openhihat-activations 0;
#N canvas 495 23 450 300 packActivations 0;
#X obj 91 63 inlet;
#X obj 140 63 inlet;
#X obj 190 64 inlet;
#X obj 239 64 inlet;
#X obj 140 96 t b f;
#X obj 190 96 t b f;
#X obj 239 96 t b f;
#X obj 91 223 outlet;
#X obj 91 181 pack f f f f;
#X connect 0 0 8 0;
#X connect 1 0 4 0;
#X connect 2 0 5 0;
#X connect 3 0 6 0;
#X connect 4 0 8 0;
#X connect 4 1 8 1;
#X connect 5 0 8 0;
#X connect 5 1 8 2;
#X connect 6 0 8 0;
#X connect 6 1 8 3;
#X connect 8 0 7 0;
#X restore 15 130 pd packActivations;
#N canvas 495 23 450 300 packActivations 0;
#X obj 91 63 inlet;
#X obj 140 63 inlet;
#X obj 190 64 inlet;
#X obj 239 64 inlet;
#X obj 140 96 t b f;
#X obj 190 96 t b f;
#X obj 239 96 t b f;
#X obj 91 223 outlet;
#X obj 91 181 pack f f f f;
#X connect 0 0 8 0;
#X connect 1 0 4 0;
#X connect 2 0 5 0;
#X connect 3 0 6 0;
#X connect 4 0 8 0;
#X connect 4 1 8 1;
#X connect 5 0 8 0;
#X connect 5 1 8 2;
#X connect 6 0 8 0;
#X connect 6 1 8 3;
#X connect 8 0 7 0;
#X restore 274 134 pd packActivations;
#N canvas 495 23 450 300 packActivations 0;
#X obj 91 63 inlet;
#X obj 140 63 inlet;
#X obj 190 64 inlet;
#X obj 239 64 inlet;
#X obj 140 96 t b f;
#X obj 190 96 t b f;
#X obj 239 96 t b f;
#X obj 91 223 outlet;
#X obj 91 181 pack f f f f;
#X connect 0 0 8 0;
#X connect 1 0 4 0;
#X connect 2 0 5 0;
#X connect 3 0 6 0;
#X connect 4 0 8 0;
#X connect 4 1 8 1;
#X connect 5 0 8 0;
#X connect 5 1 8 2;
#X connect 6 0 8 0;
#X connect 6 1 8 3;
#X connect 8 0 7 0;
#X restore 537 138 pd packActivations;
#N canvas 495 23 450 300 packActivations 0;
#X obj 91 63 inlet;
#X obj 140 63 inlet;
#X obj 190 64 inlet;
#X obj 239 64 inlet;
#X obj 140 96 t b f;
#X obj 190 96 t b f;
#X obj 239 96 t b f;
#X obj 91 223 outlet;
#X obj 91 181 pack f f f f;
#X connect 0 0 8 0;
#X connect 1 0 4 0;
#X connect 2 0 5 0;
#X connect 3 0 6 0;
#X connect 4 0 8 0;
#X connect 4 1 8 1;
#X connect 5 0 8 0;
#X connect 5 1 8 2;
#X connect 6 0 8 0;
#X connect 6 1 8 3;
#X connect 8 0 7 0;
#X restore 811 135 pd packActivations;
#X obj 15 15 r \$0-stepAct-3-0-s;
#X obj 56 41 r \$0-stepAct-3-1-s;
#X obj 97 69 r \$0-stepAct-3-2-s;
#X obj 138 95 r \$0-stepAct-3-3-s;
#X obj 274 19 r \$0-stepAct-3-4-s;
#X obj 315 44 r \$0-stepAct-3-5-s;
#X obj 356 73 r \$0-stepAct-3-6-s;
#X obj 397 99 r \$0-stepAct-3-7-s;
#X obj 537 23 r \$0-stepAct-3-8-s;
#X obj 578 48 r \$0-stepAct-3-9-s;
#X obj 619 77 r \$0-stepAct-3-10-s;
#X obj 660 103 r \$0-stepAct-3-11-s;
#X obj 811 20 r \$0-stepAct-3-12-s;
#X obj 852 46 r \$0-stepAct-3-13-s;
#X obj 893 74 r \$0-stepAct-3-14-s;
#X obj 934 101 r \$0-stepAct-3-15-s;
#X obj 15 173 s act-30-33;
#X obj 274 177 s act-34-37;
#X obj 537 181 s act-38-311;
#X obj 811 178 s act-312-315;
#X connect 0 0 20 0;
#X connect 1 0 21 0;
#X connect 2 0 22 0;
#X connect 3 0 23 0;
#X connect 4 0 0 0;
#X connect 5 0 0 1;
#X connect 6 0 0 2;
#X connect 7 0 0 3;
#X connect 8 0 1 0;
#X connect 9 0 1 1;
#X connect 10 0 1 2;
#X connect 11 0 1 3;
#X connect 12 0 2 0;
#X connect 13 0 2 1;
#X connect 14 0 2 2;
#X connect 15 0 2 3;
#X connect 16 0 3 0;
#X connect 17 0 3 1;
#X connect 18 0 3 2;
#X connect 19 0 3 3;
#X restore 35 150 pd openhihat-activations;
#N canvas 32 32 1131 240 hihat-activations 0;
#N canvas 495 23 450 300 packActivations 0;
#X obj 91 63 inlet;
#X obj 140 63 inlet;
#X obj 190 64 inlet;
#X obj 239 64 inlet;
#X obj 140 96 t b f;
#X obj 190 96 t b f;
#X obj 239 96 t b f;
#X obj 91 223 outlet;
#X obj 91 181 pack f f f f;
#X connect 0 0 8 0;
#X connect 1 0 4 0;
#X connect 2 0 5 0;
#X connect 3 0 6 0;
#X connect 4 0 8 0;
#X connect 4 1 8 1;
#X connect 5 0 8 0;
#X connect 5 1 8 2;
#X connect 6 0 8 0;
#X connect 6 1 8 3;
#X connect 8 0 7 0;
#X restore 15 130 pd packActivations;
#N canvas 495 23 450 300 packActivations 0;
#X obj 91 63 inlet;
#X obj 140 63 inlet;
#X obj 190 64 inlet;
#X obj 239 64 inlet;
#X obj 140 96 t b f;
#X obj 190 96 t b f;
#X obj 239 96 t b f;
#X obj 91 223 outlet;
#X obj 91 181 pack f f f f;
#X connect 0 0 8 0;
#X connect 1 0 4 0;
#X connect 2 0 5 0;
#X connect 3 0 6 0;
#X connect 4 0 8 0;
#X connect 4 1 8 1;
#X connect 5 0 8 0;
#X connect 5 1 8 2;
#X connect 6 0 8 0;
#X connect 6 1 8 3;
#X connect 8 0 7 0;
#X restore 274 134 pd packActivations;
#N canvas 495 23 450 300 packActivations 0;
#X obj 91 63 inlet;
#X obj 140 63 inlet;
#X obj 190 64 inlet;
#X obj 239 64 inlet;
#X obj 140 96 t b f;
#X obj 190 96 t b f;
#X obj 239 96 t b f;
#X obj 91 223 outlet;
#X obj 91 181 pack f f f f;
#X connect 0 0 8 0;
#X connect 1 0 4 0;
#X connect 2 0 5 0;
#X connect 3 0 6 0;
#X connect 4 0 8 0;
#X connect 4 1 8 1;
#X connect 5 0 8 0;
#X connect 5 1 8 2;
#X connect 6 0 8 0;
#X connect 6 1 8 3;
#X connect 8 0 7 0;
#X restore 537 138 pd packActivations;
#N canvas 495 23 450 300 packActivations 0;
#X obj 91 63 inlet;
#X obj 140 63 inlet;
#X obj 190 64 inlet;
#X obj 239 64 inlet;
#X obj 140 96 t b f;
#X obj 190 96 t b f;
#X obj 239 96 t b f;
#X obj 91 223 outlet;
#X obj 91 181 pack f f f f;
#X connect 0 0 8 0;
#X connect 1 0 4 0;
#X connect 2 0 5 0;
#X connect 3 0 6 0;
#X connect 4 0 8 0;
#X connect 4 1 8 1;
#X connect 5 0 8 0;
#X connect 5 1 8 2;
#X connect 6 0 8 0;
#X connect 6 1 8 3;
#X connect 8 0 7 0;
#X restore 811 135 pd packActivations;
#X obj 15 173 s act-20-23;
#X obj 274 177 s act-24-27;
#X obj 537 181 s act-28-211;
#X obj 811 178 s act-212-215;
#X obj 15 15 r \$0-stepAct-2-0-s;
#X obj 56 41 r \$0-stepAct-2-1-s;
#X obj 97 69 r \$0-stepAct-2-2-s;
#X obj 138 95 r \$0-stepAct-2-3-s;
#X obj 274 19 r \$0-stepAct-2-4-s;
#X obj 315 44 r \$0-stepAct-2-5-s;
#X obj 356 73 r \$0-stepAct-2-6-s;
#X obj 397 99 r \$0-stepAct-2-7-s;
#X obj 537 23 r \$0-stepAct-2-8-s;
#X obj 578 49 r \$0-stepAct-2-9-s;
#X obj 619 77 r \$0-stepAct-2-10-s;
#X obj 660 103 r \$0-stepAct-2-11-s;
#X obj 811 20 r \$0-stepAct-2-12-s;
#X obj 852 46 r \$0-stepAct-2-13-s;
#X obj 893 74 r \$0-stepAct-2-14-s;
#X obj 934 101 r \$0-stepAct-2-15-s;
#X connect 0 0 4 0;
#X connect 1 0 5 0;
#X connect 2 0 6 0;
#X connect 3 0 7 0;
#X connect 8 0 0 0;
#X connect 9 0 0 1;
#X connect 10 0 0 2;
#X connect 11 0 0 3;
#X connect 12 0 1 0;
#X connect 13 0 1 1;
#X connect 14 0 1 2;
#X connect 15 0 1 3;
#X connect 16 0 2 0;
#X connect 17 0 2 1;
#X connect 18 0 2 2;
#X connect 19 0 2 3;
#X connect 20 0 3 0;
#X connect 21 0 3 1;
#X connect 22 0 3 2;
#X connect 23 0 3 3;
#X restore 35 111 pd hihat-activations;
#N canvas 32 32 450 300 snare-activations 0;
#N canvas 495 23 450 300 packActivations 0;
#X obj 91 63 inlet;
#X obj 140 63 inlet;
#X obj 190 64 inlet;
#X obj 239 64 inlet;
#X obj 140 96 t b f;
#X obj 190 96 t b f;
#X obj 239 96 t b f;
#X obj 91 223 outlet;
#X obj 91 181 pack f f f f;
#X connect 0 0 8 0;
#X connect 1 0 4 0;
#X connect 2 0 5 0;
#X connect 3 0 6 0;
#X connect 4 0 8 0;
#X connect 4 1 8 1;
#X connect 5 0 8 0;
#X connect 5 1 8 2;
#X connect 6 0 8 0;
#X connect 6 1 8 3;
#X connect 8 0 7 0;
#X restore 25 140 pd packActivations;
#N canvas 495 23 450 300 packActivations 0;
#X obj 91 63 inlet;
#X obj 140 63 inlet;
#X obj 190 64 inlet;
#X obj 239 64 inlet;
#X obj 140 96 t b f;
#X obj 190 96 t b f;
#X obj 239 96 t b f;
#X obj 91 223 outlet;
#X obj 91 181 pack f f f f;
#X connect 0 0 8 0;
#X connect 1 0 4 0;
#X connect 2 0 5 0;
#X connect 3 0 6 0;
#X connect 4 0 8 0;
#X connect 4 1 8 1;
#X connect 5 0 8 0;
#X connect 5 1 8 2;
#X connect 6 0 8 0;
#X connect 6 1 8 3;
#X connect 8 0 7 0;
#X restore 284 144 pd packActivations;
#N canvas 495 23 450 300 packActivations 0;
#X obj 91 63 inlet;
#X obj 140 63 inlet;
#X obj 190 64 inlet;
#X obj 239 64 inlet;
#X obj 140 96 t b f;
#X obj 190 96 t b f;
#X obj 239 96 t b f;
#X obj 91 223 outlet;
#X obj 91 181 pack f f f f;
#X connect 0 0 8 0;
#X connect 1 0 4 0;
#X connect 2 0 5 0;
#X connect 3 0 6 0;
#X connect 4 0 8 0;
#X connect 4 1 8 1;
#X connect 5 0 8 0;
#X connect 5 1 8 2;
#X connect 6 0 8 0;
#X connect 6 1 8 3;
#X connect 8 0 7 0;
#X restore 547 148 pd packActivations;
#N canvas 495 23 450 300 packActivations 0;
#X obj 91 63 inlet;
#X obj 140 63 inlet;
#X obj 190 64 inlet;
#X obj 239 64 inlet;
#X obj 140 96 t b f;
#X obj 190 96 t b f;
#X obj 239 96 t b f;
#X obj 91 223 outlet;
#X obj 91 181 pack f f f f;
#X connect 0 0 8 0;
#X connect 1 0 4 0;
#X connect 2 0 5 0;
#X connect 3 0 6 0;
#X connect 4 0 8 0;
#X connect 4 1 8 1;
#X connect 5 0 8 0;
#X connect 5 1 8 2;
#X connect 6 0 8 0;
#X connect 6 1 8 3;
#X connect 8 0 7 0;
#X restore 821 145 pd packActivations;
#X obj 25 183 s act-10-13;
#X obj 284 187 s act-14-17;
#X obj 547 191 s act-18-111;
#X obj 821 188 s act-112-115;
#X obj 25 25 r \$0-stepAct-1-0-s;
#X obj 66 51 r \$0-stepAct-1-1-s;
#X obj 107 79 r \$0-stepAct-1-2-s;
#X obj 148 105 r \$0-stepAct-1-3-s;
#X obj 284 29 r \$0-stepAct-1-4-s;
#X obj 325 54 r \$0-stepAct-1-5-s;
#X obj 366 83 r \$0-stepAct-1-6-s;
#X obj 407 109 r \$0-stepAct-1-7-s;
#X obj 547 33 r \$0-stepAct-1-8-s;
#X obj 588 59 r \$0-stepAct-1-9-s;
#X obj 629 87 r \$0-stepAct-1-10-s;
#X obj 670 113 r \$0-stepAct-1-11-s;
#X obj 821 30 r \$0-stepAct-1-12-s;
#X obj 862 56 r \$0-stepAct-1-13-s;
#X obj 903 84 r \$0-stepAct-1-14-s;
#X obj 944 111 r \$0-stepAct-1-15-s;
#X connect 0 0 4 0;
#X connect 1 0 5 0;
#X connect 2 0 6 0;
#X connect 3 0 7 0;
#X connect 8 0 0 0;
#X connect 9 0 0 1;
#X connect 10 0 0 2;
#X connect 11 0 0 3;
#X connect 12 0 1 0;
#X connect 13 0 1 1;
#X connect 14 0 1 2;
#X connect 15 0 1 3;
#X connect 16 0 2 0;
#X connect 17 0 2 1;
#X connect 18 0 2 2;
#X connect 19 0 2 3;
#X connect 20 0 3 0;
#X connect 21 0 3 1;
#X connect 22 0 3 2;
#X connect 23 0 3 3;
#X restore 35 72 pd snare-activations;
#N canvas 160 467 450 300 kick-activations 0;
#N canvas 495 23 450 300 packActivations 0;
#X obj 91 63 inlet;
#X obj 140 63 inlet;
#X obj 190 64 inlet;
#X obj 239 64 inlet;
#X obj 140 96 t b f;
#X obj 190 96 t b f;
#X obj 239 96 t b f;
#X obj 91 223 outlet;
#X obj 91 181 pack f f f f;
#X connect 0 0 8 0;
#X connect 1 0 4 0;
#X connect 2 0 5 0;
#X connect 3 0 6 0;
#X connect 4 0 8 0;
#X connect 4 1 8 1;
#X connect 5 0 8 0;
#X connect 5 1 8 2;
#X connect 6 0 8 0;
#X connect 6 1 8 3;
#X connect 8 0 7 0;
#X restore 25 147 pd packActivations;
#X obj 25 190 s act-00-03;
#N canvas 495 23 450 300 packActivations 0;
#X obj 91 63 inlet;
#X obj 140 63 inlet;
#X obj 190 64 inlet;
#X obj 239 64 inlet;
#X obj 140 96 t b f;
#X obj 190 96 t b f;
#X obj 239 96 t b f;
#X obj 91 223 outlet;
#X obj 91 181 pack f f f f;
#X connect 0 0 8 0;
#X connect 1 0 4 0;
#X connect 2 0 5 0;
#X connect 3 0 6 0;
#X connect 4 0 8 0;
#X connect 4 1 8 1;
#X connect 5 0 8 0;
#X connect 5 1 8 2;
#X connect 6 0 8 0;
#X connect 6 1 8 3;
#X connect 8 0 7 0;
#X restore 284 151 pd packActivations;
#N canvas 495 23 450 300 packActivations 0;
#X obj 91 63 inlet;
#X obj 140 63 inlet;
#X obj 190 64 inlet;
#X obj 239 64 inlet;
#X obj 140 96 t b f;
#X obj 190 96 t b f;
#X obj 239 96 t b f;
#X obj 91 223 outlet;
#X obj 91 181 pack f f f f;
#X connect 0 0 8 0;
#X connect 1 0 4 0;
#X connect 2 0 5 0;
#X connect 3 0 6 0;
#X connect 4 0 8 0;
#X connect 4 1 8 1;
#X connect 5 0 8 0;
#X connect 5 1 8 2;
#X connect 6 0 8 0;
#X connect 6 1 8 3;
#X connect 8 0 7 0;
#X restore 547 155 pd packActivations;
#N canvas 495 23 450 300 packActivations 0;
#X obj 91 63 inlet;
#X obj 140 63 inlet;
#X obj 190 64 inlet;
#X obj 239 64 inlet;
#X obj 140 96 t b f;
#X obj 190 96 t b f;
#X obj 239 96 t b f;
#X obj 91 223 outlet;
#X obj 91 181 pack f f f f;
#X connect 0 0 8 0;
#X connect 1 0 4 0;
#X connect 2 0 5 0;
#X connect 3 0 6 0;
#X connect 4 0 8 0;
#X connect 4 1 8 1;
#X connect 5 0 8 0;
#X connect 5 1 8 2;
#X connect 6 0 8 0;
#X connect 6 1 8 3;
#X connect 8 0 7 0;
#X restore 821 152 pd packActivations;
#X obj 547 198 s act-08-011;
#X obj 821 195 s act-012-015;
#X obj 25 32 r \$0-stepAct-0-0-s;
#X obj 66 58 r \$0-stepAct-0-1-s;
#X obj 107 86 r \$0-stepAct-0-2-s;
#X obj 148 112 r \$0-stepAct-0-3-s;
#X obj 284 36 r \$0-stepAct-0-4-s;
#X obj 325 62 r \$0-stepAct-0-5-s;
#X obj 366 90 r \$0-stepAct-0-6-s;
#X obj 407 116 r \$0-stepAct-0-7-s;
#X obj 547 40 r \$0-stepAct-0-8-s;
#X obj 588 66 r \$0-stepAct-0-9-s;
#X obj 629 94 r \$0-stepAct-0-10-s;
#X obj 670 120 r \$0-stepAct-0-11-s;
#X obj 821 37 r \$0-stepAct-0-12-s;
#X obj 862 63 r \$0-stepAct-0-13-s;
#X obj 903 91 r \$0-stepAct-0-14-s;
#X obj 944 117 r \$0-stepAct-0-15-s;
#X obj 284 194 s act-04-07;
#X connect 0 0 1 0;
#X connect 2 0 23 0;
#X connect 3 0 5 0;
#X connect 4 0 6 0;
#X connect 7 0 0 0;
#X connect 8 0 0 1;
#X connect 9 0 0 2;
#X connect 10 0 0 3;
#X connect 11 0 2 0;
#X connect 12 0 2 1;
#X connect 13 0 2 2;
#X connect 14 0 2 3;
#X connect 15 0 3 0;
#X connect 16 0 3 1;
#X connect 17 0 3 2;
#X connect 18 0 3 3;
#X connect 19 0 4 0;
#X connect 20 0 4 1;
#X connect 21 0 4 2;
#X connect 22 0 4 3;
#X restore 35 33 pd kick-activations;
#X restore 12 44 pd triggerActivations;
#N canvas 492 88 1249 869 sequencer 0;
#X obj 34 103 r act-00-03;
#X obj 63 139 r act-04-07;
#X obj 92 173 r act-08-011;
#X obj 122 200 r act-012-015;
#X obj 289 99 r act-10-13;
#X obj 318 134 r act-14-17;
#X obj 347 164 r act-18-111;
#X obj 377 192 r act-112-115;
#X obj 560 102 r act-20-23;
#X obj 589 130 r act-24-27;
#X obj 618 158 r act-28-211;
#X obj 648 185 r act-212-215;
#X obj 35 347 throw~;
#X obj 34 312 readsf~;
#N canvas 927 244 450 300 counter 0;
#X obj 32 14 r \$0-bpm-in;
#X obj 106 51 r \$0-play;
#X obj 32 115 int 1;
#X obj 95 115 + 1;
#X floatatom 32 211 5 0 0 0 - - - 0;
#X obj 32 145 - 1;
#X obj 32 172 % 16;
#X obj 32 239 s step-number;
#X obj 32 76 bpm2trigger;
#X connect 0 0 8 0;
#X connect 1 0 8 1;
#X connect 2 0 3 0;
#X connect 2 0 5 0;
#X connect 3 0 2 1;
#X connect 4 0 7 0;
#X connect 5 0 6 0;
#X connect 6 0 4 0;
#X connect 8 0 2 0;
#X restore 36 24 pd counter;
#X f 11;
#N canvas 1327 104 450 564 kick-selector 0;
#X obj 130 13 inlet;
#X msg 130 376 sounds/kick_01.wav;
#X msg 130 416 sounds/kick_02.wav;
#X msg 130 456 sounds/kick_03.wav;
#X msg 130 496 sounds/kick_04.wav;
#X obj 130 169 t b f;
#X obj 130 203 route 1 2 3, f 17;
#X obj 294 413 list;
#X msg 294 443 open \$1 \, 1;
#X obj 294 499 outlet;
#X obj 130 346 t b f;
#X obj 168 312 t b f;
#X obj 207 287 t b f;
#X obj 246 247 t b f;
#X obj 164 36 r \$0-drumkits-s;
#X msg 130 138 \$1;
#X floatatom 130 103 5 0 0 0 - - - 0;
#X obj 130 66 f;
#X connect 0 0 17 0;
#X connect 1 0 7 0;
#X connect 2 0 7 0;
#X connect 3 0 7 0;
#X connect 4 0 7 0;
#X connect 5 0 6 0;
#X connect 5 1 6 0;
#X connect 6 0 10 0;
#X connect 6 1 11 0;
#X connect 6 2 12 0;
#X connect 6 3 13 0;
#X connect 7 0 8 0;
#X connect 8 0 9 0;
#X connect 10 1 1 0;
#X connect 11 1 2 0;
#X connect 12 1 3 0;
#X connect 13 1 4 0;
#X connect 14 0 17 1;
#X connect 15 0 5 0;
#X connect 16 0 15 0;
#X connect 17 0 16 0;
#X restore 34 275 pd kick-selector;
#X obj 290 352 throw~;
#X obj 289 317 readsf~;
#N canvas 1327 104 450 564 snare-selector 0;
#X obj 130 13 inlet;
#X obj 130 169 t b f;
#X obj 130 203 route 1 2 3, f 17;
#X obj 294 413 list;
#X msg 294 443 open \$1 \, 1;
#X obj 294 499 outlet;
#X obj 130 346 t b f;
#X obj 168 312 t b f;
#X obj 207 287 t b f;
#X obj 246 247 t b f;
#X obj 164 36 r \$0-drumkits-s;
#X msg 130 138 \$1;
#X floatatom 130 103 5 0 0 0 - - - 0;
#X obj 130 66 f;
#X msg 130 376 sounds/snare_01.wav;
#X msg 130 416 sounds/snare_02.wav;
#X msg 130 456 sounds/snare_03.wav;
#X msg 130 496 sounds/snare_04.wav;
#X connect 0 0 13 0;
#X connect 1 0 2 0;
#X connect 1 1 2 0;
#X connect 2 0 6 0;
#X connect 2 1 7 0;
#X connect 2 2 8 0;
#X connect 2 3 9 0;
#X connect 3 0 4 0;
#X connect 4 0 5 0;
#X connect 6 1 14 0;
#X connect 7 1 15 0;
#X connect 8 1 16 0;
#X connect 9 1 17 0;
#X connect 10 0 13 1;
#X connect 11 0 1 0;
#X connect 12 0 11 0;
#X connect 13 0 12 0;
#X connect 14 0 3 0;
#X connect 15 0 3 0;
#X connect 16 0 3 0;
#X connect 17 0 3 0;
#X restore 289 280 pd snare-selector;
#X obj 561 335 throw~;
#X obj 560 300 readsf~;
#N canvas 1327 104 450 564 hh-selector 0;
#X obj 130 13 inlet;
#X obj 130 169 t b f;
#X obj 130 203 route 1 2 3, f 17;
#X obj 294 413 list;
#X msg 294 443 open \$1 \, 1;
#X obj 294 499 outlet;
#X obj 130 346 t b f;
#X obj 168 312 t b f;
#X obj 207 287 t b f;
#X obj 246 247 t b f;
#X obj 164 36 r \$0-drumkits-s;
#X msg 130 138 \$1;
#X floatatom 130 103 5 0 0 0 - - - 0;
#X obj 130 66 f;
#X msg 130 376 sounds/hh_01.wav;
#X msg 130 416 sounds/hh_02.wav;
#X msg 130 456 sounds/hh_03.wav;
#X msg 130 496 sounds/hh_04.wav;
#X connect 0 0 13 0;
#X connect 1 0 2 0;
#X connect 1 1 2 0;
#X connect 2 0 6 0;
#X connect 2 1 7 0;
#X connect 2 2 8 0;
#X connect 2 3 9 0;
#X connect 3 0 4 0;
#X connect 4 0 5 0;
#X connect 6 1 14 0;
#X connect 7 1 15 0;
#X connect 8 1 16 0;
#X connect 9 1 17 0;
#X connect 10 0 13 1;
#X connect 11 0 1 0;
#X connect 12 0 11 0;
#X connect 13 0 12 0;
#X connect 14 0 3 0;
#X connect 15 0 3 0;
#X connect 16 0 3 0;
#X connect 17 0 3 0;
#X restore 560 263 pd hh-selector;
#N canvas 496 372 1122 545 seqtrigger 0;
#X obj 96 66 inlet;
#X obj 295 63 inlet;
#X obj 525 63 inlet;
#X obj 736 66 inlet;
#N canvas 1144 156 699 565 seq2trigger 0;
#X text 270 25 Step Count;
#X obj 105 145 tgl 20 0 empty empty empty 17 7 0 10 #fcfcfc #000000
#000000 0 1;
#X obj 136 144 tgl 20 0 empty empty empty 17 7 0 10 #fcfcfc #000000
#000000 0 1;
#X obj 176 144 tgl 20 0 empty empty empty 17 7 0 10 #fcfcfc #000000
#000000 0 1;
#X obj 212 144 tgl 20 0 empty empty empty 17 7 0 10 #fcfcfc #000000
#000000 0 1;
#X obj 89 288 sel 0 1;
#X obj 112 321 bng 15 250 50 0 empty empty empty 17 7 0 10 #fcfcfc
#000000 #000000;
#X obj 149 288 sel 0 1;
#X obj 172 321 bng 15 250 50 0 empty empty empty 17 7 0 10 #fcfcfc
#000000 #000000;
#X obj 209 288 sel 0 1;
#X obj 232 321 bng 15 250 50 0 empty empty empty 17 7 0 10 #fcfcfc
#000000 #000000;
#X obj 271 288 sel 0 1;
#X obj 294 321 bng 15 250 50 0 empty empty empty 17 7 0 10 #fcfcfc
#000000 #000000;
#X obj 105 44 inlet;
#X obj 116 441 outlet;
#X obj 275 46 inlet;
#X text 86 19 Step Activations;
#X text 116 464 Trigger;
#X obj 89 173 sel 0 1 2 3, f 24;
#X obj 275 86 - 0;
#X obj 112 382 t b b;
#X obj 232 397 t b b;
#X obj 162 367 t b b;
#X obj 294 351 t b b;
#X obj 105 84 unpack f f f f;
#X obj 89 203 f;
#X obj 130 202 f;
#X obj 171 202 f;
#X obj 212 202 f;
#X obj 381 45 inlet;
#X text 376 24 Step Shift;
#X connect 1 0 25 1;
#X connect 2 0 26 1;
#X connect 3 0 27 1;
#X connect 4 0 28 1;
#X connect 5 1 6 0;
#X connect 6 0 20 0;
#X connect 7 1 8 0;
#X connect 8 0 22 0;
#X connect 9 1 10 0;
#X connect 10 0 21 0;
#X connect 11 1 12 0;
#X connect 12 0 23 0;
#X connect 13 0 24 0;
#X connect 15 0 19 0;
#X connect 18 0 25 0;
#X connect 18 1 26 0;
#X connect 18 2 27 0;
#X connect 18 3 28 0;
#X connect 19 0 18 0;
#X connect 20 0 14 0;
#X connect 21 0 14 0;
#X connect 22 0 14 0;
#X connect 23 0 14 0;
#X connect 24 0 1 0;
#X connect 24 1 2 0;
#X connect 24 2 3 0;
#X connect 24 3 4 0;
#X connect 25 0 5 0;
#X connect 26 0 7 0;
#X connect 27 0 9 0;
#X connect 28 0 11 0;
#X connect 29 0 19 1;
#X restore 96 169 pd seq2trigger;
#N canvas 67 121 699 565 seq2trigger 0;
#X text 270 25 Step Count;
#X obj 105 145 tgl 20 0 empty empty empty 17 7 0 10 #fcfcfc #000000
#000000 0 1;
#X obj 136 144 tgl 20 0 empty empty empty 17 7 0 10 #fcfcfc #000000
#000000 0 1;
#X obj 176 144 tgl 20 0 empty empty empty 17 7 0 10 #fcfcfc #000000
#000000 0 1;
#X obj 212 144 tgl 20 0 empty empty empty 17 7 0 10 #fcfcfc #000000
#000000 0 1;
#X obj 89 288 sel 0 1;
#X obj 112 321 bng 15 250 50 0 empty empty empty 17 7 0 10 #fcfcfc
#000000 #000000;
#X obj 149 288 sel 0 1;
#X obj 172 321 bng 15 250 50 0 empty empty empty 17 7 0 10 #fcfcfc
#000000 #000000;
#X obj 209 288 sel 0 1;
#X obj 232 321 bng 15 250 50 0 empty empty empty 17 7 0 10 #fcfcfc
#000000 #000000;
#X obj 271 288 sel 0 1;
#X obj 294 321 bng 15 250 50 0 empty empty empty 17 7 0 10 #fcfcfc
#000000 #000000;
#X obj 105 44 inlet;
#X obj 116 441 outlet;
#X obj 275 46 inlet;
#X text 86 19 Step Activations;
#X text 116 464 Trigger;
#X obj 89 173 sel 0 1 2 3, f 24;
#X obj 275 86 - 0;
#X obj 112 382 t b b;
#X obj 232 397 t b b;
#X obj 162 367 t b b;
#X obj 294 351 t b b;
#X obj 105 84 unpack f f f f;
#X obj 89 203 f;
#X obj 130 202 f;
#X obj 171 202 f;
#X obj 212 202 f;
#X obj 381 45 inlet;
#X text 376 24 Step Shift;
#X connect 1 0 25 1;
#X connect 2 0 26 1;
#X connect 3 0 27 1;
#X connect 4 0 28 1;
#X connect 5 1 6 0;
#X connect 6 0 20 0;
#X connect 7 1 8 0;
#X connect 8 0 22 0;
#X connect 9 1 10 0;
#X connect 10 0 21 0;
#X connect 11 1 12 0;
#X connect 12 0 23 0;
#X connect 13 0 24 0;
#X connect 15 0 19 0;
#X connect 18 0 25 0;
#X connect 18 1 26 0;
#X connect 18 2 27 0;
#X connect 18 3 28 0;
#X connect 19 0 18 0;
#X connect 20 0 14 0;
#X connect 21 0 14 0;
#X connect 22 0 14 0;
#X connect 23 0 14 0;
#X connect 24 0 1 0;
#X connect 24 1 2 0;
#X connect 24 2 3 0;
#X connect 24 3 4 0;
#X connect 25 0 5 0;
#X connect 26 0 7 0;
#X connect 27 0 9 0;
#X connect 28 0 11 0;
#X connect 29 0 19 1;
#X restore 295 169 pd seq2trigger;
#N canvas 67 121 699 565 seq2trigger 0;
#X text 270 25 Step Count;
#X obj 105 145 tgl 20 0 empty empty empty 17 7 0 10 #fcfcfc #000000
#000000 0 1;
#X obj 136 144 tgl 20 0 empty empty empty 17 7 0 10 #fcfcfc #000000
#000000 0 1;
#X obj 176 144 tgl 20 0 empty empty empty 17 7 0 10 #fcfcfc #000000
#000000 0 1;
#X obj 212 144 tgl 20 0 empty empty empty 17 7 0 10 #fcfcfc #000000
#000000 0 1;
#X obj 89 288 sel 0 1;
#X obj 112 321 bng 15 250 50 0 empty empty empty 17 7 0 10 #fcfcfc
#000000 #000000;
#X obj 149 288 sel 0 1;
#X obj 172 321 bng 15 250 50 0 empty empty empty 17 7 0 10 #fcfcfc
#000000 #000000;
#X obj 209 288 sel 0 1;
#X obj 232 321 bng 15 250 50 0 empty empty empty 17 7 0 10 #fcfcfc
#000000 #000000;
#X obj 271 288 sel 0 1;
#X obj 294 321 bng 15 250 50 0 empty empty empty 17 7 0 10 #fcfcfc
#000000 #000000;
#X obj 105 44 inlet;
#X obj 116 441 outlet;
#X obj 275 46 inlet;
#X text 86 19 Step Activations;
#X text 116 464 Trigger;
#X obj 89 173 sel 0 1 2 3, f 24;
#X obj 275 86 - 0;
#X obj 112 382 t b b;
#X obj 232 397 t b b;
#X obj 162 367 t b b;
#X obj 294 351 t b b;
#X obj 105 84 unpack f f f f;
#X obj 89 203 f;
#X obj 130 202 f;
#X obj 171 202 f;
#X obj 212 202 f;
#X obj 381 45 inlet;
#X text 376 24 Step Shift;
#X connect 1 0 25 1;
#X connect 2 0 26 1;
#X connect 3 0 27 1;
#X connect 4 0 28 1;
#X connect 5 1 6 0;
#X connect 6 0 20 0;
#X connect 7 1 8 0;
#X connect 8 0 22 0;
#X connect 9 1 10 0;
#X connect 10 0 21 0;
#X connect 11 1 12 0;
#X connect 12 0 23 0;
#X connect 13 0 24 0;
#X connect 15 0 19 0;
#X connect 18 0 25 0;
#X connect 18 1 26 0;
#X connect 18 2 27 0;
#X connect 18 3 28 0;
#X connect 19 0 18 0;
#X connect 20 0 14 0;
#X connect 21 0 14 0;
#X connect 22 0 14 0;
#X connect 23 0 14 0;
#X connect 24 0 1 0;
#X connect 24 1 2 0;
#X connect 24 2 3 0;
#X connect 24 3 4 0;
#X connect 25 0 5 0;
#X connect 26 0 7 0;
#X connect 27 0 9 0;
#X connect 28 0 11 0;
#X connect 29 0 19 1;
#X restore 525 167 pd seq2trigger;
#N canvas 67 121 699 565 seq2trigger 0;
#X text 270 25 Step Count;
#X obj 105 145 tgl 20 0 empty empty empty 17 7 0 10 #fcfcfc #000000
#000000 0 1;
#X obj 136 144 tgl 20 0 empty empty empty 17 7 0 10 #fcfcfc #000000
#000000 0 1;
#X obj 176 144 tgl 20 0 empty empty empty 17 7 0 10 #fcfcfc #000000
#000000 0 1;
#X obj 212 144 tgl 20 0 empty empty empty 17 7 0 10 #fcfcfc #000000
#000000 0 1;
#X obj 89 288 sel 0 1;
#X obj 112 321 bng 15 250 50 0 empty empty empty 17 7 0 10 #fcfcfc
#000000 #000000;
#X obj 149 288 sel 0 1;
#X obj 172 321 bng 15 250 50 0 empty empty empty 17 7 0 10 #fcfcfc
#000000 #000000;
#X obj 209 288 sel 0 1;
#X obj 232 321 bng 15 250 50 0 empty empty empty 17 7 0 10 #fcfcfc
#000000 #000000;
#X obj 271 288 sel 0 1;
#X obj 294 321 bng 15 250 50 0 empty empty empty 17 7 0 10 #fcfcfc
#000000 #000000;
#X obj 105 44 inlet;
#X obj 116 441 outlet;
#X obj 275 46 inlet;
#X text 86 19 Step Activations;
#X text 116 464 Trigger;
#X obj 89 173 sel 0 1 2 3, f 24;
#X obj 275 86 - 0;
#X obj 112 382 t b b;
#X obj 232 397 t b b;
#X obj 162 367 t b b;
#X obj 294 351 t b b;
#X obj 105 84 unpack f f f f;
#X obj 89 203 f;
#X obj 130 202 f;
#X obj 171 202 f;
#X obj 212 202 f;
#X obj 381 45 inlet;
#X text 376 24 Step Shift;
#X connect 1 0 25 1;
#X connect 2 0 26 1;
#X connect 3 0 27 1;
#X connect 4 0 28 1;
#X connect 5 1 6 0;
#X connect 6 0 20 0;
#X connect 7 1 8 0;
#X connect 8 0 22 0;
#X connect 9 1 10 0;
#X connect 10 0 21 0;
#X connect 11 1 12 0;
#X connect 12 0 23 0;
#X connect 13 0 24 0;
#X connect 15 0 19 0;
#X connect 18 0 25 0;
#X connect 18 1 26 0;
#X connect 18 2 27 0;
#X connect 18 3 28 0;
#X connect 19 0 18 0;
#X connect 20 0 14 0;
#X connect 21 0 14 0;
#X connect 22 0 14 0;
#X connect 23 0 14 0;
#X connect 24 0 1 0;
#X connect 24 1 2 0;
#X connect 24 2 3 0;
#X connect 24 3 4 0;
#X connect 25 0 5 0;
#X connect 26 0 7 0;
#X connect 27 0 9 0;
#X connect 28 0 11 0;
#X connect 29 0 19 1;
#X restore 736 169 pd seq2trigger;
#X obj 956 121 loadbang;
#X msg 211 142 0;
#X msg 395 141 4;
#X msg 639 140 8;
#X msg 863 140 12;
#X obj 143 105 r step-number;
#X obj 342 100 r step-number;
#X obj 572 99 r step-number;
#X obj 783 93 r step-number;
#X obj 96 212 outlet;
#X obj 295 214 outlet;
#X obj 525 215 outlet;
#X obj 736 214 outlet;
#X connect 0 0 4 0;
#X connect 1 0 5 0;
#X connect 2 0 6 0;
#X connect 3 0 7 0;
#X connect 4 0 17 0;
#X connect 5 0 18 0;
#X connect 6 0 19 0;
#X connect 7 0 20 0;
#X connect 8 0 12 0;
#X connect 8 0 11 0;
#X connect 8 0 10 0;
#X connect 8 0 9 0;
#X connect 9 0 4 2;
#X connect 10 0 5 2;
#X connect 11 0 6 2;
#X connect 12 0 7 2;
#X connect 13 0 4 1;
#X connect 14 0 5 1;
#X connect 15 0 6 1;
#X connect 16 0 7 1;
#X restore 34 230 pd seqtrigger;
#X text 66 70 KICK;
#N canvas 496 372 1122 545 seqtrigger 0;
#X obj 96 66 inlet;
#X obj 295 63 inlet;
#X obj 525 63 inlet;
#X obj 736 66 inlet;
#N canvas 1144 156 699 565 seq2trigger 0;
#X text 270 25 Step Count;
#X obj 105 145 tgl 20 0 empty empty empty 17 7 0 10 #fcfcfc #000000
#000000 0 1;
#X obj 136 144 tgl 20 0 empty empty empty 17 7 0 10 #fcfcfc #000000
#000000 0 1;
#X obj 176 144 tgl 20 0 empty empty empty 17 7 0 10 #fcfcfc #000000
#000000 0 1;
#X obj 212 144 tgl 20 0 empty empty empty 17 7 0 10 #fcfcfc #000000
#000000 0 1;
#X obj 89 288 sel 0 1;
#X obj 112 321 bng 15 250 50 0 empty empty empty 17 7 0 10 #fcfcfc
#000000 #000000;
#X obj 149 288 sel 0 1;
#X obj 172 321 bng 15 250 50 0 empty empty empty 17 7 0 10 #fcfcfc
#000000 #000000;
#X obj 209 288 sel 0 1;
#X obj 232 321 bng 15 250 50 0 empty empty empty 17 7 0 10 #fcfcfc
#000000 #000000;
#X obj 271 288 sel 0 1;
#X obj 294 321 bng 15 250 50 0 empty empty empty 17 7 0 10 #fcfcfc
#000000 #000000;
#X obj 105 44 inlet;
#X obj 116 441 outlet;
#X obj 275 46 inlet;
#X text 86 19 Step Activations;
#X text 116 464 Trigger;
#X obj 89 173 sel 0 1 2 3, f 24;
#X obj 275 86 - 0;
#X obj 112 382 t b b;
#X obj 232 397 t b b;
#X obj 162 367 t b b;
#X obj 294 351 t b b;
#X obj 105 84 unpack f f f f;
#X obj 89 203 f;
#X obj 130 202 f;
#X obj 171 202 f;
#X obj 212 202 f;
#X obj 381 45 inlet;
#X text 376 24 Step Shift;
#X connect 1 0 25 1;
#X connect 2 0 26 1;
#X connect 3 0 27 1;
#X connect 4 0 28 1;
#X connect 5 1 6 0;
#X connect 6 0 20 0;
#X connect 7 1 8 0;
#X connect 8 0 22 0;
#X connect 9 1 10 0;
#X connect 10 0 21 0;
#X connect 11 1 12 0;
#X connect 12 0 23 0;
#X connect 13 0 24 0;
#X connect 15 0 19 0;
#X connect 18 0 25 0;
#X connect 18 1 26 0;
#X connect 18 2 27 0;
#X connect 18 3 28 0;
#X connect 19 0 18 0;
#X connect 20 0 14 0;
#X connect 21 0 14 0;
#X connect 22 0 14 0;
#X connect 23 0 14 0;
#X connect 24 0 1 0;
#X connect 24 1 2 0;
#X connect 24 2 3 0;
#X connect 24 3 4 0;
#X connect 25 0 5 0;
#X connect 26 0 7 0;
#X connect 27 0 9 0;
#X connect 28 0 11 0;
#X connect 29 0 19 1;
#X restore 96 169 pd seq2trigger;
#N canvas 67 121 699 565 seq2trigger 0;
#X text 270 25 Step Count;
#X obj 105 145 tgl 20 0 empty empty empty 17 7 0 10 #fcfcfc #000000
#000000 0 1;
#X obj 136 144 tgl 20 0 empty empty empty 17 7 0 10 #fcfcfc #000000
#000000 0 1;
#X obj 176 144 tgl 20 0 empty empty empty 17 7 0 10 #fcfcfc #000000
#000000 0 1;
#X obj 212 144 tgl 20 0 empty empty empty 17 7 0 10 #fcfcfc #000000
#000000 0 1;
#X obj 89 288 sel 0 1;
#X obj 112 321 bng 15 250 50 0 empty empty empty 17 7 0 10 #fcfcfc
#000000 #000000;
#X obj 149 288 sel 0 1;
#X obj 172 321 bng 15 250 50 0 empty empty empty 17 7 0 10 #fcfcfc
#000000 #000000;
#X obj 209 288 sel 0 1;
#X obj 232 321 bng 15 250 50 0 empty empty empty 17 7 0 10 #fcfcfc
#000000 #000000;
#X obj 271 288 sel 0 1;
#X obj 294 321 bng 15 250 50 0 empty empty empty 17 7 0 10 #fcfcfc
#000000 #000000;
#X obj 105 44 inlet;
#X obj 116 441 outlet;
#X obj 275 46 inlet;
#X text 86 19 Step Activations;
#X text 116 464 Trigger;
#X obj 89 173 sel 0 1 2 3, f 24;
#X obj 275 86 - 0;
#X obj 112 382 t b b;
#X obj 232 397 t b b;
#X obj 162 367 t b b;
#X obj 294 351 t b b;
#X obj 105 84 unpack f f f f;
#X obj 89 203 f;
#X obj 130 202 f;
#X obj 171 202 f;
#X obj 212 202 f;
#X obj 381 45 inlet;
#X text 376 24 Step Shift;
#X connect 1 0 25 1;
#X connect 2 0 26 1;
#X connect 3 0 27 1;
#X connect 4 0 28 1;
#X connect 5 1 6 0;
#X connect 6 0 20 0;
#X connect 7 1 8 0;
#X connect 8 0 22 0;
#X connect 9 1 10 0;
#X connect 10 0 21 0;
#X connect 11 1 12 0;
#X connect 12 0 23 0;
#X connect 13 0 24 0;
#X connect 15 0 19 0;
#X connect 18 0 25 0;
#X connect 18 1 26 0;
#X connect 18 2 27 0;
#X connect 18 3 28 0;
#X connect 19 0 18 0;
#X connect 20 0 14 0;
#X connect 21 0 14 0;
#X connect 22 0 14 0;
#X connect 23 0 14 0;
#X connect 24 0 1 0;
#X connect 24 1 2 0;
#X connect 24 2 3 0;
#X connect 24 3 4 0;
#X connect 25 0 5 0;
#X connect 26 0 7 0;
#X connect 27 0 9 0;
#X connect 28 0 11 0;
#X connect 29 0 19 1;
#X restore 295 169 pd seq2trigger;
#N canvas 67 121 699 565 seq2trigger 0;
#X text 270 25 Step Count;
#X obj 105 145 tgl 20 0 empty empty empty 17 7 0 10 #fcfcfc #000000
#000000 0 1;
#X obj 136 144 tgl 20 0 empty empty empty 17 7 0 10 #fcfcfc #000000
#000000 0 1;
#X obj 176 144 tgl 20 0 empty empty empty 17 7 0 10 #fcfcfc #000000
#000000 0 1;
#X obj 212 144 tgl 20 0 empty empty empty 17 7 0 10 #fcfcfc #000000
#000000 0 1;
#X obj 89 288 sel 0 1;
#X obj 112 321 bng 15 250 50 0 empty empty empty 17 7 0 10 #fcfcfc
#000000 #000000;
#X obj 149 288 sel 0 1;
#X obj 172 321 bng 15 250 50 0 empty empty empty 17 7 0 10 #fcfcfc
#000000 #000000;
#X obj 209 288 sel 0 1;
#X obj 232 321 bng 15 250 50 0 empty empty empty 17 7 0 10 #fcfcfc
#000000 #000000;
#X obj 271 288 sel 0 1;
#X obj 294 321 bng 15 250 50 0 empty empty empty 17 7 0 10 #fcfcfc
#000000 #000000;
#X obj 105 44 inlet;
#X obj 116 441 outlet;
#X obj 275 46 inlet;
#X text 86 19 Step Activations;
#X text 116 464 Trigger;
#X obj 89 173 sel 0 1 2 3, f 24;
#X obj 275 86 - 0;
#X obj 112 382 t b b;
#X obj 232 397 t b b;
#X obj 162 367 t b b;
#X obj 294 351 t b b;
#X obj 105 84 unpack f f f f;
#X obj 89 203 f;
#X obj 130 202 f;
#X obj 171 202 f;
#X obj 212 202 f;
#X obj 381 45 inlet;
#X text 376 24 Step Shift;
#X connect 1 0 25 1;
#X connect 2 0 26 1;
#X connect 3 0 27 1;
#X connect 4 0 28 1;
#X connect 5 1 6 0;
#X connect 6 0 20 0;
#X connect 7 1 8 0;
#X connect 8 0 22 0;
#X connect 9 1 10 0;
#X connect 10 0 21 0;
#X connect 11 1 12 0;
#X connect 12 0 23 0;
#X connect 13 0 24 0;
#X connect 15 0 19 0;
#X connect 18 0 25 0;
#X connect 18 1 26 0;
#X connect 18 2 27 0;
#X connect 18 3 28 0;
#X connect 19 0 18 0;
#X connect 20 0 14 0;
#X connect 21 0 14 0;
#X connect 22 0 14 0;
#X connect 23 0 14 0;
#X connect 24 0 1 0;
#X connect 24 1 2 0;
#X connect 24 2 3 0;
#X connect 24 3 4 0;
#X connect 25 0 5 0;
#X connect 26 0 7 0;
#X connect 27 0 9 0;
#X connect 28 0 11 0;
#X connect 29 0 19 1;
#X restore 525 167 pd seq2trigger;
#N canvas 67 121 699 565 seq2trigger 0;
#X text 270 25 Step Count;
#X obj 105 145 tgl 20 0 empty empty empty 17 7 0 10 #fcfcfc #000000
#000000 0 1;
#X obj 136 144 tgl 20 0 empty empty empty 17 7 0 10 #fcfcfc #000000
#000000 0 1;
#X obj 176 144 tgl 20 0 empty empty empty 17 7 0 10 #fcfcfc #000000
#000000 0 1;
#X obj 212 144 tgl 20 0 empty empty empty 17 7 0 10 #fcfcfc #000000
#000000 0 1;
#X obj 89 288 sel 0 1;
#X obj 112 321 bng 15 250 50 0 empty empty empty 17 7 0 10 #fcfcfc
#000000 #000000;
#X obj 149 288 sel 0 1;
#X obj 172 321 bng 15 250 50 0 empty empty empty 17 7 0 10 #fcfcfc
#000000 #000000;
#X obj 209 288 sel 0 1;
#X obj 232 321 bng 15 250 50 0 empty empty empty 17 7 0 10 #fcfcfc
#000000 #000000;
#X obj 271 288 sel 0 1;
#X obj 294 321 bng 15 250 50 0 empty empty empty 17 7 0 10 #fcfcfc
#000000 #000000;
#X obj 105 44 inlet;
#X obj 116 441 outlet;
#X obj 275 46 inlet;
#X text 86 19 Step Activations;
#X text 116 464 Trigger;
#X obj 89 173 sel 0 1 2 3, f 24;
#X obj 275 86 - 0;
#X obj 112 382 t b b;
#X obj 232 397 t b b;
#X obj 162 367 t b b;
#X obj 294 351 t b b;
#X obj 105 84 unpack f f f f;
#X obj 89 203 f;
#X obj 130 202 f;
#X obj 171 202 f;
#X obj 212 202 f;
#X obj 381 45 inlet;
#X text 376 24 Step Shift;
#X connect 1 0 25 1;
#X connect 2 0 26 1;
#X connect 3 0 27 1;
#X connect 4 0 28 1;
#X connect 5 1 6 0;
#X connect 6 0 20 0;
#X connect 7 1 8 0;
#X connect 8 0 22 0;
#X connect 9 1 10 0;
#X connect 10 0 21 0;
#X connect 11 1 12 0;
#X connect 12 0 23 0;
#X connect 13 0 24 0;
#X connect 15 0 19 0;
#X connect 18 0 25 0;
#X connect 18 1 26 0;
#X connect 18 2 27 0;
#X connect 18 3 28 0;
#X connect 19 0 18 0;
#X connect 20 0 14 0;
#X connect 21 0 14 0;
#X connect 22 0 14 0;
#X connect 23 0 14 0;
#X connect 24 0 1 0;
#X connect 24 1 2 0;
#X connect 24 2 3 0;
#X connect 24 3 4 0;
#X connect 25 0 5 0;
#X connect 26 0 7 0;
#X connect 27 0 9 0;
#X connect 28 0 11 0;
#X connect 29 0 19 1;
#X restore 736 169 pd seq2trigger;
#X obj 956 121 loadbang;
#X msg 211 142 0;
#X msg 395 141 4;
#X msg 639 140 8;
#X msg 863 140 12;
#X obj 143 105 r step-number;
#X obj 342 100 r step-number;
#X obj 572 99 r step-number;
#X obj 783 93 r step-number;
#X obj 96 212 outlet;
#X obj 295 214 outlet;
#X obj 525 215 outlet;
#X obj 736 214 outlet;
#X connect 0 0 4 0;
#X connect 1 0 5 0;
#X connect 2 0 6 0;
#X connect 3 0 7 0;
#X connect 4 0 17 0;
#X connect 5 0 18 0;
#X connect 6 0 19 0;
#X connect 7 0 20 0;
#X connect 8 0 12 0;
#X connect 8 0 11 0;
#X connect 8 0 10 0;
#X connect 8 0 9 0;
#X connect 9 0 4 2;
#X connect 10 0 5 2;
#X connect 11 0 6 2;
#X connect 12 0 7 2;
#X connect 13 0 4 1;
#X connect 14 0 5 1;
#X connect 15 0 6 1;
#X connect 16 0 7 1;
#X restore 289 228 pd seqtrigger;
#X text 320 71 SNARE;
#N canvas 496 372 1122 545 seqtrigger 0;
#X obj 96 66 inlet;
#X obj 295 63 inlet;
#X obj 525 63 inlet;
#X obj 736 66 inlet;
#N canvas 1144 156 699 565 seq2trigger 0;
#X text 270 25 Step Count;
#X obj 105 145 tgl 20 0 empty empty empty 17 7 0 10 #fcfcfc #000000
#000000 0 1;
#X obj 136 144 tgl 20 0 empty empty empty 17 7 0 10 #fcfcfc #000000
#000000 0 1;
#X obj 176 144 tgl 20 0 empty empty empty 17 7 0 10 #fcfcfc #000000
#000000 0 1;
#X obj 212 144 tgl 20 0 empty empty empty 17 7 0 10 #fcfcfc #000000
#000000 0 1;
#X obj 89 288 sel 0 1;
#X obj 112 321 bng 15 250 50 0 empty empty empty 17 7 0 10 #fcfcfc
#000000 #000000;
#X obj 149 288 sel 0 1;
#X obj 172 321 bng 15 250 50 0 empty empty empty 17 7 0 10 #fcfcfc
#000000 #000000;
#X obj 209 288 sel 0 1;
#X obj 232 321 bng 15 250 50 0 empty empty empty 17 7 0 10 #fcfcfc
#000000 #000000;
#X obj 271 288 sel 0 1;
#X obj 294 321 bng 15 250 50 0 empty empty empty 17 7 0 10 #fcfcfc
#000000 #000000;
#X obj 105 44 inlet;
#X obj 116 441 outlet;
#X obj 275 46 inlet;
#X text 86 19 Step Activations;
#X text 116 464 Trigger;
#X obj 89 173 sel 0 1 2 3, f 24;
#X obj 275 86 - 0;
#X obj 112 382 t b b;
#X obj 232 397 t b b;
#X obj 162 367 t b b;
#X obj 294 351 t b b;
#X obj 105 84 unpack f f f f;
#X obj 89 203 f;
#X obj 130 202 f;
#X obj 171 202 f;
#X obj 212 202 f;
#X obj 381 45 inlet;
#X text 376 24 Step Shift;
#X connect 1 0 25 1;
#X connect 2 0 26 1;
#X connect 3 0 27 1;
#X connect 4 0 28 1;
#X connect 5 1 6 0;
#X connect 6 0 20 0;
#X connect 7 1 8 0;
#X connect 8 0 22 0;
#X connect 9 1 10 0;
#X connect 10 0 21 0;
#X connect 11 1 12 0;
#X connect 12 0 23 0;
#X connect 13 0 24 0;
#X connect 15 0 19 0;
#X connect 18 0 25 0;
#X connect 18 1 26 0;
#X connect 18 2 27 0;
#X connect 18 3 28 0;
#X connect 19 0 18 0;
#X connect 20 0 14 0;
#X connect 21 0 14 0;
#X connect 22 0 14 0;
#X connect 23 0 14 0;
#X connect 24 0 1 0;
#X connect 24 1 2 0;
#X connect 24 2 3 0;
#X connect 24 3 4 0;
#X connect 25 0 5 0;
#X connect 26 0 7 0;
#X connect 27 0 9 0;
#X connect 28 0 11 0;
#X connect 29 0 19 1;
#X restore 96 169 pd seq2trigger;
#N canvas 67 121 699 565 seq2trigger 0;
#X text 270 25 Step Count;
#X obj 105 145 tgl 20 0 empty empty empty 17 7 0 10 #fcfcfc #000000
#000000 0 1;
#X obj 136 144 tgl 20 0 empty empty empty 17 7 0 10 #fcfcfc #000000
#000000 0 1;
#X obj 176 144 tgl 20 0 empty empty empty 17 7 0 10 #fcfcfc #000000
#000000 0 1;
#X obj 212 144 tgl 20 0 empty empty empty 17 7 0 10 #fcfcfc #000000
#000000 0 1;
#X obj 89 288 sel 0 1;
#X obj 112 321 bng 15 250 50 0 empty empty empty 17 7 0 10 #fcfcfc
#000000 #000000;
#X obj 149 288 sel 0 1;
#X obj 172 321 bng 15 250 50 0 empty empty empty 17 7 0 10 #fcfcfc
#000000 #000000;
#X obj 209 288 sel 0 1;
#X obj 232 321 bng 15 250 50 0 empty empty empty 17 7 0 10 #fcfcfc
#000000 #000000;
#X obj 271 288 sel 0 1;
#X obj 294 321 bng 15 250 50 0 empty empty empty 17 7 0 10 #fcfcfc
#000000 #000000;
#X obj 105 44 inlet;
#X obj 116 441 outlet;
#X obj 275 46 inlet;
#X text 86 19 Step Activations;
#X text 116 464 Trigger;
#X obj 89 173 sel 0 1 2 3, f 24;
#X obj 275 86 - 0;
#X obj 112 382 t b b;
#X obj 232 397 t b b;
#X obj 162 367 t b b;
#X obj 294 351 t b b;
#X obj 105 84 unpack f f f f;
#X obj 89 203 f;
#X obj 130 202 f;
#X obj 171 202 f;
#X obj 212 202 f;
#X obj 381 45 inlet;
#X text 376 24 Step Shift;
#X connect 1 0 25 1;
#X connect 2 0 26 1;
#X connect 3 0 27 1;
#X connect 4 0 28 1;
#X connect 5 1 6 0;
#X connect 6 0 20 0;
#X connect 7 1 8 0;
#X connect 8 0 22 0;
#X connect 9 1 10 0;
#X connect 10 0 21 0;
#X connect 11 1 12 0;
#X connect 12 0 23 0;
#X connect 13 0 24 0;
#X connect 15 0 19 0;
#X connect 18 0 25 0;
#X connect 18 1 26 0;
#X connect 18 2 27 0;
#X connect 18 3 28 0;
#X connect 19 0 18 0;
#X connect 20 0 14 0;
#X connect 21 0 14 0;
#X connect 22 0 14 0;
#X connect 23 0 14 0;
#X connect 24 0 1 0;
#X connect 24 1 2 0;
#X connect 24 2 3 0;
#X connect 24 3 4 0;
#X connect 25 0 5 0;
#X connect 26 0 7 0;
#X connect 27 0 9 0;
#X connect 28 0 11 0;
#X connect 29 0 19 1;
#X restore 295 169 pd seq2trigger;
#N canvas 67 121 699 565 seq2trigger 0;
#X text 270 25 Step Count;
#X obj 105 145 tgl 20 0 empty empty empty 17 7 0 10 #fcfcfc #000000
#000000 0 1;
#X obj 136 144 tgl 20 0 empty empty empty 17 7 0 10 #fcfcfc #000000
#000000 0 1;
#X obj 176 144 tgl 20 0 empty empty empty 17 7 0 10 #fcfcfc #000000
#000000 0 1;
#X obj 212 144 tgl 20 0 empty empty empty 17 7 0 10 #fcfcfc #000000
#000000 0 1;
#X obj 89 288 sel 0 1;
#X obj 112 321 bng 15 250 50 0 empty empty empty 17 7 0 10 #fcfcfc
#000000 #000000;
#X obj 149 288 sel 0 1;
#X obj 172 321 bng 15 250 50 0 empty empty empty 17 7 0 10 #fcfcfc
#000000 #000000;
#X obj 209 288 sel 0 1;
#X obj 232 321 bng 15 250 50 0 empty empty empty 17 7 0 10 #fcfcfc
#000000 #000000;
#X obj 271 288 sel 0 1;
#X obj 294 321 bng 15 250 50 0 empty empty empty 17 7 0 10 #fcfcfc
#000000 #000000;
#X obj 105 44 inlet;
#X obj 116 441 outlet;
#X obj 275 46 inlet;
#X text 86 19 Step Activations;
#X text 116 464 Trigger;
#X obj 89 173 sel 0 1 2 3, f 24;
#X obj 275 86 - 0;
#X obj 112 382 t b b;
#X obj 232 397 t b b;
#X obj 162 367 t b b;
#X obj 294 351 t b b;
#X obj 105 84 unpack f f f f;
#X obj 89 203 f;
#X obj 130 202 f;
#X obj 171 202 f;
#X obj 212 202 f;
#X obj 381 45 inlet;
#X text 376 24 Step Shift;
#X connect 1 0 25 1;
#X connect 2 0 26 1;
#X connect 3 0 27 1;
#X connect 4 0 28 1;
#X connect 5 1 6 0;
#X connect 6 0 20 0;
#X connect 7 1 8 0;
#X connect 8 0 22 0;
#X connect 9 1 10 0;
#X connect 10 0 21 0;
#X connect 11 1 12 0;
#X connect 12 0 23 0;
#X connect 13 0 24 0;
#X connect 15 0 19 0;
#X connect 18 0 25 0;
#X connect 18 1 26 0;
#X connect 18 2 27 0;
#X connect 18 3 28 0;
#X connect 19 0 18 0;
#X connect 20 0 14 0;
#X connect 21 0 14 0;
#X connect 22 0 14 0;
#X connect 23 0 14 0;
#X connect 24 0 1 0;
#X connect 24 1 2 0;
#X connect 24 2 3 0;
#X connect 24 3 4 0;
#X connect 25 0 5 0;
#X connect 26 0 7 0;
#X connect 27 0 9 0;
#X connect 28 0 11 0;
#X connect 29 0 19 1;
#X restore 525 167 pd seq2trigger;
#N canvas 67 121 699 565 seq2trigger 0;
#X text 270 25 Step Count;
#X obj 105 145 tgl 20 0 empty empty empty 17 7 0 10 #fcfcfc #000000
#000000 0 1;
#X obj 136 144 tgl 20 0 empty empty empty 17 7 0 10 #fcfcfc #000000
#000000 0 1;
#X obj 176 144 tgl 20 0 empty empty empty 17 7 0 10 #fcfcfc #000000
#000000 0 1;
#X obj 212 144 tgl 20 0 empty empty empty 17 7 0 10 #fcfcfc #000000
#000000 0 1;
#X obj 89 288 sel 0 1;
#X obj 112 321 bng 15 250 50 0 empty empty empty 17 7 0 10 #fcfcfc
#000000 #000000;
#X obj 149 288 sel 0 1;
#X obj 172 321 bng 15 250 50 0 empty empty empty 17 7 0 10 #fcfcfc
#000000 #000000;
#X obj 209 288 sel 0 1;
#X obj 232 321 bng 15 250 50 0 empty empty empty 17 7 0 10 #fcfcfc
#000000 #000000;
#X obj 271 288 sel 0 1;
#X obj 294 321 bng 15 250 50 0 empty empty empty 17 7 0 10 #fcfcfc
#000000 #000000;
#X obj 105 44 inlet;
#X obj 116 441 outlet;
#X obj 275 46 inlet;
#X text 86 19 Step Activations;
#X text 116 464 Trigger;
#X obj 89 173 sel 0 1 2 3, f 24;
#X obj 275 86 - 0;
#X obj 112 382 t b b;
#X obj 232 397 t b b;
#X obj 162 367 t b b;
#X obj 294 351 t b b;
#X obj 105 84 unpack f f f f;
#X obj 89 203 f;
#X obj 130 202 f;
#X obj 171 202 f;
#X obj 212 202 f;
#X obj 381 45 inlet;
#X text 376 24 Step Shift;
#X connect 1 0 25 1;
#X connect 2 0 26 1;
#X connect 3 0 27 1;
#X connect 4 0 28 1;
#X connect 5 1 6 0;
#X connect 6 0 20 0;
#X connect 7 1 8 0;
#X connect 8 0 22 0;
#X connect 9 1 10 0;
#X connect 10 0 21 0;
#X connect 11 1 12 0;
#X connect 12 0 23 0;
#X connect 13 0 24 0;
#X connect 15 0 19 0;
#X connect 18 0 25 0;
#X connect 18 1 26 0;
#X connect 18 2 27 0;
#X connect 18 3 28 0;
#X connect 19 0 18 0;
#X connect 20 0 14 0;
#X connect 21 0 14 0;
#X connect 22 0 14 0;
#X connect 23 0 14 0;
#X connect 24 0 1 0;
#X connect 24 1 2 0;
#X connect 24 2 3 0;
#X connect 24 3 4 0;
#X connect 25 0 5 0;
#X connect 26 0 7 0;
#X connect 27 0 9 0;
#X connect 28 0 11 0;
#X connect 29 0 19 1;
#X restore 736 169 pd seq2trigger;
#X obj 956 121 loadbang;
#X msg 211 142 0;
#X msg 395 141 4;
#X msg 639 140 8;
#X msg 863 140 12;
#X obj 143 105 r step-number;
#X obj 342 100 r step-number;
#X obj 572 99 r step-number;
#X obj 783 93 r step-number;
#X obj 96 212 outlet;
#X obj 295 214 outlet;
#X obj 525 215 outlet;
#X obj 736 214 outlet;
#X connect 0 0 4 0;
#X connect 1 0 5 0;
#X connect 2 0 6 0;
#X connect 3 0 7 0;
#X connect 4 0 17 0;
#X connect 5 0 18 0;
#X connect 6 0 19 0;
#X connect 7 0 20 0;
#X connect 8 0 12 0;
#X connect 8 0 11 0;
#X connect 8 0 10 0;
#X connect 8 0 9 0;
#X connect 9 0 4 2;
#X connect 10 0 5 2;
#X connect 11 0 6 2;
#X connect 12 0 7 2;
#X connect 13 0 4 1;
#X connect 14 0 5 1;
#X connect 15 0 6 1;
#X connect 16 0 7 1;
#X restore 560 217 pd seqtrigger;
#X text 562 74 HIHAT;
#X obj 808 331 throw~;
#X obj 807 296 readsf~;
#N canvas 496 372 1122 545 seqtrigger 0;
#X obj 96 66 inlet;
#X obj 295 63 inlet;
#X obj 525 63 inlet;
#X obj 736 66 inlet;
#N canvas 1144 156 699 565 seq2trigger 0;
#X text 270 25 Step Count;
#X obj 105 145 tgl 20 0 empty empty empty 17 7 0 10 #fcfcfc #000000
#000000 0 1;
#X obj 136 144 tgl 20 0 empty empty empty 17 7 0 10 #fcfcfc #000000
#000000 0 1;
#X obj 176 144 tgl 20 0 empty empty empty 17 7 0 10 #fcfcfc #000000
#000000 0 1;
#X obj 212 144 tgl 20 0 empty empty empty 17 7 0 10 #fcfcfc #000000
#000000 0 1;
#X obj 89 288 sel 0 1;
#X obj 112 321 bng 15 250 50 0 empty empty empty 17 7 0 10 #fcfcfc
#000000 #000000;
#X obj 149 288 sel 0 1;
#X obj 172 321 bng 15 250 50 0 empty empty empty 17 7 0 10 #fcfcfc
#000000 #000000;
#X obj 209 288 sel 0 1;
#X obj 232 321 bng 15 250 50 0 empty empty empty 17 7 0 10 #fcfcfc
#000000 #000000;
#X obj 271 288 sel 0 1;
#X obj 294 321 bng 15 250 50 0 empty empty empty 17 7 0 10 #fcfcfc
#000000 #000000;
#X obj 105 44 inlet;
#X obj 116 441 outlet;
#X obj 275 46 inlet;
#X text 86 19 Step Activations;
#X text 116 464 Trigger;
#X obj 89 173 sel 0 1 2 3, f 24;
#X obj 275 86 - 0;
#X obj 112 382 t b b;
#X obj 232 397 t b b;
#X obj 162 367 t b b;
#X obj 294 351 t b b;
#X obj 105 84 unpack f f f f;
#X obj 89 203 f;
#X obj 130 202 f;
#X obj 171 202 f;
#X obj 212 202 f;
#X obj 381 45 inlet;
#X text 376 24 Step Shift;
#X connect 1 0 25 1;
#X connect 2 0 26 1;
#X connect 3 0 27 1;
#X connect 4 0 28 1;
#X connect 5 1 6 0;
#X connect 6 0 20 0;
#X connect 7 1 8 0;
#X connect 8 0 22 0;
#X connect 9 1 10 0;
#X connect 10 0 21 0;
#X connect 11 1 12 0;
#X connect 12 0 23 0;
#X connect 13 0 24 0;
#X connect 15 0 19 0;
#X connect 18 0 25 0;
#X connect 18 1 26 0;
#X connect 18 2 27 0;
#X connect 18 3 28 0;
#X connect 19 0 18 0;
#X connect 20 0 14 0;
#X connect 21 0 14 0;
#X connect 22 0 14 0;
#X connect 23 0 14 0;
#X connect 24 0 1 0;
#X connect 24 1 2 0;
#X connect 24 2 3 0;
#X connect 24 3 4 0;
#X connect 25 0 5 0;
#X connect 26 0 7 0;
#X connect 27 0 9 0;
#X connect 28 0 11 0;
#X connect 29 0 19 1;
#X restore 96 169 pd seq2trigger;
#N canvas 67 121 699 565 seq2trigger 0;
#X text 270 25 Step Count;
#X obj 105 145 tgl 20 0 empty empty empty 17 7 0 10 #fcfcfc #000000
#000000 0 1;
#X obj 136 144 tgl 20 0 empty empty empty 17 7 0 10 #fcfcfc #000000
#000000 0 1;
#X obj 176 144 tgl 20 0 empty empty empty 17 7 0 10 #fcfcfc #000000
#000000 0 1;
#X obj 212 144 tgl 20 0 empty empty empty 17 7 0 10 #fcfcfc #000000
#000000 0 1;
#X obj 89 288 sel 0 1;
#X obj 112 321 bng 15 250 50 0 empty empty empty 17 7 0 10 #fcfcfc
#000000 #000000;
#X obj 149 288 sel 0 1;
#X obj 172 321 bng 15 250 50 0 empty empty empty 17 7 0 10 #fcfcfc
#000000 #000000;
#X obj 209 288 sel 0 1;
#X obj 232 321 bng 15 250 50 0 empty empty empty 17 7 0 10 #fcfcfc
#000000 #000000;
#X obj 271 288 sel 0 1;
#X obj 294 321 bng 15 250 50 0 empty empty empty 17 7 0 10 #fcfcfc
#000000 #000000;
#X obj 105 44 inlet;
#X obj 116 441 outlet;
#X obj 275 46 inlet;
#X text 86 19 Step Activations;
#X text 116 464 Trigger;
#X obj 89 173 sel 0 1 2 3, f 24;
#X obj 275 86 - 0;
#X obj 112 382 t b b;
#X obj 232 397 t b b;
#X obj 162 367 t b b;
#X obj 294 351 t b b;
#X obj 105 84 unpack f f f f;
#X obj 89 203 f;
#X obj 130 202 f;
#X obj 171 202 f;
#X obj 212 202 f;
#X obj 381 45 inlet;
#X text 376 24 Step Shift;
#X connect 1 0 25 1;
#X connect 2 0 26 1;
#X connect 3 0 27 1;
#X connect 4 0 28 1;
#X connect 5 1 6 0;
#X connect 6 0 20 0;
#X connect 7 1 8 0;
#X connect 8 0 22 0;
#X connect 9 1 10 0;
#X connect 10 0 21 0;
#X connect 11 1 12 0;
#X connect 12 0 23 0;
#X connect 13 0 24 0;
#X connect 15 0 19 0;
#X connect 18 0 25 0;
#X connect 18 1 26 0;
#X connect 18 2 27 0;
#X connect 18 3 28 0;
#X connect 19 0 18 0;
#X connect 20 0 14 0;
#X connect 21 0 14 0;
#X connect 22 0 14 0;
#X connect 23 0 14 0;
#X connect 24 0 1 0;
#X connect 24 1 2 0;
#X connect 24 2 3 0;
#X connect 24 3 4 0;
#X connect 25 0 5 0;
#X connect 26 0 7 0;
#X connect 27 0 9 0;
#X connect 28 0 11 0;
#X connect 29 0 19 1;
#X restore 295 169 pd seq2trigger;
#N canvas 67 121 699 565 seq2trigger 0;
#X text 270 25 Step Count;
#X obj 105 145 tgl 20 0 empty empty empty 17 7 0 10 #fcfcfc #000000
#000000 0 1;
#X obj 136 144 tgl 20 0 empty empty empty 17 7 0 10 #fcfcfc #000000
#000000 0 1;
#X obj 176 144 tgl 20 0 empty empty empty 17 7 0 10 #fcfcfc #000000
#000000 0 1;
#X obj 212 144 tgl 20 0 empty empty empty 17 7 0 10 #fcfcfc #000000
#000000 0 1;
#X obj 89 288 sel 0 1;
#X obj 112 321 bng 15 250 50 0 empty empty empty 17 7 0 10 #fcfcfc
#000000 #000000;
#X obj 149 288 sel 0 1;
#X obj 172 321 bng 15 250 50 0 empty empty empty 17 7 0 10 #fcfcfc
#000000 #000000;
#X obj 209 288 sel 0 1;
#X obj 232 321 bng 15 250 50 0 empty empty empty 17 7 0 10 #fcfcfc
#000000 #000000;
#X obj 271 288 sel 0 1;
#X obj 294 321 bng 15 250 50 0 empty empty empty 17 7 0 10 #fcfcfc
#000000 #000000;
#X obj 105 44 inlet;
#X obj 116 441 outlet;
#X obj 275 46 inlet;
#X text 86 19 Step Activations;
#X text 116 464 Trigger;
#X obj 89 173 sel 0 1 2 3, f 24;
#X obj 275 86 - 0;
#X obj 112 382 t b b;
#X obj 232 397 t b b;
#X obj 162 367 t b b;
#X obj 294 351 t b b;
#X obj 105 84 unpack f f f f;
#X obj 89 203 f;
#X obj 130 202 f;
#X obj 171 202 f;
#X obj 212 202 f;
#X obj 381 45 inlet;
#X text 376 24 Step Shift;
#X connect 1 0 25 1;
#X connect 2 0 26 1;
#X connect 3 0 27 1;
#X connect 4 0 28 1;
#X connect 5 1 6 0;
#X connect 6 0 20 0;
#X connect 7 1 8 0;
#X connect 8 0 22 0;
#X connect 9 1 10 0;
#X connect 10 0 21 0;
#X connect 11 1 12 0;
#X connect 12 0 23 0;
#X connect 13 0 24 0;
#X connect 15 0 19 0;
#X connect 18 0 25 0;
#X connect 18 1 26 0;
#X connect 18 2 27 0;
#X connect 18 3 28 0;
#X connect 19 0 18 0;
#X connect 20 0 14 0;
#X connect 21 0 14 0;
#X connect 22 0 14 0;
#X connect 23 0 14 0;
#X connect 24 0 1 0;
#X connect 24 1 2 0;
#X connect 24 2 3 0;
#X connect 24 3 4 0;
#X connect 25 0 5 0;
#X connect 26 0 7 0;
#X connect 27 0 9 0;
#X connect 28 0 11 0;
#X connect 29 0 19 1;
#X restore 525 167 pd seq2trigger;
#N canvas 67 121 699 565 seq2trigger 0;
#X text 270 25 Step Count;
#X obj 105 145 tgl 20 0 empty empty empty 17 7 0 10 #fcfcfc #000000
#000000 0 1;
#X obj 136 144 tgl 20 0 empty empty empty 17 7 0 10 #fcfcfc #000000
#000000 0 1;
#X obj 176 144 tgl 20 0 empty empty empty 17 7 0 10 #fcfcfc #000000
#000000 0 1;
#X obj 212 144 tgl 20 0 empty empty empty 17 7 0 10 #fcfcfc #000000
#000000 0 1;
#X obj 89 288 sel 0 1;
#X obj 112 321 bng 15 250 50 0 empty empty empty 17 7 0 10 #fcfcfc
#000000 #000000;
#X obj 149 288 sel 0 1;
#X obj 172 321 bng 15 250 50 0 empty empty empty 17 7 0 10 #fcfcfc
#000000 #000000;
#X obj 209 288 sel 0 1;
#X obj 232 321 bng 15 250 50 0 empty empty empty 17 7 0 10 #fcfcfc
#000000 #000000;
#X obj 271 288 sel 0 1;
#X obj 294 321 bng 15 250 50 0 empty empty empty 17 7 0 10 #fcfcfc
#000000 #000000;
#X obj 105 44 inlet;
#X obj 116 441 outlet;
#X obj 275 46 inlet;
#X text 86 19 Step Activations;
#X text 116 464 Trigger;
#X obj 89 173 sel 0 1 2 3, f 24;
#X obj 275 86 - 0;
#X obj 112 382 t b b;
#X obj 232 397 t b b;
#X obj 162 367 t b b;
#X obj 294 351 t b b;
#X obj 105 84 unpack f f f f;
#X obj 89 203 f;
#X obj 130 202 f;
#X obj 171 202 f;
#X obj 212 202 f;
#X obj 381 45 inlet;
#X text 376 24 Step Shift;
#X connect 1 0 25 1;
#X connect 2 0 26 1;
#X connect 3 0 27 1;
#X connect 4 0 28 1;
#X connect 5 1 6 0;
#X connect 6 0 20 0;
#X connect 7 1 8 0;
#X connect 8 0 22 0;
#X connect 9 1 10 0;
#X connect 10 0 21 0;
#X connect 11 1 12 0;
#X connect 12 0 23 0;
#X connect 13 0 24 0;
#X connect 15 0 19 0;
#X connect 18 0 25 0;
#X connect 18 1 26 0;
#X connect 18 2 27 0;
#X connect 18 3 28 0;
#X connect 19 0 18 0;
#X connect 20 0 14 0;
#X connect 21 0 14 0;
#X connect 22 0 14 0;
#X connect 23 0 14 0;
#X connect 24 0 1 0;
#X connect 24 1 2 0;
#X connect 24 2 3 0;
#X connect 24 3 4 0;
#X connect 25 0 5 0;
#X connect 26 0 7 0;
#X connect 27 0 9 0;
#X connect 28 0 11 0;
#X connect 29 0 19 1;
#X restore 736 169 pd seq2trigger;
#X obj 956 121 loadbang;
#X msg 211 142 0;
#X msg 395 141 4;
#X msg 639 140 8;
#X msg 863 140 12;
#X obj 143 105 r step-number;
#X obj 342 100 r step-number;
#X obj 572 99 r step-number;
#X obj 783 93 r step-number;
#X obj 96 212 outlet;
#X obj 295 214 outlet;
#X obj 525 215 outlet;
#X obj 736 214 outlet;
#X connect 0 0 4 0;
#X connect 1 0 5 0;
#X connect 2 0 6 0;
#X connect 3 0 7 0;
#X connect 4 0 17 0;
#X connect 5 0 18 0;
#X connect 6 0 19 0;
#X connect 7 0 20 0;
#X connect 8 0 12 0;
#X connect 8 0 11 0;
#X connect 8 0 10 0;
#X connect 8 0 9 0;
#X connect 9 0 4 2;
#X connect 10 0 5 2;
#X connect 11 0 6 2;
#X connect 12 0 7 2;
#X connect 13 0 4 1;
#X connect 14 0 5 1;
#X connect 15 0 6 1;
#X connect 16 0 7 1;
#X restore 807 213 pd seqtrigger;
#X text 809 70 OPEN HIHAT;
#X obj 807 98 r act-30-33;
#X obj 836 126 r act-34-37;
#X obj 865 154 r act-38-311;
#X obj 895 181 r act-312-315;
#N canvas 1327 104 450 564 openhh-selector 0;
#X obj 130 13 inlet;
#X obj 130 169 t b f;
#X obj 130 203 route 1 2 3, f 17;
#X obj 323 411 list, f 6;
#X msg 323 441 open \$1 \, 1;
#X obj 323 497 outlet;
#X obj 130 346 t b f;
#X obj 168 312 t b f;
#X obj 207 287 t b f;
#X obj 246 247 t b f;
#X obj 164 36 r \$0-drumkits-s;
#X msg 130 138 \$1;
#X floatatom 130 103 5 0 0 0 - - - 0;
#X obj 130 66 f;
#X msg 130 376 sounds/openhihat_01.wav;
#X msg 130 416 sounds/openhihat_02.wav;
#X msg 130 456 sounds/openhihat_01.wav;
#X msg 130 496 sounds/openhihat_02.wav;
#X connect 0 0 13 0;
#X connect 1 0 2 0;
#X connect 1 1 2 0;
#X connect 2 0 6 0;
#X connect 2 1 7 0;
#X connect 2 2 8 0;
#X connect 2 3 9 0;
#X connect 3 0 4 0;
#X connect 4 0 5 0;
#X connect 6 1 14 0;
#X connect 7 1 15 0;
#X connect 8 1 16 0;
#X connect 9 1 17 0;
#X connect 10 0 13 1;
#X connect 11 0 1 0;
#X connect 12 0 11 0;
#X connect 13 0 12 0;
#X connect 14 0 3 0;
#X connect 15 0 3 0;
#X connect 16 0 3 0;
#X connect 17 0 3 0;
#X restore 807 259 pd openhh-selector;
#X connect 0 0 22 0;
#X connect 1 0 22 1;
#X connect 2 0 22 2;
#X connect 3 0 22 3;
#X connect 4 0 24 0;
#X connect 5 0 24 1;
#X connect 6 0 24 2;
#X connect 7 0 24 3;
#X connect 8 0 26 0;
#X connect 9 0 26 1;
#X connect 10 0 26 2;
#X connect 11 0 26 3;
#X connect 13 0 12 0;
#X connect 15 0 13 0;
#X connect 17 0 16 0;
#X connect 18 0 17 0;
#X connect 20 0 19 0;
#X connect 21 0 20 0;
#X connect 22 0 15 0;
#X connect 22 1 15 0;
#X connect 22 2 15 0;
#X connect 22 3 15 0;
#X connect 24 0 18 0;
#X connect 24 1 18 0;
#X connect 24 2 18 0;
#X connect 24 3 18 0;
#X connect 26 0 21 0;
#X connect 26 1 21 0;
#X connect 26 2 21 0;
#X connect 26 3 21 0;
#X connect 29 0 28 0;
#X connect 30 0 36 0;
#X connect 30 1 36 0;
#X connect 30 2 36 0;
#X connect 30 3 36 0;
#X connect 32 0 30 0;
#X connect 33 0 30 1;
#X connect 34 0 30 2;
#X connect 35 0 30 3;
#X connect 36 0 29 0;
#X restore 12 69 pd sequencer;
#X obj 12 121 catch~;
#X obj 12 348 dac~;
#N canvas 592 126 450 300 init 0;
#X obj 21 29 loadbang;
#X obj 21 59 float \$0;
#X obj 187 22 r \$0-bpm-in;
#X obj 187 53 int;
#X obj 187 81 s \$0-bpm-display;
#X msg 21 88 \; \$1-bpm-out 120 \; \$1-drumkits-r 1 \; \$1-mainvolume-r
0.5 \; pd dsp 1;
#X connect 0 0 1 0;
#X connect 1 0 5 0;
#X connect 2 0 3 0;
#X connect 3 0 4 0;
#X restore 12 19 pd init;
#X obj 13 264 *~;
#X obj 32 156 r \$0-mainvolume-s;
#X obj 32 218 line~;
#X msg 32 189 \$1 30;
#X obj 12 301 *~ 0.9;
#X connect 2 0 5 0;
#X connect 5 0 9 0;
#X connect 6 0 8 0;
#X connect 7 0 5 1;
#X connect 8 0 7 0;
#X connect 9 0 3 0;
#X connect 9 0 3 1;
#X restore 1001 707 pd codiPage4;
#X obj 11 11 cnv 15 1078 718 empty empty empty 20 12 0 14 #cddcdc #404040
0;
#X obj 452 641 bng 45 250 50 0 \$0-clearseqBang empty empty 17 7 0
10 #007da5 #ffffff #000000;
#X text 453 620 CLEAR;
#X obj 143 192 tgl 55 0 \$0-stepAct-0-0-s \$0-stepAct-0-0-r empty 17
7 0 10 #007da5 #000000 #000000 0 1;
#X obj 143 126 hradio 55 1 0 16 empty step-number empty 0 -8 0 10 #00324b
#ffffff #000000 0;
#X obj 198 192 tgl 55 0 \$0-stepAct-0-1-s \$0-stepAct-0-1-r empty 17
7 0 10 #82cdcd #000000 #000000 0 1;
#X obj 253 192 tgl 55 0 \$0-stepAct-0-2-s \$0-stepAct-0-2-r empty 17
7 0 10 #82cdcd #000000 #000000 0 1;
#X obj 308 192 tgl 55 0 \$0-stepAct-0-3-s \$0-stepAct-0-3-r empty 17
7 0 10 #82cdd7 #000000 #000000 0 1;
#X obj 363 192 tgl 55 0 \$0-stepAct-0-4-s \$0-stepAct-0-4-r empty 17
7 0 10 #007da5 #000000 #000000 0 1;
#X obj 418 192 tgl 55 0 \$0-stepAct-0-5-s \$0-stepAct-0-5-r empty 17
7 0 10 #82cdcd #000000 #000000 0 1;
#X obj 473 192 tgl 55 0 \$0-stepAct-0-6-s \$0-stepAct-0-6-r empty 17
7 0 10 #82cdcd #000000 #000000 0 1;
#X obj 528 192 tgl 55 0 \$0-stepAct-0-7-s \$0-stepAct-0-7-r empty 17
7 0 10 #82cdd7 #000000 #000000 0 1;
#X obj 583 192 tgl 55 0 \$0-stepAct-0-8-s \$0-stepAct-0-8-r empty 17
7 0 10 #007da5 #000000 #000000 0 1;
#X obj 638 192 tgl 55 0 \$0-stepAct-0-9-s \$0-stepAct-0-9-r empty 17
7 0 10 #82cdcd #000000 #000000 0 1;
#X obj 693 192 tgl 55 0 \$0-stepAct-0-10-s \$0-stepAct-0-10-r empty
17 7 0 10 #82cdcd #000000 #000000 0 1;
#X obj 748 192 tgl 55 0 \$0-stepAct-0-11-s \$0-stepAct-0-11-r empty
17 7 0 10 #82cdd7 #000000 #000000 0 1;
#X obj 803 192 tgl 55 0 \$0-stepAct-0-12-s \$0-stepAct-0-12-r empty
17 7 0 10 #007da5 #000000 #000000 0 1;
#X obj 858 192 tgl 55 0 \$0-stepAct-0-13-s \$0-stepAct-0-13-r empty
17 7 0 10 #82cdcd #000000 #000000 0 1;
#X obj 913 192 tgl 55 0 \$0-stepAct-0-14-s \$0-stepAct-0-14-r empty
17 7 0 10 #82cdcd #000000 #000000 0 1;
#X obj 968 192 tgl 55 0 \$0-stepAct-0-15-s \$0-stepAct-0-15-r empty
17 7 0 10 #82cdd7 #000000 #000000 0 1;
#X obj 143 247 tgl 55 0 \$0-stepAct-1-0-s \$0-stepAct-1-0-r empty 17
7 0 10 #007da5 #000000 #000000 0 1;
#X obj 198 247 tgl 55 0 \$0-stepAct-1-1-s \$0-stepAct-1-1-r empty 17
7 0 10 #82cdcd #000000 #000000 0 1;
#X obj 253 247 tgl 55 0 \$0-stepAct-1-2-s \$0-stepAct-1-2-r empty 17
7 0 10 #82cdcd #000000 #000000 0 1;
#X obj 308 247 tgl 55 0 \$0-stepAct-1-3-s \$0-stepAct-1-3-r empty 17
7 0 10 #82cdd7 #000000 #000000 0 1;
#X obj 363 247 tgl 55 0 \$0-stepAct-1-4-s \$0-stepAct-1-4-r empty 17
7 0 10 #007da5 #000000 #000000 0 1;
#X obj 418 247 tgl 55 0 \$0-stepAct-1-5-s \$0-stepAct-1-5-r empty 17
7 0 10 #82cdcd #000000 #000000 0 1;
#X obj 473 247 tgl 55 0 \$0-stepAct-1-6-s \$0-stepAct-1-6-r empty 17
7 0 10 #82cdcd #000000 #000000 0 1;
#X obj 528 247 tgl 55 0 \$0-stepAct-1-7-s \$0-stepAct-1-7-r empty 17
7 0 10 #82cdd7 #000000 #000000 0 1;
#X obj 583 247 tgl 55 0 \$0-stepAct-1-8-s \$0-stepAct-1-8-r empty 17
7 0 10 #007da5 #000000 #000000 0 1;
#X obj 638 247 tgl 55 0 \$0-stepAct-1-9-s \$0-stepAct-1-9-r empty 17
7 0 10 #82cdcd #000000 #000000 0 1;
#X obj 693 247 tgl 55 0 \$0-stepAct-1-10-s \$0-stepAct-1-10-r empty
17 7 0 10 #82cdcd #000000 #000000 0 1;
#X obj 748 247 tgl 55 0 \$0-stepAct-1-11-s \$0-stepAct-1-11-r empty
17 7 0 10 #82cdd7 #000000 #000000 0 1;
#X obj 803 247 tgl 55 0 \$0-stepAct-1-12-s \$0-stepAct-1-12-r empty
17 7 0 10 #007da5 #000000 #000000 0 1;
#X obj 858 247 tgl 55 0 \$0-stepAct-1-13-s \$0-stepAct-1-13-r empty
17 7 0 10 #82cdcd #000000 #000000 0 1;
#X obj 913 247 tgl 55 0 \$0-stepAct-1-14-s \$0-stepAct-1-14-r empty
17 7 0 10 #82cdcd #000000 #000000 0 1;
#X obj 968 247 tgl 55 0 \$0-stepAct-1-15-s \$0-stepAct-1-15-r empty
17 7 0 10 #82cdd7 #000000 #000000 0 1;
#X obj 143 302 tgl 55 0 \$0-stepAct-2-0-s \$0-stepAct-2-0-r empty 17
7 0 10 #007da5 #000000 #000000 0 1;
#X obj 198 302 tgl 55 0 \$0-stepAct-2-1-s \$0-stepAct-2-1-r empty 17
7 0 10 #82cdcd #000000 #000000 0 1;
#X obj 253 302 tgl 55 0 \$0-stepAct-2-2-s \$0-stepAct-2-2-r empty 17
7 0 10 #82cdcd #000000 #000000 0 1;
#X obj 308 302 tgl 55 0 \$0-stepAct-2-3-s \$0-stepAct-2-3-r empty 17
7 0 10 #82cdd7 #000000 #000000 0 1;
#X obj 363 302 tgl 55 0 \$0-stepAct-2-4-s \$0-stepAct-2-4-r empty 17
7 0 10 #007da5 #000000 #000000 0 1;
#X obj 418 302 tgl 55 0 \$0-stepAct-2-5-s \$0-stepAct-2-5-r empty 17
7 0 10 #82cdcd #000000 #000000 0 1;
#X obj 473 302 tgl 55 0 \$0-stepAct-2-6-s \$0-stepAct-2-6-r empty 17
7 0 10 #82cdcd #000000 #000000 0 1;
#X obj 528 302 tgl 55 0 \$0-stepAct-2-7-s \$0-stepAct-2-7-r empty 17
7 0 10 #82cdd7 #000000 #000000 0 1;
#X obj 583 302 tgl 55 0 \$0-stepAct-2-8-s \$0-stepAct-2-8-r empty 17
7 0 10 #007da5 #000000 #000000 0 1;
#X obj 638 302 tgl 55 0 \$0-stepAct-2-9-s \$0-stepAct-2-9-r empty 17
7 0 10 #82cdcd #000000 #000000 0 1;
#X obj 693 302 tgl 55 0 \$0-stepAct-2-10-s \$0-stepAct-2-10-r empty
17 7 0 10 #82cdcd #000000 #000000 0 1;
#X obj 748 302 tgl 55 0 \$0-stepAct-2-11-s \$0-stepAct-2-11-r empty
17 7 0 10 #82cdd7 #000000 #000000 0 1;
#X obj 803 302 tgl 55 0 \$0-stepAct-2-12-s \$0-stepAct-2-12-r empty
17 7 0 10 #007da5 #000000 #000000 0 1;
#X obj 858 302 tgl 55 0 \$0-stepAct-2-13-s \$0-stepAct-2-13-r empty
17 7 0 10 #82cdcd #000000 #000000 0 1;
#X obj 913 302 tgl 55 0 \$0-stepAct-2-14-s \$0-stepAct-2-14-r empty
17 7 0 10 #82cdcd #000000 #000000 0 1;
#X obj 968 302 tgl 55 0 \$0-stepAct-2-15-s \$0-stepAct-2-15-r empty
17 7 0 10 #82cdd7 #000000 #000000 0 1;
#X text 102 207 KICK;
#X text 95 263 SNARE;
#X text 95 319 HIHAT;
#X obj 11 11 cnv 15 1078 100 empty empty empty 20 12 0 14 #9bd2d2 #404040
0;
#X obj 456 44 tgl 40 0 \$0-play empty empty 17 7 0 10 #007da5 #000000
#000000 0 1;
#X text 460 25 PLAY;
#X obj 660 44 hsl 128 40 0 1 0 0 \$0-mainvolume-s \$0-mainvolume-r
MAIN\\\ VOLUME -2 -8 0 10 #00324b #ffffff #000000 0 1;
#X floatatom 88 44 5 0 0 0 - \$0-bpm-display - 24;
#X text 87 78 BPM;
#X text 60 375 OPEN HIHAT;
#X text 102 431 CLAP;
#X text 109 487 TOM;
#X text 88 543 CYMBAL;
#X obj 143 357 tgl 55 0 \$0-stepAct-3-0-s \$0-stepAct-3-0-r empty 17
7 0 10 #007da5 #000000 #000000 0 1;
#X obj 143 412 tgl 55 0 \$0-stepAct-4-0-s \$0-stepAct-4-0-r empty 17
7 0 10 #007da5 #000000 #000000 0 1;
#X obj 143 467 tgl 55 0 \$0-stepAct-5-0-s \$0-stepAct-5-0-r empty 17
7 0 10 #007da5 #000000 #000000 0 1;
#X obj 143 522 tgl 55 0 \$0-stepAct-6-0-s \$0-stepAct-6-0-r empty 17
7 0 10 #007da5 #000000 #000000 0 1;
#X obj 198 357 tgl 55 0 \$0-stepAct-3-1-s \$0-stepAct-3-1-r empty 17
7 0 10 #82cdcd #000000 #000000 0 1;
#X obj 198 412 tgl 55 0 \$0-stepAct-4-1-s \$0-stepAct-4-1-r empty 17
7 0 10 #82cdcd #000000 #000000 0 1;
#X obj 198 467 tgl 55 0 \$0-stepAct-5-1-s \$0-stepAct-5-1-r empty 17
7 0 10 #82cdcd #000000 #000000 0 1;
#X obj 198 522 tgl 55 0 \$0-stepAct-6-1-s \$0-stepAct-6-1-r empty 17
7 0 10 #82cdcd #000000 #000000 0 1;
#X obj 253 357 tgl 55 0 \$0-stepAct-3-2-s \$0-stepAct-3-2-r empty 17
7 0 10 #82cdcd #000000 #000000 0 1;
#X obj 253 412 tgl 55 0 \$0-stepAct-4-2-s \$0-stepAct-4-2-r empty 17
7 0 10 #82cdcd #000000 #000000 0 1;
#X obj 253 467 tgl 55 0 \$0-stepAct-5-2-s \$0-stepAct-5-2-r empty 17
7 0 10 #82cdcd #000000 #000000 0 1;
#X obj 253 522 tgl 55 0 \$0-stepAct-6-2-s \$0-stepAct-6-2-r empty 17
7 0 10 #82cdcd #000000 #000000 0 1;
#X obj 308 357 tgl 55 0 \$0-stepAct-3-3-s \$0-stepAct-3-3-r empty 17
7 0 10 #82cdd7 #000000 #000000 0 1;
#X obj 308 412 tgl 55 0 \$0-stepAct-4-3-s \$0-stepAct-4-3-r empty 17
7 0 10 #82cdd7 #000000 #000000 0 1;
#X obj 308 467 tgl 55 0 \$0-stepAct-5-3-s \$0-stepAct-5-3-r empty 17
7 0 10 #82cdd7 #000000 #000000 0 1;
#X obj 308 522 tgl 55 0 \$0-stepAct-6-3-s \$0-stepAct-6-3-r empty 17
7 0 10 #82cdd7 #000000 #000000 0 1;
#X obj 363 357 tgl 55 0 \$0-stepAct-3-4-s \$0-stepAct-3-4-r empty 17
7 0 10 #007da5 #000000 #000000 0 1;
#X obj 363 412 tgl 55 0 \$0-stepAct-4-4-s \$0-stepAct-4-4-r empty 17
7 0 10 #007da5 #000000 #000000 0 1;
#X obj 363 467 tgl 55 0 \$0-stepAct-5-4-s \$0-stepAct-5-4-r empty 17
7 0 10 #007da5 #000000 #000000 0 1;
#X obj 363 522 tgl 55 0 \$0-stepAct-6-4-s \$0-stepAct-6-4-r empty 17
7 0 10 #007da5 #000000 #000000 0 1;
#X obj 418 357 tgl 55 0 \$0-stepAct-3-5-s \$0-stepAct-3-5-r empty 17
7 0 10 #82cdcd #000000 #000000 0 1;
#X obj 418 412 tgl 55 0 \$0-stepAct-4-5-s \$0-stepAct-4-5-r empty 17
7 0 10 #82cdcd #000000 #000000 0 1;
#X obj 418 467 tgl 55 0 \$0-stepAct-5-5-s \$0-stepAct-5-5-r empty 17
7 0 10 #82cdcd #000000 #000000 0 1;
#X obj 418 522 tgl 55 0 \$0-stepAct-6-5-s \$0-stepAct-6-5-r empty 17
7 0 10 #82cdcd #000000 #000000 0 1;
#X obj 473 357 tgl 55 0 \$0-stepAct-3-6-s \$0-stepAct-3-6-r empty 17
7 0 10 #82cdcd #000000 #000000 0 1;
#X obj 473 412 tgl 55 0 \$0-stepAct-4-6-s \$0-stepAct-4-6-r empty 17
7 0 10 #82cdcd #000000 #000000 0 1;
#X obj 473 467 tgl 55 0 \$0-stepAct-5-6-s \$0-stepAct-5-6-r empty 17
7 0 10 #82cdcd #000000 #000000 0 1;
#X obj 473 522 tgl 55 0 \$0-stepAct-6-6-s \$0-stepAct-6-6-r empty 17
7 0 10 #82cdcd #000000 #000000 0 1;
#X obj 528 357 tgl 55 0 \$0-stepAct-3-7-s \$0-stepAct-3-7-r empty 17
7 0 10 #82cdd7 #000000 #000000 0 1;
#X obj 528 412 tgl 55 0 \$0-stepAct-4-7-s \$0-stepAct-4-7-r empty 17
7 0 10 #82cdd7 #000000 #000000 0 1;
#X obj 528 467 tgl 55 0 \$0-stepAct-5-7-s \$0-stepAct-5-7-r empty 17
7 0 10 #82cdd7 #000000 #000000 0 1;
#X obj 528 522 tgl 55 0 \$0-stepAct-6-7-s \$0-stepAct-6-7-r empty 17
7 0 10 #82cdd7 #000000 #000000 0 1;
#X obj 583 357 tgl 55 0 \$0-stepAct-3-8-s \$0-stepAct-3-8-r empty 17
7 0 10 #007da5 #000000 #000000 0 1;
#X obj 583 412 tgl 55 0 \$0-stepAct-4-8-s \$0-stepAct-4-8-r empty 17
7 0 10 #007da5 #000000 #000000 0 1;
#X obj 583 467 tgl 55 0 \$0-stepAct-5-8-s \$0-stepAct-5-8-r empty 17
7 0 10 #007da5 #000000 #000000 0 1;
#X obj 583 522 tgl 55 0 \$0-stepAct-6-8-s \$0-stepAct-6-8-r empty 17
7 0 10 #007da5 #000000 #000000 0 1;
#X obj 638 357 tgl 55 0 \$0-stepAct-3-9-s \$0-stepAct-3-9-r empty 17
7 0 10 #82cdcd #000000 #000000 0 1;
#X obj 638 412 tgl 55 0 \$0-stepAct-4-9-s \$0-stepAct-4-9-r empty 17
7 0 10 #82cdcd #000000 #000000 0 1;
#X obj 638 467 tgl 55 0 \$0-stepAct-5-9-s \$0-stepAct-5-9-r empty 17
7 0 10 #82cdcd #000000 #000000 0 1;
#X obj 638 522 tgl 55 0 \$0-stepAct-6-9-s \$0-stepAct-6-9-r empty 17
7 0 10 #82cdcd #000000 #000000 0 1;
#X obj 693 357 tgl 55 0 \$0-stepAct-3-10-s \$0-stepAct-3-10-r empty
17 7 0 10 #82cdcd #000000 #000000 0 1;
#X obj 693 412 tgl 55 0 \$0-stepAct-4-10-s \$0-stepAct-4-10-r empty
17 7 0 10 #82cdcd #000000 #000000 0 1;
#X obj 693 467 tgl 55 0 \$0-stepAct-5-10-s \$0-stepAct-5-10-r empty
17 7 0 10 #82cdcd #000000 #000000 0 1;
#X obj 693 522 tgl 55 0 \$0-stepAct-6-10-s \$0-stepAct-6-10-r empty
17 7 0 10 #82cdcd #000000 #000000 0 1;
#X obj 748 357 tgl 55 0 \$0-stepAct-3-11-s \$0-stepAct-3-11-r empty
17 7 0 10 #82cdd7 #000000 #000000 0 1;
#X obj 748 412 tgl 55 0 \$0-stepAct-4-11-s \$0-stepAct-4-11-r empty
17 7 0 10 #82cdd7 #000000 #000000 0 1;
#X obj 748 467 tgl 55 0 \$0-stepAct-5-11-s \$0-stepAct-5-11-r empty
17 7 0 10 #82cdd7 #000000 #000000 0 1;
#X obj 748 522 tgl 55 0 \$0-stepAct-6-11-s \$0-stepAct-6-11-r empty
17 7 0 10 #82cdd7 #000000 #000000 0 1;
#X obj 803 357 tgl 55 0 \$0-stepAct-3-12-s \$0-stepAct-3-12-r empty
17 7 0 10 #007da5 #000000 #000000 0 1;
#X obj 803 412 tgl 55 0 \$0-stepAct-4-12-s \$0-stepAct-4-12-r empty
17 7 0 10 #007da5 #000000 #000000 0 1;
#X obj 803 467 tgl 55 0 \$0-stepAct-5-12-s \$0-stepAct-5-12-r empty
17 7 0 10 #007da5 #000000 #000000 0 1;
#X obj 803 522 tgl 55 0 \$0-stepAct-6-12-s \$0-stepAct-6-12-r empty
17 7 0 10 #007da5 #000000 #000000 0 1;
#X obj 858 357 tgl 55 0 \$0-stepAct-3-13-s \$0-stepAct-3-13-r empty
17 7 0 10 #82cdcd #000000 #000000 0 1;
#X obj 858 412 tgl 55 0 \$0-stepAct-4-13-s \$0-stepAct-4-13-r empty
17 7 0 10 #82cdcd #000000 #000000 0 1;
#X obj 858 467 tgl 55 0 \$0-stepAct-5-13-s \$0-stepAct-5-13-r empty
17 7 0 10 #82cdcd #000000 #000000 0 1;
#X obj 858 522 tgl 55 0 \$0-stepAct-6-13-s \$0-stepAct-6-13-r empty
17 7 0 10 #82cdcd #000000 #000000 0 1;
#X obj 913 357 tgl 55 0 \$0-stepAct-3-14-s \$0-stepAct-3-14-r empty
17 7 0 10 #82cdcd #000000 #000000 0 1;
#X obj 913 412 tgl 55 0 \$0-stepAct-4-14-s \$0-stepAct-4-14-r empty
17 7 0 10 #82cdcd #000000 #000000 0 1;
#X obj 913 467 tgl 55 0 \$0-stepAct-5-14-s \$0-stepAct-5-14-r empty
17 7 0 10 #82cdcd #000000 #000000 0 1;
#X obj 913 522 tgl 55 0 \$0-stepAct-6-14-s \$0-stepAct-6-14-r empty
17 7 0 10 #82cdcd #000000 #000000 0 1;
#X obj 968 357 tgl 55 0 \$0-stepAct-3-15-s \$0-stepAct-3-15-r empty
17 7 0 10 #82cdd7 #000000 #000000 0 1;
#X obj 968 412 tgl 55 0 \$0-stepAct-4-15-s \$0-stepAct-4-15-r empty
17 7 0 10 #82cdd7 #000000 #000000 0 1;
#X obj 968 467 tgl 55 0 \$0-stepAct-5-15-s \$0-stepAct-5-15-r empty
17 7 0 10 #82cdd7 #000000 #000000 0 1;
#X obj 968 522 tgl 55 0 \$0-stepAct-6-15-s \$0-stepAct-6-15-r empty
17 7 0 10 #82cdd7 #000000 #000000 0 1;
#X obj 150 641 hradio 45 1 0 4 \$0-drumkits-s \$0-drumkits-r DRUM\ BANK
0 -8 0 10 #fcfcfc #000000 #000000 0;
#X obj 862 641 hsl 128 45 60 180 0 0 \$0-bpm-in \$0-bpm-out BPM -2
-8 0 10 #fcfcfc #000000 #000000 0 1;
#X coords 0 -1 1 1 1080 720 1 10 10;
