#N canvas 641 130 561 381 12;
#N canvas 294 149 571 300 menu_superlooper 0;
#X obj 35 24 r \$0-option1-s;
#X msg 35 103 0;
#X obj 81 63 r \$0-option2-s;
#X msg 81 103 1;
#N canvas 478 45 1100 743 menu-option1 0;
#X obj 5 7 page4;
#X restore 378 142 pd menu-option1;
#N canvas 123 86 518 520 menu-option2 0;
#X text 139 109 GG;
#X obj 7 6 drumbox_app;
#X restore 378 163 pd menu-option2;
#X msg 35 197 vis \$1;
#X msg 170 234 vis \$1;
#X obj 35 264 s pd-menu-option1;
#X obj 170 264 s pd-menu-option2;
#X obj 378 56 loadbang;
#X msg 378 89 \; pd-menu-option1 vis \$1;
#X obj 35 147 tgl 30 0 empty empty empty 17 7 0 10 #fcfcfc #000000
#000000 0 1;
#X obj 170 206 == 0;
#X connect 0 0 1 0;
#X connect 1 0 12 0;
#X connect 2 0 3 0;
#X connect 3 0 12 0;
#X connect 6 0 8 0;
#X connect 7 0 9 0;
#X connect 10 0 11 0;
#X connect 12 0 6 0;
#X connect 12 0 13 0;
#X connect 13 0 7 0;
#X restore 411 349 pd menu_superlooper;
#X obj 11 11 cnv 15 538 358 empty empty empty 20 12 0 14 #e0e0e0 #404040
0;
#X obj 89 156 bng 150 250 50 0 \$0-option1-s \$0-option1-r empty 17
7 0 10 #fcfcfc #000000 #000000;
#X obj 332 157 bng 150 250 50 0 \$0-option2-s \$0-option2-r empty 17
7 0 10 #fcfcfc #000000 #000000;
#X text 229 35 MENU PRINCIPAL;
#X text 139 134 DRUMBOX;
#X text 378 136 SEQUENCER;
#X coords 0 -1 1 1 540 360 1 10 10;
