#N canvas 659 160 827 662 10;
#X floatatom 269 221 5 0 0 0 - - - 0;
#X obj 269 243 /;
#X obj 269 159 t b f, f 3;
#X msg 269 199 60000;
#X floatatom 269 136 5 0 0 0 - - - 0;
#X obj 160 358 i;
#X obj 130 320 metro, f 24;
#X obj 130 376 bng 15 250 50 0 empty empty empty 17 7 0 10 #fcfcfc
#000000 #000000;
#X obj 130 411 outlet;
#X obj 130 280 tgl 15 0 empty empty empty 17 7 0 10 #fcfcfc #000000
#000000 0 1;
#X text 119 430 Trigger on beat;
#X obj 197 27 inlet;
#X text 192 8 activate;
#X obj 197 53 s activate_metro;
#X obj 130 256 r activate_metro;
#X obj 129 24 inlet;
#X text 134 11 BPM;
#X obj 129 50 s bpm;
#X obj 269 112 r bpm;
#X floatatom 271 290 5 0 0 0 - - - 0;
#X obj 299 323 s time_step;
#X obj 269 271 / 4;
#X connect 0 0 1 0;
#X connect 1 0 21 0;
#X connect 2 0 3 0;
#X connect 2 1 1 1;
#X connect 3 0 0 0;
#X connect 4 0 2 0;
#X connect 6 0 5 0;
#X connect 6 0 7 0;
#X connect 7 0 8 0;
#X connect 9 0 6 0;
#X connect 11 0 13 0;
#X connect 14 0 9 0;
#X connect 15 0 17 0;
#X connect 18 0 4 0;
#X connect 19 0 6 1;
#X connect 19 0 20 0;
#X connect 21 0 19 0;
