#N canvas 74 25 1335 777 12;
#X obj 10 10 cnv 15 1080 720 empty empty empty 20 12 0 14 #cddcdc #404040
0;
#X obj 84 85 cnv 15 450 450 empty empty empty 20 12 0 14 #82cbd5 #404040
0;
#X obj 84 556 cnv 15 450 100 empty empty empty 20 12 0 14 #82ccd6 #404040
0;
#N canvas 613 139 358 381 drumkeys 0;
#X obj 45 41 key;
#X msg 45 93 1;
#X obj 142 40 key;
#X msg 142 92 1;
#X obj 241 40 key;
#X msg 241 92 1;
#X obj 45 68 select 113;
#X obj 142 67 select 119;
#X obj 241 67 select 101;
#X obj 48 144 key;
#X msg 48 196 1;
#X obj 145 143 key;
#X msg 145 195 1;
#X obj 244 143 key;
#X msg 244 195 1;
#X obj 48 171 select 97;
#X obj 145 170 select 115;
#X obj 244 170 select 100;
#X obj 50 248 key;
#X msg 50 300 1;
#X obj 147 249 key;
#X msg 147 301 1;
#X obj 244 250 key;
#X msg 244 302 1;
#X obj 50 275 select 122;
#X obj 147 276 select 120;
#X obj 244 277 select 99;
#X obj 45 117 s q-click1;
#X obj 142 116 s w-click2;
#X obj 241 116 s e-click3;
#X obj 48 220 s a-click4;
#X obj 145 219 s s-click5;
#X obj 244 219 s d-click6;
#X obj 50 324 s z-click7;
#X obj 147 325 s x-click8;
#X obj 244 326 s c-click9;
#X connect 0 0 6 0;
#X connect 1 0 27 0;
#X connect 2 0 7 0;
#X connect 3 0 28 0;
#X connect 4 0 8 0;
#X connect 5 0 29 0;
#X connect 6 0 1 0;
#X connect 7 0 3 0;
#X connect 8 0 5 0;
#X connect 9 0 15 0;
#X connect 10 0 30 0;
#X connect 11 0 16 0;
#X connect 12 0 31 0;
#X connect 13 0 17 0;
#X connect 14 0 32 0;
#X connect 15 0 10 0;
#X connect 16 0 12 0;
#X connect 17 0 14 0;
#X connect 18 0 24 0;
#X connect 19 0 33 0;
#X connect 20 0 25 0;
#X connect 21 0 34 0;
#X connect 22 0 26 0;
#X connect 23 0 35 0;
#X connect 24 0 19 0;
#X connect 25 0 21 0;
#X connect 26 0 23 0;
#X restore 1096 10 pd drumkeys;
#N canvas 557 199 263 192 keys 0;
#X obj 109 37 keyup;
#X obj 34 37 key;
#X msg 34 85 1;
#X obj 34 155 s \$0-1c;
#X msg 109 86 0;
#X obj 34 61 select 32;
#X connect 0 0 4 0;
#X connect 1 0 5 0;
#X connect 5 0 2 0;
#X restore 1096 33 pd keys;
#N canvas 668 220 246 383 FX 0;
#N canvas 174 83 624 510 drums 0;
#N canvas 94 94 1199 364 initA 0;
#X obj 463 13 loadbang;
#X obj 455 142 soundfiler;
#X obj 549 289 *~ 0.5;
#X obj 549 314 outlet~;
#N canvas 299 239 632 176 kicks_arrays 0;
#N canvas 0 22 450 278 (subpatch) 0;
#X array A_kick_1 27514 float 0;
#X coords 0 1 27513 -1 200 140 1;
#X restore 12 25 graph;
#N canvas 0 22 450 278 (subpatch) 0;
#X array A_kick_2 31313 float 0;
#X coords 0 1 31312 -1 200 140 1;
#X restore 215 25 graph;
#N canvas 0 22 450 278 (subpatch) 0;
#X array A_kick_3 34580 float 0;
#X coords 0 1 34579 -1 200 140 1;
#X restore 418 25 graph;
#X restore 1074 50 pd kicks_arrays;
#N canvas 305 101 635 182 snare_arrays 0;
#N canvas 0 22 450 278 (subpatch) 0;
#X array A_snare_1 7954 float 0;
#X coords 0 1 7953 -1 200 140 1;
#X restore 13 27 graph;
#N canvas 0 22 450 278 (subpatch) 0;
#X array A_snare_2 36073 float 0;
#X coords 0 1 36072 -1 200 140 1;
#X restore 217 27 graph;
#N canvas 0 22 450 278 (subpatch) 0;
#X array A_snare_3 17777 float 0;
#X coords 0 1 17776 -1 200 140 1;
#X restore 421 27 graph;
#X restore 1074 74 pd snare_arrays;
#N canvas 486 201 634 176 other_arrays 0;
#N canvas 0 22 450 278 (subpatch) 0;
#X array A_hh 18257 float 0;
#X coords 0 1 18256 -1 200 140 1;
#X restore 13 23 graph;
#N canvas 0 22 450 278 (subpatch) 0;
#X array A_openhihat 34300 float 0;
#X coords 0 1 34299 -1 200 140 1;
#X restore 217 23 graph;
#N canvas 0 22 450 278 (subpatch) 0;
#X array A_tom 32979 float 0;
#X coords 0 1 32978 -1 200 140 1;
#X restore 421 23 graph;
#X restore 1074 98 pd other_arrays;
#X obj 20 191 r click1;
#X obj 147 191 r click2;
#X obj 274 191 r click3;
#X obj 402 191 r click4;
#X obj 537 191 r click5;
#X obj 672 191 r click6;
#X obj 807 191 r click7;
#X obj 907 191 r click8;
#X obj 1056 191 r click9;
#X msg 16 51 read -resize sounds/kitA/A_kick_1.wav A_kick_1;
#X msg 16 75 read -resize sounds/kitA/A_kick_2.wav A_kick_2;
#X msg 16 100 read -resize sounds/kitA/A_kick_3.wav A_kick_3;
#X msg 346 51 read -resize sounds/kitA/A_snare_1.wav A_snare_1;
#X msg 345 76 read -resize sounds/kitA/A_snare_2.wav A_snare_2;
#X msg 346 101 read -resize sounds/kitA/A_snare_3.wav A_snare_3;
#X msg 695 51 read -resize sounds/kitA/A_hh.wav A_hh;
#X msg 696 76 read -resize sounds/kitA/A_openhihat.wav A_openhihat
;
#X msg 697 100 read -resize sounds/kitA/A_tom.wav A_tom;
#X obj 20 214 tabplay~ A_kick_1;
#X obj 147 214 tabplay~ A_kick_2;
#X obj 274 214 tabplay~ A_kick_3;
#X obj 402 214 tabplay~ A_snare_1;
#X obj 537 214 tabplay~ A_snare_2;
#X obj 672 214 tabplay~ A_snare_3;
#X obj 807 214 tabplay~ A_hh;
#X obj 907 214 tabplay~ A_openhihat;
#X obj 1056 214 tabplay~ A_tom;
#X connect 0 0 16 0;
#X connect 0 0 17 0;
#X connect 0 0 23 0;
#X connect 0 0 18 0;
#X connect 0 0 24 0;
#X connect 0 0 19 0;
#X connect 0 0 20 0;
#X connect 0 0 21 0;
#X connect 0 0 22 0;
#X connect 2 0 3 0;
#X connect 7 0 25 0;
#X connect 8 0 26 0;
#X connect 9 0 27 0;
#X connect 10 0 28 0;
#X connect 11 0 29 0;
#X connect 12 0 30 0;
#X connect 13 0 31 0;
#X connect 14 0 32 0;
#X connect 15 0 33 0;
#X connect 16 0 1 0;
#X connect 17 0 1 0;
#X connect 18 0 1 0;
#X connect 19 0 1 0;
#X connect 20 0 1 0;
#X connect 21 0 1 0;
#X connect 22 0 1 0;
#X connect 23 0 1 0;
#X connect 24 0 1 0;
#X connect 25 0 2 0;
#X connect 26 0 2 0;
#X connect 27 0 2 0;
#X connect 28 0 2 0;
#X connect 29 0 2 0;
#X connect 30 0 2 0;
#X connect 31 0 2 0;
#X connect 32 0 2 0;
#X connect 33 0 2 0;
#X restore 13 24 pd initA;
#X obj 106 261 *~;
#X obj 143 133 select 0;
#X msg 143 188 1 10;
#X msg 196 188 0 10;
#X obj 124 230 line~;
#X obj 176 425 *~;
#X obj 474 354 / 127;
#X msg 474 379 \$1 15;
#X obj 474 403 line~;
#N canvas 149 115 1202 355 initB 0;
#X obj 463 13 loadbang;
#X obj 455 142 soundfiler;
#X obj 549 289 *~ 0.5;
#X obj 549 314 outlet~;
#N canvas 480 184 632 176 kicks_arrays 0;
#N canvas 0 22 450 278 (subpatch) 0;
#X array B_kick_1 39717 float 0;
#X coords 0 1 39716 -1 200 140 1;
#X restore 12 25 graph;
#N canvas 0 22 450 278 (subpatch) 0;
#X array B_kick_2 11400 float 0;
#X coords 0 1 11399 -1 200 140 1;
#X restore 215 25 graph;
#N canvas 0 22 450 278 (subpatch) 0;
#X array B_kick_3 8525 float 0;
#X coords 0 1 8524 -1 200 140 1;
#X restore 418 25 graph;
#X restore 1074 50 pd kicks_arrays;
#N canvas 305 101 635 182 snare_arrays 0;
#N canvas 0 22 450 278 (subpatch) 0;
#X array B_snare_1 39690 float 0;
#X coords 0 1 39689 -1 200 140 1;
#X restore 13 27 graph;
#N canvas 0 22 450 278 (subpatch) 0;
#X array B_snare_2 11587 float 0;
#X coords 0 1 11586 -1 200 140 1;
#X restore 217 27 graph;
#N canvas 0 22 450 278 (subpatch) 0;
#X array B_snare_3 28914 float 0;
#X coords 0 1 28913 -1 200 140 1;
#X restore 421 27 graph;
#X restore 1074 74 pd snare_arrays;
#N canvas 486 201 634 176 other_arrays 0;
#N canvas 0 22 450 278 (subpatch) 0;
#X array B_hh 13759 float 0;
#X coords 0 1 13758 -1 200 140 1;
#X restore 13 23 graph;
#N canvas 0 22 450 278 (subpatch) 0;
#X array B_openhihat 57315 float 0;
#X coords 0 1 57314 -1 200 140 1;
#X restore 217 23 graph;
#N canvas 0 22 450 278 (subpatch) 0;
#X array B_tom 52920 float 0;
#X coords 0 1 52919 -1 200 140 1;
#X restore 421 23 graph;
#X restore 1074 98 pd other_arrays;
#X obj 20 191 r click1;
#X obj 147 191 r click2;
#X obj 274 191 r click3;
#X obj 401 191 r click4;
#X obj 535 191 r click5;
#X obj 669 191 r click6;
#X obj 803 191 r click7;
#X obj 904 190 r click8;
#X obj 1053 190 r click9;
#X msg 16 51 read -resize sounds/kitB/B_kick_1.wav B_kick_1;
#X msg 16 75 read -resize sounds/kitB/B_kick_2.wav B_kick_2;
#X msg 16 100 read -resize sounds/kitB/B_kick_3.wav B_kick_3;
#X msg 346 51 read -resize sounds/kitB/B_snare_1.wav B_snare_1;
#X msg 345 76 read -resize sounds/kitB/B_snare_2.wav B_snare_2;
#X msg 346 101 read -resize sounds/kitB/B_snare_3.wav B_snare_3;
#X msg 695 51 read -resize sounds/kitB/B_hh.wav B_hh;
#X msg 696 76 read -resize sounds/kitB/B_openhihat.wav B_openhihat
;
#X msg 697 100 read -resize sounds/kitB/B_tom.wav B_tom;
#X obj 20 214 tabplay~ B_kick_1;
#X obj 147 214 tabplay~ B_kick_2;
#X obj 274 214 tabplay~ B_kick_3;
#X obj 401 214 tabplay~ B_snare_1;
#X obj 535 214 tabplay~ B_snare_2;
#X obj 669 214 tabplay~ B_snare_3;
#X obj 803 214 tabplay~ B_hh;
#X obj 904 213 tabplay~ B_openhihat;
#X obj 1053 213 tabplay~ B_tom;
#X connect 0 0 16 0;
#X connect 0 0 17 0;
#X connect 0 0 23 0;
#X connect 0 0 18 0;
#X connect 0 0 24 0;
#X connect 0 0 19 0;
#X connect 0 0 20 0;
#X connect 0 0 21 0;
#X connect 0 0 22 0;
#X connect 2 0 3 0;
#X connect 7 0 25 0;
#X connect 8 0 26 0;
#X connect 9 0 27 0;
#X connect 10 0 28 0;
#X connect 11 0 29 0;
#X connect 12 0 30 0;
#X connect 13 0 31 0;
#X connect 14 0 32 0;
#X connect 15 0 33 0;
#X connect 16 0 1 0;
#X connect 17 0 1 0;
#X connect 18 0 1 0;
#X connect 19 0 1 0;
#X connect 20 0 1 0;
#X connect 21 0 1 0;
#X connect 22 0 1 0;
#X connect 23 0 1 0;
#X connect 24 0 1 0;
#X connect 25 0 2 0;
#X connect 26 0 2 0;
#X connect 27 0 2 0;
#X connect 28 0 2 0;
#X connect 29 0 2 0;
#X connect 30 0 2 0;
#X connect 31 0 2 0;
#X connect 32 0 2 0;
#X connect 33 0 2 0;
#X restore 79 24 pd initB;
#X obj 255 133 select 1;
#X msg 255 188 1 10;
#X msg 308 188 0 10;
#X obj 236 230 line~;
#X obj 218 264 *~;
#N canvas 173 157 1200 361 initC 0;
#X obj 463 13 loadbang;
#X obj 455 142 soundfiler;
#X obj 549 289 *~ 0.5;
#X obj 549 314 outlet~;
#N canvas 480 184 632 176 kicks_arrays 0;
#N canvas 0 22 450 278 (subpatch) 0;
#X array C_kick_1 31998 float 0;
#X coords 0 1 31997 -1 200 140 1;
#X restore 12 25 graph;
#N canvas 0 22 450 278 (subpatch) 0;
#X array C_kick_2 9404 float 0;
#X coords 0 1 9403 -1 200 140 1;
#X restore 215 25 graph;
#N canvas 0 22 450 278 (subpatch) 0;
#X array C_kick_3 80832 float 0;
#X coords 0 1 80831 -1 200 140 1;
#X restore 418 25 graph;
#X restore 1074 50 pd kicks_arrays;
#N canvas 305 101 635 182 snare_arrays 0;
#N canvas 0 22 450 278 (subpatch) 0;
#X array C_snare_1 14905 float 0;
#X coords 0 1 14904 -1 200 140 1;
#X restore 13 27 graph;
#N canvas 0 22 450 278 (subpatch) 0;
#X array C_snare_2 15045 float 0;
#X coords 0 1 15044 -1 200 140 1;
#X restore 217 27 graph;
#N canvas 0 22 450 278 (subpatch) 0;
#X array C_snare_3 13283 float 0;
#X coords 0 1 13282 -1 200 140 1;
#X restore 421 27 graph;
#X restore 1074 74 pd snare_arrays;
#N canvas 486 201 634 176 other_arrays 0;
#N canvas 0 22 450 278 (subpatch) 0;
#X array C_hh 5755 float 0;
#X coords 0 1 5754 -1 200 140 1;
#X restore 13 23 graph;
#N canvas 0 22 450 278 (subpatch) 0;
#X array C_clap 33356 float 0;
#X coords 0 1 33355 -1 200 140 1;
#X restore 217 23 graph;
#N canvas 0 22 450 278 (subpatch) 0;
#X array C_cymbal 18308 float 0;
#X coords 0 1 18307 -1 200 140 1;
#X restore 421 23 graph;
#X restore 1074 98 pd other_arrays;
#X obj 20 191 r click1;
#X obj 147 191 r click2;
#X obj 274 191 r click3;
#X obj 401 191 r click4;
#X obj 535 191 r click5;
#X obj 669 191 r click6;
#X obj 803 191 r click7;
#X obj 904 191 r click8;
#X obj 1019 190 r click9;
#X msg 16 51 read -resize sounds/kitC/C_kick_1.wav C_kick_1;
#X msg 16 75 read -resize sounds/kitC/C_kick_2.wav C_kick_2;
#X msg 16 100 read -resize sounds/kitC/C_kick_3.wav C_kick_3;
#X msg 346 51 read -resize sounds/kitC/C_snare_1.wav C_snare_1;
#X msg 345 76 read -resize sounds/kitC/C_snare_2.wav C_snare_2;
#X msg 346 101 read -resize sounds/kitC/C_snare_3.wav C_snare_3;
#X msg 695 51 read -resize sounds/kitC/C_hh.wav C_hh;
#X msg 696 76 read -resize sounds/kitC/C_clap.wav C_clap;
#X msg 697 100 read -resize sounds/kitC/C_cymbal.wav C_cymbal;
#X obj 20 214 tabplay~ C_kick_1;
#X obj 147 214 tabplay~ C_kick_2;
#X obj 274 214 tabplay~ C_kick_3;
#X obj 401 214 tabplay~ C_snare_1;
#X obj 535 214 tabplay~ C_snare_2;
#X obj 669 214 tabplay~ C_snare_3;
#X obj 803 214 tabplay~ C_hh;
#X obj 904 214 tabplay~ C_clap;
#X obj 1019 213 tabplay~ C_cymbal;
#X connect 0 0 16 0;
#X connect 0 0 17 0;
#X connect 0 0 23 0;
#X connect 0 0 18 0;
#X connect 0 0 24 0;
#X connect 0 0 19 0;
#X connect 0 0 20 0;
#X connect 0 0 21 0;
#X connect 0 0 22 0;
#X connect 2 0 3 0;
#X connect 7 0 25 0;
#X connect 8 0 26 0;
#X connect 9 0 27 0;
#X connect 10 0 28 0;
#X connect 11 0 29 0;
#X connect 12 0 30 0;
#X connect 13 0 31 0;
#X connect 14 0 32 0;
#X connect 15 0 33 0;
#X connect 16 0 1 0;
#X connect 17 0 1 0;
#X connect 18 0 1 0;
#X connect 19 0 1 0;
#X connect 20 0 1 0;
#X connect 21 0 1 0;
#X connect 22 0 1 0;
#X connect 23 0 1 0;
#X connect 24 0 1 0;
#X connect 25 0 2 0;
#X connect 26 0 2 0;
#X connect 27 0 2 0;
#X connect 28 0 2 0;
#X connect 29 0 2 0;
#X connect 30 0 2 0;
#X connect 31 0 2 0;
#X connect 32 0 2 0;
#X connect 33 0 2 0;
#X restore 149 25 pd initC;
#X obj 393 133 select 2;
#X msg 390 193 1 10;
#X msg 443 193 0 10;
#X obj 371 235 line~;
#X obj 353 267 *~;
#X obj 517 131 select 3;
#X msg 518 188 1 10;
#X msg 571 188 0 10;
#X obj 499 230 line~;
#X obj 481 270 *~;
#N canvas 63 131 1358 648 initD 0;
#X obj 463 13 loadbang;
#X obj 455 142 soundfiler;
#X obj 549 289 *~ 0.5;
#X obj 549 314 outlet~;
#N canvas 480 184 632 176 kicks_arrays 0;
#N canvas 0 22 450 278 (subpatch) 0;
#X array D_kick_1 41687 float 0;
#X coords 0 1 41686 -1 200 140 1;
#X restore 12 25 graph;
#N canvas 0 22 450 278 (subpatch) 0;
#X array D_kick_2 13624 float 0;
#X coords 0 1 13623 -1 200 140 1;
#X restore 215 25 graph;
#N canvas 0 22 450 278 (subpatch) 0;
#X array D_kick_3 15699 float 0;
#X coords 0 1 15698 -1 200 140 1;
#X restore 418 25 graph;
#X restore 1074 50 pd kicks_arrays;
#N canvas 305 101 635 182 snare_arrays 0;
#N canvas 0 22 450 278 (subpatch) 0;
#X array D_snare_1 25170 float 0;
#X coords 0 1 25169 -1 200 140 1;
#X restore 13 27 graph;
#N canvas 0 22 450 278 (subpatch) 0;
#X array D_snare_2 9632 float 0;
#X coords 0 1 9631 -1 200 140 1;
#X restore 217 27 graph;
#N canvas 0 22 450 278 (subpatch) 0;
#X array D_snare_3 45361 float 0;
#X coords 0 1 45360 -1 200 140 1;
#X restore 421 27 graph;
#X restore 1074 74 pd snare_arrays;
#N canvas 486 201 634 176 other_arrays 0;
#N canvas 0 22 450 278 (subpatch) 0;
#X array D_hh 13671 float 0;
#X coords 0 1 13670 -1 200 140 1;
#X restore 13 23 graph;
#N canvas 0 22 450 278 (subpatch) 0;
#X array D_clap 8267 float 0;
#X coords 0 1 8266 -1 200 140 1;
#X restore 217 23 graph;
#N canvas 0 22 450 278 (subpatch) 0;
#X array D_cymbal 33792 float 0;
#X coords 0 1 33791 -1 200 140 1;
#X restore 421 23 graph;
#X restore 1074 98 pd other_arrays;
#X obj 20 191 r click1;
#X obj 147 191 r click2;
#X obj 274 191 r click3;
#X obj 401 191 r click4;
#X obj 535 191 r click5;
#X obj 669 191 r click6;
#X obj 803 191 r click7;
#X obj 904 191 r click8;
#X obj 1019 190 r click9;
#X msg 16 51 read -resize sounds/kitD/D_kick_1.wav D_kick_1;
#X msg 16 75 read -resize sounds/kitD/D_kick_2.wav D_kick_2;
#X msg 16 100 read -resize sounds/kitD/D_kick_3.wav D_kick_3;
#X msg 346 51 read -resize sounds/kitD/D_snare_1.wav D_snare_1;
#X msg 345 76 read -resize sounds/kitD/D_snare_2.wav D_snare_2;
#X msg 346 101 read -resize sounds/kitD/D_snare_3.wav D_snare_3;
#X msg 696 76 read -resize sounds/kitD/D_clap.wav D_clap;
#X msg 695 51 read -resize sounds/kitD/D_hh.wav D_hh;
#X msg 697 100 read -resize sounds/kitD/D_cymbal.wav D_cymbal;
#X obj 20 214 tabplay~ D_kick_1;
#X obj 147 214 tabplay~ D_kick_2;
#X obj 274 214 tabplay~ D_kick_3;
#X obj 401 214 tabplay~ D_snare_1;
#X obj 535 214 tabplay~ D_snare_2;
#X obj 669 214 tabplay~ D_snare_3;
#X obj 803 214 tabplay~ D_hh;
#X obj 904 214 tabplay~ D_clap;
#X obj 1019 213 tabplay~ D_cymbal;
#X connect 0 0 16 0;
#X connect 0 0 17 0;
#X connect 0 0 22 0;
#X connect 0 0 18 0;
#X connect 0 0 24 0;
#X connect 0 0 19 0;
#X connect 0 0 20 0;
#X connect 0 0 21 0;
#X connect 0 0 23 0;
#X connect 2 0 3 0;
#X connect 7 0 25 0;
#X connect 8 0 26 0;
#X connect 9 0 27 0;
#X connect 10 0 28 0;
#X connect 11 0 29 0;
#X connect 12 0 30 0;
#X connect 13 0 31 0;
#X connect 14 0 32 0;
#X connect 15 0 33 0;
#X connect 16 0 1 0;
#X connect 17 0 1 0;
#X connect 18 0 1 0;
#X connect 19 0 1 0;
#X connect 20 0 1 0;
#X connect 21 0 1 0;
#X connect 22 0 1 0;
#X connect 23 0 1 0;
#X connect 24 0 1 0;
#X connect 25 0 2 0;
#X connect 26 0 2 0;
#X connect 27 0 2 0;
#X connect 28 0 2 0;
#X connect 29 0 2 0;
#X connect 30 0 2 0;
#X connect 31 0 2 0;
#X connect 32 0 2 0;
#X connect 33 0 2 0;
#X restore 224 25 pd initD;
#N canvas 587 177 450 300 init 0;
#X obj 47 40 loadbang;
#X msg 47 92 \; pd dsp 1 \; drumvol 60 \; drumkit 1 \;;
#X connect 0 0 1 0;
#X restore 492 18 pd init;
#X obj 176 456 outlet~;
#X obj 240 70 r drumkit;
#X obj 474 329 r drumvol;
#X connect 0 0 1 0;
#X connect 1 0 6 0;
#X connect 2 0 3 0;
#X connect 2 1 4 0;
#X connect 3 0 5 0;
#X connect 4 0 5 0;
#X connect 5 0 1 1;
#X connect 6 0 29 0;
#X connect 7 0 8 0;
#X connect 8 0 9 0;
#X connect 9 0 6 1;
#X connect 10 0 15 0;
#X connect 11 0 12 0;
#X connect 11 1 13 0;
#X connect 12 0 14 0;
#X connect 13 0 14 0;
#X connect 14 0 15 1;
#X connect 15 0 6 0;
#X connect 16 0 21 0;
#X connect 17 0 18 0;
#X connect 17 1 19 0;
#X connect 18 0 20 0;
#X connect 19 0 20 0;
#X connect 20 0 21 1;
#X connect 21 0 6 0;
#X connect 22 0 23 0;
#X connect 22 1 24 0;
#X connect 23 0 25 0;
#X connect 24 0 25 0;
#X connect 25 0 26 1;
#X connect 26 0 6 0;
#X connect 27 0 26 0;
#X connect 30 0 2 0;
#X connect 30 0 11 0;
#X connect 30 0 17 0;
#X connect 30 0 22 0;
#X connect 31 0 7 0;
#X restore 41 45 pd drums;
#N canvas 254 155 652 523 keyboard 0;
#X obj 25 38 poly 4 1;
#X obj 25 63 pack 0 0 0;
#X obj 25 88 route 1 2 3 4;
#N canvas 0 25 1440 778 note 0;
#X obj 49 344 select 1, f 9;
#X obj 139 344 select 1, f 9;
#X obj 229 344 select 1, f 9;
#X obj 593 652 outlet;
#X obj 329 344 select 1, f 9;
#X obj 429 344 select 1, f 9;
#X obj 519 344 select 1, f 9;
#X obj 609 344 select 1, f 9;
#X obj 699 344 select 1, f 9;
#X obj 799 344 select 1, f 9;
#X obj 889 344 select 1, f 9;
#X obj 979 344 select 1, f 9;
#X obj 1069 344 select 1, f 9;
#X msg 49 467 \$1 127;
#X msg 100 467 \$1 0;
#X obj 49 428 60;
#X obj 100 428 60;
#X obj 190 399 bng 15 250 50 0 empty empty empty 17 7 0 10 #fcfcfc
#000000 #000000;
#X msg 139 467 \$1 127;
#X msg 190 467 \$1 0;
#X obj 190 428 61;
#X obj 139 428 61;
#X msg 229 467 \$1 127;
#X msg 280 467 \$1 0;
#X msg 329 467 \$1 127;
#X msg 380 467 \$1 0;
#X obj 280 399 bng 15 250 50 0 empty empty empty 17 7 0 10 #fcfcfc
#000000 #000000;
#X obj 229 428 62;
#X obj 280 428 62;
#X obj 380 399 bng 15 250 50 0 empty empty empty 17 7 0 10 #fcfcfc
#000000 #000000;
#X obj 329 428 63;
#X obj 380 428 63;
#X obj 480 399 bng 15 250 50 0 empty empty empty 17 7 0 10 #fcfcfc
#000000 #000000;
#X msg 429 467 \$1 127;
#X msg 480 467 \$1 0;
#X obj 429 428 64;
#X obj 480 428 64;
#X obj 570 399 bng 15 250 50 0 empty empty empty 17 7 0 10 #fcfcfc
#000000 #000000;
#X obj 519 428 65;
#X obj 570 428 65;
#X msg 519 467 \$1 127;
#X msg 570 467 \$1 0;
#X obj 660 399 bng 15 250 50 0 empty empty empty 17 7 0 10 #fcfcfc
#000000 #000000;
#X msg 609 467 \$1 127;
#X msg 660 467 \$1 0;
#X obj 609 428 66;
#X obj 660 428 66;
#X obj 750 399 bng 15 250 50 0 empty empty empty 17 7 0 10 #fcfcfc
#000000 #000000;
#X obj 699 428 67;
#X obj 750 428 67;
#X msg 699 467 \$1 127;
#X msg 750 467 \$1 0;
#X obj 850 399 bng 15 250 50 0 empty empty empty 17 7 0 10 #fcfcfc
#000000 #000000;
#X obj 799 428 68;
#X obj 850 428 68;
#X msg 799 467 \$1 127;
#X msg 850 467 \$1 0;
#X obj 940 399 bng 15 250 50 0 empty empty empty 17 7 0 10 #fcfcfc
#000000 #000000;
#X obj 889 428 69;
#X obj 940 428 69;
#X msg 889 467 \$1 127;
#X msg 940 467 \$1 0;
#X obj 1030 399 bng 15 250 50 0 empty empty empty 17 7 0 10 #fcfcfc
#000000 #000000;
#X obj 979 428 70;
#X obj 1030 428 70;
#X msg 979 467 \$1 127;
#X msg 1030 467 \$1 0;
#X obj 1120 399 bng 15 250 50 0 empty empty empty 17 7 0 10 #fcfcfc
#000000 #000000;
#X obj 1069 428 71;
#X obj 1120 428 71;
#X msg 1069 467 \$1 127;
#X msg 1120 467 \$1 0;
#X obj 66 151 sel 0 1 2;
#X obj 48 189 s octMin;
#X obj 116 189 s octCen;
#X obj 185 190 s octMax;
#X obj 42 257 guiKeys 60 cK;
#X obj 122 236 guiKeys 61 cSK;
#X obj 215 259 guiKeys 62 dK;
#X obj 280 234 guiKeys 63 dSK;
#X obj 370 260 guiKeys 64 eK;
#X obj 479 262 guiKeys 65 fNK;
#X obj 562 235 guiKeys 66 fsK;
#X obj 653 261 guiKeys 67 gK;
#X obj 728 233 guiKeys 68 gSK;
#X obj 830 256 guiKeys 69 aK;
#X obj 917 233 guiKeys 70 aSK;
#X obj 1016 254 guiKeys 71 bK;
#X obj 69 384 r cK;
#X obj 159 384 r cSK;
#X obj 249 384 r dK;
#X obj 349 384 r dSK;
#X obj 449 384 r eK;
#X obj 539 384 r fNK;
#X obj 629 384 r fsK;
#X obj 719 384 r gK;
#X obj 819 384 r gSK;
#X obj 909 384 r aK;
#X obj 999 384 r aSK;
#X obj 1089 384 r bK;
#X obj 104 386 bng 15 250 50 0 empty empty empty 17 7 0 10 #fcfcfc
#000000 #000000;
#X obj 66 111 r octave;
#X obj 49 316 r c;
#X obj 138 311 r cS;
#X obj 226 312 r d;
#X obj 325 312 r dS;
#X obj 427 309 r e;
#X obj 513 310 r fN;
#X obj 605 310 r fs;
#X obj 694 307 r g;
#X obj 793 312 r gS;
#X obj 887 315 r a;
#X obj 980 310 r aS;
#X obj 1066 309 r b;
#X connect 0 0 15 0;
#X connect 0 1 100 0;
#X connect 1 0 21 0;
#X connect 1 1 17 0;
#X connect 2 0 27 0;
#X connect 2 1 26 0;
#X connect 4 0 30 0;
#X connect 4 1 29 0;
#X connect 5 0 35 0;
#X connect 5 1 32 0;
#X connect 6 0 38 0;
#X connect 6 1 37 0;
#X connect 7 0 45 0;
#X connect 7 1 42 0;
#X connect 8 0 48 0;
#X connect 8 1 47 0;
#X connect 9 0 53 0;
#X connect 9 1 52 0;
#X connect 10 0 58 0;
#X connect 10 1 57 0;
#X connect 11 0 63 0;
#X connect 11 1 62 0;
#X connect 12 0 68 0;
#X connect 12 1 67 0;
#X connect 13 0 3 0;
#X connect 14 0 3 0;
#X connect 15 0 13 0;
#X connect 16 0 14 0;
#X connect 17 0 20 0;
#X connect 18 0 3 0;
#X connect 19 0 3 0;
#X connect 20 0 19 0;
#X connect 21 0 18 0;
#X connect 22 0 3 0;
#X connect 23 0 3 0;
#X connect 24 0 3 0;
#X connect 25 0 3 0;
#X connect 26 0 28 0;
#X connect 27 0 22 0;
#X connect 28 0 23 0;
#X connect 29 0 31 0;
#X connect 30 0 24 0;
#X connect 31 0 25 0;
#X connect 32 0 36 0;
#X connect 33 0 3 0;
#X connect 34 0 3 0;
#X connect 35 0 33 0;
#X connect 36 0 34 0;
#X connect 37 0 39 0;
#X connect 38 0 40 0;
#X connect 39 0 41 0;
#X connect 40 0 3 0;
#X connect 41 0 3 0;
#X connect 42 0 46 0;
#X connect 43 0 3 0;
#X connect 44 0 3 0;
#X connect 45 0 43 0;
#X connect 46 0 44 0;
#X connect 47 0 49 0;
#X connect 48 0 50 0;
#X connect 49 0 51 0;
#X connect 50 0 3 0;
#X connect 51 0 3 0;
#X connect 52 0 54 0;
#X connect 53 0 55 0;
#X connect 54 0 56 0;
#X connect 55 0 3 0;
#X connect 56 0 3 0;
#X connect 57 0 59 0;
#X connect 58 0 60 0;
#X connect 59 0 61 0;
#X connect 60 0 3 0;
#X connect 61 0 3 0;
#X connect 62 0 64 0;
#X connect 63 0 65 0;
#X connect 64 0 66 0;
#X connect 65 0 3 0;
#X connect 66 0 3 0;
#X connect 67 0 69 0;
#X connect 68 0 70 0;
#X connect 69 0 71 0;
#X connect 70 0 3 0;
#X connect 71 0 3 0;
#X connect 72 0 73 0;
#X connect 72 1 74 0;
#X connect 72 2 75 0;
#X connect 88 0 15 1;
#X connect 88 0 16 1;
#X connect 89 0 20 1;
#X connect 89 0 21 1;
#X connect 90 0 27 1;
#X connect 90 0 28 1;
#X connect 91 0 30 1;
#X connect 91 0 31 1;
#X connect 92 0 35 1;
#X connect 92 0 36 1;
#X connect 93 0 38 1;
#X connect 93 0 39 1;
#X connect 94 0 45 1;
#X connect 94 0 46 1;
#X connect 95 0 48 1;
#X connect 95 0 49 1;
#X connect 96 0 53 1;
#X connect 96 0 54 1;
#X connect 97 0 58 1;
#X connect 97 0 59 1;
#X connect 98 0 63 1;
#X connect 98 0 64 1;
#X connect 99 0 68 1;
#X connect 99 0 69 1;
#X connect 100 0 16 0;
#X connect 101 0 72 0;
#X connect 102 0 0 0;
#X connect 103 0 1 0;
#X connect 104 0 2 0;
#X connect 105 0 4 0;
#X connect 106 0 5 0;
#X connect 107 0 6 0;
#X connect 108 0 7 0;
#X connect 109 0 8 0;
#X connect 110 0 9 0;
#X connect 111 0 10 0;
#X connect 112 0 11 0;
#X connect 113 0 12 0;
#X restore 25 14 pd note;
#N canvas 100 57 1207 688 synth 0;
#X obj 49 107 mtof;
#X obj 906 1162 outlet~;
#X obj 49 24 inlet, f 7;
#X obj 49 70 unpack 0 0;
#X obj 126 116 sel 0;
#X obj 936 846 * 20;
#X obj 1008 850 * 20;
#X obj 1008 825 + 1;
#X obj 937 823 + 1;
#X obj 921 1024 vline~;
#X msg 921 988 0 \$1;
#X msg 994 988 1 \$1 \, 0.5 1000 1000;
#X obj 994 962 10;
#X obj 921 938 bng 15 250 50 0 empty empty empty 17 7 0 10 #fcfcfc
#000000 #000000;
#X obj 906 1050 *~;
#X obj 994 941 bng 15 250 50 0 empty empty empty 17 7 0 10 #fcfcfc
#000000 #000000;
#X obj 521 418 +~;
#X obj 521 484 osc~;
#X obj 560 484 osc~;
#X obj 560 460 *~ 2;
#X obj 521 309 osc~ 30;
#X obj 521 363 *~ 10;
#X obj 839 643 noise~;
#X obj 839 676 *~ 0.01;
#X obj 921 962 500;
#X obj 646 315 expr~ $v1 > 0.5;
#X obj 646 415 +~;
#X obj 722 446 *~ 2;
#X obj 743 494 expr~ $v1 > 0.5;
#X obj 743 471 phasor~ 30;
#X obj 646 494 expr~ $v1 > 0.5;
#X obj 646 471 phasor~ 30;
#X obj 646 292 phasor~ 10;
#X obj 743 641 *~;
#X obj 758 617 line~;
#X obj 758 563 expr 1 - $f1;
#X msg 758 590 \$1 15;
#X obj 603 641 *~;
#X obj 618 617 line~;
#X msg 618 590 \$1 15;
#X obj 646 360 *~ 10;
#X obj 878 494 / 127;
#X obj 521 251 inlet;
#X obj 790 312 inlet;
#X obj 878 458 inlet;
#X obj 906 1137 *~ 0.2;
#X obj 743 669 *~ 0.5;
#X msg 96 236 \$1 \$2;
#X obj 96 259 line;
#X obj 96 211 pack \$1 0;
#X obj 1133 143 inlet;
#X obj 898 801 r release;
#X obj 998 801 r attack;
#X connect 0 0 49 0;
#X connect 2 0 3 0;
#X connect 3 0 0 0;
#X connect 3 1 4 0;
#X connect 4 0 13 0;
#X connect 4 1 15 0;
#X connect 5 0 24 1;
#X connect 6 0 12 1;
#X connect 7 0 6 0;
#X connect 8 0 5 0;
#X connect 9 0 14 1;
#X connect 10 0 9 0;
#X connect 11 0 9 0;
#X connect 12 0 11 0;
#X connect 13 0 24 0;
#X connect 14 0 45 0;
#X connect 15 0 12 0;
#X connect 16 0 17 0;
#X connect 16 0 19 0;
#X connect 17 0 37 0;
#X connect 18 0 37 0;
#X connect 19 0 18 0;
#X connect 20 0 21 0;
#X connect 21 0 16 0;
#X connect 22 0 23 0;
#X connect 23 0 14 0;
#X connect 24 0 10 0;
#X connect 25 0 40 0;
#X connect 26 0 27 0;
#X connect 26 0 31 0;
#X connect 27 0 29 0;
#X connect 28 0 33 0;
#X connect 29 0 28 0;
#X connect 30 0 33 0;
#X connect 31 0 30 0;
#X connect 32 0 25 0;
#X connect 33 0 46 0;
#X connect 34 0 33 1;
#X connect 35 0 36 0;
#X connect 36 0 34 0;
#X connect 37 0 14 0;
#X connect 38 0 37 1;
#X connect 39 0 38 0;
#X connect 40 0 26 0;
#X connect 41 0 39 0;
#X connect 41 0 35 0;
#X connect 42 0 20 0;
#X connect 42 0 32 0;
#X connect 43 0 21 1;
#X connect 43 0 40 1;
#X connect 44 0 41 0;
#X connect 45 0 1 0;
#X connect 46 0 14 0;
#X connect 47 0 48 0;
#X connect 48 0 26 1;
#X connect 48 0 16 1;
#X connect 49 0 47 0;
#X connect 50 0 49 1;
#X connect 51 0 8 0;
#X connect 52 0 7 0;
#X restore 25 205 pd synth;
#N canvas 0 25 1440 778 synth 0;
#X obj 49 107 mtof;
#X obj 906 1162 outlet~;
#X obj 49 24 inlet, f 7;
#X obj 49 70 unpack 0 0;
#X obj 126 116 sel 0;
#X obj 936 846 * 20;
#X obj 1008 850 * 20;
#X obj 1008 825 + 1;
#X obj 937 823 + 1;
#X obj 921 1024 vline~;
#X msg 921 988 0 \$1;
#X msg 994 988 1 \$1 \, 0.5 1000 1000;
#X obj 994 962 10;
#X obj 921 938 bng 15 250 50 0 empty empty empty 17 7 0 10 #fcfcfc
#000000 #000000;
#X obj 906 1050 *~;
#X obj 994 941 bng 15 250 50 0 empty empty empty 17 7 0 10 #fcfcfc
#000000 #000000;
#X obj 521 418 +~;
#X obj 521 484 osc~;
#X obj 560 484 osc~;
#X obj 560 460 *~ 2;
#X obj 521 309 osc~ 30;
#X obj 521 363 *~ 10;
#X obj 839 643 noise~;
#X obj 839 676 *~ 0.01;
#X obj 921 962 500;
#X obj 646 315 expr~ $v1 > 0.5;
#X obj 646 415 +~;
#X obj 722 446 *~ 2;
#X obj 743 494 expr~ $v1 > 0.5;
#X obj 743 471 phasor~ 30;
#X obj 646 494 expr~ $v1 > 0.5;
#X obj 646 471 phasor~ 30;
#X obj 646 292 phasor~ 10;
#X obj 743 641 *~;
#X obj 758 617 line~;
#X obj 758 563 expr 1 - $f1;
#X msg 758 590 \$1 15;
#X obj 603 641 *~;
#X obj 618 617 line~;
#X msg 618 590 \$1 15;
#X obj 646 360 *~ 10;
#X obj 878 494 / 127;
#X obj 521 251 inlet;
#X obj 790 312 inlet;
#X obj 878 458 inlet;
#X obj 906 1137 *~ 0.2;
#X obj 743 669 *~ 0.5;
#X msg 96 236 \$1 \$2;
#X obj 96 259 line;
#X obj 96 211 pack \$1 0;
#X obj 1133 143 inlet;
#X obj 898 801 r release;
#X obj 998 801 r attack;
#X connect 0 0 49 0;
#X connect 2 0 3 0;
#X connect 3 0 0 0;
#X connect 3 1 4 0;
#X connect 4 0 13 0;
#X connect 4 1 15 0;
#X connect 5 0 24 1;
#X connect 6 0 12 1;
#X connect 7 0 6 0;
#X connect 8 0 5 0;
#X connect 9 0 14 1;
#X connect 10 0 9 0;
#X connect 11 0 9 0;
#X connect 12 0 11 0;
#X connect 13 0 24 0;
#X connect 14 0 45 0;
#X connect 15 0 12 0;
#X connect 16 0 17 0;
#X connect 16 0 19 0;
#X connect 17 0 37 0;
#X connect 18 0 37 0;
#X connect 19 0 18 0;
#X connect 20 0 21 0;
#X connect 21 0 16 0;
#X connect 22 0 23 0;
#X connect 23 0 14 0;
#X connect 24 0 10 0;
#X connect 25 0 40 0;
#X connect 26 0 27 0;
#X connect 26 0 31 0;
#X connect 27 0 29 0;
#X connect 28 0 33 0;
#X connect 29 0 28 0;
#X connect 30 0 33 0;
#X connect 31 0 30 0;
#X connect 32 0 25 0;
#X connect 33 0 46 0;
#X connect 34 0 33 1;
#X connect 35 0 36 0;
#X connect 36 0 34 0;
#X connect 37 0 14 0;
#X connect 38 0 37 1;
#X connect 39 0 38 0;
#X connect 40 0 26 0;
#X connect 41 0 39 0;
#X connect 41 0 35 0;
#X connect 42 0 20 0;
#X connect 42 0 32 0;
#X connect 43 0 21 1;
#X connect 43 0 40 1;
#X connect 44 0 41 0;
#X connect 45 0 1 0;
#X connect 46 0 14 0;
#X connect 47 0 48 0;
#X connect 48 0 26 1;
#X connect 48 0 16 1;
#X connect 49 0 47 0;
#X connect 50 0 49 1;
#X connect 51 0 8 0;
#X connect 52 0 7 0;
#X restore 397 204 pd synth;
#N canvas 0 25 1440 778 synth 0;
#X obj 49 107 mtof;
#X obj 906 1162 outlet~;
#X obj 49 24 inlet, f 7;
#X obj 49 70 unpack 0 0;
#X obj 126 116 sel 0;
#X obj 936 846 * 20;
#X obj 1008 850 * 20;
#X obj 1008 825 + 1;
#X obj 937 823 + 1;
#X obj 921 1024 vline~;
#X msg 921 988 0 \$1;
#X msg 994 988 1 \$1 \, 0.5 1000 1000;
#X obj 994 962 10;
#X obj 921 938 bng 15 250 50 0 empty empty empty 17 7 0 10 #fcfcfc
#000000 #000000;
#X obj 906 1050 *~;
#X obj 994 941 bng 15 250 50 0 empty empty empty 17 7 0 10 #fcfcfc
#000000 #000000;
#X obj 521 418 +~;
#X obj 521 484 osc~;
#X obj 560 484 osc~;
#X obj 560 460 *~ 2;
#X obj 521 309 osc~ 30;
#X obj 521 363 *~ 10;
#X obj 839 643 noise~;
#X obj 839 676 *~ 0.01;
#X obj 921 962 500;
#X obj 646 315 expr~ $v1 > 0.5;
#X obj 646 415 +~;
#X obj 722 446 *~ 2;
#X obj 743 494 expr~ $v1 > 0.5;
#X obj 743 471 phasor~ 30;
#X obj 646 494 expr~ $v1 > 0.5;
#X obj 646 471 phasor~ 30;
#X obj 646 292 phasor~ 10;
#X obj 743 641 *~;
#X obj 758 617 line~;
#X obj 758 563 expr 1 - $f1;
#X msg 758 590 \$1 15;
#X obj 603 641 *~;
#X obj 618 617 line~;
#X msg 618 590 \$1 15;
#X obj 646 360 *~ 10;
#X obj 878 494 / 127;
#X obj 521 251 inlet;
#X obj 790 312 inlet;
#X obj 878 458 inlet;
#X obj 906 1137 *~ 0.2;
#X obj 743 669 *~ 0.5;
#X msg 96 236 \$1 \$2;
#X obj 96 259 line;
#X obj 96 211 pack \$1 0;
#X obj 1133 143 inlet;
#X obj 898 801 r release;
#X obj 998 801 r attack;
#X connect 0 0 49 0;
#X connect 2 0 3 0;
#X connect 3 0 0 0;
#X connect 3 1 4 0;
#X connect 4 0 13 0;
#X connect 4 1 15 0;
#X connect 5 0 24 1;
#X connect 6 0 12 1;
#X connect 7 0 6 0;
#X connect 8 0 5 0;
#X connect 9 0 14 1;
#X connect 10 0 9 0;
#X connect 11 0 9 0;
#X connect 12 0 11 0;
#X connect 13 0 24 0;
#X connect 14 0 45 0;
#X connect 15 0 12 0;
#X connect 16 0 17 0;
#X connect 16 0 19 0;
#X connect 17 0 37 0;
#X connect 18 0 37 0;
#X connect 19 0 18 0;
#X connect 20 0 21 0;
#X connect 21 0 16 0;
#X connect 22 0 23 0;
#X connect 23 0 14 0;
#X connect 24 0 10 0;
#X connect 25 0 40 0;
#X connect 26 0 27 0;
#X connect 26 0 31 0;
#X connect 27 0 29 0;
#X connect 28 0 33 0;
#X connect 29 0 28 0;
#X connect 30 0 33 0;
#X connect 31 0 30 0;
#X connect 32 0 25 0;
#X connect 33 0 46 0;
#X connect 34 0 33 1;
#X connect 35 0 36 0;
#X connect 36 0 34 0;
#X connect 37 0 14 0;
#X connect 38 0 37 1;
#X connect 39 0 38 0;
#X connect 40 0 26 0;
#X connect 41 0 39 0;
#X connect 41 0 35 0;
#X connect 42 0 20 0;
#X connect 42 0 32 0;
#X connect 43 0 21 1;
#X connect 43 0 40 1;
#X connect 44 0 41 0;
#X connect 45 0 1 0;
#X connect 46 0 14 0;
#X connect 47 0 48 0;
#X connect 48 0 26 1;
#X connect 48 0 16 1;
#X connect 49 0 47 0;
#X connect 50 0 49 1;
#X connect 51 0 8 0;
#X connect 52 0 7 0;
#X restore 146 205 pd synth;
#N canvas 0 25 1440 778 synth 0;
#X obj 49 107 mtof;
#X obj 906 1162 outlet~;
#X obj 49 24 inlet, f 7;
#X obj 49 70 unpack 0 0;
#X obj 126 116 sel 0;
#X obj 936 846 * 20;
#X obj 1008 850 * 20;
#X obj 1008 825 + 1;
#X obj 937 823 + 1;
#X obj 921 1024 vline~;
#X msg 921 988 0 \$1;
#X msg 994 988 1 \$1 \, 0.5 1000 1000;
#X obj 994 962 10;
#X obj 921 938 bng 15 250 50 0 empty empty empty 17 7 0 10 #fcfcfc
#000000 #000000;
#X obj 906 1050 *~;
#X obj 994 941 bng 15 250 50 0 empty empty empty 17 7 0 10 #fcfcfc
#000000 #000000;
#X obj 521 418 +~;
#X obj 521 484 osc~;
#X obj 560 484 osc~;
#X obj 560 460 *~ 2;
#X obj 521 309 osc~ 30;
#X obj 521 363 *~ 10;
#X obj 839 643 noise~;
#X obj 839 676 *~ 0.01;
#X obj 921 962 500;
#X obj 646 315 expr~ $v1 > 0.5;
#X obj 646 415 +~;
#X obj 722 446 *~ 2;
#X obj 743 494 expr~ $v1 > 0.5;
#X obj 743 471 phasor~ 30;
#X obj 646 494 expr~ $v1 > 0.5;
#X obj 646 471 phasor~ 30;
#X obj 646 292 phasor~ 10;
#X obj 743 641 *~;
#X obj 758 617 line~;
#X obj 758 563 expr 1 - $f1;
#X msg 758 590 \$1 15;
#X obj 603 641 *~;
#X obj 618 617 line~;
#X msg 618 590 \$1 15;
#X obj 646 360 *~ 10;
#X obj 878 494 / 127;
#X obj 521 251 inlet;
#X obj 790 312 inlet;
#X obj 878 458 inlet;
#X obj 906 1137 *~ 0.2;
#X obj 743 669 *~ 0.5;
#X msg 96 236 \$1 \$2;
#X obj 96 259 line;
#X obj 96 211 pack \$1 0;
#X obj 1133 143 inlet;
#X obj 898 801 r release;
#X obj 998 801 r attack;
#X connect 0 0 49 0;
#X connect 2 0 3 0;
#X connect 3 0 0 0;
#X connect 3 1 4 0;
#X connect 4 0 13 0;
#X connect 4 1 15 0;
#X connect 5 0 24 1;
#X connect 6 0 12 1;
#X connect 7 0 6 0;
#X connect 8 0 5 0;
#X connect 9 0 14 1;
#X connect 10 0 9 0;
#X connect 11 0 9 0;
#X connect 12 0 11 0;
#X connect 13 0 24 0;
#X connect 14 0 45 0;
#X connect 15 0 12 0;
#X connect 16 0 17 0;
#X connect 16 0 19 0;
#X connect 17 0 37 0;
#X connect 18 0 37 0;
#X connect 19 0 18 0;
#X connect 20 0 21 0;
#X connect 21 0 16 0;
#X connect 22 0 23 0;
#X connect 23 0 14 0;
#X connect 24 0 10 0;
#X connect 25 0 40 0;
#X connect 26 0 27 0;
#X connect 26 0 31 0;
#X connect 27 0 29 0;
#X connect 28 0 33 0;
#X connect 29 0 28 0;
#X connect 30 0 33 0;
#X connect 31 0 30 0;
#X connect 32 0 25 0;
#X connect 33 0 46 0;
#X connect 34 0 33 1;
#X connect 35 0 36 0;
#X connect 36 0 34 0;
#X connect 37 0 14 0;
#X connect 38 0 37 1;
#X connect 39 0 38 0;
#X connect 40 0 26 0;
#X connect 41 0 39 0;
#X connect 41 0 35 0;
#X connect 42 0 20 0;
#X connect 42 0 32 0;
#X connect 43 0 21 1;
#X connect 43 0 40 1;
#X connect 44 0 41 0;
#X connect 45 0 1 0;
#X connect 46 0 14 0;
#X connect 47 0 48 0;
#X connect 48 0 26 1;
#X connect 48 0 16 1;
#X connect 49 0 47 0;
#X connect 50 0 49 1;
#X connect 51 0 8 0;
#X connect 52 0 7 0;
#X restore 266 203 pd synth;
#X obj 134 86 / 5;
#X obj 251 86 / 5;
#X obj 442 84 * 2;
#X obj 25 274 expr~ $v1+$v2+$v3+$v4;
#X obj 26 454 *~;
#X obj 41 423 line~;
#X msg 41 397 \$1 15;
#X obj 41 367 / 127;
#N canvas 378 298 314 276 init 0;
#X obj 83 39 loadbang;
#X msg 83 67 \; pd dsp 1 \; octave 1 \; attack 10 \; release 10 \;
synthshape 10 \; index 0 \; synthrate 0 \; glide 10 \; synthvol 50
\;;
#X connect 0 0 1 0;
#X restore 565 21 pd init;
#X obj 26 481 outlet~;
#X obj 134 61 r synthrate;
#X obj 251 61 r index;
#X obj 327 85 r synthshape;
#X obj 442 60 r glide;
#X obj 41 339 r synthvol;
#X connect 0 0 1 0;
#X connect 0 1 1 1;
#X connect 0 2 1 2;
#X connect 1 0 2 0;
#X connect 2 0 4 0;
#X connect 2 1 6 0;
#X connect 2 2 7 0;
#X connect 2 3 5 0;
#X connect 3 0 0 0;
#X connect 4 0 11 0;
#X connect 5 0 11 3;
#X connect 6 0 11 1;
#X connect 7 0 11 2;
#X connect 8 0 4 1;
#X connect 8 0 6 1;
#X connect 8 0 7 1;
#X connect 8 0 5 1;
#X connect 9 0 4 2;
#X connect 9 0 6 2;
#X connect 9 0 7 2;
#X connect 9 0 5 2;
#X connect 10 0 4 4;
#X connect 10 0 6 4;
#X connect 10 0 7 4;
#X connect 10 0 5 4;
#X connect 11 0 12 0;
#X connect 12 0 17 0;
#X connect 13 0 12 1;
#X connect 14 0 13 0;
#X connect 15 0 14 0;
#X connect 18 0 8 0;
#X connect 19 0 9 0;
#X connect 20 0 4 3;
#X connect 20 0 6 3;
#X connect 20 0 7 3;
#X connect 20 0 5 3;
#X connect 21 0 10 0;
#X connect 22 0 15 0;
#X restore 111 45 pd keyboard;
#N canvas 336 228 744 505 reverb 0;
#X obj 51 375 outlet~;
#X obj 55 266 inlet~;
#X obj 310 293 expr 1 - $f1;
#X obj 296 59 loadbang;
#X obj 112 119 hsl 128 15 0 1 0 1 empty empty 'roomsize' 20 8 0 10
#fcfcfc #fc8000 #000000 5000 0;
#X obj 127 162 hsl 128 15 0 2.4 0 1 empty empty damp 20 8 0 10 #fcfcfc
#fc8000 #000000 0 0;
#X obj 157 255 hsl 128 15 0 1 0 1 empty empty wet 20 8 0 10 #fcfcfc
#fc8000 #000000 1250 0;
#X obj 142 205 hsl 128 15 0 1 0 1 empty empty dry 20 8 0 10 #fcfcfc
#fc8000 #000000 11450 0;
#N canvas 256 339 634 321 vfreeverb~ 0;
#N canvas 824 312 778 367 combfilters-left1 0;
#X obj 46 244 +~;
#X obj 61 219 *~ 0.3;
#X obj 61 194 lop~ 1000;
#X obj 231 244 +~;
#X obj 246 219 *~ 0.3;
#X obj 246 194 lop~ 1000;
#X obj 429 218 *~ 0.3;
#X obj 429 193 lop~ 1000;
#X obj 414 241 +~;
#X obj 610 218 *~ 0.3;
#X obj 610 193 lop~ 1000;
#X obj 595 241 +~;
#X obj 61 141 delread~ \$0-comb1left;
#X obj 246 142 delread~ \$0-comb2left;
#X obj 429 141 delread~ \$0-comb3left;
#X obj 610 141 delread~ \$0-comb4left;
#X obj 46 268 delwrite~ \$0-comb1left 100;
#X obj 231 268 delwrite~ \$0-comb2left 100;
#X obj 414 267 delwrite~ \$0-comb3left 100;
#X obj 595 267 delwrite~ \$0-comb4left 100;
#X obj 61 97 r \$0-comb1left;
#X obj 246 97 r \$0-comb2left;
#X obj 429 95 r \$0-comb3left;
#X obj 610 96 r \$0-comb4left;
#X obj 112 170 r \$0-frequency;
#X obj 297 170 r \$0-frequency;
#X obj 480 167 r \$0-frequency;
#X obj 661 167 r \$0-frequency;
#X obj 46 28 inlet~;
#X obj 338 326 outlet~;
#X floatatom 70 119 5 0 0 0 - - - 0;
#X floatatom 255 121 5 0 0 0 - - - 0;
#X floatatom 439 119 5 0 0 0 - - - 0;
#X floatatom 622 121 5 0 0 0 - - - 0;
#X obj 279 58 clip 0 0.99;
#X obj 279 29 r \$0-room;
#X connect 0 0 16 0;
#X connect 1 0 0 1;
#X connect 2 0 1 0;
#X connect 2 0 29 0;
#X connect 3 0 17 0;
#X connect 4 0 3 1;
#X connect 5 0 4 0;
#X connect 5 0 29 0;
#X connect 6 0 8 1;
#X connect 7 0 6 0;
#X connect 7 0 29 0;
#X connect 8 0 18 0;
#X connect 9 0 11 1;
#X connect 10 0 9 0;
#X connect 10 0 29 0;
#X connect 11 0 19 0;
#X connect 12 0 2 0;
#X connect 13 0 5 0;
#X connect 14 0 7 0;
#X connect 15 0 10 0;
#X connect 20 0 12 0;
#X connect 20 0 30 0;
#X connect 21 0 13 0;
#X connect 21 0 31 0;
#X connect 22 0 14 0;
#X connect 22 0 32 0;
#X connect 23 0 15 0;
#X connect 23 0 33 0;
#X connect 24 0 2 1;
#X connect 25 0 5 1;
#X connect 26 0 7 1;
#X connect 27 0 10 1;
#X connect 28 0 0 0;
#X connect 28 0 3 0;
#X connect 28 0 8 0;
#X connect 28 0 11 0;
#X connect 34 0 1 1;
#X connect 34 0 4 1;
#X connect 34 0 6 1;
#X connect 34 0 9 1;
#X connect 35 0 34 0;
#X restore 15 100 pd combfilters-left1;
#N canvas 27 56 358 650 diffusor-left 0;
#X obj 51 107 *~ 0.5;
#X obj 36 132 +~;
#X obj 66 132 -~;
#X obj 36 26 inlet~;
#X obj 81 238 *~ 0.5;
#X obj 66 263 +~;
#X obj 96 263 -~;
#X obj 111 368 *~ 0.5;
#X obj 96 393 +~;
#X obj 126 393 -~;
#X obj 141 498 *~ 0.5;
#X obj 126 523 +~;
#X obj 156 523 -~;
#X obj 156 605 outlet~;
#X text 95 28 freeverb's diffusor;
#X obj 156 576 hip~ 5;
#X floatatom 214 70 5 0 0 0 - - - 0;
#X floatatom 246 203 5 0 0 0 - - - 0;
#X floatatom 280 334 5 0 0 0 - - - 0;
#X floatatom 304 464 5 0 0 0 - - - 0;
#X obj 51 53 r \$0-allpass1left;
#X obj 51 80 delread~ \$0-allpass1left;
#X obj 36 158 delwrite~ \$0-allpass1left 40;
#X obj 81 186 r \$0-allpass2left;
#X obj 81 211 delread~ \$0-allpass2left;
#X obj 66 290 delwrite~ \$0-allpass2left 40;
#X obj 111 317 r \$0-allpass3left;
#X obj 111 341 delread~ \$0-allpass3left;
#X obj 96 420 delwrite~ \$0-allpass3left 40;
#X obj 141 447 r \$0-allpass4left;
#X obj 141 471 delread~ \$0-allpass4left;
#X obj 126 550 delwrite~ \$0-allpass4left 40;
#X connect 0 0 1 1;
#X connect 1 0 22 0;
#X connect 2 0 5 0;
#X connect 2 0 6 1;
#X connect 3 0 1 0;
#X connect 3 0 2 1;
#X connect 4 0 5 1;
#X connect 5 0 25 0;
#X connect 6 0 8 0;
#X connect 6 0 9 1;
#X connect 7 0 8 1;
#X connect 8 0 28 0;
#X connect 9 0 11 0;
#X connect 9 0 12 1;
#X connect 10 0 11 1;
#X connect 11 0 31 0;
#X connect 12 0 15 0;
#X connect 15 0 13 0;
#X connect 20 0 16 0;
#X connect 20 0 21 0;
#X connect 21 0 0 0;
#X connect 21 0 2 0;
#X connect 23 0 17 0;
#X connect 23 0 24 0;
#X connect 24 0 4 0;
#X connect 24 0 6 0;
#X connect 26 0 18 0;
#X connect 26 0 27 0;
#X connect 27 0 7 0;
#X connect 27 0 9 0;
#X connect 29 0 19 0;
#X connect 29 0 30 0;
#X connect 30 0 10 0;
#X connect 30 0 12 0;
#X restore 15 168 pd diffusor-left;
#N canvas 312 366 778 367 combfilters-left2 0;
#X obj 46 244 +~;
#X obj 61 219 *~ 0.3;
#X obj 61 194 lop~ 1000;
#X obj 231 244 +~;
#X obj 246 219 *~ 0.3;
#X obj 246 194 lop~ 1000;
#X obj 429 218 *~ 0.3;
#X obj 429 193 lop~ 1000;
#X obj 414 241 +~;
#X obj 610 218 *~ 0.3;
#X obj 610 193 lop~ 1000;
#X obj 595 241 +~;
#X obj 112 170 r \$0-frequency;
#X obj 297 170 r \$0-frequency;
#X obj 480 167 r \$0-frequency;
#X obj 661 167 r \$0-frequency;
#X obj 46 28 inlet~;
#X obj 338 326 outlet~;
#X obj 61 90 r \$0-comb5left;
#X obj 61 141 delread~ \$0-comb5left;
#X obj 46 268 delwrite~ \$0-comb5left 100;
#X obj 246 90 r \$0-comb6left;
#X obj 246 142 delread~ \$0-comb6left;
#X obj 231 268 delwrite~ \$0-comb6left 100;
#X obj 429 88 r \$0-comb7left;
#X obj 429 141 delread~ \$0-comb7left;
#X obj 414 267 delwrite~ \$0-comb7left 100;
#X obj 610 89 r \$0-comb8left;
#X obj 610 141 delread~ \$0-comb8left;
#X obj 595 267 delwrite~ \$0-comb8left 100;
#X floatatom 70 116 5 0 0 0 - - - 0;
#X floatatom 261 118 5 0 0 0 - - - 0;
#X floatatom 440 117 5 0 0 0 - - - 0;
#X floatatom 620 116 5 0 0 0 - - - 0;
#X obj 279 58 clip 0 0.99;
#X obj 279 28 r \$0-room;
#X connect 0 0 20 0;
#X connect 1 0 0 1;
#X connect 2 0 1 0;
#X connect 2 0 17 0;
#X connect 3 0 23 0;
#X connect 4 0 3 1;
#X connect 5 0 4 0;
#X connect 5 0 17 0;
#X connect 6 0 8 1;
#X connect 7 0 6 0;
#X connect 7 0 17 0;
#X connect 8 0 26 0;
#X connect 9 0 11 1;
#X connect 10 0 9 0;
#X connect 10 0 17 0;
#X connect 11 0 29 0;
#X connect 12 0 2 1;
#X connect 13 0 5 1;
#X connect 14 0 7 1;
#X connect 15 0 10 1;
#X connect 16 0 0 0;
#X connect 16 0 3 0;
#X connect 16 0 8 0;
#X connect 16 0 11 0;
#X connect 18 0 19 0;
#X connect 18 0 30 0;
#X connect 19 0 2 0;
#X connect 21 0 22 0;
#X connect 21 0 31 0;
#X connect 22 0 5 0;
#X connect 24 0 25 0;
#X connect 24 0 32 0;
#X connect 25 0 7 0;
#X connect 27 0 28 0;
#X connect 27 0 33 0;
#X connect 28 0 10 0;
#X connect 34 0 1 1;
#X connect 34 0 4 1;
#X connect 34 0 6 1;
#X connect 34 0 9 1;
#X connect 35 0 34 0;
#X restore 36 134 pd combfilters-left2;
#N canvas 261 41 778 367 combfilters-right1 0;
#X obj 46 244 +~;
#X obj 61 219 *~ 0.3;
#X obj 61 194 lop~ 1000;
#X obj 231 244 +~;
#X obj 246 219 *~ 0.3;
#X obj 246 194 lop~ 1000;
#X obj 429 218 *~ 0.3;
#X obj 429 193 lop~ 1000;
#X obj 414 241 +~;
#X obj 610 218 *~ 0.3;
#X obj 610 193 lop~ 1000;
#X obj 595 241 +~;
#X obj 112 170 r \$0-frequency;
#X obj 297 170 r \$0-frequency;
#X obj 480 167 r \$0-frequency;
#X obj 661 167 r \$0-frequency;
#X obj 46 28 inlet~;
#X obj 338 326 outlet~;
#X floatatom 70 119 5 0 0 0 - - - 0;
#X floatatom 255 121 5 0 0 0 - - - 0;
#X floatatom 439 119 5 0 0 0 - - - 0;
#X floatatom 622 121 5 0 0 0 - - - 0;
#X obj 61 141 delread~ \$0-comb1right;
#X obj 246 142 delread~ \$0-comb2right;
#X obj 429 141 delread~ \$0-comb3right;
#X obj 610 141 delread~ \$0-comb4right;
#X obj 61 97 r \$0-comb1right;
#X obj 246 97 r \$0-comb2right;
#X obj 429 95 r \$0-comb3right;
#X obj 610 97 r \$0-comb4right;
#X obj 46 268 delwrite~ \$0-comb1right 100;
#X obj 231 268 delwrite~ \$0-comb2right 100;
#X obj 414 267 delwrite~ \$0-comb3right 100;
#X obj 595 267 delwrite~ \$0-comb4right 100;
#X obj 279 58 clip 0 0.99;
#X obj 279 28 r \$0-room;
#X connect 0 0 30 0;
#X connect 1 0 0 1;
#X connect 2 0 1 0;
#X connect 2 0 17 0;
#X connect 3 0 31 0;
#X connect 4 0 3 1;
#X connect 5 0 4 0;
#X connect 5 0 17 0;
#X connect 6 0 8 1;
#X connect 7 0 6 0;
#X connect 7 0 17 0;
#X connect 8 0 32 0;
#X connect 9 0 11 1;
#X connect 10 0 9 0;
#X connect 10 0 17 0;
#X connect 11 0 33 0;
#X connect 12 0 2 1;
#X connect 13 0 5 1;
#X connect 14 0 7 1;
#X connect 15 0 10 1;
#X connect 16 0 0 0;
#X connect 16 0 3 0;
#X connect 16 0 8 0;
#X connect 16 0 11 0;
#X connect 22 0 2 0;
#X connect 23 0 5 0;
#X connect 24 0 7 0;
#X connect 25 0 10 0;
#X connect 26 0 18 0;
#X connect 26 0 22 0;
#X connect 27 0 19 0;
#X connect 27 0 23 0;
#X connect 28 0 20 0;
#X connect 28 0 24 0;
#X connect 29 0 21 0;
#X connect 29 0 25 0;
#X connect 34 0 1 1;
#X connect 34 0 4 1;
#X connect 34 0 6 1;
#X connect 34 0 9 1;
#X connect 35 0 34 0;
#X restore 208 99 pd combfilters-right1;
#N canvas 312 366 778 367 combfilters-right2 0;
#X obj 46 244 +~;
#X obj 61 219 *~ 0.3;
#X obj 61 194 lop~ 1000;
#X obj 231 244 +~;
#X obj 246 219 *~ 0.3;
#X obj 246 194 lop~ 1000;
#X obj 429 218 *~ 0.3;
#X obj 429 193 lop~ 1000;
#X obj 414 241 +~;
#X obj 610 218 *~ 0.3;
#X obj 610 193 lop~ 1000;
#X obj 595 241 +~;
#X obj 112 170 r \$0-frequency;
#X obj 297 170 r \$0-frequency;
#X obj 480 167 r \$0-frequency;
#X obj 661 167 r \$0-frequency;
#X obj 46 28 inlet~;
#X obj 338 326 outlet~;
#X floatatom 70 116 5 0 0 0 - - - 0;
#X floatatom 261 118 5 0 0 0 - - - 0;
#X floatatom 440 117 5 0 0 0 - - - 0;
#X floatatom 620 116 5 0 0 0 - - - 0;
#X obj 279 58 clip 0 0.99;
#X obj 61 90 r \$0-comb5right;
#X obj 246 90 r \$0-comb6right;
#X obj 429 88 r \$0-comb7right;
#X obj 610 89 r \$0-comb8right;
#X obj 61 141 delread~ \$0-comb5right;
#X obj 246 142 delread~ \$0-comb6right;
#X obj 429 141 delread~ \$0-comb7right;
#X obj 610 141 delread~ \$0-comb8right;
#X obj 46 268 delwrite~ \$0-comb5right 100;
#X obj 231 268 delwrite~ \$0-comb6right 100;
#X obj 414 267 delwrite~ \$0-comb7right 100;
#X obj 595 267 delwrite~ \$0-comb8right 100;
#X obj 279 28 r \$0-room;
#X connect 0 0 31 0;
#X connect 1 0 0 1;
#X connect 2 0 1 0;
#X connect 2 0 17 0;
#X connect 3 0 32 0;
#X connect 4 0 3 1;
#X connect 5 0 4 0;
#X connect 5 0 17 0;
#X connect 6 0 8 1;
#X connect 7 0 6 0;
#X connect 7 0 17 0;
#X connect 8 0 33 0;
#X connect 9 0 11 1;
#X connect 10 0 9 0;
#X connect 10 0 17 0;
#X connect 11 0 34 0;
#X connect 12 0 2 1;
#X connect 13 0 5 1;
#X connect 14 0 7 1;
#X connect 15 0 10 1;
#X connect 16 0 0 0;
#X connect 16 0 3 0;
#X connect 16 0 8 0;
#X connect 16 0 11 0;
#X connect 22 0 1 1;
#X connect 22 0 4 1;
#X connect 22 0 6 1;
#X connect 22 0 9 1;
#X connect 23 0 18 0;
#X connect 23 0 27 0;
#X connect 24 0 19 0;
#X connect 24 0 28 0;
#X connect 25 0 20 0;
#X connect 25 0 29 0;
#X connect 26 0 21 0;
#X connect 26 0 30 0;
#X connect 27 0 2 0;
#X connect 28 0 5 0;
#X connect 29 0 7 0;
#X connect 30 0 10 0;
#X connect 35 0 22 0;
#X restore 225 133 pd combfilters-right2;
#N canvas 27 56 358 650 diffusor-right 0;
#X obj 51 107 *~ 0.5;
#X obj 36 132 +~;
#X obj 66 132 -~;
#X obj 36 26 inlet~;
#X obj 81 238 *~ 0.5;
#X obj 66 263 +~;
#X obj 96 263 -~;
#X obj 111 368 *~ 0.5;
#X obj 96 393 +~;
#X obj 126 393 -~;
#X obj 141 498 *~ 0.5;
#X obj 126 523 +~;
#X obj 156 523 -~;
#X obj 156 605 outlet~;
#X text 95 28 freeverb's diffusor;
#X obj 156 576 hip~ 5;
#X floatatom 214 70 5 0 0 0 - - - 0;
#X floatatom 244 203 5 0 0 0 - - - 0;
#X floatatom 280 334 5 0 0 0 - - - 0;
#X floatatom 304 464 5 0 0 0 - - - 0;
#X obj 51 53 r \$0-allpass1right;
#X obj 51 80 delread~ \$0-allpass1right;
#X obj 36 158 delwrite~ \$0-allpass1right 40;
#X obj 81 186 r \$0-allpass2right;
#X obj 81 211 delread~ \$0-allpass2right;
#X obj 66 290 delwrite~ \$0-allpass2right 40;
#X obj 111 317 r \$0-allpass3right;
#X obj 111 341 delread~ \$0-allpass3right;
#X obj 96 420 delwrite~ \$0-allpass3right 40;
#X obj 141 447 r \$0-allpass4right;
#X obj 141 471 delread~ \$0-allpass4right;
#X obj 126 550 delwrite~ \$0-allpass4right 40;
#X connect 0 0 1 1;
#X connect 1 0 22 0;
#X connect 2 0 5 0;
#X connect 2 0 6 1;
#X connect 3 0 1 0;
#X connect 3 0 2 1;
#X connect 4 0 5 1;
#X connect 5 0 25 0;
#X connect 6 0 8 0;
#X connect 6 0 9 1;
#X connect 7 0 8 1;
#X connect 8 0 28 0;
#X connect 9 0 11 0;
#X connect 9 0 12 1;
#X connect 10 0 11 1;
#X connect 11 0 31 0;
#X connect 12 0 15 0;
#X connect 15 0 13 0;
#X connect 20 0 16 0;
#X connect 20 0 21 0;
#X connect 21 0 0 0;
#X connect 21 0 2 0;
#X connect 23 0 17 0;
#X connect 23 0 24 0;
#X connect 24 0 4 0;
#X connect 24 0 6 0;
#X connect 26 0 18 0;
#X connect 26 0 27 0;
#X connect 27 0 7 0;
#X connect 27 0 9 0;
#X connect 29 0 19 0;
#X connect 29 0 30 0;
#X connect 30 0 10 0;
#X connect 30 0 12 0;
#X restore 208 169 pd diffusor-right;
#X obj 208 61 *~ 0.015;
#X obj 15 226 *~ 1;
#X obj 208 228 *~ 1;
#X obj 94 228 *~ 1;
#X obj 169 228 *~ 1;
#X obj 115 202 r \$0-dry;
#X obj 229 203 r \$0-wet;
#X obj 36 201 r \$0-wet;
#X obj 94 14 inlet~;
#X obj 208 14 inlet~;
#X obj 15 268 outlet~;
#X obj 169 269 outlet~;
#X obj 312 14 inlet;
#X obj 374 14 inlet;
#X obj 462 14 inlet;
#X obj 544 16 inlet;
#N canvas 92 117 207 207 room 0;
#X obj 32 35 inlet;
#X obj 32 63 * 0.28;
#X obj 32 94 + 0.7;
#X obj 32 160 outlet;
#X text 80 65 scaleroom;
#X text 76 94 offsetroom;
#X obj 47 126 s \$0-room;
#X connect 0 0 1 0;
#X connect 1 0 2 0;
#X connect 2 0 3 0;
#X connect 2 0 6 0;
#X restore 312 45 pd room;
#N canvas 684 169 244 376 frequency 0;
#X obj 60 222 samplerate~;
#X obj 33 8 inlet;
#X obj 33 194 t f b;
#X obj 33 249 *;
#X obj 53 303 s \$0-frequency;
#X obj 33 327 outlet;
#X obj 33 64 * 0.4;
#X text 76 66 scaledamp;
#X obj 33 90 t b f;
#X obj 33 141 -;
#X msg 33 116 1;
#X obj 33 168 abs;
#X obj 33 275 * 0.5;
#X text 153 303 for [lop~];
#X obj 33 38 clip 0 2.4;
#X connect 0 0 3 1;
#X connect 1 0 14 0;
#X connect 2 0 3 0;
#X connect 2 1 0 0;
#X connect 3 0 12 0;
#X connect 6 0 8 0;
#X connect 8 0 10 0;
#X connect 8 1 9 1;
#X connect 9 0 11 0;
#X connect 10 0 9 0;
#X connect 11 0 2 0;
#X connect 12 0 5 0;
#X connect 12 0 4 0;
#X connect 14 0 6 0;
#X restore 374 45 pd frequency;
#N canvas 150 175 170 187 scalewet 0;
#X obj 22 42 inlet;
#X obj 22 143 outlet;
#X obj 22 73 * 3;
#X text 49 74 scalewet;
#X obj 40 112 s \$0-wet;
#X connect 0 0 2 0;
#X connect 2 0 1 0;
#X connect 2 0 4 0;
#X restore 544 45 pd scalewet;
#N canvas 121 146 220 198 scaledry 0;
#X obj 32 74 * 2;
#X obj 32 40 inlet;
#X obj 32 141 outlet;
#X text 58 75 scaledry;
#X obj 41 105 s \$0-dry;
#X connect 0 0 2 0;
#X connect 0 0 4 0;
#X connect 1 0 0 0;
#X restore 462 45 pd scaledry;
#X floatatom 312 70 5 0 0 0 - - - 0;
#X floatatom 374 70 10 0 0 0 - - - 0;
#X floatatom 462 69 5 0 0 0 - - - 0;
#X floatatom 544 69 5 0 0 0 - - - 0;
#N canvas 405 27 635 684 tuning 0;
#X msg 332 81 1139 \, 1211 \, 1300 \, 1379 \, 1445 \, 1514 \, 1580
\, 1640;
#X text 72 57 combfilter tunings left;
#X text 377 56 combfilter tunings right;
#X text 71 360 allpass tunings left;
#X text 383 355 allpass tunings right;
#N canvas 243 170 195 233 sampstoms 0;
#X obj 27 21 inlet;
#X obj 54 86 samplerate~;
#X obj 27 111 /;
#X obj 27 57 t f b;
#X obj 27 136 * 1000;
#X obj 27 162 outlet;
#X connect 0 0 3 0;
#X connect 1 0 2 1;
#X connect 2 0 4 0;
#X connect 3 0 2 0;
#X connect 3 1 1 0;
#X connect 4 0 5 0;
#X restore 30 107 pd sampstoms;
#X msg 30 82 1116 \, 1188 \, 1277 \, 1356 \, 1422 \, 1491 \, 1557 \,
1617;
#X obj 57 188 +;
#X msg 57 159 1;
#X obj 30 135 t f b;
#X obj 87 188 f;
#X obj 30 56 t b b;
#X msg 87 159 0;
#X obj 57 212 pack f \$0;
#X msg 57 238 \$2-comb\$1left;
#X obj 30 282 s;
#X obj 57 265 symbol;
#N canvas 0 22 195 233 sampstoms 0;
#X obj 27 21 inlet;
#X obj 54 86 samplerate~;
#X obj 27 111 /;
#X obj 27 57 t f b;
#X obj 27 136 * 1000;
#X obj 27 162 outlet;
#X connect 0 0 3 0;
#X connect 1 0 2 1;
#X connect 2 0 4 0;
#X connect 3 0 2 0;
#X connect 3 1 1 0;
#X connect 4 0 5 0;
#X restore 332 107 pd sampstoms;
#X obj 359 188 +;
#X msg 359 159 1;
#X obj 332 135 t f b;
#X obj 389 188 f;
#X msg 389 159 0;
#X obj 359 212 pack f \$0;
#X obj 332 282 s;
#X obj 359 265 symbol;
#X obj 332 56 t b b;
#X msg 359 238 \$2-comb\$1right;
#X obj 30 360 t b b;
#N canvas 0 22 195 233 sampstoms 0;
#X obj 27 21 inlet;
#X obj 54 86 samplerate~;
#X obj 27 111 /;
#X obj 27 57 t f b;
#X obj 27 136 * 1000;
#X obj 27 162 outlet;
#X connect 0 0 3 0;
#X connect 1 0 2 1;
#X connect 2 0 4 0;
#X connect 3 0 2 0;
#X connect 3 1 1 0;
#X connect 4 0 5 0;
#X restore 30 411 pd sampstoms;
#X obj 57 492 +;
#X msg 57 463 1;
#X obj 30 439 t f b;
#X obj 87 492 f;
#X msg 87 463 0;
#X obj 57 516 pack f \$0;
#X obj 30 586 s;
#X obj 57 569 symbol;
#X obj 334 356 t b b;
#N canvas 0 22 195 233 sampstoms 0;
#X obj 27 21 inlet;
#X obj 54 86 samplerate~;
#X obj 27 111 /;
#X obj 27 57 t f b;
#X obj 27 136 * 1000;
#X obj 27 162 outlet;
#X connect 0 0 3 0;
#X connect 1 0 2 1;
#X connect 2 0 4 0;
#X connect 3 0 2 0;
#X connect 3 1 1 0;
#X connect 4 0 5 0;
#X restore 334 407 pd sampstoms;
#X obj 361 488 +;
#X msg 361 459 1;
#X obj 334 435 t f b;
#X obj 391 488 f;
#X msg 391 459 0;
#X obj 361 512 pack f \$0;
#X obj 334 582 s;
#X obj 361 565 symbol;
#X obj 30 22 loadbang;
#X obj 332 27 loadbang;
#X obj 30 334 loadbang;
#X obj 334 331 loadbang;
#X obj 268 41 bng 15 250 50 0 empty empty empty 17 7 0 10 #fcfcfc #000000
#000000;
#X msg 30 386 225 \, 556 \, 441 \, 341;
#X msg 334 380 248 \, 579 \, 464 \, 364;
#X msg 57 542 \$2-allpass\$1left;
#X msg 361 539 \$2-allpass\$1right;
#X text 27 624 Original Freeverb delay line lengths are converted to
milliseconds \, based on samplerate.;
#X connect 0 0 17 0;
#X connect 5 0 9 0;
#X connect 6 0 5 0;
#X connect 7 0 10 0;
#X connect 7 0 13 0;
#X connect 8 0 7 0;
#X connect 9 0 15 0;
#X connect 9 1 8 0;
#X connect 10 0 7 1;
#X connect 11 0 6 0;
#X connect 11 1 12 0;
#X connect 12 0 10 0;
#X connect 13 0 14 0;
#X connect 14 0 16 0;
#X connect 16 0 15 1;
#X connect 17 0 20 0;
#X connect 18 0 21 0;
#X connect 18 0 23 0;
#X connect 19 0 18 0;
#X connect 20 0 24 0;
#X connect 20 1 19 0;
#X connect 21 0 18 1;
#X connect 22 0 21 0;
#X connect 23 0 27 0;
#X connect 25 0 24 1;
#X connect 26 0 0 0;
#X connect 26 1 22 0;
#X connect 27 0 25 0;
#X connect 28 0 53 0;
#X connect 28 1 34 0;
#X connect 29 0 32 0;
#X connect 30 0 33 0;
#X connect 30 0 35 0;
#X connect 31 0 30 0;
#X connect 32 0 36 0;
#X connect 32 1 31 0;
#X connect 33 0 30 1;
#X connect 34 0 33 0;
#X connect 35 0 55 0;
#X connect 37 0 36 1;
#X connect 38 0 54 0;
#X connect 38 1 44 0;
#X connect 39 0 42 0;
#X connect 40 0 43 0;
#X connect 40 0 45 0;
#X connect 41 0 40 0;
#X connect 42 0 46 0;
#X connect 42 1 41 0;
#X connect 43 0 40 1;
#X connect 44 0 43 0;
#X connect 45 0 56 0;
#X connect 47 0 46 1;
#X connect 48 0 11 0;
#X connect 49 0 26 0;
#X connect 50 0 28 0;
#X connect 51 0 38 0;
#X connect 52 0 11 0;
#X connect 52 0 28 0;
#X connect 52 0 26 0;
#X connect 52 0 38 0;
#X connect 53 0 29 0;
#X connect 54 0 39 0;
#X connect 55 0 37 0;
#X connect 56 0 47 0;
#X restore 410 141 pd tuning;
#X connect 0 0 1 0;
#X connect 1 0 7 0;
#X connect 2 0 1 0;
#X connect 3 0 5 0;
#X connect 4 0 5 0;
#X connect 5 0 8 0;
#X connect 6 0 3 0;
#X connect 6 0 0 0;
#X connect 6 0 4 0;
#X connect 6 0 2 0;
#X connect 7 0 16 0;
#X connect 8 0 17 0;
#X connect 9 0 16 0;
#X connect 10 0 17 0;
#X connect 11 0 10 1;
#X connect 11 0 9 1;
#X connect 12 0 8 1;
#X connect 13 0 7 1;
#X connect 14 0 6 0;
#X connect 14 0 9 0;
#X connect 15 0 6 0;
#X connect 15 0 10 0;
#X connect 18 0 22 0;
#X connect 19 0 23 0;
#X connect 20 0 25 0;
#X connect 21 0 24 0;
#X connect 22 0 26 0;
#X connect 23 0 27 0;
#X connect 24 0 29 0;
#X connect 25 0 28 0;
#X restore 79 311 pd vfreeverb~;
#X obj 311 267 / 508, f 8;
#X msg 235 74 0;
#X msg 295 87 0;
#X obj 343 222 / 127;
#X obj 311 186 r \$0-reverb;
#X connect 1 0 8 0;
#X connect 1 0 8 1;
#X connect 2 0 7 0;
#X connect 3 0 11 0;
#X connect 3 0 10 0;
#X connect 4 0 8 2;
#X connect 5 0 8 3;
#X connect 6 0 8 5;
#X connect 7 0 8 4;
#X connect 8 0 0 0;
#X connect 8 1 0 0;
#X connect 9 0 2 0;
#X connect 9 0 6 0;
#X connect 10 0 4 0;
#X connect 10 0 6 0;
#X connect 11 0 5 0;
#X connect 12 0 4 0;
#X connect 13 0 9 0;
#X connect 13 0 12 0;
#X restore 41 85 pd reverb;
#X obj 31 326 dac~;
#N canvas 119 125 690 377 bitcrush 0;
#X obj 425 188 samphold~;
#X obj 480 165 phasor~;
#X obj 184 83 inlet~;
#X obj 200 302 outlet~;
#X obj 480 76 expr (127 - $f1) / 127;
#X obj 184 269 *~ 1;
#X obj 225 267 *~ 0;
#X obj 246 143 > 0.95;
#X obj 205 223 line;
#X msg 205 198 \$1 15;
#X obj 246 222 line;
#X msg 246 197 \$1 15;
#X obj 246 171 expr 1 - $f1;
#X obj 480 105 * 4000;
#X obj 480 135 + 3000;
#X obj 480 48 r \$0-bitcrush;
#X connect 0 0 6 0;
#X connect 1 0 0 1;
#X connect 2 0 0 0;
#X connect 2 0 5 0;
#X connect 4 0 7 0;
#X connect 4 0 13 0;
#X connect 5 0 3 0;
#X connect 6 0 3 0;
#X connect 7 0 12 0;
#X connect 7 0 9 0;
#X connect 8 0 5 1;
#X connect 9 0 8 0;
#X connect 10 0 6 1;
#X connect 11 0 10 0;
#X connect 12 0 11 0;
#X connect 13 0 14 0;
#X connect 14 0 1 0;
#X connect 15 0 4 0;
#X restore 41 111 pd bitcrush;
#N canvas 86 238 591 408 ringMod 0;
#X obj 76 360 outlet~;
#X obj 139 318 *~;
#X obj 18 320 *~;
#X obj 179 116 loadbang;
#X msg 179 137 0;
#X obj 18 141 inlet~;
#X obj 33 223 mtof;
#X obj 33 246 osc~;
#X obj 18 271 *~;
#X text 158 10 wet/dry/freq;
#X obj 33 297 line~, f 6;
#X msg 155 191 0 15;
#X msg 242 191 0.5 15;
#X msg 196 191 1 15;
#X obj 154 290 line~;
#X obj 155 162 moses 5;
#X obj 159 36 r \$0-ringMod;
#X connect 1 0 0 0;
#X connect 2 0 0 0;
#X connect 3 0 4 0;
#X connect 4 0 15 0;
#X connect 5 0 8 0;
#X connect 5 0 1 0;
#X connect 6 0 7 0;
#X connect 7 0 8 1;
#X connect 8 0 2 0;
#X connect 10 0 2 1;
#X connect 11 0 10 0;
#X connect 12 0 10 0;
#X connect 12 0 14 0;
#X connect 13 0 14 0;
#X connect 14 0 1 1;
#X connect 15 0 13 0;
#X connect 15 0 11 0;
#X connect 15 1 12 0;
#X connect 16 0 6 0;
#X connect 16 0 15 0;
#X restore 41 137 pd ringMod;
#N canvas 442 208 459 417 delay 0;
#X obj 153 156 vline~;
#X msg 153 135 \$1 200;
#X obj 56 211 inlet~;
#X obj 70 342 outlet~;
#X obj 218 98 / 127;
#X obj 79 237 s~ drumPitch;
#X obj 245 261 r~ drumPitch;
#X obj 171 193 vd~ drumPitch;
#X obj 241 299 delwrite~ drumPitch 2000;
#X obj 154 47 * 16;
#X obj 191 235 *~ 0;
#X obj 56 296 *~ 0.5;
#X obj 102 296 *~ 0.5;
#X obj 154 20 r \$0-delaytime;
#X obj 218 71 r \$0-feedback;
#X connect 0 0 7 0;
#X connect 1 0 0 0;
#X connect 2 0 11 0;
#X connect 2 0 5 0;
#X connect 4 0 10 1;
#X connect 6 0 8 0;
#X connect 7 0 10 0;
#X connect 9 0 1 0;
#X connect 10 0 8 0;
#X connect 10 0 12 0;
#X connect 11 0 3 0;
#X connect 12 0 3 0;
#X connect 13 0 9 0;
#X connect 14 0 4 0;
#X restore 41 188 pd delay;
#N canvas 158 162 477 481 distortion 0;
#X obj 71 28 inlet~;
#X obj 71 408 outlet~;
#X obj 148 61 *~ 40;
#X obj 148 84 clip~ -0.5 0.5;
#X obj 148 349 *~ 0.3;
#X obj 71 321 *~ 1;
#X obj 148 321 *~ 0;
#X msg 92 275 \$1 15;
#X msg 169 273 \$1 15;
#X obj 92 297 line;
#X obj 169 295 line;
#X obj 169 204 / 127;
#X obj 254 207 expr (127 - $f1) / 127;
#X obj 184 124 r \$0-distortion;
#X connect 0 0 2 0;
#X connect 0 0 5 0;
#X connect 2 0 3 0;
#X connect 3 0 6 0;
#X connect 4 0 1 0;
#X connect 5 0 1 0;
#X connect 6 0 4 0;
#X connect 7 0 9 0;
#X connect 8 0 10 0;
#X connect 9 0 5 1;
#X connect 10 0 6 1;
#X connect 11 0 8 0;
#X connect 12 0 7 0;
#X connect 13 0 11 0;
#X connect 13 0 12 0;
#X restore 41 163 pd distortion;
#X obj 41 295 *~;
#X obj 120 189 r \$0-FXvol;
#X obj 120 215 / 127;
#X msg 120 241 \$1 15;
#X obj 120 267 line~;
#N canvas 256 150 513 476 init 0;
#X obj 34 39 loadbang;
#X obj 34 71 float \$0;
#X msg 34 105 \; pd dsp 1 \; \$1-FXvol-set 50 \; \$1-reverb-set 50
\; \$1-bitcrush-set 0 \; \$1-ringMod-set 0 \; \$1-distortion-set 20
\; \$1-delaytime-set 30 \; \$1-feedback-set 50 \;;
#X connect 0 0 1 0;
#X connect 1 0 2 0;
#X restore 41 12 pd init;
#X connect 0 0 2 0;
#X connect 1 0 2 0;
#X connect 2 0 4 0;
#X connect 4 0 5 0;
#X connect 5 0 7 0;
#X connect 6 0 8 0;
#X connect 7 0 6 0;
#X connect 8 0 3 0;
#X connect 8 0 3 1;
#X connect 9 0 10 0;
#X connect 10 0 11 0;
#X connect 11 0 12 0;
#X connect 12 0 8 1;
#X restore 1096 56 pd FX;
#N canvas 602 93 514 516 drumbox 0;
#X obj 6 6 drumbox_app;
#X restore 1096 94 pd drumbox;
#N canvas 618 94 613 613 synthesizer 0;
#X obj 6 6 synthesizer_app;
#X restore 1096 118 pd synthesizer;
#X obj 1096 157 pdcontrol;
#X obj 356 122 tgl 70 0 \$0-togdrums \$0-togdrums-set empty 17 7 0
10 #00314b #027da2 #000000 0 1;
#X obj 1096 182 r \$0-togdrums;
#X msg 1096 208 vis \$1;
#X obj 1096 234 s pd-drumbox;
#X obj 359 569 tgl 70 0 \$0-togsynth \$0-togsynth-set empty 17 7 0
10 #00314b #027da1 #000000 0 1;
#X msg 1204 208 vis \$1;
#X obj 1204 182 r \$0-togsynth;
#X obj 1204 234 s pd-synthesizer;
#X obj 186 134 else/note 720 30 monaco empty 0 0 50 75 0 255 255 255
0 0 DRUMS >>;
#X obj 185 581 else/note 720 30 monaco empty 0 0 50 75 0 255 255 255
0 0 SYNTH >>;
#X obj 187 227 bng 60 250 50 0 click1 q-click1 empty 17 7 0 10 #037da4
#00314b #000000;
#X obj 277 227 bng 60 250 50 0 click2 w-click2 empty 17 7 0 10 #037da3
#00314b #000000;
#X obj 365 227 bng 60 250 50 0 click3 e-click3 empty 17 7 0 10 #027da2
#00314b #000000;
#X obj 189 316 bng 60 250 50 0 click4 a-click4 empty 17 7 0 10 #037da3
#00314b #000000;
#X obj 278 316 bng 60 250 50 0 click5 s-click5 empty 17 7 0 10 #027da2
#00314b #000000;
#X obj 366 316 bng 60 250 50 0 click6 d-click6 empty 17 7 0 10 #027da1
#00314b #000000;
#X obj 190 408 bng 60 250 50 0 click7 z-click7 empty 17 7 0 10 #027da2
#00314b #000000;
#X obj 279 408 bng 60 250 50 0 click8 x-click8 empty 17 7 0 10 #027da1
#00314b #000000;
#X obj 367 407 bng 60 250 50 0 click9 c-click9 empty 17 7 0 10 #027da0
#00314b #000000;
#X text 212 290 Q;
#X text 301 292 W;
#X text 387 290 E;
#X text 213 380 A;
#X text 303 379 S;
#X text 390 379 D;
#X text 215 474 Z;
#X text 304 472 X;
#X text 391 471 C;
#X obj 571 85 cnv 15 450 572 empty empty empty 20 12 0 14 #82ccd6 #404040
0;
#X obj 731 137 hsl 128 60 0 127 0 0 \$0-FXvol \$0-FXvol-set empty -2
-8 0 10 #00314b #027da2 #000000 0 1;
#X text 686 230 reverb;
#X text 850 360 bit crush;
#X text 850 495 ring mode;
#X text 843 230 distortion;
#X text 675 361 delay time;
#X text 684 494 feedback;
#X obj 646 251 hsl 128 60 0 127 0 0 \$0-reverb \$0-reverb-set empty
-2 -8 0 10 #027da2 #00314b #000000 0 1;
#X obj 648 382 hsl 128 60 0 127 0 0 \$0-delaytime \$0-delaytime-set
empty -2 -8 0 10 #027da1 #00314b #000000 0 1;
#X obj 649 517 hsl 128 60 0 127 0 0 \$0-feedback \$0-feedback-set empty
-2 -8 0 10 #027da2 #00314b #000000 0 1;
#X text 776 111 volume;
#X obj 817 517 hsl 128 60 0 127 0 0 \$0-ringMod \$0-ringMod-set empty
-2 -8 0 10 #027da2 #00314b #000000 0 1;
#X obj 818 382 hsl 128 60 0 127 0 0 \$0-bitcrush \$0-bitcrush-set empty
-2 -8 0 10 #027da2 #00314b #000000 0 1;
#X obj 817 251 hsl 128 60 0 127 0 0 \$0-distortion \$0-distortion-set
empty -2 -8 0 10 #027da2 #00314b #000000 0 1;
#X obj 161 41 else/note 720 30 monaco empty 0 0 50 75 0 255 255 255
0 0 Play Drums/Synth;
#X obj 676 43 else/note 720 30 monaco empty 0 0 50 75 0 255 255 255
0 0 Sound Effects;
#X connect 10 0 11 0;
#X connect 11 0 12 0;
#X connect 14 0 16 0;
#X connect 15 0 14 0;
#X coords 0 -1 1 1 1080 720 1 10 10;
