#N canvas 0 28 1440 900 12;
#X obj 3 3 cnv 15 1280 768 empty empty empty 20 12 0 14 #e0e0e0 #404040
0;
#X obj 164 119 vsl 20 128 0 127 0 0 empty empty empty 0 -9 0 10 #c6feff
#000000 #000000 0 1;
#X obj 255 119 vsl 20 128 0 127 0 0 empty empty empty 0 -9 0 10 #c6feff
#000000 #000000 0 1;
#X obj 344 120 vsl 20 128 0 127 0 0 empty empty empty 0 -9 0 10 #c6feff
#000000 #000000 0 1;
#X obj 434 120 vsl 20 128 0 127 0 0 empty empty empty 0 -9 0 10 #e3c6ff
#000000 #000000 0 1;
#X obj 525 120 vsl 20 128 0 127 0 0 empty empty empty 0 -9 0 10 #ffc7c6
#000000 #000000 0 1;
#X obj 612 120 vsl 20 128 0 127 0 0 empty empty empty 0 -9 0 10 #ffe3c6
#000000 #000000 0 1;
#X obj 700 119 vsl 20 128 0 127 0 0 empty empty empty 0 -9 0 10 #c7c6ff
#000000 #000000 0 1;
#X obj 783 120 vsl 20 128 0 127 0 0 empty empty empty 0 -9 0 10 #ffc7c6
#000000 #000000 0 1;
#X obj 867 121 vsl 20 128 0 127 0 0 empty empty empty 0 -9 0 10 #e3c6ff
#000000 #000000 0 1;
#X obj 955 122 vsl 20 128 0 127 0 0 empty empty empty 0 -9 0 10 #ffe3c6
#000000 #000000 0 1;
#X obj 1044 123 vsl 20 128 0 127 0 0 empty empty empty 0 -9 0 10 #c6ffc7
#000000 #000000 0 1;
#X text 182 252 delay time;
#X text 323 253 feedback;
#X text 418 251 reverb;
#X text 510 252 cutoff;
#X text 677 252 bit crush;
#X text 761 253 distortion;
#X text 844 253 tape glitch;
#X text 595 252 ringmod;
#X text 928 253 re-trigger;
#X text 1029 255 post vol;
#X obj 436 87 tgl 15 0 empty empty empty 17 7 0 10 #fcfcfc #000000
#000000 0 1;
#X obj 526 86 tgl 15 0 empty empty empty 17 7 0 10 #fcfcfc #000000
#000000 0 1;
#X obj 612 85 tgl 15 0 empty empty empty 17 7 0 10 #fcfcfc #000000
#000000 0 1;
#X obj 703 84 tgl 15 0 empty empty empty 17 7 0 10 #fcfcfc #000000
#000000 0 1;
#X obj 786 84 tgl 15 0 empty empty empty 17 7 0 10 #fcfcfc #000000
#000000 0 1;
#X obj 868 84 tgl 15 0 empty empty empty 17 7 0 10 #fcfcfc #000000
#000000 0 1;
#X obj 194 407 hradio 20 1 0 4 empty empty empty 0 -8 0 10 #c6feff
#000000 #000000 0;
#X text 114 409 drum bank;
#X obj 584 375 hradio 20 1 0 3 \$0-octave empty empty 0 -8 0 10 #c6feff
#000000 #000000 0;
#X text 524 377 octave;
#X text 198 387 A;
#X text 216 387 B;
#X text 236 387 C;
#X text 256 387 D;
#X obj 534 430 moonlib/mknob 50 100 0 127 0 0 \$0-attack empty empty
-2 -6 0 8 #ffc7c6 #000000 #000000 0 1;
#X obj 617 429 moonlib/mknob 50 100 0 127 0 0 \$0-release empty empty
-2 -6 0 8 #ffe3c6 #000000 #000000 0 1;
#X obj 699 428 moonlib/mknob 50 100 0 127 0 0 \$0-synthshape empty
empty -2 -6 0 8 #c6feff #000000 #000000 0 1;
#X obj 783 428 moonlib/mknob 50 100 0 127 0 0 \$0-index empty empty
-2 -6 0 8 #c6ffc7 #000000 #000000 0 1;
#X obj 866 428 moonlib/mknob 50 100 0 127 0 0 \$0-synthrate empty empty
-2 -6 0 8 #feffc6 #000000 #000000 0 1;
#X obj 953 428 moonlib/mknob 50 100 0 127 0 0 \$0-glide empty empty
-2 -6 0 8 #e3c6ff #000000 #000000 0 1;
#X obj 1036 427 moonlib/mknob 50 100 0 127 0 0 \$0-synthvol empty empty
-2 -6 0 8 #c7c6ff #000000 #000000 1600 1;
#X text 536 490 attack;
#X text 615 490 release;
#X text 706 490 shape;
#X text 765 489 vibrato amt;
#X text 854 488 vibrato rate;
#X text 962 489 glide;
#X text 1041 489 volume;
#X obj 386 520 vsl 20 128 0 127 0 0 empty empty empty 0 -9 0 10 #c6ffc7
#000000 #000000 0 1;
#X text 357 652 drum volume;
#X obj 529 608 tgl 40 0 \$0-c empty empty 17 7 0 10 #c6feff #000000
#000000 0 1;
#X obj 608 608 tgl 40 0 \$0-d empty empty 17 7 0 10 #c6feff #000000
#000000 0 1;
#X obj 684 607 tgl 40 0 \$0-e empty empty 17 7 0 10 #c6feff #000000
#000000 0 1;
#X obj 752 607 tgl 40 0 \$0-fN empty empty 17 7 0 10 #c6feff #000000
#000000 0 1;
#X obj 826 606 tgl 40 0 \$0-g empty empty 17 7 0 10 #c6feff #000000
#000000 0 1;
#X obj 897 608 tgl 40 0 \$0-a empty empty 17 7 0 10 #c6feff #000000
#000000 0 1;
#X obj 972 610 tgl 40 0 \$0-b empty empty 17 7 0 10 #c6feff #000000
#000000 0 1;
#X obj 935 543 tgl 40 0 \$0-aS empty empty 17 7 0 10 #c7c6ff #000000
#000000 0 1;
#X obj 861 545 tgl 40 0 \$0-gS empty empty 17 7 0 10 #c7c6ff #000000
#000000 0 1;
#X obj 783 546 tgl 40 0 \$0-fs empty empty 17 7 0 10 #c7c6ff #000000
#000000 0 1;
#X obj 640 549 tgl 40 0 \$0-dS empty empty 17 7 0 10 #c7c6ff #000000
#000000 0 1;
#X obj 563 548 tgl 40 0 \$0-cS empty empty 17 7 0 10 #c7c6ff #000000
#000000 0 1;
#X obj 1293 47 poly 4 1;
#X obj 1293 72 pack 0 0 0;
#X obj 1293 97 route 1 2 3 4;
#N canvas 0 25 1440 778 note 0;
#X obj 49 344 select 1, f 9;
#X obj 139 344 select 1, f 9;
#X obj 229 344 select 1, f 9;
#X obj 593 652 outlet;
#X obj 329 344 select 1, f 9;
#X obj 429 344 select 1, f 9;
#X obj 519 344 select 1, f 9;
#X obj 609 344 select 1, f 9;
#X obj 699 344 select 1, f 9;
#X obj 799 344 select 1, f 9;
#X obj 889 344 select 1, f 9;
#X obj 979 344 select 1, f 9;
#X obj 1069 344 select 1, f 9;
#X msg 49 467 \$1 127;
#X obj 100 399 bng 15 250 50 0 empty empty empty 17 7 0 10 #fcfcfc
#000000 #000000;
#X msg 100 467 \$1 0;
#X obj 49 428 60;
#X obj 100 428 60;
#X obj 190 399 bng 15 250 50 0 empty empty empty 17 7 0 10 #fcfcfc
#000000 #000000;
#X msg 139 467 \$1 127;
#X msg 190 467 \$1 0;
#X obj 190 428 61;
#X obj 139 428 61;
#X msg 229 467 \$1 127;
#X msg 280 467 \$1 0;
#X msg 329 467 \$1 127;
#X msg 380 467 \$1 0;
#X obj 280 399 bng 15 250 50 0 empty empty empty 17 7 0 10 #fcfcfc
#000000 #000000;
#X obj 229 428 62;
#X obj 280 428 62;
#X obj 380 399 bng 15 250 50 0 empty empty empty 17 7 0 10 #fcfcfc
#000000 #000000;
#X obj 329 428 63;
#X obj 380 428 63;
#X obj 480 399 bng 15 250 50 0 empty empty empty 17 7 0 10 #fcfcfc
#000000 #000000;
#X msg 429 467 \$1 127;
#X msg 480 467 \$1 0;
#X obj 429 428 64;
#X obj 480 428 64;
#X obj 570 399 bng 15 250 50 0 empty empty empty 17 7 0 10 #fcfcfc
#000000 #000000;
#X obj 519 428 65;
#X obj 570 428 65;
#X msg 519 467 \$1 127;
#X msg 570 467 \$1 0;
#X obj 660 399 bng 15 250 50 0 empty empty empty 17 7 0 10 #fcfcfc
#000000 #000000;
#X msg 609 467 \$1 127;
#X msg 660 467 \$1 0;
#X obj 609 428 66;
#X obj 660 428 66;
#X obj 750 399 bng 15 250 50 0 empty empty empty 17 7 0 10 #fcfcfc
#000000 #000000;
#X obj 699 428 67;
#X obj 750 428 67;
#X msg 699 467 \$1 127;
#X msg 750 467 \$1 0;
#X obj 850 399 bng 15 250 50 0 empty empty empty 17 7 0 10 #fcfcfc
#000000 #000000;
#X obj 799 428 68;
#X obj 850 428 68;
#X msg 799 467 \$1 127;
#X msg 850 467 \$1 0;
#X obj 940 399 bng 15 250 50 0 empty empty empty 17 7 0 10 #fcfcfc
#000000 #000000;
#X obj 889 428 69;
#X obj 940 428 69;
#X msg 889 467 \$1 127;
#X msg 940 467 \$1 0;
#X obj 1030 399 bng 15 250 50 0 empty empty empty 17 7 0 10 #fcfcfc
#000000 #000000;
#X obj 979 428 70;
#X obj 1030 428 70;
#X msg 979 467 \$1 127;
#X msg 1030 467 \$1 0;
#X obj 1120 399 bng 15 250 50 0 empty empty empty 17 7 0 10 #fcfcfc
#000000 #000000;
#X obj 1069 428 71;
#X obj 1120 428 71;
#X msg 1069 467 \$1 127;
#X msg 1120 467 \$1 0;
#X obj 66 151 sel 0 1 2;
#X obj 48 189 s octMin;
#X obj 116 189 s octCen;
#X obj 185 190 s octMax;
#X obj 49 316 r \$0-c;
#X obj 138 311 r \$0-cS;
#X obj 226 312 r \$0-d;
#X obj 325 312 r \$0-dS;
#X obj 427 309 r \$0-e;
#X obj 513 310 r \$0-fN;
#X obj 605 310 r \$0-fs;
#X obj 694 307 r \$0-g;
#X obj 793 312 r \$0-gS;
#X obj 887 315 r \$0-a;
#X obj 980 310 r \$0-aS;
#X obj 1066 309 r \$0-b;
#X obj 66 111 r \$0-octave;
#X obj 42 257 guiKeys 60 cK;
#X obj 122 236 guiKeys 61 cSK;
#X obj 215 259 guiKeys 62 dK;
#X obj 280 234 guiKeys 63 dSK;
#X obj 370 260 guiKeys 64 eK;
#X obj 479 262 guiKeys 65 fNK;
#X obj 562 235 guiKeys 66 fsK;
#X obj 653 261 guiKeys 67 gK;
#X obj 728 233 guiKeys 68 gSK;
#X obj 830 256 guiKeys 69 aK;
#X obj 917 233 guiKeys 70 aSK;
#X obj 1016 254 guiKeys 71 bK;
#X obj 69 384 r cK;
#X obj 159 384 r cSK;
#X obj 249 384 r dK;
#X obj 349 384 r dSK;
#X obj 449 384 r eK;
#X obj 539 384 r fNK;
#X obj 629 384 r fsK;
#X obj 719 384 r gK;
#X obj 819 384 r gSK;
#X obj 909 384 r aK;
#X obj 999 384 r aSK;
#X obj 1089 384 r bK;
#X connect 0 0 16 0;
#X connect 0 1 14 0;
#X connect 1 0 22 0;
#X connect 1 1 18 0;
#X connect 2 0 28 0;
#X connect 2 1 27 0;
#X connect 4 0 31 0;
#X connect 4 1 30 0;
#X connect 5 0 36 0;
#X connect 5 1 33 0;
#X connect 6 0 39 0;
#X connect 6 1 38 0;
#X connect 7 0 46 0;
#X connect 7 1 43 0;
#X connect 8 0 49 0;
#X connect 8 1 48 0;
#X connect 9 0 54 0;
#X connect 9 1 53 0;
#X connect 10 0 59 0;
#X connect 10 1 58 0;
#X connect 11 0 64 0;
#X connect 11 1 63 0;
#X connect 12 0 69 0;
#X connect 12 1 68 0;
#X connect 13 0 3 0;
#X connect 14 0 17 0;
#X connect 15 0 3 0;
#X connect 16 0 13 0;
#X connect 17 0 15 0;
#X connect 18 0 21 0;
#X connect 19 0 3 0;
#X connect 20 0 3 0;
#X connect 21 0 20 0;
#X connect 22 0 19 0;
#X connect 23 0 3 0;
#X connect 24 0 3 0;
#X connect 25 0 3 0;
#X connect 26 0 3 0;
#X connect 27 0 29 0;
#X connect 28 0 23 0;
#X connect 29 0 24 0;
#X connect 30 0 32 0;
#X connect 31 0 25 0;
#X connect 32 0 26 0;
#X connect 33 0 37 0;
#X connect 34 0 3 0;
#X connect 35 0 3 0;
#X connect 36 0 34 0;
#X connect 37 0 35 0;
#X connect 38 0 40 0;
#X connect 39 0 41 0;
#X connect 40 0 42 0;
#X connect 41 0 3 0;
#X connect 42 0 3 0;
#X connect 43 0 47 0;
#X connect 44 0 3 0;
#X connect 45 0 3 0;
#X connect 46 0 44 0;
#X connect 47 0 45 0;
#X connect 48 0 50 0;
#X connect 49 0 51 0;
#X connect 50 0 52 0;
#X connect 51 0 3 0;
#X connect 52 0 3 0;
#X connect 53 0 55 0;
#X connect 54 0 56 0;
#X connect 55 0 57 0;
#X connect 56 0 3 0;
#X connect 57 0 3 0;
#X connect 58 0 60 0;
#X connect 59 0 61 0;
#X connect 60 0 62 0;
#X connect 61 0 3 0;
#X connect 62 0 3 0;
#X connect 63 0 65 0;
#X connect 64 0 66 0;
#X connect 65 0 67 0;
#X connect 66 0 3 0;
#X connect 67 0 3 0;
#X connect 68 0 70 0;
#X connect 69 0 71 0;
#X connect 70 0 72 0;
#X connect 71 0 3 0;
#X connect 72 0 3 0;
#X connect 73 0 74 0;
#X connect 73 1 75 0;
#X connect 73 2 76 0;
#X connect 77 0 0 0;
#X connect 78 0 1 0;
#X connect 79 0 2 0;
#X connect 80 0 4 0;
#X connect 81 0 5 0;
#X connect 82 0 6 0;
#X connect 83 0 7 0;
#X connect 84 0 8 0;
#X connect 85 0 9 0;
#X connect 86 0 10 0;
#X connect 87 0 11 0;
#X connect 88 0 12 0;
#X connect 89 0 73 0;
#X connect 102 0 16 1;
#X connect 102 0 17 1;
#X connect 103 0 21 1;
#X connect 103 0 22 1;
#X connect 104 0 28 1;
#X connect 104 0 29 1;
#X connect 105 0 31 1;
#X connect 105 0 32 1;
#X connect 106 0 36 1;
#X connect 106 0 37 1;
#X connect 107 0 39 1;
#X connect 107 0 40 1;
#X connect 108 0 46 1;
#X connect 108 0 47 1;
#X connect 109 0 49 1;
#X connect 109 0 50 1;
#X connect 110 0 54 1;
#X connect 110 0 55 1;
#X connect 111 0 59 1;
#X connect 111 0 60 1;
#X connect 112 0 64 1;
#X connect 112 0 65 1;
#X connect 113 0 69 1;
#X connect 113 0 70 1;
#X restore 1293 23 pd note;
#N canvas 50 100 1207 688 synth 0;
#X obj 49 107 mtof;
#X obj 906 1162 outlet~;
#X obj 49 24 inlet, f 7;
#X obj 49 70 unpack 0 0;
#X obj 126 116 sel 0;
#X obj 936 846 * 20;
#X obj 1008 850 * 20;
#X obj 1008 825 + 1;
#X obj 937 823 + 1;
#X obj 921 1024 vline~;
#X msg 921 988 0 \$1;
#X msg 994 988 1 \$1 \, 0.5 1000 1000;
#X obj 994 962 10;
#X obj 921 938 bng 15 250 50 0 empty empty empty 17 7 0 10 #fcfcfc
#000000 #000000;
#X obj 906 1050 *~;
#X obj 994 941 bng 15 250 50 0 empty empty empty 17 7 0 10 #fcfcfc
#000000 #000000;
#X obj 521 418 +~;
#X obj 521 484 osc~;
#X obj 560 484 osc~;
#X obj 560 460 *~ 2;
#X obj 521 309 osc~ 30;
#X obj 521 363 *~ 10;
#X obj 839 643 noise~;
#X obj 839 676 *~ 0.01;
#X obj 921 962 500;
#X obj 646 315 expr~ $v1 > 0.5;
#X obj 646 415 +~;
#X obj 722 446 *~ 2;
#X obj 743 494 expr~ $v1 > 0.5;
#X obj 743 471 phasor~ 30;
#X obj 646 494 expr~ $v1 > 0.5;
#X obj 646 471 phasor~ 30;
#X obj 646 292 phasor~ 10;
#X obj 743 641 *~;
#X obj 758 617 line~;
#X obj 758 563 expr 1 - $f1;
#X msg 758 590 \$1 15;
#X obj 603 641 *~;
#X obj 618 617 line~;
#X msg 618 590 \$1 15;
#X obj 646 360 *~ 10;
#X obj 878 494 / 127;
#X obj 521 251 inlet;
#X obj 790 312 inlet;
#X obj 878 458 inlet;
#X obj 906 1137 *~ 0.2;
#X obj 743 669 *~ 0.5;
#X msg 96 236 \$1 \$2;
#X obj 96 259 line;
#X obj 96 211 pack \$1 0;
#X obj 1133 143 inlet;
#X obj 898 801 r \$0-release;
#X obj 998 801 r \$0-attack;
#X connect 0 0 49 0;
#X connect 2 0 3 0;
#X connect 3 0 0 0;
#X connect 3 1 4 0;
#X connect 4 0 13 0;
#X connect 4 1 15 0;
#X connect 5 0 24 1;
#X connect 6 0 12 1;
#X connect 7 0 6 0;
#X connect 8 0 5 0;
#X connect 9 0 14 1;
#X connect 10 0 9 0;
#X connect 11 0 9 0;
#X connect 12 0 11 0;
#X connect 13 0 24 0;
#X connect 14 0 45 0;
#X connect 15 0 12 0;
#X connect 16 0 17 0;
#X connect 16 0 19 0;
#X connect 17 0 37 0;
#X connect 18 0 37 0;
#X connect 19 0 18 0;
#X connect 20 0 21 0;
#X connect 21 0 16 0;
#X connect 22 0 23 0;
#X connect 23 0 14 0;
#X connect 24 0 10 0;
#X connect 25 0 40 0;
#X connect 26 0 27 0;
#X connect 26 0 31 0;
#X connect 27 0 29 0;
#X connect 28 0 33 0;
#X connect 29 0 28 0;
#X connect 30 0 33 0;
#X connect 31 0 30 0;
#X connect 32 0 25 0;
#X connect 33 0 46 0;
#X connect 34 0 33 1;
#X connect 35 0 36 0;
#X connect 36 0 34 0;
#X connect 37 0 14 0;
#X connect 38 0 37 1;
#X connect 39 0 38 0;
#X connect 40 0 26 0;
#X connect 41 0 39 0;
#X connect 41 0 35 0;
#X connect 42 0 20 0;
#X connect 42 0 32 0;
#X connect 43 0 21 1;
#X connect 43 0 40 1;
#X connect 44 0 41 0;
#X connect 45 0 1 0;
#X connect 46 0 14 0;
#X connect 47 0 48 0;
#X connect 48 0 26 1;
#X connect 48 0 16 1;
#X connect 49 0 47 0;
#X connect 50 0 49 1;
#X connect 51 0 8 0;
#X connect 52 0 7 0;
#X restore 1293 214 pd synth;
#N canvas 0 28 1440 900 synth 0;
#X obj 49 107 mtof;
#X obj 906 1162 outlet~;
#X obj 49 24 inlet, f 7;
#X obj 49 70 unpack 0 0;
#X obj 126 116 sel 0;
#X obj 936 846 * 20;
#X obj 1008 850 * 20;
#X obj 1008 825 + 1;
#X obj 937 823 + 1;
#X obj 921 1024 vline~;
#X msg 921 988 0 \$1;
#X msg 994 988 1 \$1 \, 0.5 1000 1000;
#X obj 994 962 10;
#X obj 921 938 bng 15 250 50 0 empty empty empty 17 7 0 10 #fcfcfc
#000000 #000000;
#X obj 906 1050 *~;
#X obj 994 941 bng 15 250 50 0 empty empty empty 17 7 0 10 #fcfcfc
#000000 #000000;
#X obj 521 418 +~;
#X obj 521 484 osc~;
#X obj 560 484 osc~;
#X obj 560 460 *~ 2;
#X obj 521 309 osc~ 30;
#X obj 521 363 *~ 10;
#X obj 839 643 noise~;
#X obj 839 676 *~ 0.01;
#X obj 921 962 500;
#X obj 646 315 expr~ $v1 > 0.5;
#X obj 646 415 +~;
#X obj 722 446 *~ 2;
#X obj 743 494 expr~ $v1 > 0.5;
#X obj 743 471 phasor~ 30;
#X obj 646 494 expr~ $v1 > 0.5;
#X obj 646 471 phasor~ 30;
#X obj 646 292 phasor~ 10;
#X obj 743 641 *~;
#X obj 758 617 line~;
#X obj 758 563 expr 1 - $f1;
#X msg 758 590 \$1 15;
#X obj 603 641 *~;
#X obj 618 617 line~;
#X msg 618 590 \$1 15;
#X obj 646 360 *~ 10;
#X obj 878 494 / 127;
#X obj 521 251 inlet;
#X obj 790 312 inlet;
#X obj 878 458 inlet;
#X obj 906 1137 *~ 0.2;
#X obj 743 669 *~ 0.5;
#X msg 96 236 \$1 \$2;
#X obj 96 259 line;
#X obj 96 211 pack \$1 0;
#X obj 1133 143 inlet;
#X obj 898 801 r \$0-release;
#X obj 998 801 r \$0-attack;
#X connect 0 0 49 0;
#X connect 2 0 3 0;
#X connect 3 0 0 0;
#X connect 3 1 4 0;
#X connect 4 0 13 0;
#X connect 4 1 15 0;
#X connect 5 0 24 1;
#X connect 6 0 12 1;
#X connect 7 0 6 0;
#X connect 8 0 5 0;
#X connect 9 0 14 1;
#X connect 10 0 9 0;
#X connect 11 0 9 0;
#X connect 12 0 11 0;
#X connect 13 0 24 0;
#X connect 14 0 45 0;
#X connect 15 0 12 0;
#X connect 16 0 17 0;
#X connect 16 0 19 0;
#X connect 17 0 37 0;
#X connect 18 0 37 0;
#X connect 19 0 18 0;
#X connect 20 0 21 0;
#X connect 21 0 16 0;
#X connect 22 0 23 0;
#X connect 23 0 14 0;
#X connect 24 0 10 0;
#X connect 25 0 40 0;
#X connect 26 0 27 0;
#X connect 26 0 31 0;
#X connect 27 0 29 0;
#X connect 28 0 33 0;
#X connect 29 0 28 0;
#X connect 30 0 33 0;
#X connect 31 0 30 0;
#X connect 32 0 25 0;
#X connect 33 0 46 0;
#X connect 34 0 33 1;
#X connect 35 0 36 0;
#X connect 36 0 34 0;
#X connect 37 0 14 0;
#X connect 38 0 37 1;
#X connect 39 0 38 0;
#X connect 40 0 26 0;
#X connect 41 0 39 0;
#X connect 41 0 35 0;
#X connect 42 0 20 0;
#X connect 42 0 32 0;
#X connect 43 0 21 1;
#X connect 43 0 40 1;
#X connect 44 0 41 0;
#X connect 45 0 1 0;
#X connect 46 0 14 0;
#X connect 47 0 48 0;
#X connect 48 0 26 1;
#X connect 48 0 16 1;
#X connect 49 0 47 0;
#X connect 50 0 49 1;
#X connect 51 0 8 0;
#X connect 52 0 7 0;
#X restore 1665 213 pd synth;
#N canvas 0 28 1440 900 synth 0;
#X obj 49 107 mtof;
#X obj 906 1162 outlet~;
#X obj 49 24 inlet, f 7;
#X obj 49 70 unpack 0 0;
#X obj 126 116 sel 0;
#X obj 936 846 * 20;
#X obj 1008 850 * 20;
#X obj 1008 825 + 1;
#X obj 937 823 + 1;
#X obj 921 1024 vline~;
#X msg 921 988 0 \$1;
#X msg 994 988 1 \$1 \, 0.5 1000 1000;
#X obj 994 962 10;
#X obj 921 938 bng 15 250 50 0 empty empty empty 17 7 0 10 #fcfcfc
#000000 #000000;
#X obj 906 1050 *~;
#X obj 994 941 bng 15 250 50 0 empty empty empty 17 7 0 10 #fcfcfc
#000000 #000000;
#X obj 521 418 +~;
#X obj 521 484 osc~;
#X obj 560 484 osc~;
#X obj 560 460 *~ 2;
#X obj 521 309 osc~ 30;
#X obj 521 363 *~ 10;
#X obj 839 643 noise~;
#X obj 839 676 *~ 0.01;
#X obj 921 962 500;
#X obj 646 315 expr~ $v1 > 0.5;
#X obj 646 415 +~;
#X obj 722 446 *~ 2;
#X obj 743 494 expr~ $v1 > 0.5;
#X obj 743 471 phasor~ 30;
#X obj 646 494 expr~ $v1 > 0.5;
#X obj 646 471 phasor~ 30;
#X obj 646 292 phasor~ 10;
#X obj 743 641 *~;
#X obj 758 617 line~;
#X obj 758 563 expr 1 - $f1;
#X msg 758 590 \$1 15;
#X obj 603 641 *~;
#X obj 618 617 line~;
#X msg 618 590 \$1 15;
#X obj 646 360 *~ 10;
#X obj 878 494 / 127;
#X obj 521 251 inlet;
#X obj 790 312 inlet;
#X obj 878 458 inlet;
#X obj 906 1137 *~ 0.2;
#X obj 743 669 *~ 0.5;
#X msg 96 236 \$1 \$2;
#X obj 96 259 line;
#X obj 96 211 pack \$1 0;
#X obj 1133 143 inlet;
#X obj 898 801 r \$0-release;
#X obj 998 801 r \$0-attack;
#X connect 0 0 49 0;
#X connect 2 0 3 0;
#X connect 3 0 0 0;
#X connect 3 1 4 0;
#X connect 4 0 13 0;
#X connect 4 1 15 0;
#X connect 5 0 24 1;
#X connect 6 0 12 1;
#X connect 7 0 6 0;
#X connect 8 0 5 0;
#X connect 9 0 14 1;
#X connect 10 0 9 0;
#X connect 11 0 9 0;
#X connect 12 0 11 0;
#X connect 13 0 24 0;
#X connect 14 0 45 0;
#X connect 15 0 12 0;
#X connect 16 0 17 0;
#X connect 16 0 19 0;
#X connect 17 0 37 0;
#X connect 18 0 37 0;
#X connect 19 0 18 0;
#X connect 20 0 21 0;
#X connect 21 0 16 0;
#X connect 22 0 23 0;
#X connect 23 0 14 0;
#X connect 24 0 10 0;
#X connect 25 0 40 0;
#X connect 26 0 27 0;
#X connect 26 0 31 0;
#X connect 27 0 29 0;
#X connect 28 0 33 0;
#X connect 29 0 28 0;
#X connect 30 0 33 0;
#X connect 31 0 30 0;
#X connect 32 0 25 0;
#X connect 33 0 46 0;
#X connect 34 0 33 1;
#X connect 35 0 36 0;
#X connect 36 0 34 0;
#X connect 37 0 14 0;
#X connect 38 0 37 1;
#X connect 39 0 38 0;
#X connect 40 0 26 0;
#X connect 41 0 39 0;
#X connect 41 0 35 0;
#X connect 42 0 20 0;
#X connect 42 0 32 0;
#X connect 43 0 21 1;
#X connect 43 0 40 1;
#X connect 44 0 41 0;
#X connect 45 0 1 0;
#X connect 46 0 14 0;
#X connect 47 0 48 0;
#X connect 48 0 26 1;
#X connect 48 0 16 1;
#X connect 49 0 47 0;
#X connect 50 0 49 1;
#X connect 51 0 8 0;
#X connect 52 0 7 0;
#X restore 1414 214 pd synth;
#N canvas 0 28 1440 900 synth 0;
#X obj 49 107 mtof;
#X obj 906 1162 outlet~;
#X obj 49 24 inlet, f 7;
#X obj 49 70 unpack 0 0;
#X obj 126 116 sel 0;
#X obj 936 846 * 20;
#X obj 1008 850 * 20;
#X obj 1008 825 + 1;
#X obj 937 823 + 1;
#X obj 921 1024 vline~;
#X msg 921 988 0 \$1;
#X msg 994 988 1 \$1 \, 0.5 1000 1000;
#X obj 994 962 10;
#X obj 921 938 bng 15 250 50 0 empty empty empty 17 7 0 10 #fcfcfc
#000000 #000000;
#X obj 906 1050 *~;
#X obj 994 941 bng 15 250 50 0 empty empty empty 17 7 0 10 #fcfcfc
#000000 #000000;
#X obj 521 418 +~;
#X obj 521 484 osc~;
#X obj 560 484 osc~;
#X obj 560 460 *~ 2;
#X obj 521 309 osc~ 30;
#X obj 521 363 *~ 10;
#X obj 839 643 noise~;
#X obj 839 676 *~ 0.01;
#X obj 921 962 500;
#X obj 646 315 expr~ $v1 > 0.5;
#X obj 646 415 +~;
#X obj 722 446 *~ 2;
#X obj 743 494 expr~ $v1 > 0.5;
#X obj 743 471 phasor~ 30;
#X obj 646 494 expr~ $v1 > 0.5;
#X obj 646 471 phasor~ 30;
#X obj 646 292 phasor~ 10;
#X obj 743 641 *~;
#X obj 758 617 line~;
#X obj 758 563 expr 1 - $f1;
#X msg 758 590 \$1 15;
#X obj 603 641 *~;
#X obj 618 617 line~;
#X msg 618 590 \$1 15;
#X obj 646 360 *~ 10;
#X obj 878 494 / 127;
#X obj 521 251 inlet;
#X obj 790 312 inlet;
#X obj 878 458 inlet;
#X obj 906 1137 *~ 0.2;
#X obj 743 669 *~ 0.5;
#X msg 96 236 \$1 \$2;
#X obj 96 259 line;
#X obj 96 211 pack \$1 0;
#X obj 1133 143 inlet;
#X obj 898 801 r \$0-release;
#X obj 998 801 r \$0-attack;
#X connect 0 0 49 0;
#X connect 2 0 3 0;
#X connect 3 0 0 0;
#X connect 3 1 4 0;
#X connect 4 0 13 0;
#X connect 4 1 15 0;
#X connect 5 0 24 1;
#X connect 6 0 12 1;
#X connect 7 0 6 0;
#X connect 8 0 5 0;
#X connect 9 0 14 1;
#X connect 10 0 9 0;
#X connect 11 0 9 0;
#X connect 12 0 11 0;
#X connect 13 0 24 0;
#X connect 14 0 45 0;
#X connect 15 0 12 0;
#X connect 16 0 17 0;
#X connect 16 0 19 0;
#X connect 17 0 37 0;
#X connect 18 0 37 0;
#X connect 19 0 18 0;
#X connect 20 0 21 0;
#X connect 21 0 16 0;
#X connect 22 0 23 0;
#X connect 23 0 14 0;
#X connect 24 0 10 0;
#X connect 25 0 40 0;
#X connect 26 0 27 0;
#X connect 26 0 31 0;
#X connect 27 0 29 0;
#X connect 28 0 33 0;
#X connect 29 0 28 0;
#X connect 30 0 33 0;
#X connect 31 0 30 0;
#X connect 32 0 25 0;
#X connect 33 0 46 0;
#X connect 34 0 33 1;
#X connect 35 0 36 0;
#X connect 36 0 34 0;
#X connect 37 0 14 0;
#X connect 38 0 37 1;
#X connect 39 0 38 0;
#X connect 40 0 26 0;
#X connect 41 0 39 0;
#X connect 41 0 35 0;
#X connect 42 0 20 0;
#X connect 42 0 32 0;
#X connect 43 0 21 1;
#X connect 43 0 40 1;
#X connect 44 0 41 0;
#X connect 45 0 1 0;
#X connect 46 0 14 0;
#X connect 47 0 48 0;
#X connect 48 0 26 1;
#X connect 48 0 16 1;
#X connect 49 0 47 0;
#X connect 50 0 49 1;
#X connect 51 0 8 0;
#X connect 52 0 7 0;
#X restore 1534 212 pd synth;
#X obj 1402 70 r \$0-synthrate;
#X obj 1519 70 r \$0-index;
#X obj 1595 94 r \$0-synthshape;
#X obj 1710 69 r \$0-glide;
#X obj 1402 95 / 5;
#X obj 1519 95 / 5;
#X obj 1710 93 * 2;
#X obj 1293 283 expr~ $v1+$v2+$v3+$v4;
#X obj 1294 463 *~;
#X obj 1309 432 line~;
#X msg 1309 406 \$1 15;
#X obj 1309 348 r \$0-synthvol;
#X obj 1309 376 / 127;
#X obj 1294 503 dac~;
#X obj 98 547 tgl 40 0 \$0-btn9 empty empty 17 7 0 10 #c6feff #000000
#000000 0 1;
#X obj 150 547 tgl 40 0 \$0-btn10 empty empty 17 7 0 10 #c6feff #000000
#000000 0 1;
#X obj 204 547 tgl 40 0 \$0-btn11 empty empty 17 7 0 10 #c6feff #000000
#000000 0 1;
#X obj 98 653 tgl 40 0 btn1 empty empty 17 7 0 10 #c6feff #000000 #000000
0 1;
#X obj 150 653 tgl 40 0 \$0-btn2 empty empty 17 7 0 10 #c6feff #000000
#000000 0 1;
#X obj 204 653 tgl 40 0 \$0-btn3 empty empty 17 7 0 10 #c6feff #000000
#000000 0 1;
#X obj 99 600 tgl 40 0 \$0-btn5 empty empty 17 7 0 10 #c6ffc7 #000000
#000000 0 1;
#X obj 151 600 tgl 40 0 \$0-btn6 empty empty 17 7 0 10 #c6ffc7 #000000
#000000 0 1;
#X obj 205 600 tgl 40 0 \$0-btn7 empty empty 17 7 0 10 #c6ffc7 #000000
#000000 0 1;
#X obj 97 495 tgl 40 0 \$0-btn13 empty empty 17 7 0 10 #c6ffc7 #000000
#000000 0 1;
#X obj 149 495 tgl 40 0 \$0-btn14 empty empty 17 7 0 10 #c6ffc7 #000000
#000000 0 1;
#X obj 203 495 tgl 40 0 \$0-btn15 empty empty 17 7 0 10 #c6ffc7 #000000
#000000 0 1;
#X obj 257 494 tgl 40 0 \$0-btn16 empty empty 17 7 0 10 #ffc7c6 #000000
#000000 0 1;
#X obj 257 547 tgl 40 0 \$0-btn12 empty empty 17 7 0 10 #ffc7c6 #000000
#000000 0 1;
#X obj 259 601 tgl 40 0 \$0-btn8 empty empty 17 7 0 10 #ffc7c6 #000000
#000000 0 1;
#X obj 259 652 tgl 40 0 \$0-btn4 empty empty 17 7 0 10 #ffc7c6 #000000
#000000 0 1;
#X obj 54 655 bng 15 250 50 0 btn1 empty empty 17 7 0 10 #fcfcfc #000000
#000000;
#X connect 64 0 65 0;
#X connect 64 1 65 1;
#X connect 64 2 65 2;
#X connect 65 0 66 0;
#X connect 66 0 68 0;
#X connect 66 1 70 0;
#X connect 66 2 71 0;
#X connect 66 3 69 0;
#X connect 67 0 64 0;
#X connect 68 0 79 0;
#X connect 69 0 79 3;
#X connect 70 0 79 1;
#X connect 71 0 79 2;
#X connect 72 0 76 0;
#X connect 73 0 77 0;
#X connect 74 0 68 3;
#X connect 74 0 70 3;
#X connect 74 0 71 3;
#X connect 74 0 69 3;
#X connect 75 0 78 0;
#X connect 76 0 68 1;
#X connect 76 0 70 1;
#X connect 76 0 71 1;
#X connect 76 0 69 1;
#X connect 77 0 68 2;
#X connect 77 0 70 2;
#X connect 77 0 71 2;
#X connect 77 0 69 2;
#X connect 78 0 68 4;
#X connect 78 0 70 4;
#X connect 78 0 71 4;
#X connect 78 0 69 4;
#X connect 79 0 80 0;
#X connect 80 0 85 0;
#X connect 80 0 85 1;
#X connect 81 0 80 1;
#X connect 82 0 81 0;
#X connect 83 0 84 0;
#X connect 84 0 82 0;
