#N canvas 198 148 790 392 12;
#X obj 60 60 bng 40 250 50 0 \$0-kick1 \$0-kick1 empty 17 7 0 10 #fcfcfc
#000000 #000000;
#X obj 103 60 bng 40 250 50 0 \$0-kick2 \$0-kick2 empty 17 7 0 10 #fcfcfc
#000000 #000000;
#X obj 146 60 bng 40 250 50 0 \$0-kick3 \$0-kick3 empty 17 7 0 10 #fcfcfc
#000000 #000000;
#X obj 189 60 bng 40 250 50 0 \$0-kick4 \$0-kick4 empty 17 7 0 10 #fcfcfc
#000000 #000000;
#X obj 232 60 bng 40 250 50 0 \$0-kick5 \$0-kick5 empty 17 7 0 10 #fcfcfc
#000000 #000000;
#X obj 275 60 bng 40 250 50 0 \$0-kick6 \$0-kick6 empty 17 7 0 10 #fcfcfc
#000000 #000000;
#X text 55 32 kick;
#X text 55 112 snare;
#X obj 58 137 bng 40 250 50 0 \$0-snare1 \$0-snare1 empty 17 7 0 10
#fcfcfc #000000 #000000;
#X obj 101 137 bng 40 250 50 0 \$0-snare2 \$0-snare2 empty 17 7 0 10
#fcfcfc #000000 #000000;
#X obj 144 137 bng 40 250 50 0 \$0-snare3 \$0-snare3 empty 17 7 0 10
#fcfcfc #000000 #000000;
#X obj 187 137 bng 40 250 50 0 \$0-snare4 \$0-snare4 empty 17 7 0 10
#fcfcfc #000000 #000000;
#X obj 230 137 bng 40 250 50 0 \$0-snare5 \$0-snare5 empty 17 7 0 10
#fcfcfc #000000 #000000;
#X obj 273 137 bng 40 250 50 0 \$0-snare6 \$0-snare6 empty 17 7 0 10
#fcfcfc #000000 #000000;
#X text 54 196 high hat;
#X obj 57 223 bng 40 250 50 0 \$0-hh1 \$0-hh1 empty 17 7 0 10 #fcfcfc
#000000 #000000;
#X obj 100 223 bng 40 250 50 0 \$0-hh2 \$0-hh2 empty 17 7 0 10 #fcfcfc
#000000 #000000;
#X obj 143 223 bng 40 250 50 0 \$0-hh3 \$0-hh3 empty 17 7 0 10 #fcfcfc
#000000 #000000;
#X text 54 282 crash;
#X obj 57 309 bng 40 250 50 0 \$0-crash \$0-crash empty 17 7 0 10 #fcfcfc
#000000 #000000;
#X obj 417 138 hradio 40 1 0 4 \$0-drumkit \$0-drumkit empty 0 -8 0
10 #fcfcfc #000000 #000000 0;
#X text 415 109 drum kit;
#X obj 643 136 hsl 128 40 0 127 0 0 \$0-drumvol \$0-drumvol empty -2
-8 0 10 #fcfcfc #000000 #000000 0 1;
#X text 642 110 drum volume;
#X text 430 187 A;
#X text 472 188 B;
#X text 513 190 C;
#X text 555 190 D;
#N canvas 63 88 715 630 drums 0;
#N canvas 16 89 1358 648 initA 0;
#X obj 721 9 loadbang;
#X obj 339 302 soundfiler;
#X msg 91 96 read -resize kick_02.wav kick_02;
#X msg 106 122 read -resize kick_03.wav kick_03;
#X msg 116 149 read -resize kick_04.wav kick_04;
#X msg 130 173 read -resize kick_05.wav kick_05;
#X msg 140 198 read -resize kick_06.wav kick_06;
#X obj 40 398 tabplay~ kick_01;
#X obj 69 447 tabplay~ kick_02;
#X obj 165 396 tabplay~ kick_03;
#X obj 189 447 tabplay~ kick_04;
#X obj 289 394 tabplay~ kick_05;
#X obj 310 443 tabplay~ kick_06;
#X obj 40 373 r \$0-kick1;
#X obj 69 422 r \$0-kick2;
#X obj 165 372 r \$0-kick3;
#X obj 189 423 r \$0-kick4;
#X obj 289 371 r \$0-kick5;
#X obj 310 421 r \$0-kick6;
#X obj 618 565 *~ 0.5;
#X obj 617 609 outlet~;
#X msg 80 70 read -resize kick_01.wav kick_01;
#X msg 371 72 read -resize snare_01.wav snare_01;
#X msg 382 98 read -resize snare_02.wav snare_02;
#X msg 392 125 read -resize snare_03.wav snare_03;
#X msg 407 151 read -resize snare_04.wav snare_04;
#X msg 421 175 read -resize snare_05.wav snare_05;
#X msg 431 200 read -resize snare_06.wav snare_06;
#N canvas 485 111 864 585 kicks_arrays 0;
#N canvas 0 22 450 278 (subpatch) 0;
#X array kick_01 39566 float 0;
#X coords 0 1 39565 -1 200 140 1;
#X restore 69 53 graph;
#N canvas 0 22 450 278 (subpatch) 0;
#X array kick_02 39717 float 2;
#X coords 0 1 39717 -1 200 140 1;
#X restore 278 53 graph;
#N canvas 0 22 450 278 (subpatch) 0;
#X array kick_03 31998 float 2;
#X coords 0 1 31998 -1 200 140 1;
#X restore 68 213 graph;
#N canvas 0 22 450 278 (subpatch) 0;
#X array kick_04 41687 float 2;
#X coords 0 1 41687 -1 200 140 1;
#X restore 279 213 graph;
#N canvas 0 22 450 278 (subpatch) 0;
#X array kick_05 27514 float 2;
#X coords 0 1 27514 -1 200 140 1;
#X restore 66 374 graph;
#N canvas 0 22 450 278 (subpatch) 0;
#X array kick_06 31313 float 2;
#X coords 0 1 31313 -1 200 140 1;
#X restore 279 374 graph;
#X restore 24 291 pd kicks_arrays;
#N canvas 296 82 654 701 snare_arrays 0;
#N canvas 0 22 450 278 (subpatch) 0;
#X array snare_01 7954 float 0;
#X coords 0 1 7953 -1 200 140 1;
#X restore 34 36 graph;
#N canvas 0 22 450 278 (subpatch) 0;
#X array snare_02 39690 float 0;
#X coords 0 1 39689 -1 200 140 1;
#X restore 245 36 graph;
#N canvas 0 22 450 278 (subpatch) 0;
#X array snare_03 14905 float 0;
#X coords 0 1 14904 -1 200 140 1;
#X restore 34 199 graph;
#N canvas 0 22 450 278 (subpatch) 0;
#X array snare_04 25170 float 0;
#X coords 0 1 25169 -1 200 140 1;
#X restore 244 199 graph;
#N canvas 0 22 450 278 (subpatch) 0;
#X array snare_05 16086 float 0;
#X coords 0 1 16085 -1 200 140 1;
#X restore 33 360 graph;
#N canvas 0 22 450 278 (subpatch) 0;
#X array snare_06 13750 float 0;
#X coords 0 1 13749 -1 200 140 1;
#X restore 245 360 graph;
#X restore 25 315 pd snare_arrays;
#X obj 429 363 r \$0-snare1;
#X obj 687 366 r \$0-snare5;
#X obj 560 365 r \$0-snare3;
#X obj 438 415 r \$0-snare2;
#X obj 575 417 r \$0-snare4;
#X obj 731 409 r \$0-snare6;
#X obj 429 388 tabplay~ snare_01;
#X obj 560 389 tabplay~ snare_03;
#X obj 687 389 tabplay~ snare_05;
#X obj 438 440 tabplay~ snare_02;
#X obj 575 441 tabplay~ snare_04;
#X obj 731 433 tabplay~ snare_06;
#N canvas 486 201 784 469 hh_arrays 0;
#N canvas 0 22 450 278 (subpatch) 0;
#X array hh_01 18257 float 0;
#X coords 0 1 18256 -1 200 140 1;
#X restore 65 45 graph;
#N canvas 0 22 450 278 (subpatch) 0;
#X array hh_02 13759 float 0;
#X coords 0 1 13758 -1 200 140 1;
#X restore 280 44 graph;
#N canvas 0 22 450 278 (subpatch) 0;
#X array hh_03 5755 float 0;
#X coords 0 1 5754 -1 200 140 1;
#X restore 66 205 graph;
#X restore 148 292 pd hh_arrays;
#N canvas 387 55 849 646 crash_array 0;
#N canvas 0 22 450 278 (subpatch) 0;
#X array crash_01 177824 float 0;
#X coords 0 1 177823 -1 200 140 1;
#X restore 100 20 graph;
#X restore 148 314 pd crash_array;
#X msg 677 95 read -resize hh_02.wav hh_02;
#X msg 667 69 read -resize hh_01.wav hh_01;
#X msg 687 122 read -resize hh_03.wav hh_03;
#X obj 822 388 tabplay~ hh_01;
#X obj 870 434 tabplay~ hh_02;
#X obj 822 365 r \$0-hh1;
#X obj 866 410 r \$0-hh2;
#X obj 943 357 r \$0-hh3;
#X obj 947 381 tabplay~ hh_03;
#X obj 981 407 r \$0-crash;
#X msg 833 187 read -resize crash_01.wav crash_01;
#X obj 985 431 tabplay~ crash_01;
#X connect 0 0 21 0;
#X connect 0 0 2 0;
#X connect 0 0 4 0;
#X connect 0 0 6 0;
#X connect 0 0 3 0;
#X connect 0 0 5 0;
#X connect 0 0 22 0;
#X connect 0 0 23 0;
#X connect 0 0 24 0;
#X connect 0 0 25 0;
#X connect 0 0 26 0;
#X connect 0 0 27 0;
#X connect 0 0 45 0;
#X connect 0 0 44 0;
#X connect 0 0 46 0;
#X connect 0 0 54 0;
#X connect 2 0 1 0;
#X connect 3 0 1 0;
#X connect 4 0 1 0;
#X connect 5 0 1 0;
#X connect 6 0 1 0;
#X connect 7 0 19 0;
#X connect 8 0 19 0;
#X connect 9 0 19 0;
#X connect 10 0 19 0;
#X connect 11 0 19 0;
#X connect 12 0 19 0;
#X connect 13 0 7 0;
#X connect 14 0 8 0;
#X connect 15 0 9 0;
#X connect 16 0 10 0;
#X connect 17 0 11 0;
#X connect 18 0 12 0;
#X connect 19 0 20 0;
#X connect 21 0 1 0;
#X connect 22 0 1 0;
#X connect 23 0 1 0;
#X connect 24 0 1 0;
#X connect 25 0 1 0;
#X connect 26 0 1 0;
#X connect 27 0 1 0;
#X connect 30 0 36 0;
#X connect 31 0 38 0;
#X connect 32 0 37 0;
#X connect 33 0 39 0;
#X connect 34 0 40 0;
#X connect 35 0 41 0;
#X connect 36 0 19 0;
#X connect 37 0 19 0;
#X connect 38 0 19 0;
#X connect 39 0 19 0;
#X connect 40 0 19 0;
#X connect 41 0 19 0;
#X connect 44 0 1 0;
#X connect 45 0 1 0;
#X connect 46 0 1 0;
#X connect 47 0 19 0;
#X connect 48 0 19 0;
#X connect 49 0 47 0;
#X connect 50 0 48 0;
#X connect 51 0 52 0;
#X connect 52 0 19 0;
#X connect 53 0 55 0;
#X connect 54 0 1 0;
#X connect 55 0 19 0;
#X restore 33 34 pd initA;
#X obj 182 444 *~;
#X obj 213 182 select 0;
#X obj 310 119 r \$0-drumkit;
#X msg 213 237 1 10;
#X msg 266 237 0 10;
#X obj 194 279 line~;
#X obj 245 530 *~;
#X obj 543 434 r \$0-drumvol;
#X obj 543 459 / 127;
#X msg 543 484 \$1 15;
#X obj 543 508 line~;
#X obj 236 559 dac~;
#N canvas 82 99 1358 648 initB 0;
#X obj 721 9 loadbang;
#X obj 339 302 soundfiler;
#X obj 40 373 r \$0-kick1;
#X obj 69 422 r \$0-kick2;
#X obj 165 372 r \$0-kick3;
#X obj 189 423 r \$0-kick4;
#X obj 289 371 r \$0-kick5;
#X obj 310 421 r \$0-kick6;
#X obj 618 565 *~ 0.5;
#X obj 617 609 outlet~;
#N canvas 485 111 864 585 kicks_arrays 0;
#N canvas 0 22 450 278 (subpatch) 0;
#X array kick_07 34580 float 0;
#X coords 0 1 34579 -1 200 140 1;
#X restore 69 53 graph;
#N canvas 0 22 450 278 (subpatch) 0;
#X array kick_08 11400 float 2;
#X coords 0 1 11400 -1 200 140 1;
#X restore 278 53 graph;
#N canvas 0 22 450 278 (subpatch) 0;
#X array kick_09 9404 float 2;
#X coords 0 1 9404 -1 200 140 1;
#X restore 68 213 graph;
#N canvas 0 22 450 278 (subpatch) 0;
#X array kick_10 13624 float 2;
#X coords 0 1 13624 -1 200 140 1;
#X restore 279 213 graph;
#N canvas 0 22 450 278 (subpatch) 0;
#X array kick_11 7604 float 2;
#X coords 0 1 7604 -1 200 140 1;
#X restore 66 374 graph;
#N canvas 0 22 450 278 (subpatch) 0;
#X array kick_12 13149 float 2;
#X coords 0 1 13149 -1 200 140 1;
#X restore 279 374 graph;
#X restore 24 291 pd kicks_arrays;
#N canvas 296 82 654 701 snare_arrays 0;
#N canvas 0 22 450 278 (subpatch) 0;
#X array snare_07 36073 float 0;
#X coords 0 1 36072 -1 200 140 1;
#X restore 34 36 graph;
#N canvas 0 22 450 278 (subpatch) 0;
#X array snare_08 11587 float 0;
#X coords 0 1 11586 -1 200 140 1;
#X restore 245 36 graph;
#N canvas 0 22 450 278 (subpatch) 0;
#X array snare_09 15045 float 0;
#X coords 0 1 15044 -1 200 140 1;
#X restore 34 199 graph;
#N canvas 0 22 450 278 (subpatch) 0;
#X array snare_10 9632 float 0;
#X coords 0 1 9631 -1 200 140 1;
#X restore 244 199 graph;
#N canvas 0 22 450 278 (subpatch) 0;
#X array snare_11 9436 float 0;
#X coords 0 1 9435 -1 200 140 1;
#X restore 33 360 graph;
#N canvas 0 22 450 278 (subpatch) 0;
#X array snare_12 13222 float 0;
#X coords 0 1 13221 -1 200 140 1;
#X restore 245 360 graph;
#X restore 24 315 pd snare_arrays;
#X obj 429 363 r \$0-snare1;
#X obj 687 366 r \$0-snare5;
#X obj 560 365 r \$0-snare3;
#X obj 438 415 r \$0-snare2;
#X obj 575 417 r \$0-snare4;
#X obj 731 409 r \$0-snare6;
#N canvas 486 201 784 469 hh_arrays 0;
#N canvas 0 22 450 278 (subpatch) 0;
#X array hh_04 13671 float 0;
#X coords 0 1 13670 -1 200 140 1;
#X restore 65 45 graph;
#N canvas 0 22 450 278 (subpatch) 0;
#X array hh_05 9532 float 0;
#X coords 0 1 9531 -1 200 140 1;
#X restore 280 44 graph;
#N canvas 0 22 450 278 (subpatch) 0;
#X array hh_06 32199 float 0;
#X coords 0 1 32198 -1 200 140 1;
#X restore 66 205 graph;
#X restore 148 292 pd hh_arrays;
#N canvas 387 55 849 646 crash_array 0;
#N canvas 0 22 450 278 (subpatch) 0;
#X array crash_02 141281 float 0;
#X coords 0 1 141280 -1 200 140 1;
#X restore 100 20 graph;
#X restore 148 314 pd crash_array;
#X obj 822 365 r \$0-hh1;
#X obj 866 410 r \$0-hh2;
#X obj 943 357 r \$0-hh3;
#X obj 981 407 r \$0-crash;
#X msg 833 187 read -resize crash_02.wav crash_02;
#X obj 985 431 tabplay~ crash_02;
#X msg 80 70 read -resize kick_07.wav kick_07;
#X msg 91 96 read -resize kick_08.wav kick_08;
#X msg 106 122 read -resize kick_09.wav kick_09;
#X msg 116 149 read -resize kick_10.wav kick_10;
#X msg 130 173 read -resize kick_11.wav kick_11;
#X msg 140 198 read -resize kick_12.wav kick_12;
#X obj 40 398 tabplay~ kick_07;
#X obj 69 447 tabplay~ kick_08;
#X obj 165 396 tabplay~ kick_09;
#X obj 189 447 tabplay~ kick_10;
#X obj 289 394 tabplay~ kick_11;
#X obj 310 443 tabplay~ kick_12;
#X msg 371 72 read -resize snare_07.wav snare_07;
#X msg 382 98 read -resize snare_08.wav snare_08;
#X msg 392 125 read -resize snare_09.wav snare_09;
#X msg 407 151 read -resize snare_10.wav snare_10;
#X msg 421 175 read -resize snare_11.wav snare_11;
#X msg 431 200 read -resize snare_12.wav snare_12;
#X obj 429 388 tabplay~ snare_07;
#X obj 438 440 tabplay~ snare_08;
#X obj 560 389 tabplay~ snare_09;
#X obj 575 441 tabplay~ snare_10;
#X obj 687 389 tabplay~ snare_11;
#X obj 731 433 tabplay~ snare_12;
#X obj 822 388 tabplay~ hh_04;
#X obj 870 434 tabplay~ hh_05;
#X obj 947 381 tabplay~ hh_06;
#X msg 667 69 read -resize hh_04.wav hh_04;
#X msg 675 95 read -resize hh_05.wav hh_05;
#X msg 687 122 read -resize hh_06.wav hh_06;
#X connect 0 0 26 0;
#X connect 0 0 27 0;
#X connect 0 0 29 0;
#X connect 0 0 31 0;
#X connect 0 0 28 0;
#X connect 0 0 30 0;
#X connect 0 0 38 0;
#X connect 0 0 39 0;
#X connect 0 0 40 0;
#X connect 0 0 41 0;
#X connect 0 0 42 0;
#X connect 0 0 43 0;
#X connect 0 0 53 0;
#X connect 0 0 54 0;
#X connect 0 0 55 0;
#X connect 0 0 24 0;
#X connect 2 0 32 0;
#X connect 3 0 33 0;
#X connect 4 0 34 0;
#X connect 5 0 35 0;
#X connect 6 0 36 0;
#X connect 7 0 37 0;
#X connect 8 0 9 0;
#X connect 12 0 44 0;
#X connect 13 0 48 0;
#X connect 14 0 46 0;
#X connect 15 0 45 0;
#X connect 16 0 47 0;
#X connect 17 0 49 0;
#X connect 20 0 50 0;
#X connect 21 0 51 0;
#X connect 22 0 52 0;
#X connect 23 0 25 0;
#X connect 24 0 1 0;
#X connect 25 0 8 0;
#X connect 26 0 1 0;
#X connect 27 0 1 0;
#X connect 28 0 1 0;
#X connect 29 0 1 0;
#X connect 30 0 1 0;
#X connect 31 0 1 0;
#X connect 32 0 8 0;
#X connect 33 0 8 0;
#X connect 34 0 8 0;
#X connect 35 0 8 0;
#X connect 36 0 8 0;
#X connect 37 0 8 0;
#X connect 38 0 1 0;
#X connect 39 0 1 0;
#X connect 40 0 1 0;
#X connect 41 0 1 0;
#X connect 42 0 1 0;
#X connect 43 0 1 0;
#X connect 44 0 8 0;
#X connect 45 0 8 0;
#X connect 46 0 8 0;
#X connect 47 0 8 0;
#X connect 48 0 8 0;
#X connect 49 0 8 0;
#X connect 50 0 8 0;
#X connect 51 0 8 0;
#X connect 52 0 8 0;
#X connect 53 0 1 0;
#X connect 54 0 1 0;
#X connect 55 0 1 0;
#X restore 99 34 pd initB;
#X obj 325 182 select 1;
#X msg 325 237 1 10;
#X msg 378 237 0 10;
#X obj 306 279 line~;
#X obj 289 349 *~;
#N canvas 82 99 1358 648 initC 0;
#X obj 721 9 loadbang;
#X obj 339 302 soundfiler;
#X obj 40 373 r \$0-kick1;
#X obj 69 422 r \$0-kick2;
#X obj 165 372 r \$0-kick3;
#X obj 189 423 r \$0-kick4;
#X obj 289 371 r \$0-kick5;
#X obj 310 421 r \$0-kick6;
#X obj 618 565 *~ 0.5;
#X obj 617 609 outlet~;
#N canvas 485 111 864 585 kicks_arrays 0;
#N canvas 0 22 450 278 (subpatch) 0;
#X array kick_13 8699 float 0;
#X coords 0 1 8698 -1 200 140 1;
#X restore 69 53 graph;
#N canvas 0 22 450 278 (subpatch) 0;
#X array kick_14 13904 float 0;
#X coords 0 1 13903 -1 200 140 1;
#X restore 278 53 graph;
#N canvas 0 22 450 278 (subpatch) 0;
#X array kick_15 6500 float 0;
#X coords 0 1 6499 -1 200 140 1;
#X restore 68 213 graph;
#N canvas 0 22 450 278 (subpatch) 0;
#X array kick_16 8525 float 0;
#X coords 0 1 8524 -1 200 140 1;
#X restore 279 213 graph;
#N canvas 0 22 450 278 (subpatch) 0;
#X array kick_17 80832 float 0;
#X coords 0 1 80831 -1 200 140 1;
#X restore 66 374 graph;
#N canvas 0 22 450 278 (subpatch) 0;
#X array kick_18 15699 float 0;
#X coords 0 1 15698 -1 200 140 1;
#X restore 279 374 graph;
#X restore 24 291 pd kicks_arrays;
#N canvas 296 82 654 701 snare_arrays 0;
#N canvas 0 22 450 278 (subpatch) 0;
#X array snare_13 12552 float 0;
#X coords 0 1 12551 -1 200 140 1;
#X restore 34 36 graph;
#N canvas 0 22 450 278 (subpatch) 0;
#X array snare_14 15196 float 0;
#X coords 0 1 15195 -1 200 140 1;
#X restore 245 36 graph;
#N canvas 0 22 450 278 (subpatch) 0;
#X array snare_15 17777 float 0;
#X coords 0 1 17776 -1 200 140 1;
#X restore 34 199 graph;
#N canvas 0 22 450 278 (subpatch) 0;
#X array snare_16 28914 float 0;
#X coords 0 1 28913 -1 200 140 1;
#X restore 244 199 graph;
#N canvas 0 22 450 278 (subpatch) 0;
#X array snare_17 13283 float 0;
#X coords 0 1 13282 -1 200 140 1;
#X restore 33 360 graph;
#N canvas 0 22 450 278 (subpatch) 0;
#X array snare_18 9161 float 0;
#X coords 0 1 9160 -1 200 140 1;
#X restore 245 360 graph;
#X restore 24 315 pd snare_arrays;
#X obj 429 363 r \$0-snare1;
#X obj 687 366 r \$0-snare5;
#X obj 560 365 r \$0-snare3;
#X obj 438 415 r \$0-snare2;
#X obj 575 417 r \$0-snare4;
#X obj 731 409 r \$0-snare6;
#N canvas 486 201 784 469 hh_arrays 0;
#N canvas 0 22 450 278 (subpatch) 0;
#X array hh_07 13510 float 0;
#X coords 0 1 13509 -1 200 140 1;
#X restore 65 45 graph;
#N canvas 0 22 450 278 (subpatch) 0;
#X array hh_08 2342 float 0;
#X coords 0 1 2341 -1 200 140 1;
#X restore 280 44 graph;
#N canvas 0 22 450 278 (subpatch) 0;
#X array hh_09 9261 float 0;
#X coords 0 1 9260 -1 200 140 1;
#X restore 66 205 graph;
#X restore 148 292 pd hh_arrays;
#N canvas 387 55 849 646 crash_array 0;
#N canvas 0 22 450 278 (subpatch) 0;
#X array crash_03 28336 float 0;
#X coords 0 1 28335 -1 200 140 1;
#X restore 100 20 graph;
#X restore 148 314 pd crash_array;
#X obj 822 365 r \$0-hh1;
#X obj 866 410 r \$0-hh2;
#X obj 943 357 r \$0-hh3;
#X obj 981 407 r \$0-crash;
#X msg 833 187 read -resize crash_03.wav crash_03;
#X obj 985 431 tabplay~ crash_03;
#X msg 80 70 read -resize kick_13.wav kick_13;
#X msg 91 96 read -resize kick_14.wav kick_14;
#X msg 106 122 read -resize kick_15.wav kick_15;
#X msg 116 149 read -resize kick_16.wav kick_16;
#X msg 130 173 read -resize kick_17.wav kick_17;
#X msg 140 198 read -resize kick_18.wav kick_18;
#X msg 371 72 read -resize snare_13.wav snare_13;
#X msg 382 98 read -resize snare_14.wav snare_14;
#X msg 392 125 read -resize snare_15.wav snare_15;
#X msg 407 151 read -resize snare_16.wav snare_16;
#X msg 421 175 read -resize snare_17.wav snare_17;
#X msg 431 200 read -resize snare_18.wav snare_18;
#X msg 667 69 read -resize hh_07.wav hh_07;
#X msg 675 95 read -resize hh_08.wav hh_08;
#X msg 687 122 read -resize hh_09.wav hh_09;
#X obj 40 398 tabplay~ kick_13;
#X obj 69 447 tabplay~ kick_14;
#X obj 165 396 tabplay~ kick_15;
#X obj 189 447 tabplay~ kick_16;
#X obj 289 394 tabplay~ kick_17;
#X obj 310 443 tabplay~ kick_18;
#X obj 429 388 tabplay~ snare_13;
#X obj 438 440 tabplay~ snare_14;
#X obj 560 389 tabplay~ snare_15;
#X obj 575 441 tabplay~ snare_16;
#X obj 687 389 tabplay~ snare_17;
#X obj 731 433 tabplay~ snare_18;
#X obj 822 388 tabplay~ hh_07;
#X obj 870 434 tabplay~ hh_08;
#X obj 947 381 tabplay~ hh_09;
#X connect 0 0 26 0;
#X connect 0 0 27 0;
#X connect 0 0 29 0;
#X connect 0 0 31 0;
#X connect 0 0 28 0;
#X connect 0 0 30 0;
#X connect 0 0 32 0;
#X connect 0 0 33 0;
#X connect 0 0 34 0;
#X connect 0 0 35 0;
#X connect 0 0 36 0;
#X connect 0 0 37 0;
#X connect 0 0 38 0;
#X connect 0 0 39 0;
#X connect 0 0 40 0;
#X connect 0 0 24 0;
#X connect 2 0 41 0;
#X connect 3 0 42 0;
#X connect 4 0 43 0;
#X connect 5 0 44 0;
#X connect 6 0 45 0;
#X connect 7 0 46 0;
#X connect 8 0 9 0;
#X connect 12 0 47 0;
#X connect 13 0 51 0;
#X connect 14 0 49 0;
#X connect 15 0 48 0;
#X connect 16 0 50 0;
#X connect 17 0 52 0;
#X connect 20 0 53 0;
#X connect 21 0 54 0;
#X connect 22 0 55 0;
#X connect 23 0 25 0;
#X connect 24 0 1 0;
#X connect 25 0 8 0;
#X connect 26 0 1 0;
#X connect 27 0 1 0;
#X connect 28 0 1 0;
#X connect 29 0 1 0;
#X connect 30 0 1 0;
#X connect 31 0 1 0;
#X connect 32 0 1 0;
#X connect 33 0 1 0;
#X connect 34 0 1 0;
#X connect 35 0 1 0;
#X connect 36 0 1 0;
#X connect 37 0 1 0;
#X connect 38 0 1 0;
#X connect 39 0 1 0;
#X connect 40 0 1 0;
#X connect 41 0 8 0;
#X connect 42 0 8 0;
#X connect 43 0 8 0;
#X connect 44 0 8 0;
#X connect 45 0 8 0;
#X connect 46 0 8 0;
#X connect 47 0 8 0;
#X connect 48 0 8 0;
#X connect 49 0 8 0;
#X connect 50 0 8 0;
#X connect 51 0 8 0;
#X connect 52 0 8 0;
#X connect 53 0 8 0;
#X connect 54 0 8 0;
#X connect 55 0 8 0;
#X restore 169 35 pd initC;
#X obj 463 182 select 2;
#X msg 460 242 1 10;
#X msg 513 242 0 10;
#X obj 441 284 line~;
#X obj 424 354 *~;
#X obj 587 180 select 3;
#X msg 588 237 1 10;
#X msg 641 237 0 10;
#X obj 569 279 line~;
#X obj 552 349 *~;
#N canvas 82 99 1358 648 initD 0;
#X obj 721 9 loadbang;
#X obj 339 302 soundfiler;
#X obj 40 373 r \$0-kick1;
#X obj 69 422 r \$0-kick2;
#X obj 165 372 r \$0-kick3;
#X obj 189 423 r \$0-kick4;
#X obj 289 371 r \$0-kick5;
#X obj 310 421 r \$0-kick6;
#X obj 618 565 *~ 0.5;
#X obj 617 609 outlet~;
#N canvas 485 111 864 585 kicks_arrays 0;
#N canvas 0 22 450 278 (subpatch) 0;
#X array kick_19 7510 float 0;
#X coords 0 1 7509 -1 200 140 1;
#X restore 69 53 graph;
#N canvas 0 22 450 278 (subpatch) 0;
#X array kick_20 10747 float 0;
#X coords 0 1 10746 -1 200 140 1;
#X restore 278 53 graph;
#N canvas 0 22 450 278 (subpatch) 0;
#X array kick_21 25152 float 0;
#X coords 0 1 25151 -1 200 140 1;
#X restore 68 213 graph;
#N canvas 0 22 450 278 (subpatch) 0;
#X array kick_22 8400 float 0;
#X coords 0 1 8399 -1 200 140 1;
#X restore 279 213 graph;
#N canvas 0 22 450 278 (subpatch) 0;
#X array kick_23 12033 float 0;
#X coords 0 1 12032 -1 200 140 1;
#X restore 66 374 graph;
#N canvas 0 22 450 278 (subpatch) 0;
#X array kick_24 46123 float 0;
#X coords 0 1 46122 -1 200 140 1;
#X restore 279 374 graph;
#X restore 24 291 pd kicks_arrays;
#N canvas 296 82 654 701 snare_arrays 0;
#N canvas 0 22 450 278 (subpatch) 0;
#X array snare_19 14679 float 0;
#X coords 0 1 14678 -1 200 140 1;
#X restore 34 36 graph;
#N canvas 0 22 450 278 (subpatch) 0;
#X array snare_20 11178 float 0;
#X coords 0 1 11177 -1 200 140 1;
#X restore 245 36 graph;
#N canvas 0 22 450 278 (subpatch) 0;
#X array snare_21 13264 float 0;
#X coords 0 1 13263 -1 200 140 1;
#X restore 34 199 graph;
#N canvas 0 22 450 278 (subpatch) 0;
#X array snare_22 13274 float 0;
#X coords 0 1 13273 -1 200 140 1;
#X restore 244 199 graph;
#N canvas 0 22 450 278 (subpatch) 0;
#X array snare_23 13353 float 0;
#X coords 0 1 13352 -1 200 140 1;
#X restore 33 360 graph;
#N canvas 0 22 450 278 (subpatch) 0;
#X array snare_24 45361 float 0;
#X coords 0 1 45360 -1 200 140 1;
#X restore 245 360 graph;
#X restore 24 315 pd snare_arrays;
#X obj 429 363 r \$0-snare1;
#X obj 687 366 r \$0-snare5;
#X obj 560 365 r \$0-snare3;
#X obj 438 415 r \$0-snare2;
#X obj 575 417 r \$0-snare4;
#X obj 731 409 r \$0-snare6;
#N canvas 486 201 784 469 hh_arrays 0;
#N canvas 0 22 450 278 (subpatch) 0;
#X array hh_10 8623 float 0;
#X coords 0 1 8622 -1 200 140 1;
#X restore 65 45 graph;
#N canvas 0 22 450 278 (subpatch) 0;
#X array hh_11 11552 float 0;
#X coords 0 1 11551 -1 200 140 1;
#X restore 280 44 graph;
#N canvas 0 22 450 278 (subpatch) 0;
#X array hh_12 11162 float 0;
#X coords 0 1 11161 -1 200 140 1;
#X restore 66 205 graph;
#X restore 148 292 pd hh_arrays;
#N canvas 387 55 849 646 crash_array 0;
#N canvas 0 22 450 278 (subpatch) 0;
#X array crash_04 48837 float 0;
#X coords 0 1 48836 -1 200 140 1;
#X restore 100 20 graph;
#X restore 148 314 pd crash_array;
#X obj 822 365 r \$0-hh1;
#X obj 866 410 r \$0-hh2;
#X obj 943 357 r \$0-hh3;
#X obj 981 407 r \$0-crash;
#X msg 80 70 read -resize kick_19.wav kick_19;
#X msg 91 96 read -resize kick_20.wav kick_20;
#X msg 106 122 read -resize kick_21.wav kick_21;
#X msg 116 149 read -resize kick_22.wav kick_22;
#X msg 130 173 read -resize kick_23.wav kick_23;
#X msg 140 198 read -resize kick_24.wav kick_24;
#X msg 371 72 read -resize snare_19.wav snare_19;
#X msg 382 98 read -resize snare_20.wav snare_20;
#X msg 392 125 read -resize snare_21.wav snare_21;
#X msg 407 151 read -resize snare_22.wav snare_22;
#X msg 421 175 read -resize snare_23.wav snare_23;
#X msg 431 200 read -resize snare_24.wav snare_24;
#X msg 667 69 read -resize hh_10.wav hh_10;
#X msg 675 95 read -resize hh_11.wav hh_11;
#X msg 687 122 read -resize hh_12.wav hh_12;
#X msg 833 187 read -resize crash_04.wav crash_04;
#X obj 40 398 tabplay~ kick_19;
#X obj 69 447 tabplay~ kick_20;
#X obj 165 396 tabplay~ kick_21;
#X obj 189 447 tabplay~ kick_22;
#X obj 289 394 tabplay~ kick_23;
#X obj 310 443 tabplay~ kick_24;
#X obj 429 388 tabplay~ snare_19;
#X obj 438 440 tabplay~ snare_20;
#X obj 560 389 tabplay~ snare_21;
#X obj 575 441 tabplay~ snare_22;
#X obj 687 389 tabplay~ snare_23;
#X obj 731 433 tabplay~ snare_24;
#X obj 822 388 tabplay~ hh_10;
#X obj 870 434 tabplay~ hh_11;
#X obj 947 381 tabplay~ hh_12;
#X obj 985 431 tabplay~ crash_04;
#X connect 0 0 24 0;
#X connect 0 0 25 0;
#X connect 0 0 27 0;
#X connect 0 0 29 0;
#X connect 0 0 26 0;
#X connect 0 0 28 0;
#X connect 0 0 30 0;
#X connect 0 0 31 0;
#X connect 0 0 32 0;
#X connect 0 0 33 0;
#X connect 0 0 34 0;
#X connect 0 0 35 0;
#X connect 0 0 36 0;
#X connect 0 0 37 0;
#X connect 0 0 38 0;
#X connect 0 0 39 0;
#X connect 2 0 40 0;
#X connect 3 0 41 0;
#X connect 4 0 42 0;
#X connect 5 0 43 0;
#X connect 6 0 44 0;
#X connect 7 0 45 0;
#X connect 8 0 9 0;
#X connect 12 0 46 0;
#X connect 13 0 50 0;
#X connect 14 0 48 0;
#X connect 15 0 47 0;
#X connect 16 0 49 0;
#X connect 17 0 51 0;
#X connect 20 0 52 0;
#X connect 21 0 53 0;
#X connect 22 0 54 0;
#X connect 23 0 55 0;
#X connect 24 0 1 0;
#X connect 25 0 1 0;
#X connect 26 0 1 0;
#X connect 27 0 1 0;
#X connect 28 0 1 0;
#X connect 29 0 1 0;
#X connect 30 0 1 0;
#X connect 31 0 1 0;
#X connect 32 0 1 0;
#X connect 33 0 1 0;
#X connect 34 0 1 0;
#X connect 35 0 1 0;
#X connect 36 0 1 0;
#X connect 37 0 1 0;
#X connect 38 0 1 0;
#X connect 39 0 1 0;
#X connect 40 0 8 0;
#X connect 41 0 8 0;
#X connect 42 0 8 0;
#X connect 43 0 8 0;
#X connect 44 0 8 0;
#X connect 45 0 8 0;
#X connect 46 0 8 0;
#X connect 47 0 8 0;
#X connect 48 0 8 0;
#X connect 49 0 8 0;
#X connect 50 0 8 0;
#X connect 51 0 8 0;
#X connect 52 0 8 0;
#X connect 53 0 8 0;
#X connect 54 0 8 0;
#X connect 55 0 8 0;
#X restore 244 35 pd initD;
#N canvas 165 103 450 300 init 0;
#X obj 47 40 loadbang;
#X obj 47 68 float \$0;
#X msg 47 92 \; pd dsp 1 \; \$1-drumvol 60 \; \$1-drumkit 0 \;;
#X connect 0 0 1 0;
#X connect 1 0 2 0;
#X restore 562 38 pd init;
#X connect 0 0 1 0;
#X connect 1 0 7 0;
#X connect 2 0 4 0;
#X connect 2 1 5 0;
#X connect 3 0 2 0;
#X connect 3 0 14 0;
#X connect 3 0 20 0;
#X connect 3 0 25 0;
#X connect 4 0 6 0;
#X connect 5 0 6 0;
#X connect 6 0 1 1;
#X connect 7 0 12 0;
#X connect 7 0 12 1;
#X connect 8 0 9 0;
#X connect 9 0 10 0;
#X connect 10 0 11 0;
#X connect 11 0 7 1;
#X connect 13 0 18 0;
#X connect 14 0 15 0;
#X connect 14 1 16 0;
#X connect 15 0 17 0;
#X connect 16 0 17 0;
#X connect 17 0 18 1;
#X connect 18 0 7 0;
#X connect 19 0 24 0;
#X connect 20 0 21 0;
#X connect 20 1 22 0;
#X connect 21 0 23 0;
#X connect 22 0 23 0;
#X connect 23 0 24 1;
#X connect 24 0 7 0;
#X connect 25 0 26 0;
#X connect 25 1 27 0;
#X connect 26 0 28 0;
#X connect 27 0 28 0;
#X connect 28 0 29 1;
#X connect 29 0 7 0;
#X connect 30 0 29 0;
#X restore 415 52 pd drums;
