#N canvas 171 25 1225 777 12;
#X obj 50 56 bng 40 250 50 0 \$0-kick1 \$0-q-kick1 empty 17 7 0 10
#fcfcfc #000000 #000000;
#X obj 93 56 bng 40 250 50 0 \$0-kick2 \$0-w-kick2 empty 17 7 0 10
#fcfcfc #000000 #000000;
#X obj 136 56 bng 40 250 50 0 \$0-kick3 \$0-e-kick3 empty 17 7 0 10
#fcfcfc #000000 #000000;
#X obj 179 56 bng 40 250 50 0 \$0-kick4 \$0-r-kick4 empty 17 7 0 10
#fcfcfc #000000 #000000;
#X obj 222 56 bng 40 250 50 0 \$0-kick5 \$0-t-kick5 empty 17 7 0 10
#fcfcfc #000000 #000000;
#X obj 265 56 bng 40 250 50 0 \$0-kick6 \$0-y-kick6 empty 17 7 0 10
#fcfcfc #000000 #000000;
#X text 45 28 kick;
#X text 47 138 snare;
#X obj 50 163 bng 40 250 50 0 \$0-snare1 \$0-a-snare1 empty 17 7 0
10 #fcfcfc #000000 #000000;
#X obj 93 163 bng 40 250 50 0 \$0-snare2 \$0-s-snare2 empty 17 7 0
10 #fcfcfc #000000 #000000;
#X obj 136 163 bng 40 250 50 0 \$0-snare3 \$0-d-snare3 empty 17 7 0
10 #fcfcfc #000000 #000000;
#X obj 179 163 bng 40 250 50 0 \$0-snare4 \$0-f-snare4 empty 17 7 0
10 #fcfcfc #000000 #000000;
#X obj 222 163 bng 40 250 50 0 \$0-snare5 \$0-g-snare5 empty 17 7 0
10 #fcfcfc #000000 #000000;
#X obj 265 163 bng 40 250 50 0 \$0-snare6 \$0-h-snare6 empty 17 7 0
10 #fcfcfc #000000 #000000;
#X text 51 249 high hat;
#X obj 54 276 bng 40 250 50 0 \$0-hh1 \$0-z-hh1 empty 17 7 0 10 #fcfcfc
#000000 #000000;
#X obj 97 276 bng 40 250 50 0 \$0-hh2 \$0-x-hh2 empty 17 7 0 10 #fcfcfc
#000000 #000000;
#X obj 140 276 bng 40 250 50 0 \$0-hh3 \$0-c-hh3 empty 17 7 0 10 #fcfcfc
#000000 #000000;
#X text 181 249 crash;
#X obj 184 276 bng 40 250 50 0 \$0-crash \$0-v-crash empty 17 7 0 10
#fcfcfc #000000 #000000;
#X obj 417 138 hradio 40 1 0 4 \$0-drumkit \$0-drumkit empty 0 -8 0
10 #fcfcfc #000000 #000000 0;
#X text 415 109 drum kit;
#X obj 594 137 hsl 128 40 0 127 0 0 \$0-drumvol \$0-drumvol empty -2
-8 0 10 #fcfcfc #000000 #000000 0 1;
#X text 593 111 drum volume;
#X text 430 187 A;
#X text 472 188 B;
#X text 513 190 C;
#X text 555 190 D;
#X obj 721 249 hradio 20 1 0 3 \$0-octave empty empty 0 -8 0 10 #ffffff
#000000 #000000 0;
#X text 661 251 octave;
#X text 666 284 attack;
#X text 668 340 release;
#X text 671 402 shape;
#X text 671 463 vibrato amt;
#X text 669 526 vibrato rate;
#X text 670 587 glide;
#X text 669 649 volume;
#X obj 51 502 tgl 40 0 \$0-c \$0-c empty 17 7 0 10 #c6feff #000000
#000000 0 1;
#X obj 130 502 tgl 40 0 \$0-d \$0-d empty 17 7 0 10 #c6feff #000000
#000000 0 1;
#X obj 206 501 tgl 40 0 \$0-e \$0-e empty 17 7 0 10 #c6feff #000000
#000000 0 1;
#X obj 274 501 tgl 40 0 \$0-fN \$0-fN empty 17 7 0 10 #c6feff #000000
#000000 0 1;
#X obj 348 500 tgl 40 0 \$0-g \$0-g empty 17 7 0 10 #c6feff #000000
#000000 0 1;
#X obj 419 502 tgl 40 0 \$0-a \$0-a empty 17 7 0 10 #c6feff #000000
#000000 0 1;
#X obj 494 504 tgl 40 0 \$0-b \$0-b empty 17 7 0 10 #c6feff #000000
#000000 0 1;
#X obj 457 437 tgl 40 0 \$0-aS \$0-aS empty 17 7 0 10 #c7c6ff #000000
#000000 0 1;
#X obj 383 439 tgl 40 0 \$0-gS \$0-gS empty 17 7 0 10 #c7c6ff #000000
#000000 0 1;
#X obj 305 440 tgl 40 0 \$0-fs \$0-fs empty 17 7 0 10 #c7c6ff #000000
#000000 0 1;
#X obj 162 443 tgl 40 0 \$0-dS \$0-dS empty 17 7 0 10 #c7c6ff #000000
#000000 0 1;
#X obj 85 442 tgl 40 0 \$0-cS \$0-cS empty 17 7 0 10 #c7c6ff #000000
#000000 0 1;
#N canvas 613 139 778 556 drumkeys 0;
#X obj 45 41 key;
#X msg 45 93 1;
#X obj 142 40 key;
#X msg 142 92 1;
#X obj 241 40 key;
#X msg 241 92 1;
#X obj 338 41 key;
#X msg 338 93 1;
#X obj 45 68 select 113;
#X obj 45 117 s \$0-q-kick1;
#X obj 142 67 select 119;
#X obj 142 116 s \$0-w-kick2;
#X obj 241 67 select 101;
#X obj 241 116 s \$0-e-kick3;
#X obj 338 68 select 114;
#X obj 338 117 s \$0-r-kick4;
#X obj 435 42 key;
#X msg 435 94 1;
#X obj 435 69 select 116;
#X obj 435 118 s \$0-t-kick5;
#X obj 531 41 key;
#X msg 531 93 1;
#X obj 531 68 select 121;
#X obj 532 117 s \$0-y-kick6;
#X obj 48 144 key;
#X msg 48 196 1;
#X obj 145 143 key;
#X msg 145 195 1;
#X obj 244 143 key;
#X msg 244 195 1;
#X obj 341 144 key;
#X msg 341 196 1;
#X obj 438 145 key;
#X msg 438 197 1;
#X obj 534 144 key;
#X msg 534 196 1;
#X obj 48 171 select 97;
#X obj 48 220 s \$0-a-snare1;
#X obj 145 170 select 115;
#X obj 145 219 s \$0-s-snare2;
#X obj 244 219 s \$0-d-snare3;
#X obj 244 170 select 100;
#X obj 341 171 select 102;
#X obj 341 220 s \$0-f-snare4;
#X obj 438 172 select 103;
#X obj 438 221 s \$0-g-snare5;
#X obj 534 171 select 104;
#X obj 535 220 s \$0-h-snare6;
#X obj 50 248 key;
#X msg 50 300 1;
#X obj 147 249 key;
#X msg 147 301 1;
#X obj 244 250 key;
#X msg 244 302 1;
#X obj 340 249 key;
#X msg 340 301 1;
#X obj 50 275 select 122;
#X obj 50 324 s \$0-z-hh1;
#X obj 147 276 select 120;
#X obj 147 325 s \$0-x-hh2;
#X obj 244 277 select 99;
#X obj 244 326 s \$0-c-hh3;
#X obj 340 276 select 118;
#X obj 341 325 s \$0-v-crash;
#X connect 0 0 8 0;
#X connect 1 0 9 0;
#X connect 2 0 10 0;
#X connect 3 0 11 0;
#X connect 4 0 12 0;
#X connect 5 0 13 0;
#X connect 6 0 14 0;
#X connect 7 0 15 0;
#X connect 8 0 1 0;
#X connect 10 0 3 0;
#X connect 12 0 5 0;
#X connect 14 0 7 0;
#X connect 16 0 18 0;
#X connect 17 0 19 0;
#X connect 18 0 17 0;
#X connect 20 0 22 0;
#X connect 21 0 23 0;
#X connect 22 0 21 0;
#X connect 24 0 36 0;
#X connect 25 0 37 0;
#X connect 26 0 38 0;
#X connect 27 0 39 0;
#X connect 28 0 41 0;
#X connect 29 0 40 0;
#X connect 30 0 42 0;
#X connect 31 0 43 0;
#X connect 32 0 44 0;
#X connect 33 0 45 0;
#X connect 34 0 46 0;
#X connect 35 0 47 0;
#X connect 36 0 25 0;
#X connect 38 0 27 0;
#X connect 41 0 29 0;
#X connect 42 0 31 0;
#X connect 44 0 33 0;
#X connect 46 0 35 0;
#X connect 48 0 56 0;
#X connect 49 0 57 0;
#X connect 50 0 58 0;
#X connect 51 0 59 0;
#X connect 52 0 60 0;
#X connect 53 0 61 0;
#X connect 54 0 62 0;
#X connect 55 0 63 0;
#X connect 56 0 49 0;
#X connect 58 0 51 0;
#X connect 60 0 53 0;
#X connect 62 0 55 0;
#X restore 70 611 pd drumkeys;
#X obj 672 308 hsl 128 15 0 127 0 0 \$0-attack \$0-attack empty -2
-8 0 10 #fcfcfc #000000 #000000 0 1;
#X obj 674 368 hsl 128 15 0 127 0 0 \$0-release \$0-release empty -2
-8 0 10 #fcfcfc #000000 #000000 0 1;
#X obj 674 433 hsl 128 15 0 127 0 0 \$0-synthshape \$0-synthshape empty
-2 -8 0 10 #fcfcfc #000000 #000000 0 1;
#X obj 675 491 hsl 128 15 0 127 0 0 \$0-index \$0-index empty -2 -8
0 10 #fcfcfc #000000 #000000 0 1;
#X obj 675 558 hsl 128 15 0 127 0 0 \$0-synthrate \$0-synthrate empty
-2 -8 0 10 #fcfcfc #000000 #000000 0 1;
#X obj 676 617 hsl 128 15 0 127 0 0 \$0-glide \$0-glide empty -2 -8
0 10 #fcfcfc #000000 #000000 0 1;
#X obj 676 681 hsl 128 15 0 127 0 0 \$0-synthvol \$0-synthvol empty
-2 -8 0 10 #fcfcfc #000000 #000000 0 1;
#N canvas 502 159 263 187 keys 0;
#X obj 109 37 keyup;
#X obj 34 37 key;
#X floatatom 215 22 5 0 0 0 - - - 0;
#X msg 34 85 1;
#X msg 109 86 0;
#X obj 34 61 select 49;
#X obj 109 61 select 49;
#X obj 34 155 s \$0-c;
#X obj 34 119 tgl 15 0 empty empty empty 17 7 0 10 #fcfcfc #000000
#000000 0 1;
#X obj 97 120 tgl 15 0 empty empty empty 17 7 0 10 #fcfcfc #000000
#000000 0 1;
#X connect 0 0 6 0;
#X connect 1 0 2 0;
#X connect 1 0 5 0;
#X connect 3 0 8 0;
#X connect 4 0 9 0;
#X connect 5 0 3 0;
#X connect 6 0 4 0;
#X restore 70 634 pd keys;
#X text 53 381 keyboard;
#X obj 884 31 vsl 15 128 0 127 0 0 empty empty empty 0 -9 0 10 #fcfcfc
#000000 #000000 0 1;
#X obj 884 172 s \$0-reverb;
#X obj 973 34 vsl 15 128 0 127 0 0 empty empty empty 0 -9 0 10 #fcfcfc
#000000 #000000 0 1;
#X obj 973 172 s \$0-bitcrush;
#X obj 1078 26 vsl 15 128 0 127 0 0 empty empty empty 0 -9 0 10 #fcfcfc
#000000 #000000 0 1;
#X obj 1076 171 s \$0-ringMod;
#X obj 887 214 vsl 15 128 0 127 0 0 empty empty empty 0 -9 0 10 #fcfcfc
#000000 #000000 0 1;
#X obj 887 350 s \$0-distortion;
#X obj 1030 315 vsl 15 128 0 127 0 0 empty empty empty 0 -9 0 10 #fcfcfc
#000000 #000000 0 1;
#X obj 1072 254 vsl 15 128 0 6 0 0 empty empty empty 0 -9 0 10 #fcfcfc
#000000 #000000 0 1;
#X obj 1117 219 vsl 15 128 0 127 0 0 empty empty empty 0 -9 0 10 #fcfcfc
#000000 #000000 0 1;
#X obj 1030 452 s \$0-delaytime;
#X obj 1073 401 s \$0-drumdelay;
#X obj 1117 362 s \$0-feedback;
#X obj 927 550 hsl 128 40 0 127 0 0 \$0-FXvol empty empty -2 -8 0 10
#fcfcfc #000000 #000000 0 1;
#X text 923 526 post FX volume;
#N canvas 120 146 246 383 FX 1;
#N canvas 152 87 715 630 drums 0;
#N canvas 16 89 1358 648 initA 0;
#X obj 721 9 loadbang;
#X obj 339 302 soundfiler;
#X msg 91 96 read -resize kick_02.wav kick_02;
#X msg 106 122 read -resize kick_03.wav kick_03;
#X msg 116 149 read -resize kick_04.wav kick_04;
#X msg 130 173 read -resize kick_05.wav kick_05;
#X msg 140 198 read -resize kick_06.wav kick_06;
#X obj 40 398 tabplay~ kick_01;
#X obj 69 447 tabplay~ kick_02;
#X obj 165 396 tabplay~ kick_03;
#X obj 189 447 tabplay~ kick_04;
#X obj 289 394 tabplay~ kick_05;
#X obj 310 443 tabplay~ kick_06;
#X obj 40 373 r \$0-kick1;
#X obj 69 422 r \$0-kick2;
#X obj 165 372 r \$0-kick3;
#X obj 189 423 r \$0-kick4;
#X obj 289 371 r \$0-kick5;
#X obj 310 421 r \$0-kick6;
#X obj 618 565 *~ 0.5;
#X obj 617 609 outlet~;
#X msg 80 70 read -resize kick_01.wav kick_01;
#X msg 371 72 read -resize snare_01.wav snare_01;
#X msg 382 98 read -resize snare_02.wav snare_02;
#X msg 392 125 read -resize snare_03.wav snare_03;
#X msg 407 151 read -resize snare_04.wav snare_04;
#X msg 421 175 read -resize snare_05.wav snare_05;
#X msg 431 200 read -resize snare_06.wav snare_06;
#N canvas 485 111 864 585 kicks_arrays 0;
#N canvas 0 22 450 278 (subpatch) 0;
#X array kick_01 39566 float 0;
#X coords 0 1 39565 -1 200 140 1;
#X restore 69 53 graph;
#N canvas 0 22 450 278 (subpatch) 0;
#X array kick_02 39717 float 2;
#X coords 0 1 39717 -1 200 140 1;
#X restore 278 53 graph;
#N canvas 0 22 450 278 (subpatch) 0;
#X array kick_03 31998 float 2;
#X coords 0 1 31998 -1 200 140 1;
#X restore 68 213 graph;
#N canvas 0 22 450 278 (subpatch) 0;
#X array kick_04 41687 float 2;
#X coords 0 1 41687 -1 200 140 1;
#X restore 279 213 graph;
#N canvas 0 22 450 278 (subpatch) 0;
#X array kick_05 27514 float 2;
#X coords 0 1 27514 -1 200 140 1;
#X restore 66 374 graph;
#N canvas 0 22 450 278 (subpatch) 0;
#X array kick_06 31313 float 2;
#X coords 0 1 31313 -1 200 140 1;
#X restore 279 374 graph;
#X restore 24 291 pd kicks_arrays;
#N canvas 296 82 654 701 snare_arrays 0;
#N canvas 0 22 450 278 (subpatch) 0;
#X array snare_01 7954 float 0;
#X coords 0 1 7953 -1 200 140 1;
#X restore 34 36 graph;
#N canvas 0 22 450 278 (subpatch) 0;
#X array snare_02 39690 float 0;
#X coords 0 1 39689 -1 200 140 1;
#X restore 245 36 graph;
#N canvas 0 22 450 278 (subpatch) 0;
#X array snare_03 14905 float 0;
#X coords 0 1 14904 -1 200 140 1;
#X restore 34 199 graph;
#N canvas 0 22 450 278 (subpatch) 0;
#X array snare_04 25170 float 0;
#X coords 0 1 25169 -1 200 140 1;
#X restore 244 199 graph;
#N canvas 0 22 450 278 (subpatch) 0;
#X array snare_05 16086 float 0;
#X coords 0 1 16085 -1 200 140 1;
#X restore 33 360 graph;
#N canvas 0 22 450 278 (subpatch) 0;
#X array snare_06 13750 float 0;
#X coords 0 1 13749 -1 200 140 1;
#X restore 245 360 graph;
#X restore 25 315 pd snare_arrays;
#X obj 429 363 r \$0-snare1;
#X obj 687 366 r \$0-snare5;
#X obj 560 365 r \$0-snare3;
#X obj 438 415 r \$0-snare2;
#X obj 575 417 r \$0-snare4;
#X obj 731 409 r \$0-snare6;
#X obj 429 388 tabplay~ snare_01;
#X obj 560 389 tabplay~ snare_03;
#X obj 687 389 tabplay~ snare_05;
#X obj 438 440 tabplay~ snare_02;
#X obj 575 441 tabplay~ snare_04;
#X obj 731 433 tabplay~ snare_06;
#N canvas 486 201 784 469 hh_arrays 0;
#N canvas 0 22 450 278 (subpatch) 0;
#X array hh_01 18257 float 0;
#X coords 0 1 18256 -1 200 140 1;
#X restore 65 45 graph;
#N canvas 0 22 450 278 (subpatch) 0;
#X array hh_02 13759 float 0;
#X coords 0 1 13758 -1 200 140 1;
#X restore 280 44 graph;
#N canvas 0 22 450 278 (subpatch) 0;
#X array hh_03 5755 float 0;
#X coords 0 1 5754 -1 200 140 1;
#X restore 66 205 graph;
#X restore 148 292 pd hh_arrays;
#N canvas 387 55 849 646 crash_array 0;
#N canvas 0 22 450 278 (subpatch) 0;
#X array crash_01 177824 float 0;
#X coords 0 1 177823 -1 200 140 1;
#X restore 100 20 graph;
#X restore 148 314 pd crash_array;
#X msg 677 95 read -resize hh_02.wav hh_02;
#X msg 667 69 read -resize hh_01.wav hh_01;
#X msg 687 122 read -resize hh_03.wav hh_03;
#X obj 822 388 tabplay~ hh_01;
#X obj 870 434 tabplay~ hh_02;
#X obj 822 365 r \$0-hh1;
#X obj 866 410 r \$0-hh2;
#X obj 943 357 r \$0-hh3;
#X obj 947 381 tabplay~ hh_03;
#X obj 981 407 r \$0-crash;
#X msg 833 187 read -resize crash_01.wav crash_01;
#X obj 985 431 tabplay~ crash_01;
#X connect 0 0 21 0;
#X connect 0 0 2 0;
#X connect 0 0 4 0;
#X connect 0 0 6 0;
#X connect 0 0 3 0;
#X connect 0 0 5 0;
#X connect 0 0 22 0;
#X connect 0 0 23 0;
#X connect 0 0 24 0;
#X connect 0 0 25 0;
#X connect 0 0 26 0;
#X connect 0 0 27 0;
#X connect 0 0 45 0;
#X connect 0 0 44 0;
#X connect 0 0 46 0;
#X connect 0 0 54 0;
#X connect 2 0 1 0;
#X connect 3 0 1 0;
#X connect 4 0 1 0;
#X connect 5 0 1 0;
#X connect 6 0 1 0;
#X connect 7 0 19 0;
#X connect 8 0 19 0;
#X connect 9 0 19 0;
#X connect 10 0 19 0;
#X connect 11 0 19 0;
#X connect 12 0 19 0;
#X connect 13 0 7 0;
#X connect 14 0 8 0;
#X connect 15 0 9 0;
#X connect 16 0 10 0;
#X connect 17 0 11 0;
#X connect 18 0 12 0;
#X connect 19 0 20 0;
#X connect 21 0 1 0;
#X connect 22 0 1 0;
#X connect 23 0 1 0;
#X connect 24 0 1 0;
#X connect 25 0 1 0;
#X connect 26 0 1 0;
#X connect 27 0 1 0;
#X connect 30 0 36 0;
#X connect 31 0 38 0;
#X connect 32 0 37 0;
#X connect 33 0 39 0;
#X connect 34 0 40 0;
#X connect 35 0 41 0;
#X connect 36 0 19 0;
#X connect 37 0 19 0;
#X connect 38 0 19 0;
#X connect 39 0 19 0;
#X connect 40 0 19 0;
#X connect 41 0 19 0;
#X connect 44 0 1 0;
#X connect 45 0 1 0;
#X connect 46 0 1 0;
#X connect 47 0 19 0;
#X connect 48 0 19 0;
#X connect 49 0 47 0;
#X connect 50 0 48 0;
#X connect 51 0 52 0;
#X connect 52 0 19 0;
#X connect 53 0 55 0;
#X connect 54 0 1 0;
#X connect 55 0 19 0;
#X restore 33 34 pd initA;
#X obj 182 444 *~;
#X obj 213 182 select 0;
#X obj 310 119 r \$0-drumkit;
#X msg 213 237 1 10;
#X msg 266 237 0 10;
#X obj 194 279 line~;
#X obj 245 530 *~;
#X obj 543 434 r \$0-drumvol;
#X obj 543 459 / 127;
#X msg 543 484 \$1 15;
#X obj 543 508 line~;
#N canvas 82 99 1358 648 initB 0;
#X obj 721 9 loadbang;
#X obj 339 302 soundfiler;
#X obj 40 373 r \$0-kick1;
#X obj 69 422 r \$0-kick2;
#X obj 165 372 r \$0-kick3;
#X obj 189 423 r \$0-kick4;
#X obj 289 371 r \$0-kick5;
#X obj 310 421 r \$0-kick6;
#X obj 618 565 *~ 0.5;
#X obj 617 609 outlet~;
#N canvas 485 111 864 585 kicks_arrays 0;
#N canvas 0 22 450 278 (subpatch) 0;
#X array kick_07 34580 float 0;
#X coords 0 1 34579 -1 200 140 1;
#X restore 69 53 graph;
#N canvas 0 22 450 278 (subpatch) 0;
#X array kick_08 11400 float 2;
#X coords 0 1 11400 -1 200 140 1;
#X restore 278 53 graph;
#N canvas 0 22 450 278 (subpatch) 0;
#X array kick_09 9404 float 2;
#X coords 0 1 9404 -1 200 140 1;
#X restore 68 213 graph;
#N canvas 0 22 450 278 (subpatch) 0;
#X array kick_10 13624 float 2;
#X coords 0 1 13624 -1 200 140 1;
#X restore 279 213 graph;
#N canvas 0 22 450 278 (subpatch) 0;
#X array kick_11 7604 float 2;
#X coords 0 1 7604 -1 200 140 1;
#X restore 66 374 graph;
#N canvas 0 22 450 278 (subpatch) 0;
#X array kick_12 13149 float 2;
#X coords 0 1 13149 -1 200 140 1;
#X restore 279 374 graph;
#X restore 24 291 pd kicks_arrays;
#N canvas 296 82 654 701 snare_arrays 0;
#N canvas 0 22 450 278 (subpatch) 0;
#X array snare_07 36073 float 0;
#X coords 0 1 36072 -1 200 140 1;
#X restore 34 36 graph;
#N canvas 0 22 450 278 (subpatch) 0;
#X array snare_08 11587 float 0;
#X coords 0 1 11586 -1 200 140 1;
#X restore 245 36 graph;
#N canvas 0 22 450 278 (subpatch) 0;
#X array snare_09 15045 float 0;
#X coords 0 1 15044 -1 200 140 1;
#X restore 34 199 graph;
#N canvas 0 22 450 278 (subpatch) 0;
#X array snare_10 9632 float 0;
#X coords 0 1 9631 -1 200 140 1;
#X restore 244 199 graph;
#N canvas 0 22 450 278 (subpatch) 0;
#X array snare_11 9436 float 0;
#X coords 0 1 9435 -1 200 140 1;
#X restore 33 360 graph;
#N canvas 0 22 450 278 (subpatch) 0;
#X array snare_12 13222 float 0;
#X coords 0 1 13221 -1 200 140 1;
#X restore 245 360 graph;
#X restore 24 315 pd snare_arrays;
#X obj 429 363 r \$0-snare1;
#X obj 687 366 r \$0-snare5;
#X obj 560 365 r \$0-snare3;
#X obj 438 415 r \$0-snare2;
#X obj 575 417 r \$0-snare4;
#X obj 731 409 r \$0-snare6;
#N canvas 486 201 784 469 hh_arrays 0;
#N canvas 0 22 450 278 (subpatch) 0;
#X array hh_04 13671 float 0;
#X coords 0 1 13670 -1 200 140 1;
#X restore 65 45 graph;
#N canvas 0 22 450 278 (subpatch) 0;
#X array hh_05 9532 float 0;
#X coords 0 1 9531 -1 200 140 1;
#X restore 280 44 graph;
#N canvas 0 22 450 278 (subpatch) 0;
#X array hh_06 32199 float 0;
#X coords 0 1 32198 -1 200 140 1;
#X restore 66 205 graph;
#X restore 148 292 pd hh_arrays;
#N canvas 387 55 849 646 crash_array 0;
#N canvas 0 22 450 278 (subpatch) 0;
#X array crash_02 141281 float 0;
#X coords 0 1 141280 -1 200 140 1;
#X restore 100 20 graph;
#X restore 148 314 pd crash_array;
#X obj 822 365 r \$0-hh1;
#X obj 866 410 r \$0-hh2;
#X obj 943 357 r \$0-hh3;
#X obj 981 407 r \$0-crash;
#X msg 833 187 read -resize crash_02.wav crash_02;
#X obj 985 431 tabplay~ crash_02;
#X msg 80 70 read -resize kick_07.wav kick_07;
#X msg 91 96 read -resize kick_08.wav kick_08;
#X msg 106 122 read -resize kick_09.wav kick_09;
#X msg 116 149 read -resize kick_10.wav kick_10;
#X msg 130 173 read -resize kick_11.wav kick_11;
#X msg 140 198 read -resize kick_12.wav kick_12;
#X obj 40 398 tabplay~ kick_07;
#X obj 69 447 tabplay~ kick_08;
#X obj 165 396 tabplay~ kick_09;
#X obj 189 447 tabplay~ kick_10;
#X obj 289 394 tabplay~ kick_11;
#X obj 310 443 tabplay~ kick_12;
#X msg 371 72 read -resize snare_07.wav snare_07;
#X msg 382 98 read -resize snare_08.wav snare_08;
#X msg 392 125 read -resize snare_09.wav snare_09;
#X msg 407 151 read -resize snare_10.wav snare_10;
#X msg 421 175 read -resize snare_11.wav snare_11;
#X msg 431 200 read -resize snare_12.wav snare_12;
#X obj 429 388 tabplay~ snare_07;
#X obj 438 440 tabplay~ snare_08;
#X obj 560 389 tabplay~ snare_09;
#X obj 575 441 tabplay~ snare_10;
#X obj 687 389 tabplay~ snare_11;
#X obj 731 433 tabplay~ snare_12;
#X obj 822 388 tabplay~ hh_04;
#X obj 870 434 tabplay~ hh_05;
#X obj 947 381 tabplay~ hh_06;
#X msg 667 69 read -resize hh_04.wav hh_04;
#X msg 675 95 read -resize hh_05.wav hh_05;
#X msg 687 122 read -resize hh_06.wav hh_06;
#X connect 0 0 26 0;
#X connect 0 0 27 0;
#X connect 0 0 29 0;
#X connect 0 0 31 0;
#X connect 0 0 28 0;
#X connect 0 0 30 0;
#X connect 0 0 38 0;
#X connect 0 0 39 0;
#X connect 0 0 40 0;
#X connect 0 0 41 0;
#X connect 0 0 42 0;
#X connect 0 0 43 0;
#X connect 0 0 53 0;
#X connect 0 0 54 0;
#X connect 0 0 55 0;
#X connect 0 0 24 0;
#X connect 2 0 32 0;
#X connect 3 0 33 0;
#X connect 4 0 34 0;
#X connect 5 0 35 0;
#X connect 6 0 36 0;
#X connect 7 0 37 0;
#X connect 8 0 9 0;
#X connect 12 0 44 0;
#X connect 13 0 48 0;
#X connect 14 0 46 0;
#X connect 15 0 45 0;
#X connect 16 0 47 0;
#X connect 17 0 49 0;
#X connect 20 0 50 0;
#X connect 21 0 51 0;
#X connect 22 0 52 0;
#X connect 23 0 25 0;
#X connect 24 0 1 0;
#X connect 25 0 8 0;
#X connect 26 0 1 0;
#X connect 27 0 1 0;
#X connect 28 0 1 0;
#X connect 29 0 1 0;
#X connect 30 0 1 0;
#X connect 31 0 1 0;
#X connect 32 0 8 0;
#X connect 33 0 8 0;
#X connect 34 0 8 0;
#X connect 35 0 8 0;
#X connect 36 0 8 0;
#X connect 37 0 8 0;
#X connect 38 0 1 0;
#X connect 39 0 1 0;
#X connect 40 0 1 0;
#X connect 41 0 1 0;
#X connect 42 0 1 0;
#X connect 43 0 1 0;
#X connect 44 0 8 0;
#X connect 45 0 8 0;
#X connect 46 0 8 0;
#X connect 47 0 8 0;
#X connect 48 0 8 0;
#X connect 49 0 8 0;
#X connect 50 0 8 0;
#X connect 51 0 8 0;
#X connect 52 0 8 0;
#X connect 53 0 1 0;
#X connect 54 0 1 0;
#X connect 55 0 1 0;
#X restore 99 34 pd initB;
#X obj 325 182 select 1;
#X msg 325 237 1 10;
#X msg 378 237 0 10;
#X obj 306 279 line~;
#X obj 289 349 *~;
#N canvas 82 99 1358 648 initC 0;
#X obj 721 9 loadbang;
#X obj 339 302 soundfiler;
#X obj 40 373 r \$0-kick1;
#X obj 69 422 r \$0-kick2;
#X obj 165 372 r \$0-kick3;
#X obj 189 423 r \$0-kick4;
#X obj 289 371 r \$0-kick5;
#X obj 310 421 r \$0-kick6;
#X obj 618 565 *~ 0.5;
#X obj 617 609 outlet~;
#N canvas 485 111 864 585 kicks_arrays 0;
#N canvas 0 22 450 278 (subpatch) 0;
#X array kick_13 8699 float 0;
#X coords 0 1 8698 -1 200 140 1;
#X restore 69 53 graph;
#N canvas 0 22 450 278 (subpatch) 0;
#X array kick_14 13904 float 0;
#X coords 0 1 13903 -1 200 140 1;
#X restore 278 53 graph;
#N canvas 0 22 450 278 (subpatch) 0;
#X array kick_15 6500 float 0;
#X coords 0 1 6499 -1 200 140 1;
#X restore 68 213 graph;
#N canvas 0 22 450 278 (subpatch) 0;
#X array kick_16 8525 float 0;
#X coords 0 1 8524 -1 200 140 1;
#X restore 279 213 graph;
#N canvas 0 22 450 278 (subpatch) 0;
#X array kick_17 80832 float 0;
#X coords 0 1 80831 -1 200 140 1;
#X restore 66 374 graph;
#N canvas 0 22 450 278 (subpatch) 0;
#X array kick_18 15699 float 0;
#X coords 0 1 15698 -1 200 140 1;
#X restore 279 374 graph;
#X restore 24 291 pd kicks_arrays;
#N canvas 296 82 654 701 snare_arrays 0;
#N canvas 0 22 450 278 (subpatch) 0;
#X array snare_13 12552 float 0;
#X coords 0 1 12551 -1 200 140 1;
#X restore 34 36 graph;
#N canvas 0 22 450 278 (subpatch) 0;
#X array snare_14 15196 float 0;
#X coords 0 1 15195 -1 200 140 1;
#X restore 245 36 graph;
#N canvas 0 22 450 278 (subpatch) 0;
#X array snare_15 17777 float 0;
#X coords 0 1 17776 -1 200 140 1;
#X restore 34 199 graph;
#N canvas 0 22 450 278 (subpatch) 0;
#X array snare_16 28914 float 0;
#X coords 0 1 28913 -1 200 140 1;
#X restore 244 199 graph;
#N canvas 0 22 450 278 (subpatch) 0;
#X array snare_17 13283 float 0;
#X coords 0 1 13282 -1 200 140 1;
#X restore 33 360 graph;
#N canvas 0 22 450 278 (subpatch) 0;
#X array snare_18 9161 float 0;
#X coords 0 1 9160 -1 200 140 1;
#X restore 245 360 graph;
#X restore 24 315 pd snare_arrays;
#X obj 429 363 r \$0-snare1;
#X obj 687 366 r \$0-snare5;
#X obj 560 365 r \$0-snare3;
#X obj 438 415 r \$0-snare2;
#X obj 575 417 r \$0-snare4;
#X obj 731 409 r \$0-snare6;
#N canvas 486 201 784 469 hh_arrays 0;
#N canvas 0 22 450 278 (subpatch) 0;
#X array hh_07 13510 float 0;
#X coords 0 1 13509 -1 200 140 1;
#X restore 65 45 graph;
#N canvas 0 22 450 278 (subpatch) 0;
#X array hh_08 2342 float 0;
#X coords 0 1 2341 -1 200 140 1;
#X restore 280 44 graph;
#N canvas 0 22 450 278 (subpatch) 0;
#X array hh_09 9261 float 0;
#X coords 0 1 9260 -1 200 140 1;
#X restore 66 205 graph;
#X restore 148 292 pd hh_arrays;
#N canvas 387 55 849 646 crash_array 0;
#N canvas 0 22 450 278 (subpatch) 0;
#X array crash_03 28336 float 0;
#X coords 0 1 28335 -1 200 140 1;
#X restore 100 20 graph;
#X restore 148 314 pd crash_array;
#X obj 822 365 r \$0-hh1;
#X obj 866 410 r \$0-hh2;
#X obj 943 357 r \$0-hh3;
#X obj 981 407 r \$0-crash;
#X msg 833 187 read -resize crash_03.wav crash_03;
#X obj 985 431 tabplay~ crash_03;
#X msg 80 70 read -resize kick_13.wav kick_13;
#X msg 91 96 read -resize kick_14.wav kick_14;
#X msg 106 122 read -resize kick_15.wav kick_15;
#X msg 116 149 read -resize kick_16.wav kick_16;
#X msg 130 173 read -resize kick_17.wav kick_17;
#X msg 140 198 read -resize kick_18.wav kick_18;
#X msg 371 72 read -resize snare_13.wav snare_13;
#X msg 382 98 read -resize snare_14.wav snare_14;
#X msg 392 125 read -resize snare_15.wav snare_15;
#X msg 407 151 read -resize snare_16.wav snare_16;
#X msg 421 175 read -resize snare_17.wav snare_17;
#X msg 431 200 read -resize snare_18.wav snare_18;
#X msg 667 69 read -resize hh_07.wav hh_07;
#X msg 675 95 read -resize hh_08.wav hh_08;
#X msg 687 122 read -resize hh_09.wav hh_09;
#X obj 40 398 tabplay~ kick_13;
#X obj 69 447 tabplay~ kick_14;
#X obj 165 396 tabplay~ kick_15;
#X obj 189 447 tabplay~ kick_16;
#X obj 289 394 tabplay~ kick_17;
#X obj 310 443 tabplay~ kick_18;
#X obj 429 388 tabplay~ snare_13;
#X obj 438 440 tabplay~ snare_14;
#X obj 560 389 tabplay~ snare_15;
#X obj 575 441 tabplay~ snare_16;
#X obj 687 389 tabplay~ snare_17;
#X obj 731 433 tabplay~ snare_18;
#X obj 822 388 tabplay~ hh_07;
#X obj 870 434 tabplay~ hh_08;
#X obj 947 381 tabplay~ hh_09;
#X connect 0 0 26 0;
#X connect 0 0 27 0;
#X connect 0 0 29 0;
#X connect 0 0 31 0;
#X connect 0 0 28 0;
#X connect 0 0 30 0;
#X connect 0 0 32 0;
#X connect 0 0 33 0;
#X connect 0 0 34 0;
#X connect 0 0 35 0;
#X connect 0 0 36 0;
#X connect 0 0 37 0;
#X connect 0 0 38 0;
#X connect 0 0 39 0;
#X connect 0 0 40 0;
#X connect 0 0 24 0;
#X connect 2 0 41 0;
#X connect 3 0 42 0;
#X connect 4 0 43 0;
#X connect 5 0 44 0;
#X connect 6 0 45 0;
#X connect 7 0 46 0;
#X connect 8 0 9 0;
#X connect 12 0 47 0;
#X connect 13 0 51 0;
#X connect 14 0 49 0;
#X connect 15 0 48 0;
#X connect 16 0 50 0;
#X connect 17 0 52 0;
#X connect 20 0 53 0;
#X connect 21 0 54 0;
#X connect 22 0 55 0;
#X connect 23 0 25 0;
#X connect 24 0 1 0;
#X connect 25 0 8 0;
#X connect 26 0 1 0;
#X connect 27 0 1 0;
#X connect 28 0 1 0;
#X connect 29 0 1 0;
#X connect 30 0 1 0;
#X connect 31 0 1 0;
#X connect 32 0 1 0;
#X connect 33 0 1 0;
#X connect 34 0 1 0;
#X connect 35 0 1 0;
#X connect 36 0 1 0;
#X connect 37 0 1 0;
#X connect 38 0 1 0;
#X connect 39 0 1 0;
#X connect 40 0 1 0;
#X connect 41 0 8 0;
#X connect 42 0 8 0;
#X connect 43 0 8 0;
#X connect 44 0 8 0;
#X connect 45 0 8 0;
#X connect 46 0 8 0;
#X connect 47 0 8 0;
#X connect 48 0 8 0;
#X connect 49 0 8 0;
#X connect 50 0 8 0;
#X connect 51 0 8 0;
#X connect 52 0 8 0;
#X connect 53 0 8 0;
#X connect 54 0 8 0;
#X connect 55 0 8 0;
#X restore 169 35 pd initC;
#X obj 463 182 select 2;
#X msg 460 242 1 10;
#X msg 513 242 0 10;
#X obj 441 284 line~;
#X obj 424 354 *~;
#X obj 587 180 select 3;
#X msg 588 237 1 10;
#X msg 641 237 0 10;
#X obj 569 279 line~;
#X obj 552 349 *~;
#N canvas 82 99 1358 648 initD 0;
#X obj 721 9 loadbang;
#X obj 339 302 soundfiler;
#X obj 40 373 r \$0-kick1;
#X obj 69 422 r \$0-kick2;
#X obj 165 372 r \$0-kick3;
#X obj 189 423 r \$0-kick4;
#X obj 289 371 r \$0-kick5;
#X obj 310 421 r \$0-kick6;
#X obj 618 565 *~ 0.5;
#X obj 617 609 outlet~;
#N canvas 485 111 864 585 kicks_arrays 0;
#N canvas 0 22 450 278 (subpatch) 0;
#X array kick_19 7510 float 0;
#X coords 0 1 7509 -1 200 140 1;
#X restore 69 53 graph;
#N canvas 0 22 450 278 (subpatch) 0;
#X array kick_20 10747 float 0;
#X coords 0 1 10746 -1 200 140 1;
#X restore 278 53 graph;
#N canvas 0 22 450 278 (subpatch) 0;
#X array kick_21 25152 float 0;
#X coords 0 1 25151 -1 200 140 1;
#X restore 68 213 graph;
#N canvas 0 22 450 278 (subpatch) 0;
#X array kick_22 8400 float 0;
#X coords 0 1 8399 -1 200 140 1;
#X restore 279 213 graph;
#N canvas 0 22 450 278 (subpatch) 0;
#X array kick_23 12033 float 0;
#X coords 0 1 12032 -1 200 140 1;
#X restore 66 374 graph;
#N canvas 0 22 450 278 (subpatch) 0;
#X array kick_24 46123 float 0;
#X coords 0 1 46122 -1 200 140 1;
#X restore 279 374 graph;
#X restore 24 291 pd kicks_arrays;
#N canvas 296 82 654 701 snare_arrays 0;
#N canvas 0 22 450 278 (subpatch) 0;
#X array snare_19 14679 float 0;
#X coords 0 1 14678 -1 200 140 1;
#X restore 34 36 graph;
#N canvas 0 22 450 278 (subpatch) 0;
#X array snare_20 11178 float 0;
#X coords 0 1 11177 -1 200 140 1;
#X restore 245 36 graph;
#N canvas 0 22 450 278 (subpatch) 0;
#X array snare_21 13264 float 0;
#X coords 0 1 13263 -1 200 140 1;
#X restore 34 199 graph;
#N canvas 0 22 450 278 (subpatch) 0;
#X array snare_22 13274 float 0;
#X coords 0 1 13273 -1 200 140 1;
#X restore 244 199 graph;
#N canvas 0 22 450 278 (subpatch) 0;
#X array snare_23 13353 float 0;
#X coords 0 1 13352 -1 200 140 1;
#X restore 33 360 graph;
#N canvas 0 22 450 278 (subpatch) 0;
#X array snare_24 45361 float 0;
#X coords 0 1 45360 -1 200 140 1;
#X restore 245 360 graph;
#X restore 24 315 pd snare_arrays;
#X obj 429 363 r \$0-snare1;
#X obj 687 366 r \$0-snare5;
#X obj 560 365 r \$0-snare3;
#X obj 438 415 r \$0-snare2;
#X obj 575 417 r \$0-snare4;
#X obj 731 409 r \$0-snare6;
#N canvas 486 201 784 469 hh_arrays 0;
#N canvas 0 22 450 278 (subpatch) 0;
#X array hh_10 8623 float 0;
#X coords 0 1 8622 -1 200 140 1;
#X restore 65 45 graph;
#N canvas 0 22 450 278 (subpatch) 0;
#X array hh_11 11552 float 0;
#X coords 0 1 11551 -1 200 140 1;
#X restore 280 44 graph;
#N canvas 0 22 450 278 (subpatch) 0;
#X array hh_12 11162 float 0;
#X coords 0 1 11161 -1 200 140 1;
#X restore 66 205 graph;
#X restore 148 292 pd hh_arrays;
#N canvas 387 55 849 646 crash_array 0;
#N canvas 0 22 450 278 (subpatch) 0;
#X array crash_04 48837 float 0;
#X coords 0 1 48836 -1 200 140 1;
#X restore 100 20 graph;
#X restore 148 314 pd crash_array;
#X obj 822 365 r \$0-hh1;
#X obj 866 410 r \$0-hh2;
#X obj 943 357 r \$0-hh3;
#X obj 981 407 r \$0-crash;
#X msg 80 70 read -resize kick_19.wav kick_19;
#X msg 91 96 read -resize kick_20.wav kick_20;
#X msg 106 122 read -resize kick_21.wav kick_21;
#X msg 116 149 read -resize kick_22.wav kick_22;
#X msg 130 173 read -resize kick_23.wav kick_23;
#X msg 140 198 read -resize kick_24.wav kick_24;
#X msg 371 72 read -resize snare_19.wav snare_19;
#X msg 382 98 read -resize snare_20.wav snare_20;
#X msg 392 125 read -resize snare_21.wav snare_21;
#X msg 407 151 read -resize snare_22.wav snare_22;
#X msg 421 175 read -resize snare_23.wav snare_23;
#X msg 431 200 read -resize snare_24.wav snare_24;
#X msg 667 69 read -resize hh_10.wav hh_10;
#X msg 675 95 read -resize hh_11.wav hh_11;
#X msg 687 122 read -resize hh_12.wav hh_12;
#X msg 833 187 read -resize crash_04.wav crash_04;
#X obj 40 398 tabplay~ kick_19;
#X obj 69 447 tabplay~ kick_20;
#X obj 165 396 tabplay~ kick_21;
#X obj 189 447 tabplay~ kick_22;
#X obj 289 394 tabplay~ kick_23;
#X obj 310 443 tabplay~ kick_24;
#X obj 429 388 tabplay~ snare_19;
#X obj 438 440 tabplay~ snare_20;
#X obj 560 389 tabplay~ snare_21;
#X obj 575 441 tabplay~ snare_22;
#X obj 687 389 tabplay~ snare_23;
#X obj 731 433 tabplay~ snare_24;
#X obj 822 388 tabplay~ hh_10;
#X obj 870 434 tabplay~ hh_11;
#X obj 947 381 tabplay~ hh_12;
#X obj 985 431 tabplay~ crash_04;
#X connect 0 0 24 0;
#X connect 0 0 25 0;
#X connect 0 0 27 0;
#X connect 0 0 29 0;
#X connect 0 0 26 0;
#X connect 0 0 28 0;
#X connect 0 0 30 0;
#X connect 0 0 31 0;
#X connect 0 0 32 0;
#X connect 0 0 33 0;
#X connect 0 0 34 0;
#X connect 0 0 35 0;
#X connect 0 0 36 0;
#X connect 0 0 37 0;
#X connect 0 0 38 0;
#X connect 0 0 39 0;
#X connect 2 0 40 0;
#X connect 3 0 41 0;
#X connect 4 0 42 0;
#X connect 5 0 43 0;
#X connect 6 0 44 0;
#X connect 7 0 45 0;
#X connect 8 0 9 0;
#X connect 12 0 46 0;
#X connect 13 0 50 0;
#X connect 14 0 48 0;
#X connect 15 0 47 0;
#X connect 16 0 49 0;
#X connect 17 0 51 0;
#X connect 20 0 52 0;
#X connect 21 0 53 0;
#X connect 22 0 54 0;
#X connect 23 0 55 0;
#X connect 24 0 1 0;
#X connect 25 0 1 0;
#X connect 26 0 1 0;
#X connect 27 0 1 0;
#X connect 28 0 1 0;
#X connect 29 0 1 0;
#X connect 30 0 1 0;
#X connect 31 0 1 0;
#X connect 32 0 1 0;
#X connect 33 0 1 0;
#X connect 34 0 1 0;
#X connect 35 0 1 0;
#X connect 36 0 1 0;
#X connect 37 0 1 0;
#X connect 38 0 1 0;
#X connect 39 0 1 0;
#X connect 40 0 8 0;
#X connect 41 0 8 0;
#X connect 42 0 8 0;
#X connect 43 0 8 0;
#X connect 44 0 8 0;
#X connect 45 0 8 0;
#X connect 46 0 8 0;
#X connect 47 0 8 0;
#X connect 48 0 8 0;
#X connect 49 0 8 0;
#X connect 50 0 8 0;
#X connect 51 0 8 0;
#X connect 52 0 8 0;
#X connect 53 0 8 0;
#X connect 54 0 8 0;
#X connect 55 0 8 0;
#X restore 244 35 pd initD;
#N canvas 165 103 450 300 init 0;
#X obj 47 40 loadbang;
#X obj 47 68 float \$0;
#X msg 47 92 \; pd dsp 1 \; \$1-drumvol 60 \; \$1-drumkit 0 \;;
#X connect 0 0 1 0;
#X connect 1 0 2 0;
#X restore 562 38 pd init;
#X obj 245 561 outlet~;
#X connect 0 0 1 0;
#X connect 1 0 7 0;
#X connect 2 0 4 0;
#X connect 2 1 5 0;
#X connect 3 0 2 0;
#X connect 3 0 13 0;
#X connect 3 0 19 0;
#X connect 3 0 24 0;
#X connect 4 0 6 0;
#X connect 5 0 6 0;
#X connect 6 0 1 1;
#X connect 7 0 31 0;
#X connect 8 0 9 0;
#X connect 9 0 10 0;
#X connect 10 0 11 0;
#X connect 11 0 7 1;
#X connect 12 0 17 0;
#X connect 13 0 14 0;
#X connect 13 1 15 0;
#X connect 14 0 16 0;
#X connect 15 0 16 0;
#X connect 16 0 17 1;
#X connect 17 0 7 0;
#X connect 18 0 23 0;
#X connect 19 0 20 0;
#X connect 19 1 21 0;
#X connect 20 0 22 0;
#X connect 21 0 22 0;
#X connect 22 0 23 1;
#X connect 23 0 7 0;
#X connect 24 0 25 0;
#X connect 24 1 26 0;
#X connect 25 0 27 0;
#X connect 26 0 27 0;
#X connect 27 0 28 1;
#X connect 28 0 7 0;
#X connect 29 0 28 0;
#X restore 41 45 pd drums;
#N canvas 224 185 652 523 keyboard 0;
#X obj 25 38 poly 4 1;
#X obj 25 63 pack 0 0 0;
#X obj 25 88 route 1 2 3 4;
#N canvas 0 25 1440 778 note 0;
#X obj 49 344 select 1, f 9;
#X obj 139 344 select 1, f 9;
#X obj 229 344 select 1, f 9;
#X obj 593 652 outlet;
#X obj 329 344 select 1, f 9;
#X obj 429 344 select 1, f 9;
#X obj 519 344 select 1, f 9;
#X obj 609 344 select 1, f 9;
#X obj 699 344 select 1, f 9;
#X obj 799 344 select 1, f 9;
#X obj 889 344 select 1, f 9;
#X obj 979 344 select 1, f 9;
#X obj 1069 344 select 1, f 9;
#X msg 49 467 \$1 127;
#X obj 100 399 bng 15 250 50 0 empty empty empty 17 7 0 10 #fcfcfc
#000000 #000000;
#X msg 100 467 \$1 0;
#X obj 49 428 60;
#X obj 100 428 60;
#X obj 190 399 bng 15 250 50 0 empty empty empty 17 7 0 10 #fcfcfc
#000000 #000000;
#X msg 139 467 \$1 127;
#X msg 190 467 \$1 0;
#X obj 190 428 61;
#X obj 139 428 61;
#X msg 229 467 \$1 127;
#X msg 280 467 \$1 0;
#X msg 329 467 \$1 127;
#X msg 380 467 \$1 0;
#X obj 280 399 bng 15 250 50 0 empty empty empty 17 7 0 10 #fcfcfc
#000000 #000000;
#X obj 229 428 62;
#X obj 280 428 62;
#X obj 380 399 bng 15 250 50 0 empty empty empty 17 7 0 10 #fcfcfc
#000000 #000000;
#X obj 329 428 63;
#X obj 380 428 63;
#X obj 480 399 bng 15 250 50 0 empty empty empty 17 7 0 10 #fcfcfc
#000000 #000000;
#X msg 429 467 \$1 127;
#X msg 480 467 \$1 0;
#X obj 429 428 64;
#X obj 480 428 64;
#X obj 570 399 bng 15 250 50 0 empty empty empty 17 7 0 10 #fcfcfc
#000000 #000000;
#X obj 519 428 65;
#X obj 570 428 65;
#X msg 519 467 \$1 127;
#X msg 570 467 \$1 0;
#X obj 660 399 bng 15 250 50 0 empty empty empty 17 7 0 10 #fcfcfc
#000000 #000000;
#X msg 609 467 \$1 127;
#X msg 660 467 \$1 0;
#X obj 609 428 66;
#X obj 660 428 66;
#X obj 750 399 bng 15 250 50 0 empty empty empty 17 7 0 10 #fcfcfc
#000000 #000000;
#X obj 699 428 67;
#X obj 750 428 67;
#X msg 699 467 \$1 127;
#X msg 750 467 \$1 0;
#X obj 850 399 bng 15 250 50 0 empty empty empty 17 7 0 10 #fcfcfc
#000000 #000000;
#X obj 799 428 68;
#X obj 850 428 68;
#X msg 799 467 \$1 127;
#X msg 850 467 \$1 0;
#X obj 940 399 bng 15 250 50 0 empty empty empty 17 7 0 10 #fcfcfc
#000000 #000000;
#X obj 889 428 69;
#X obj 940 428 69;
#X msg 889 467 \$1 127;
#X msg 940 467 \$1 0;
#X obj 1030 399 bng 15 250 50 0 empty empty empty 17 7 0 10 #fcfcfc
#000000 #000000;
#X obj 979 428 70;
#X obj 1030 428 70;
#X msg 979 467 \$1 127;
#X msg 1030 467 \$1 0;
#X obj 1120 399 bng 15 250 50 0 empty empty empty 17 7 0 10 #fcfcfc
#000000 #000000;
#X obj 1069 428 71;
#X obj 1120 428 71;
#X msg 1069 467 \$1 127;
#X msg 1120 467 \$1 0;
#X obj 66 151 sel 0 1 2;
#X obj 48 189 s octMin;
#X obj 116 189 s octCen;
#X obj 185 190 s octMax;
#X obj 49 316 r \$0-c;
#X obj 138 311 r \$0-cS;
#X obj 226 312 r \$0-d;
#X obj 325 312 r \$0-dS;
#X obj 427 309 r \$0-e;
#X obj 513 310 r \$0-fN;
#X obj 605 310 r \$0-fs;
#X obj 694 307 r \$0-g;
#X obj 793 312 r \$0-gS;
#X obj 887 315 r \$0-a;
#X obj 980 310 r \$0-aS;
#X obj 1066 309 r \$0-b;
#X obj 66 111 r \$0-octave;
#X obj 42 257 guiKeys 60 cK;
#X obj 122 236 guiKeys 61 cSK;
#X obj 215 259 guiKeys 62 dK;
#X obj 280 234 guiKeys 63 dSK;
#X obj 370 260 guiKeys 64 eK;
#X obj 479 262 guiKeys 65 fNK;
#X obj 562 235 guiKeys 66 fsK;
#X obj 653 261 guiKeys 67 gK;
#X obj 728 233 guiKeys 68 gSK;
#X obj 830 256 guiKeys 69 aK;
#X obj 917 233 guiKeys 70 aSK;
#X obj 1016 254 guiKeys 71 bK;
#X obj 69 384 r cK;
#X obj 159 384 r cSK;
#X obj 249 384 r dK;
#X obj 349 384 r dSK;
#X obj 449 384 r eK;
#X obj 539 384 r fNK;
#X obj 629 384 r fsK;
#X obj 719 384 r gK;
#X obj 819 384 r gSK;
#X obj 909 384 r aK;
#X obj 999 384 r aSK;
#X obj 1089 384 r bK;
#X connect 0 0 16 0;
#X connect 0 1 14 0;
#X connect 1 0 22 0;
#X connect 1 1 18 0;
#X connect 2 0 28 0;
#X connect 2 1 27 0;
#X connect 4 0 31 0;
#X connect 4 1 30 0;
#X connect 5 0 36 0;
#X connect 5 1 33 0;
#X connect 6 0 39 0;
#X connect 6 1 38 0;
#X connect 7 0 46 0;
#X connect 7 1 43 0;
#X connect 8 0 49 0;
#X connect 8 1 48 0;
#X connect 9 0 54 0;
#X connect 9 1 53 0;
#X connect 10 0 59 0;
#X connect 10 1 58 0;
#X connect 11 0 64 0;
#X connect 11 1 63 0;
#X connect 12 0 69 0;
#X connect 12 1 68 0;
#X connect 13 0 3 0;
#X connect 14 0 17 0;
#X connect 15 0 3 0;
#X connect 16 0 13 0;
#X connect 17 0 15 0;
#X connect 18 0 21 0;
#X connect 19 0 3 0;
#X connect 20 0 3 0;
#X connect 21 0 20 0;
#X connect 22 0 19 0;
#X connect 23 0 3 0;
#X connect 24 0 3 0;
#X connect 25 0 3 0;
#X connect 26 0 3 0;
#X connect 27 0 29 0;
#X connect 28 0 23 0;
#X connect 29 0 24 0;
#X connect 30 0 32 0;
#X connect 31 0 25 0;
#X connect 32 0 26 0;
#X connect 33 0 37 0;
#X connect 34 0 3 0;
#X connect 35 0 3 0;
#X connect 36 0 34 0;
#X connect 37 0 35 0;
#X connect 38 0 40 0;
#X connect 39 0 41 0;
#X connect 40 0 42 0;
#X connect 41 0 3 0;
#X connect 42 0 3 0;
#X connect 43 0 47 0;
#X connect 44 0 3 0;
#X connect 45 0 3 0;
#X connect 46 0 44 0;
#X connect 47 0 45 0;
#X connect 48 0 50 0;
#X connect 49 0 51 0;
#X connect 50 0 52 0;
#X connect 51 0 3 0;
#X connect 52 0 3 0;
#X connect 53 0 55 0;
#X connect 54 0 56 0;
#X connect 55 0 57 0;
#X connect 56 0 3 0;
#X connect 57 0 3 0;
#X connect 58 0 60 0;
#X connect 59 0 61 0;
#X connect 60 0 62 0;
#X connect 61 0 3 0;
#X connect 62 0 3 0;
#X connect 63 0 65 0;
#X connect 64 0 66 0;
#X connect 65 0 67 0;
#X connect 66 0 3 0;
#X connect 67 0 3 0;
#X connect 68 0 70 0;
#X connect 69 0 71 0;
#X connect 70 0 72 0;
#X connect 71 0 3 0;
#X connect 72 0 3 0;
#X connect 73 0 74 0;
#X connect 73 1 75 0;
#X connect 73 2 76 0;
#X connect 77 0 0 0;
#X connect 78 0 1 0;
#X connect 79 0 2 0;
#X connect 80 0 4 0;
#X connect 81 0 5 0;
#X connect 82 0 6 0;
#X connect 83 0 7 0;
#X connect 84 0 8 0;
#X connect 85 0 9 0;
#X connect 86 0 10 0;
#X connect 87 0 11 0;
#X connect 88 0 12 0;
#X connect 89 0 73 0;
#X connect 102 0 16 1;
#X connect 102 0 17 1;
#X connect 103 0 21 1;
#X connect 103 0 22 1;
#X connect 104 0 28 1;
#X connect 104 0 29 1;
#X connect 105 0 31 1;
#X connect 105 0 32 1;
#X connect 106 0 36 1;
#X connect 106 0 37 1;
#X connect 107 0 39 1;
#X connect 107 0 40 1;
#X connect 108 0 46 1;
#X connect 108 0 47 1;
#X connect 109 0 49 1;
#X connect 109 0 50 1;
#X connect 110 0 54 1;
#X connect 110 0 55 1;
#X connect 111 0 59 1;
#X connect 111 0 60 1;
#X connect 112 0 64 1;
#X connect 112 0 65 1;
#X connect 113 0 69 1;
#X connect 113 0 70 1;
#X restore 25 14 pd note;
#N canvas 50 100 1207 688 synth 0;
#X obj 49 107 mtof;
#X obj 906 1162 outlet~;
#X obj 49 24 inlet, f 7;
#X obj 49 70 unpack 0 0;
#X obj 126 116 sel 0;
#X obj 936 846 * 20;
#X obj 1008 850 * 20;
#X obj 1008 825 + 1;
#X obj 937 823 + 1;
#X obj 921 1024 vline~;
#X msg 921 988 0 \$1;
#X msg 994 988 1 \$1 \, 0.5 1000 1000;
#X obj 994 962 10;
#X obj 921 938 bng 15 250 50 0 empty empty empty 17 7 0 10 #fcfcfc
#000000 #000000;
#X obj 906 1050 *~;
#X obj 994 941 bng 15 250 50 0 empty empty empty 17 7 0 10 #fcfcfc
#000000 #000000;
#X obj 521 418 +~;
#X obj 521 484 osc~;
#X obj 560 484 osc~;
#X obj 560 460 *~ 2;
#X obj 521 309 osc~ 30;
#X obj 521 363 *~ 10;
#X obj 839 643 noise~;
#X obj 839 676 *~ 0.01;
#X obj 921 962 500;
#X obj 646 315 expr~ $v1 > 0.5;
#X obj 646 415 +~;
#X obj 722 446 *~ 2;
#X obj 743 494 expr~ $v1 > 0.5;
#X obj 743 471 phasor~ 30;
#X obj 646 494 expr~ $v1 > 0.5;
#X obj 646 471 phasor~ 30;
#X obj 646 292 phasor~ 10;
#X obj 743 641 *~;
#X obj 758 617 line~;
#X obj 758 563 expr 1 - $f1;
#X msg 758 590 \$1 15;
#X obj 603 641 *~;
#X obj 618 617 line~;
#X msg 618 590 \$1 15;
#X obj 646 360 *~ 10;
#X obj 878 494 / 127;
#X obj 521 251 inlet;
#X obj 790 312 inlet;
#X obj 878 458 inlet;
#X obj 906 1137 *~ 0.2;
#X obj 743 669 *~ 0.5;
#X msg 96 236 \$1 \$2;
#X obj 96 259 line;
#X obj 96 211 pack \$1 0;
#X obj 1133 143 inlet;
#X obj 898 801 r \$0-release;
#X obj 998 801 r \$0-attack;
#X connect 0 0 49 0;
#X connect 2 0 3 0;
#X connect 3 0 0 0;
#X connect 3 1 4 0;
#X connect 4 0 13 0;
#X connect 4 1 15 0;
#X connect 5 0 24 1;
#X connect 6 0 12 1;
#X connect 7 0 6 0;
#X connect 8 0 5 0;
#X connect 9 0 14 1;
#X connect 10 0 9 0;
#X connect 11 0 9 0;
#X connect 12 0 11 0;
#X connect 13 0 24 0;
#X connect 14 0 45 0;
#X connect 15 0 12 0;
#X connect 16 0 17 0;
#X connect 16 0 19 0;
#X connect 17 0 37 0;
#X connect 18 0 37 0;
#X connect 19 0 18 0;
#X connect 20 0 21 0;
#X connect 21 0 16 0;
#X connect 22 0 23 0;
#X connect 23 0 14 0;
#X connect 24 0 10 0;
#X connect 25 0 40 0;
#X connect 26 0 27 0;
#X connect 26 0 31 0;
#X connect 27 0 29 0;
#X connect 28 0 33 0;
#X connect 29 0 28 0;
#X connect 30 0 33 0;
#X connect 31 0 30 0;
#X connect 32 0 25 0;
#X connect 33 0 46 0;
#X connect 34 0 33 1;
#X connect 35 0 36 0;
#X connect 36 0 34 0;
#X connect 37 0 14 0;
#X connect 38 0 37 1;
#X connect 39 0 38 0;
#X connect 40 0 26 0;
#X connect 41 0 39 0;
#X connect 41 0 35 0;
#X connect 42 0 20 0;
#X connect 42 0 32 0;
#X connect 43 0 21 1;
#X connect 43 0 40 1;
#X connect 44 0 41 0;
#X connect 45 0 1 0;
#X connect 46 0 14 0;
#X connect 47 0 48 0;
#X connect 48 0 26 1;
#X connect 48 0 16 1;
#X connect 49 0 47 0;
#X connect 50 0 49 1;
#X connect 51 0 8 0;
#X connect 52 0 7 0;
#X restore 25 205 pd synth;
#N canvas 0 28 1440 900 synth 0;
#X obj 49 107 mtof;
#X obj 906 1162 outlet~;
#X obj 49 24 inlet, f 7;
#X obj 49 70 unpack 0 0;
#X obj 126 116 sel 0;
#X obj 936 846 * 20;
#X obj 1008 850 * 20;
#X obj 1008 825 + 1;
#X obj 937 823 + 1;
#X obj 921 1024 vline~;
#X msg 921 988 0 \$1;
#X msg 994 988 1 \$1 \, 0.5 1000 1000;
#X obj 994 962 10;
#X obj 921 938 bng 15 250 50 0 empty empty empty 17 7 0 10 #fcfcfc
#000000 #000000;
#X obj 906 1050 *~;
#X obj 994 941 bng 15 250 50 0 empty empty empty 17 7 0 10 #fcfcfc
#000000 #000000;
#X obj 521 418 +~;
#X obj 521 484 osc~;
#X obj 560 484 osc~;
#X obj 560 460 *~ 2;
#X obj 521 309 osc~ 30;
#X obj 521 363 *~ 10;
#X obj 839 643 noise~;
#X obj 839 676 *~ 0.01;
#X obj 921 962 500;
#X obj 646 315 expr~ $v1 > 0.5;
#X obj 646 415 +~;
#X obj 722 446 *~ 2;
#X obj 743 494 expr~ $v1 > 0.5;
#X obj 743 471 phasor~ 30;
#X obj 646 494 expr~ $v1 > 0.5;
#X obj 646 471 phasor~ 30;
#X obj 646 292 phasor~ 10;
#X obj 743 641 *~;
#X obj 758 617 line~;
#X obj 758 563 expr 1 - $f1;
#X msg 758 590 \$1 15;
#X obj 603 641 *~;
#X obj 618 617 line~;
#X msg 618 590 \$1 15;
#X obj 646 360 *~ 10;
#X obj 878 494 / 127;
#X obj 521 251 inlet;
#X obj 790 312 inlet;
#X obj 878 458 inlet;
#X obj 906 1137 *~ 0.2;
#X obj 743 669 *~ 0.5;
#X msg 96 236 \$1 \$2;
#X obj 96 259 line;
#X obj 96 211 pack \$1 0;
#X obj 1133 143 inlet;
#X obj 898 801 r \$0-release;
#X obj 998 801 r \$0-attack;
#X connect 0 0 49 0;
#X connect 2 0 3 0;
#X connect 3 0 0 0;
#X connect 3 1 4 0;
#X connect 4 0 13 0;
#X connect 4 1 15 0;
#X connect 5 0 24 1;
#X connect 6 0 12 1;
#X connect 7 0 6 0;
#X connect 8 0 5 0;
#X connect 9 0 14 1;
#X connect 10 0 9 0;
#X connect 11 0 9 0;
#X connect 12 0 11 0;
#X connect 13 0 24 0;
#X connect 14 0 45 0;
#X connect 15 0 12 0;
#X connect 16 0 17 0;
#X connect 16 0 19 0;
#X connect 17 0 37 0;
#X connect 18 0 37 0;
#X connect 19 0 18 0;
#X connect 20 0 21 0;
#X connect 21 0 16 0;
#X connect 22 0 23 0;
#X connect 23 0 14 0;
#X connect 24 0 10 0;
#X connect 25 0 40 0;
#X connect 26 0 27 0;
#X connect 26 0 31 0;
#X connect 27 0 29 0;
#X connect 28 0 33 0;
#X connect 29 0 28 0;
#X connect 30 0 33 0;
#X connect 31 0 30 0;
#X connect 32 0 25 0;
#X connect 33 0 46 0;
#X connect 34 0 33 1;
#X connect 35 0 36 0;
#X connect 36 0 34 0;
#X connect 37 0 14 0;
#X connect 38 0 37 1;
#X connect 39 0 38 0;
#X connect 40 0 26 0;
#X connect 41 0 39 0;
#X connect 41 0 35 0;
#X connect 42 0 20 0;
#X connect 42 0 32 0;
#X connect 43 0 21 1;
#X connect 43 0 40 1;
#X connect 44 0 41 0;
#X connect 45 0 1 0;
#X connect 46 0 14 0;
#X connect 47 0 48 0;
#X connect 48 0 26 1;
#X connect 48 0 16 1;
#X connect 49 0 47 0;
#X connect 50 0 49 1;
#X connect 51 0 8 0;
#X connect 52 0 7 0;
#X restore 397 204 pd synth;
#N canvas 0 28 1440 900 synth 0;
#X obj 49 107 mtof;
#X obj 906 1162 outlet~;
#X obj 49 24 inlet, f 7;
#X obj 49 70 unpack 0 0;
#X obj 126 116 sel 0;
#X obj 936 846 * 20;
#X obj 1008 850 * 20;
#X obj 1008 825 + 1;
#X obj 937 823 + 1;
#X obj 921 1024 vline~;
#X msg 921 988 0 \$1;
#X msg 994 988 1 \$1 \, 0.5 1000 1000;
#X obj 994 962 10;
#X obj 921 938 bng 15 250 50 0 empty empty empty 17 7 0 10 #fcfcfc
#000000 #000000;
#X obj 906 1050 *~;
#X obj 994 941 bng 15 250 50 0 empty empty empty 17 7 0 10 #fcfcfc
#000000 #000000;
#X obj 521 418 +~;
#X obj 521 484 osc~;
#X obj 560 484 osc~;
#X obj 560 460 *~ 2;
#X obj 521 309 osc~ 30;
#X obj 521 363 *~ 10;
#X obj 839 643 noise~;
#X obj 839 676 *~ 0.01;
#X obj 921 962 500;
#X obj 646 315 expr~ $v1 > 0.5;
#X obj 646 415 +~;
#X obj 722 446 *~ 2;
#X obj 743 494 expr~ $v1 > 0.5;
#X obj 743 471 phasor~ 30;
#X obj 646 494 expr~ $v1 > 0.5;
#X obj 646 471 phasor~ 30;
#X obj 646 292 phasor~ 10;
#X obj 743 641 *~;
#X obj 758 617 line~;
#X obj 758 563 expr 1 - $f1;
#X msg 758 590 \$1 15;
#X obj 603 641 *~;
#X obj 618 617 line~;
#X msg 618 590 \$1 15;
#X obj 646 360 *~ 10;
#X obj 878 494 / 127;
#X obj 521 251 inlet;
#X obj 790 312 inlet;
#X obj 878 458 inlet;
#X obj 906 1137 *~ 0.2;
#X obj 743 669 *~ 0.5;
#X msg 96 236 \$1 \$2;
#X obj 96 259 line;
#X obj 96 211 pack \$1 0;
#X obj 1133 143 inlet;
#X obj 898 801 r \$0-release;
#X obj 998 801 r \$0-attack;
#X connect 0 0 49 0;
#X connect 2 0 3 0;
#X connect 3 0 0 0;
#X connect 3 1 4 0;
#X connect 4 0 13 0;
#X connect 4 1 15 0;
#X connect 5 0 24 1;
#X connect 6 0 12 1;
#X connect 7 0 6 0;
#X connect 8 0 5 0;
#X connect 9 0 14 1;
#X connect 10 0 9 0;
#X connect 11 0 9 0;
#X connect 12 0 11 0;
#X connect 13 0 24 0;
#X connect 14 0 45 0;
#X connect 15 0 12 0;
#X connect 16 0 17 0;
#X connect 16 0 19 0;
#X connect 17 0 37 0;
#X connect 18 0 37 0;
#X connect 19 0 18 0;
#X connect 20 0 21 0;
#X connect 21 0 16 0;
#X connect 22 0 23 0;
#X connect 23 0 14 0;
#X connect 24 0 10 0;
#X connect 25 0 40 0;
#X connect 26 0 27 0;
#X connect 26 0 31 0;
#X connect 27 0 29 0;
#X connect 28 0 33 0;
#X connect 29 0 28 0;
#X connect 30 0 33 0;
#X connect 31 0 30 0;
#X connect 32 0 25 0;
#X connect 33 0 46 0;
#X connect 34 0 33 1;
#X connect 35 0 36 0;
#X connect 36 0 34 0;
#X connect 37 0 14 0;
#X connect 38 0 37 1;
#X connect 39 0 38 0;
#X connect 40 0 26 0;
#X connect 41 0 39 0;
#X connect 41 0 35 0;
#X connect 42 0 20 0;
#X connect 42 0 32 0;
#X connect 43 0 21 1;
#X connect 43 0 40 1;
#X connect 44 0 41 0;
#X connect 45 0 1 0;
#X connect 46 0 14 0;
#X connect 47 0 48 0;
#X connect 48 0 26 1;
#X connect 48 0 16 1;
#X connect 49 0 47 0;
#X connect 50 0 49 1;
#X connect 51 0 8 0;
#X connect 52 0 7 0;
#X restore 146 205 pd synth;
#N canvas 0 28 1440 900 synth 0;
#X obj 49 107 mtof;
#X obj 906 1162 outlet~;
#X obj 49 24 inlet, f 7;
#X obj 49 70 unpack 0 0;
#X obj 126 116 sel 0;
#X obj 936 846 * 20;
#X obj 1008 850 * 20;
#X obj 1008 825 + 1;
#X obj 937 823 + 1;
#X obj 921 1024 vline~;
#X msg 921 988 0 \$1;
#X msg 994 988 1 \$1 \, 0.5 1000 1000;
#X obj 994 962 10;
#X obj 921 938 bng 15 250 50 0 empty empty empty 17 7 0 10 #fcfcfc
#000000 #000000;
#X obj 906 1050 *~;
#X obj 994 941 bng 15 250 50 0 empty empty empty 17 7 0 10 #fcfcfc
#000000 #000000;
#X obj 521 418 +~;
#X obj 521 484 osc~;
#X obj 560 484 osc~;
#X obj 560 460 *~ 2;
#X obj 521 309 osc~ 30;
#X obj 521 363 *~ 10;
#X obj 839 643 noise~;
#X obj 839 676 *~ 0.01;
#X obj 921 962 500;
#X obj 646 315 expr~ $v1 > 0.5;
#X obj 646 415 +~;
#X obj 722 446 *~ 2;
#X obj 743 494 expr~ $v1 > 0.5;
#X obj 743 471 phasor~ 30;
#X obj 646 494 expr~ $v1 > 0.5;
#X obj 646 471 phasor~ 30;
#X obj 646 292 phasor~ 10;
#X obj 743 641 *~;
#X obj 758 617 line~;
#X obj 758 563 expr 1 - $f1;
#X msg 758 590 \$1 15;
#X obj 603 641 *~;
#X obj 618 617 line~;
#X msg 618 590 \$1 15;
#X obj 646 360 *~ 10;
#X obj 878 494 / 127;
#X obj 521 251 inlet;
#X obj 790 312 inlet;
#X obj 878 458 inlet;
#X obj 906 1137 *~ 0.2;
#X obj 743 669 *~ 0.5;
#X msg 96 236 \$1 \$2;
#X obj 96 259 line;
#X obj 96 211 pack \$1 0;
#X obj 1133 143 inlet;
#X obj 898 801 r \$0-release;
#X obj 998 801 r \$0-attack;
#X connect 0 0 49 0;
#X connect 2 0 3 0;
#X connect 3 0 0 0;
#X connect 3 1 4 0;
#X connect 4 0 13 0;
#X connect 4 1 15 0;
#X connect 5 0 24 1;
#X connect 6 0 12 1;
#X connect 7 0 6 0;
#X connect 8 0 5 0;
#X connect 9 0 14 1;
#X connect 10 0 9 0;
#X connect 11 0 9 0;
#X connect 12 0 11 0;
#X connect 13 0 24 0;
#X connect 14 0 45 0;
#X connect 15 0 12 0;
#X connect 16 0 17 0;
#X connect 16 0 19 0;
#X connect 17 0 37 0;
#X connect 18 0 37 0;
#X connect 19 0 18 0;
#X connect 20 0 21 0;
#X connect 21 0 16 0;
#X connect 22 0 23 0;
#X connect 23 0 14 0;
#X connect 24 0 10 0;
#X connect 25 0 40 0;
#X connect 26 0 27 0;
#X connect 26 0 31 0;
#X connect 27 0 29 0;
#X connect 28 0 33 0;
#X connect 29 0 28 0;
#X connect 30 0 33 0;
#X connect 31 0 30 0;
#X connect 32 0 25 0;
#X connect 33 0 46 0;
#X connect 34 0 33 1;
#X connect 35 0 36 0;
#X connect 36 0 34 0;
#X connect 37 0 14 0;
#X connect 38 0 37 1;
#X connect 39 0 38 0;
#X connect 40 0 26 0;
#X connect 41 0 39 0;
#X connect 41 0 35 0;
#X connect 42 0 20 0;
#X connect 42 0 32 0;
#X connect 43 0 21 1;
#X connect 43 0 40 1;
#X connect 44 0 41 0;
#X connect 45 0 1 0;
#X connect 46 0 14 0;
#X connect 47 0 48 0;
#X connect 48 0 26 1;
#X connect 48 0 16 1;
#X connect 49 0 47 0;
#X connect 50 0 49 1;
#X connect 51 0 8 0;
#X connect 52 0 7 0;
#X restore 266 203 pd synth;
#X obj 134 61 r \$0-synthrate;
#X obj 251 61 r \$0-index;
#X obj 327 85 r \$0-synthshape;
#X obj 442 60 r \$0-glide;
#X obj 134 86 / 5;
#X obj 251 86 / 5;
#X obj 442 84 * 2;
#X obj 25 274 expr~ $v1+$v2+$v3+$v4;
#X obj 26 454 *~;
#X obj 41 423 line~;
#X msg 41 397 \$1 15;
#X obj 41 339 r \$0-synthvol;
#X obj 41 367 / 127;
#N canvas 390 286 314 276 init 0;
#X obj 83 39 loadbang;
#X obj 83 63 float \$0;
#X msg 83 87 \; pd dsp 1 \; \$1-octave 0 \; \$1-attack 10 \; \$1-release
10 \; \$1-synthshape 10 \; \$1-index 10 \; \$1-synthrate 10 \; \$1-glide
10 \; \$1-synthvol 50 \;;
#X connect 0 0 1 0;
#X connect 1 0 2 0;
#X restore 565 21 pd init;
#X obj 26 481 outlet~;
#X connect 0 0 1 0;
#X connect 0 1 1 1;
#X connect 0 2 1 2;
#X connect 1 0 2 0;
#X connect 2 0 4 0;
#X connect 2 1 6 0;
#X connect 2 2 7 0;
#X connect 2 3 5 0;
#X connect 3 0 0 0;
#X connect 4 0 15 0;
#X connect 5 0 15 3;
#X connect 6 0 15 1;
#X connect 7 0 15 2;
#X connect 8 0 12 0;
#X connect 9 0 13 0;
#X connect 10 0 4 3;
#X connect 10 0 6 3;
#X connect 10 0 7 3;
#X connect 10 0 5 3;
#X connect 11 0 14 0;
#X connect 12 0 4 1;
#X connect 12 0 6 1;
#X connect 12 0 7 1;
#X connect 12 0 5 1;
#X connect 13 0 4 2;
#X connect 13 0 6 2;
#X connect 13 0 7 2;
#X connect 13 0 5 2;
#X connect 14 0 4 4;
#X connect 14 0 6 4;
#X connect 14 0 7 4;
#X connect 14 0 5 4;
#X connect 15 0 16 0;
#X connect 16 0 22 0;
#X connect 17 0 16 1;
#X connect 18 0 17 0;
#X connect 19 0 20 0;
#X connect 20 0 18 0;
#X restore 111 45 pd keyboard;
#N canvas 336 228 744 505 reverb 0;
#X obj 51 375 outlet~;
#X obj 55 266 inlet~;
#X obj 310 293 expr 1 - $f1;
#X obj 296 59 loadbang;
#X obj 112 119 hsl 128 15 0 1 0 1 empty empty 'roomsize' 20 8 0 10
#fcfcfc #fc8000 #000000 0 0;
#X obj 127 162 hsl 128 15 0 2.4 0 1 empty empty damp 20 8 0 10 #fcfcfc
#fc8000 #000000 0 0;
#X obj 157 255 hsl 128 15 0 1 0 1 empty empty wet 20 8 0 10 #fcfcfc
#fc8000 #000000 0 0;
#X obj 142 205 hsl 128 15 0 1 0 1 empty empty dry 20 8 0 10 #fcfcfc
#fc8000 #000000 12700 0;
#N canvas 256 339 634 321 vfreeverb~ 0;
#N canvas 824 312 778 367 combfilters-left1 0;
#X obj 46 244 +~;
#X obj 61 219 *~ 0.3;
#X obj 61 194 lop~ 1000;
#X obj 231 244 +~;
#X obj 246 219 *~ 0.3;
#X obj 246 194 lop~ 1000;
#X obj 429 218 *~ 0.3;
#X obj 429 193 lop~ 1000;
#X obj 414 241 +~;
#X obj 610 218 *~ 0.3;
#X obj 610 193 lop~ 1000;
#X obj 595 241 +~;
#X obj 61 141 delread~ \$0-comb1left;
#X obj 246 142 delread~ \$0-comb2left;
#X obj 429 141 delread~ \$0-comb3left;
#X obj 610 141 delread~ \$0-comb4left;
#X obj 46 268 delwrite~ \$0-comb1left 100;
#X obj 231 268 delwrite~ \$0-comb2left 100;
#X obj 414 267 delwrite~ \$0-comb3left 100;
#X obj 595 267 delwrite~ \$0-comb4left 100;
#X obj 61 97 r \$0-comb1left;
#X obj 246 97 r \$0-comb2left;
#X obj 429 95 r \$0-comb3left;
#X obj 610 96 r \$0-comb4left;
#X obj 112 170 r \$0-frequency;
#X obj 297 170 r \$0-frequency;
#X obj 480 167 r \$0-frequency;
#X obj 661 167 r \$0-frequency;
#X obj 46 28 inlet~;
#X obj 338 326 outlet~;
#X floatatom 70 119 5 0 0 0 - - - 0;
#X floatatom 255 121 5 0 0 0 - - - 0;
#X floatatom 439 119 5 0 0 0 - - - 0;
#X floatatom 622 121 5 0 0 0 - - - 0;
#X obj 279 58 clip 0 0.99;
#X obj 279 29 r \$0-room;
#X connect 0 0 16 0;
#X connect 1 0 0 1;
#X connect 2 0 1 0;
#X connect 2 0 29 0;
#X connect 3 0 17 0;
#X connect 4 0 3 1;
#X connect 5 0 4 0;
#X connect 5 0 29 0;
#X connect 6 0 8 1;
#X connect 7 0 6 0;
#X connect 7 0 29 0;
#X connect 8 0 18 0;
#X connect 9 0 11 1;
#X connect 10 0 9 0;
#X connect 10 0 29 0;
#X connect 11 0 19 0;
#X connect 12 0 2 0;
#X connect 13 0 5 0;
#X connect 14 0 7 0;
#X connect 15 0 10 0;
#X connect 20 0 12 0;
#X connect 20 0 30 0;
#X connect 21 0 13 0;
#X connect 21 0 31 0;
#X connect 22 0 14 0;
#X connect 22 0 32 0;
#X connect 23 0 15 0;
#X connect 23 0 33 0;
#X connect 24 0 2 1;
#X connect 25 0 5 1;
#X connect 26 0 7 1;
#X connect 27 0 10 1;
#X connect 28 0 0 0;
#X connect 28 0 3 0;
#X connect 28 0 8 0;
#X connect 28 0 11 0;
#X connect 34 0 1 1;
#X connect 34 0 4 1;
#X connect 34 0 6 1;
#X connect 34 0 9 1;
#X connect 35 0 34 0;
#X restore 15 100 pd combfilters-left1;
#N canvas 27 56 358 650 diffusor-left 0;
#X obj 51 107 *~ 0.5;
#X obj 36 132 +~;
#X obj 66 132 -~;
#X obj 36 26 inlet~;
#X obj 81 238 *~ 0.5;
#X obj 66 263 +~;
#X obj 96 263 -~;
#X obj 111 368 *~ 0.5;
#X obj 96 393 +~;
#X obj 126 393 -~;
#X obj 141 498 *~ 0.5;
#X obj 126 523 +~;
#X obj 156 523 -~;
#X obj 156 605 outlet~;
#X text 95 28 freeverb's diffusor;
#X obj 156 576 hip~ 5;
#X floatatom 214 70 5 0 0 0 - - - 0;
#X floatatom 246 203 5 0 0 0 - - - 0;
#X floatatom 280 334 5 0 0 0 - - - 0;
#X floatatom 304 464 5 0 0 0 - - - 0;
#X obj 51 53 r \$0-allpass1left;
#X obj 51 80 delread~ \$0-allpass1left;
#X obj 36 158 delwrite~ \$0-allpass1left 40;
#X obj 81 186 r \$0-allpass2left;
#X obj 81 211 delread~ \$0-allpass2left;
#X obj 66 290 delwrite~ \$0-allpass2left 40;
#X obj 111 317 r \$0-allpass3left;
#X obj 111 341 delread~ \$0-allpass3left;
#X obj 96 420 delwrite~ \$0-allpass3left 40;
#X obj 141 447 r \$0-allpass4left;
#X obj 141 471 delread~ \$0-allpass4left;
#X obj 126 550 delwrite~ \$0-allpass4left 40;
#X connect 0 0 1 1;
#X connect 1 0 22 0;
#X connect 2 0 5 0;
#X connect 2 0 6 1;
#X connect 3 0 1 0;
#X connect 3 0 2 1;
#X connect 4 0 5 1;
#X connect 5 0 25 0;
#X connect 6 0 8 0;
#X connect 6 0 9 1;
#X connect 7 0 8 1;
#X connect 8 0 28 0;
#X connect 9 0 11 0;
#X connect 9 0 12 1;
#X connect 10 0 11 1;
#X connect 11 0 31 0;
#X connect 12 0 15 0;
#X connect 15 0 13 0;
#X connect 20 0 16 0;
#X connect 20 0 21 0;
#X connect 21 0 0 0;
#X connect 21 0 2 0;
#X connect 23 0 17 0;
#X connect 23 0 24 0;
#X connect 24 0 4 0;
#X connect 24 0 6 0;
#X connect 26 0 18 0;
#X connect 26 0 27 0;
#X connect 27 0 7 0;
#X connect 27 0 9 0;
#X connect 29 0 19 0;
#X connect 29 0 30 0;
#X connect 30 0 10 0;
#X connect 30 0 12 0;
#X restore 15 168 pd diffusor-left;
#N canvas 312 366 778 367 combfilters-left2 0;
#X obj 46 244 +~;
#X obj 61 219 *~ 0.3;
#X obj 61 194 lop~ 1000;
#X obj 231 244 +~;
#X obj 246 219 *~ 0.3;
#X obj 246 194 lop~ 1000;
#X obj 429 218 *~ 0.3;
#X obj 429 193 lop~ 1000;
#X obj 414 241 +~;
#X obj 610 218 *~ 0.3;
#X obj 610 193 lop~ 1000;
#X obj 595 241 +~;
#X obj 112 170 r \$0-frequency;
#X obj 297 170 r \$0-frequency;
#X obj 480 167 r \$0-frequency;
#X obj 661 167 r \$0-frequency;
#X obj 46 28 inlet~;
#X obj 338 326 outlet~;
#X obj 61 90 r \$0-comb5left;
#X obj 61 141 delread~ \$0-comb5left;
#X obj 46 268 delwrite~ \$0-comb5left 100;
#X obj 246 90 r \$0-comb6left;
#X obj 246 142 delread~ \$0-comb6left;
#X obj 231 268 delwrite~ \$0-comb6left 100;
#X obj 429 88 r \$0-comb7left;
#X obj 429 141 delread~ \$0-comb7left;
#X obj 414 267 delwrite~ \$0-comb7left 100;
#X obj 610 89 r \$0-comb8left;
#X obj 610 141 delread~ \$0-comb8left;
#X obj 595 267 delwrite~ \$0-comb8left 100;
#X floatatom 70 116 5 0 0 0 - - - 0;
#X floatatom 261 118 5 0 0 0 - - - 0;
#X floatatom 440 117 5 0 0 0 - - - 0;
#X floatatom 620 116 5 0 0 0 - - - 0;
#X obj 279 58 clip 0 0.99;
#X obj 279 28 r \$0-room;
#X connect 0 0 20 0;
#X connect 1 0 0 1;
#X connect 2 0 1 0;
#X connect 2 0 17 0;
#X connect 3 0 23 0;
#X connect 4 0 3 1;
#X connect 5 0 4 0;
#X connect 5 0 17 0;
#X connect 6 0 8 1;
#X connect 7 0 6 0;
#X connect 7 0 17 0;
#X connect 8 0 26 0;
#X connect 9 0 11 1;
#X connect 10 0 9 0;
#X connect 10 0 17 0;
#X connect 11 0 29 0;
#X connect 12 0 2 1;
#X connect 13 0 5 1;
#X connect 14 0 7 1;
#X connect 15 0 10 1;
#X connect 16 0 0 0;
#X connect 16 0 3 0;
#X connect 16 0 8 0;
#X connect 16 0 11 0;
#X connect 18 0 19 0;
#X connect 18 0 30 0;
#X connect 19 0 2 0;
#X connect 21 0 22 0;
#X connect 21 0 31 0;
#X connect 22 0 5 0;
#X connect 24 0 25 0;
#X connect 24 0 32 0;
#X connect 25 0 7 0;
#X connect 27 0 28 0;
#X connect 27 0 33 0;
#X connect 28 0 10 0;
#X connect 34 0 1 1;
#X connect 34 0 4 1;
#X connect 34 0 6 1;
#X connect 34 0 9 1;
#X connect 35 0 34 0;
#X restore 36 134 pd combfilters-left2;
#N canvas 261 41 778 367 combfilters-right1 0;
#X obj 46 244 +~;
#X obj 61 219 *~ 0.3;
#X obj 61 194 lop~ 1000;
#X obj 231 244 +~;
#X obj 246 219 *~ 0.3;
#X obj 246 194 lop~ 1000;
#X obj 429 218 *~ 0.3;
#X obj 429 193 lop~ 1000;
#X obj 414 241 +~;
#X obj 610 218 *~ 0.3;
#X obj 610 193 lop~ 1000;
#X obj 595 241 +~;
#X obj 112 170 r \$0-frequency;
#X obj 297 170 r \$0-frequency;
#X obj 480 167 r \$0-frequency;
#X obj 661 167 r \$0-frequency;
#X obj 46 28 inlet~;
#X obj 338 326 outlet~;
#X floatatom 70 119 5 0 0 0 - - - 0;
#X floatatom 255 121 5 0 0 0 - - - 0;
#X floatatom 439 119 5 0 0 0 - - - 0;
#X floatatom 622 121 5 0 0 0 - - - 0;
#X obj 61 141 delread~ \$0-comb1right;
#X obj 246 142 delread~ \$0-comb2right;
#X obj 429 141 delread~ \$0-comb3right;
#X obj 610 141 delread~ \$0-comb4right;
#X obj 61 97 r \$0-comb1right;
#X obj 246 97 r \$0-comb2right;
#X obj 429 95 r \$0-comb3right;
#X obj 610 97 r \$0-comb4right;
#X obj 46 268 delwrite~ \$0-comb1right 100;
#X obj 231 268 delwrite~ \$0-comb2right 100;
#X obj 414 267 delwrite~ \$0-comb3right 100;
#X obj 595 267 delwrite~ \$0-comb4right 100;
#X obj 279 58 clip 0 0.99;
#X obj 279 28 r \$0-room;
#X connect 0 0 30 0;
#X connect 1 0 0 1;
#X connect 2 0 1 0;
#X connect 2 0 17 0;
#X connect 3 0 31 0;
#X connect 4 0 3 1;
#X connect 5 0 4 0;
#X connect 5 0 17 0;
#X connect 6 0 8 1;
#X connect 7 0 6 0;
#X connect 7 0 17 0;
#X connect 8 0 32 0;
#X connect 9 0 11 1;
#X connect 10 0 9 0;
#X connect 10 0 17 0;
#X connect 11 0 33 0;
#X connect 12 0 2 1;
#X connect 13 0 5 1;
#X connect 14 0 7 1;
#X connect 15 0 10 1;
#X connect 16 0 0 0;
#X connect 16 0 3 0;
#X connect 16 0 8 0;
#X connect 16 0 11 0;
#X connect 22 0 2 0;
#X connect 23 0 5 0;
#X connect 24 0 7 0;
#X connect 25 0 10 0;
#X connect 26 0 18 0;
#X connect 26 0 22 0;
#X connect 27 0 19 0;
#X connect 27 0 23 0;
#X connect 28 0 20 0;
#X connect 28 0 24 0;
#X connect 29 0 21 0;
#X connect 29 0 25 0;
#X connect 34 0 1 1;
#X connect 34 0 4 1;
#X connect 34 0 6 1;
#X connect 34 0 9 1;
#X connect 35 0 34 0;
#X restore 208 99 pd combfilters-right1;
#N canvas 312 366 778 367 combfilters-right2 0;
#X obj 46 244 +~;
#X obj 61 219 *~ 0.3;
#X obj 61 194 lop~ 1000;
#X obj 231 244 +~;
#X obj 246 219 *~ 0.3;
#X obj 246 194 lop~ 1000;
#X obj 429 218 *~ 0.3;
#X obj 429 193 lop~ 1000;
#X obj 414 241 +~;
#X obj 610 218 *~ 0.3;
#X obj 610 193 lop~ 1000;
#X obj 595 241 +~;
#X obj 112 170 r \$0-frequency;
#X obj 297 170 r \$0-frequency;
#X obj 480 167 r \$0-frequency;
#X obj 661 167 r \$0-frequency;
#X obj 46 28 inlet~;
#X obj 338 326 outlet~;
#X floatatom 70 116 5 0 0 0 - - - 0;
#X floatatom 261 118 5 0 0 0 - - - 0;
#X floatatom 440 117 5 0 0 0 - - - 0;
#X floatatom 620 116 5 0 0 0 - - - 0;
#X obj 279 58 clip 0 0.99;
#X obj 61 90 r \$0-comb5right;
#X obj 246 90 r \$0-comb6right;
#X obj 429 88 r \$0-comb7right;
#X obj 610 89 r \$0-comb8right;
#X obj 61 141 delread~ \$0-comb5right;
#X obj 246 142 delread~ \$0-comb6right;
#X obj 429 141 delread~ \$0-comb7right;
#X obj 610 141 delread~ \$0-comb8right;
#X obj 46 268 delwrite~ \$0-comb5right 100;
#X obj 231 268 delwrite~ \$0-comb6right 100;
#X obj 414 267 delwrite~ \$0-comb7right 100;
#X obj 595 267 delwrite~ \$0-comb8right 100;
#X obj 279 28 r \$0-room;
#X connect 0 0 31 0;
#X connect 1 0 0 1;
#X connect 2 0 1 0;
#X connect 2 0 17 0;
#X connect 3 0 32 0;
#X connect 4 0 3 1;
#X connect 5 0 4 0;
#X connect 5 0 17 0;
#X connect 6 0 8 1;
#X connect 7 0 6 0;
#X connect 7 0 17 0;
#X connect 8 0 33 0;
#X connect 9 0 11 1;
#X connect 10 0 9 0;
#X connect 10 0 17 0;
#X connect 11 0 34 0;
#X connect 12 0 2 1;
#X connect 13 0 5 1;
#X connect 14 0 7 1;
#X connect 15 0 10 1;
#X connect 16 0 0 0;
#X connect 16 0 3 0;
#X connect 16 0 8 0;
#X connect 16 0 11 0;
#X connect 22 0 1 1;
#X connect 22 0 4 1;
#X connect 22 0 6 1;
#X connect 22 0 9 1;
#X connect 23 0 18 0;
#X connect 23 0 27 0;
#X connect 24 0 19 0;
#X connect 24 0 28 0;
#X connect 25 0 20 0;
#X connect 25 0 29 0;
#X connect 26 0 21 0;
#X connect 26 0 30 0;
#X connect 27 0 2 0;
#X connect 28 0 5 0;
#X connect 29 0 7 0;
#X connect 30 0 10 0;
#X connect 35 0 22 0;
#X restore 225 133 pd combfilters-right2;
#N canvas 27 56 358 650 diffusor-right 0;
#X obj 51 107 *~ 0.5;
#X obj 36 132 +~;
#X obj 66 132 -~;
#X obj 36 26 inlet~;
#X obj 81 238 *~ 0.5;
#X obj 66 263 +~;
#X obj 96 263 -~;
#X obj 111 368 *~ 0.5;
#X obj 96 393 +~;
#X obj 126 393 -~;
#X obj 141 498 *~ 0.5;
#X obj 126 523 +~;
#X obj 156 523 -~;
#X obj 156 605 outlet~;
#X text 95 28 freeverb's diffusor;
#X obj 156 576 hip~ 5;
#X floatatom 214 70 5 0 0 0 - - - 0;
#X floatatom 244 203 5 0 0 0 - - - 0;
#X floatatom 280 334 5 0 0 0 - - - 0;
#X floatatom 304 464 5 0 0 0 - - - 0;
#X obj 51 53 r \$0-allpass1right;
#X obj 51 80 delread~ \$0-allpass1right;
#X obj 36 158 delwrite~ \$0-allpass1right 40;
#X obj 81 186 r \$0-allpass2right;
#X obj 81 211 delread~ \$0-allpass2right;
#X obj 66 290 delwrite~ \$0-allpass2right 40;
#X obj 111 317 r \$0-allpass3right;
#X obj 111 341 delread~ \$0-allpass3right;
#X obj 96 420 delwrite~ \$0-allpass3right 40;
#X obj 141 447 r \$0-allpass4right;
#X obj 141 471 delread~ \$0-allpass4right;
#X obj 126 550 delwrite~ \$0-allpass4right 40;
#X connect 0 0 1 1;
#X connect 1 0 22 0;
#X connect 2 0 5 0;
#X connect 2 0 6 1;
#X connect 3 0 1 0;
#X connect 3 0 2 1;
#X connect 4 0 5 1;
#X connect 5 0 25 0;
#X connect 6 0 8 0;
#X connect 6 0 9 1;
#X connect 7 0 8 1;
#X connect 8 0 28 0;
#X connect 9 0 11 0;
#X connect 9 0 12 1;
#X connect 10 0 11 1;
#X connect 11 0 31 0;
#X connect 12 0 15 0;
#X connect 15 0 13 0;
#X connect 20 0 16 0;
#X connect 20 0 21 0;
#X connect 21 0 0 0;
#X connect 21 0 2 0;
#X connect 23 0 17 0;
#X connect 23 0 24 0;
#X connect 24 0 4 0;
#X connect 24 0 6 0;
#X connect 26 0 18 0;
#X connect 26 0 27 0;
#X connect 27 0 7 0;
#X connect 27 0 9 0;
#X connect 29 0 19 0;
#X connect 29 0 30 0;
#X connect 30 0 10 0;
#X connect 30 0 12 0;
#X restore 208 169 pd diffusor-right;
#X obj 208 61 *~ 0.015;
#X obj 15 226 *~ 1;
#X obj 208 228 *~ 1;
#X obj 94 228 *~ 1;
#X obj 169 228 *~ 1;
#X obj 115 202 r \$0-dry;
#X obj 229 203 r \$0-wet;
#X obj 36 201 r \$0-wet;
#X obj 94 14 inlet~;
#X obj 208 14 inlet~;
#X obj 15 268 outlet~;
#X obj 169 269 outlet~;
#X obj 312 14 inlet;
#X obj 374 14 inlet;
#X obj 462 14 inlet;
#X obj 544 16 inlet;
#N canvas 92 117 207 207 room 0;
#X obj 32 35 inlet;
#X obj 32 63 * 0.28;
#X obj 32 94 + 0.7;
#X obj 32 160 outlet;
#X text 80 65 scaleroom;
#X text 76 94 offsetroom;
#X obj 47 126 s \$0-room;
#X connect 0 0 1 0;
#X connect 1 0 2 0;
#X connect 2 0 3 0;
#X connect 2 0 6 0;
#X restore 312 45 pd room;
#N canvas 684 169 244 376 frequency 0;
#X obj 60 222 samplerate~;
#X obj 33 8 inlet;
#X obj 33 194 t f b;
#X obj 33 249 *;
#X obj 53 303 s \$0-frequency;
#X obj 33 327 outlet;
#X obj 33 64 * 0.4;
#X text 76 66 scaledamp;
#X obj 33 90 t b f;
#X obj 33 141 -;
#X msg 33 116 1;
#X obj 33 168 abs;
#X obj 33 275 * 0.5;
#X text 153 303 for [lop~];
#X obj 33 38 clip 0 2.4;
#X connect 0 0 3 1;
#X connect 1 0 14 0;
#X connect 2 0 3 0;
#X connect 2 1 0 0;
#X connect 3 0 12 0;
#X connect 6 0 8 0;
#X connect 8 0 10 0;
#X connect 8 1 9 1;
#X connect 9 0 11 0;
#X connect 10 0 9 0;
#X connect 11 0 2 0;
#X connect 12 0 5 0;
#X connect 12 0 4 0;
#X connect 14 0 6 0;
#X restore 374 45 pd frequency;
#N canvas 150 175 170 187 scalewet 0;
#X obj 22 42 inlet;
#X obj 22 143 outlet;
#X obj 22 73 * 3;
#X text 49 74 scalewet;
#X obj 40 112 s \$0-wet;
#X connect 0 0 2 0;
#X connect 2 0 1 0;
#X connect 2 0 4 0;
#X restore 544 45 pd scalewet;
#N canvas 121 146 220 198 scaledry 0;
#X obj 32 74 * 2;
#X obj 32 40 inlet;
#X obj 32 141 outlet;
#X text 58 75 scaledry;
#X obj 41 105 s \$0-dry;
#X connect 0 0 2 0;
#X connect 0 0 4 0;
#X connect 1 0 0 0;
#X restore 462 45 pd scaledry;
#X floatatom 312 70 5 0 0 0 - - - 0;
#X floatatom 374 70 10 0 0 0 - - - 0;
#X floatatom 462 69 5 0 0 0 - - - 0;
#X floatatom 544 69 5 0 0 0 - - - 0;
#N canvas 405 27 635 684 tuning 0;
#X msg 332 81 1139 \, 1211 \, 1300 \, 1379 \, 1445 \, 1514 \, 1580
\, 1640;
#X text 72 57 combfilter tunings left;
#X text 377 56 combfilter tunings right;
#X text 71 360 allpass tunings left;
#X text 383 355 allpass tunings right;
#N canvas 243 170 195 233 sampstoms 0;
#X obj 27 21 inlet;
#X obj 54 86 samplerate~;
#X obj 27 111 /;
#X obj 27 57 t f b;
#X obj 27 136 * 1000;
#X obj 27 162 outlet;
#X connect 0 0 3 0;
#X connect 1 0 2 1;
#X connect 2 0 4 0;
#X connect 3 0 2 0;
#X connect 3 1 1 0;
#X connect 4 0 5 0;
#X restore 30 107 pd sampstoms;
#X msg 30 82 1116 \, 1188 \, 1277 \, 1356 \, 1422 \, 1491 \, 1557 \,
1617;
#X obj 57 188 +;
#X msg 57 159 1;
#X obj 30 135 t f b;
#X obj 87 188 f;
#X obj 30 56 t b b;
#X msg 87 159 0;
#X obj 57 212 pack f \$0;
#X msg 57 238 \$2-comb\$1left;
#X obj 30 282 s;
#X obj 57 265 symbol;
#N canvas 0 22 195 233 sampstoms 0;
#X obj 27 21 inlet;
#X obj 54 86 samplerate~;
#X obj 27 111 /;
#X obj 27 57 t f b;
#X obj 27 136 * 1000;
#X obj 27 162 outlet;
#X connect 0 0 3 0;
#X connect 1 0 2 1;
#X connect 2 0 4 0;
#X connect 3 0 2 0;
#X connect 3 1 1 0;
#X connect 4 0 5 0;
#X restore 332 107 pd sampstoms;
#X obj 359 188 +;
#X msg 359 159 1;
#X obj 332 135 t f b;
#X obj 389 188 f;
#X msg 389 159 0;
#X obj 359 212 pack f \$0;
#X obj 332 282 s;
#X obj 359 265 symbol;
#X obj 332 56 t b b;
#X msg 359 238 \$2-comb\$1right;
#X obj 30 360 t b b;
#N canvas 0 22 195 233 sampstoms 0;
#X obj 27 21 inlet;
#X obj 54 86 samplerate~;
#X obj 27 111 /;
#X obj 27 57 t f b;
#X obj 27 136 * 1000;
#X obj 27 162 outlet;
#X connect 0 0 3 0;
#X connect 1 0 2 1;
#X connect 2 0 4 0;
#X connect 3 0 2 0;
#X connect 3 1 1 0;
#X connect 4 0 5 0;
#X restore 30 411 pd sampstoms;
#X obj 57 492 +;
#X msg 57 463 1;
#X obj 30 439 t f b;
#X obj 87 492 f;
#X msg 87 463 0;
#X obj 57 516 pack f \$0;
#X obj 30 586 s;
#X obj 57 569 symbol;
#X obj 334 356 t b b;
#N canvas 0 22 195 233 sampstoms 0;
#X obj 27 21 inlet;
#X obj 54 86 samplerate~;
#X obj 27 111 /;
#X obj 27 57 t f b;
#X obj 27 136 * 1000;
#X obj 27 162 outlet;
#X connect 0 0 3 0;
#X connect 1 0 2 1;
#X connect 2 0 4 0;
#X connect 3 0 2 0;
#X connect 3 1 1 0;
#X connect 4 0 5 0;
#X restore 334 407 pd sampstoms;
#X obj 361 488 +;
#X msg 361 459 1;
#X obj 334 435 t f b;
#X obj 391 488 f;
#X msg 391 459 0;
#X obj 361 512 pack f \$0;
#X obj 334 582 s;
#X obj 361 565 symbol;
#X obj 30 22 loadbang;
#X obj 332 27 loadbang;
#X obj 30 334 loadbang;
#X obj 334 331 loadbang;
#X obj 268 41 bng 15 250 50 0 empty empty empty 17 7 0 10 #fcfcfc #000000
#000000;
#X msg 30 386 225 \, 556 \, 441 \, 341;
#X msg 334 380 248 \, 579 \, 464 \, 364;
#X msg 57 542 \$2-allpass\$1left;
#X msg 361 539 \$2-allpass\$1right;
#X text 27 624 Original Freeverb delay line lengths are converted to
milliseconds \, based on samplerate.;
#X connect 0 0 17 0;
#X connect 5 0 9 0;
#X connect 6 0 5 0;
#X connect 7 0 10 0;
#X connect 7 0 13 0;
#X connect 8 0 7 0;
#X connect 9 0 15 0;
#X connect 9 1 8 0;
#X connect 10 0 7 1;
#X connect 11 0 6 0;
#X connect 11 1 12 0;
#X connect 12 0 10 0;
#X connect 13 0 14 0;
#X connect 14 0 16 0;
#X connect 16 0 15 1;
#X connect 17 0 20 0;
#X connect 18 0 21 0;
#X connect 18 0 23 0;
#X connect 19 0 18 0;
#X connect 20 0 24 0;
#X connect 20 1 19 0;
#X connect 21 0 18 1;
#X connect 22 0 21 0;
#X connect 23 0 27 0;
#X connect 25 0 24 1;
#X connect 26 0 0 0;
#X connect 26 1 22 0;
#X connect 27 0 25 0;
#X connect 28 0 53 0;
#X connect 28 1 34 0;
#X connect 29 0 32 0;
#X connect 30 0 33 0;
#X connect 30 0 35 0;
#X connect 31 0 30 0;
#X connect 32 0 36 0;
#X connect 32 1 31 0;
#X connect 33 0 30 1;
#X connect 34 0 33 0;
#X connect 35 0 55 0;
#X connect 37 0 36 1;
#X connect 38 0 54 0;
#X connect 38 1 44 0;
#X connect 39 0 42 0;
#X connect 40 0 43 0;
#X connect 40 0 45 0;
#X connect 41 0 40 0;
#X connect 42 0 46 0;
#X connect 42 1 41 0;
#X connect 43 0 40 1;
#X connect 44 0 43 0;
#X connect 45 0 56 0;
#X connect 47 0 46 1;
#X connect 48 0 11 0;
#X connect 49 0 26 0;
#X connect 50 0 28 0;
#X connect 51 0 38 0;
#X connect 52 0 11 0;
#X connect 52 0 28 0;
#X connect 52 0 26 0;
#X connect 52 0 38 0;
#X connect 53 0 29 0;
#X connect 54 0 39 0;
#X connect 55 0 37 0;
#X connect 56 0 47 0;
#X restore 410 141 pd tuning;
#X connect 0 0 1 0;
#X connect 1 0 7 0;
#X connect 2 0 1 0;
#X connect 3 0 5 0;
#X connect 4 0 5 0;
#X connect 5 0 8 0;
#X connect 6 0 3 0;
#X connect 6 0 0 0;
#X connect 6 0 4 0;
#X connect 6 0 2 0;
#X connect 7 0 16 0;
#X connect 8 0 17 0;
#X connect 9 0 16 0;
#X connect 10 0 17 0;
#X connect 11 0 10 1;
#X connect 11 0 9 1;
#X connect 12 0 8 1;
#X connect 13 0 7 1;
#X connect 14 0 6 0;
#X connect 14 0 9 0;
#X connect 15 0 6 0;
#X connect 15 0 10 0;
#X connect 18 0 22 0;
#X connect 19 0 23 0;
#X connect 20 0 25 0;
#X connect 21 0 24 0;
#X connect 22 0 26 0;
#X connect 23 0 27 0;
#X connect 24 0 29 0;
#X connect 25 0 28 0;
#X restore 79 311 pd vfreeverb~;
#X obj 311 267 / 508, f 8;
#X msg 235 74 0;
#X msg 295 87 0;
#X obj 343 222 / 127;
#X obj 311 186 r \$0-reverb;
#X connect 1 0 8 0;
#X connect 1 0 8 1;
#X connect 2 0 7 0;
#X connect 3 0 11 0;
#X connect 3 0 10 0;
#X connect 4 0 8 2;
#X connect 5 0 8 3;
#X connect 6 0 8 5;
#X connect 7 0 8 4;
#X connect 8 0 0 0;
#X connect 8 1 0 0;
#X connect 9 0 2 0;
#X connect 9 0 6 0;
#X connect 10 0 4 0;
#X connect 10 0 6 0;
#X connect 11 0 5 0;
#X connect 12 0 4 0;
#X connect 13 0 9 0;
#X connect 13 0 12 0;
#X restore 41 85 pd reverb;
#X obj 31 326 dac~;
#N canvas 119 125 690 377 bitcrush 0;
#X obj 425 188 samphold~;
#X obj 480 165 phasor~;
#X obj 184 83 inlet~;
#X obj 200 302 outlet~;
#X obj 480 76 expr (127 - $f1) / 127;
#X obj 184 269 *~ 1;
#X obj 225 267 *~ 0;
#X obj 246 143 > 0.95;
#X obj 205 223 line;
#X msg 205 198 \$1 15;
#X obj 246 222 line;
#X msg 246 197 \$1 15;
#X obj 246 171 expr 1 - $f1;
#X obj 480 105 * 4000;
#X obj 480 135 + 3000;
#X obj 480 48 r \$0-bitcrush;
#X connect 0 0 6 0;
#X connect 1 0 0 1;
#X connect 2 0 0 0;
#X connect 2 0 5 0;
#X connect 4 0 7 0;
#X connect 4 0 13 0;
#X connect 5 0 3 0;
#X connect 6 0 3 0;
#X connect 7 0 12 0;
#X connect 7 0 9 0;
#X connect 8 0 5 1;
#X connect 9 0 8 0;
#X connect 10 0 6 1;
#X connect 11 0 10 0;
#X connect 12 0 11 0;
#X connect 13 0 14 0;
#X connect 14 0 1 0;
#X connect 15 0 4 0;
#X restore 41 111 pd bitcrush;
#N canvas 86 238 591 408 ringMod 0;
#X obj 76 360 outlet~;
#X obj 139 318 *~;
#X obj 18 320 *~;
#X obj 179 116 loadbang;
#X msg 179 137 0;
#X obj 18 141 inlet~;
#X obj 33 223 mtof;
#X obj 33 246 osc~;
#X obj 18 271 *~;
#X text 158 10 wet/dry/freq;
#X obj 33 297 line~, f 6;
#X msg 155 191 0 15;
#X msg 242 191 0.5 15;
#X msg 196 191 1 15;
#X obj 154 290 line~;
#X obj 155 162 moses 5;
#X obj 159 36 r \$0-ringMod;
#X connect 1 0 0 0;
#X connect 2 0 0 0;
#X connect 3 0 4 0;
#X connect 4 0 15 0;
#X connect 5 0 8 0;
#X connect 5 0 1 0;
#X connect 6 0 7 0;
#X connect 7 0 8 1;
#X connect 8 0 2 0;
#X connect 10 0 2 1;
#X connect 11 0 10 0;
#X connect 12 0 10 0;
#X connect 12 0 14 0;
#X connect 13 0 14 0;
#X connect 14 0 1 1;
#X connect 15 0 13 0;
#X connect 15 0 11 0;
#X connect 15 1 12 0;
#X connect 16 0 6 0;
#X connect 16 0 15 0;
#X restore 41 137 pd ringMod;
#N canvas 39 44 998 488 delay 0;
#X obj 180 223 vline~;
#X msg 180 202 \$1 200;
#X obj 83 278 inlet~;
#X obj 97 409 outlet~;
#X text 233 136 Delay Feedback;
#X obj 326 76 / 127;
#X obj 619 280 spigot;
#X obj 675 280 spigot;
#X obj 729 279 spigot;
#X obj 786 280 spigot;
#X obj 701 380 s drumDelayTimeInc;
#X obj 180 67 r drumDelayTimeInc;
#X obj 106 304 s~ drumPitch;
#X obj 272 328 r~ drumPitch;
#X obj 198 260 vd~ drumPitch;
#X obj 268 366 delwrite~ drumPitch 2000;
#X obj 577 166 \$1;
#X obj 592 136 r ms;
#X msg 541 129 bang;
#X obj 836 280 spigot;
#X obj 569 280 spigot;
#X obj 602 252 == 0;
#X obj 652 252 == 1;
#X obj 708 246 == 2;
#X obj 762 248 == 3;
#X obj 819 245 == 4;
#X obj 869 246 == 5;
#X obj 381 131 * 16;
#X obj 569 303 / 128;
#X obj 619 303 / 64;
#X obj 675 303 / 32;
#X obj 729 302 / 16;
#X obj 786 307 / 8;
#X obj 836 307 / 4;
#X text 99 98 Quantize Delay Time, f 12;
#X obj 218 302 *~ 0;
#X obj 83 363 *~ 0.5;
#X obj 129 363 *~ 0.5;
#X obj 675 74 0;
#X obj 381 104 r \$0-delaytime;
#X obj 326 49 r \$0-feedback;
#X obj 675 44 r \$0-delaytime;
#X connect 0 0 14 0;
#X connect 1 0 0 0;
#X connect 2 0 12 0;
#X connect 2 0 36 0;
#X connect 5 0 35 1;
#X connect 6 0 29 0;
#X connect 7 0 30 0;
#X connect 8 0 31 0;
#X connect 9 0 32 0;
#X connect 11 0 1 0;
#X connect 13 0 15 0;
#X connect 14 0 35 0;
#X connect 16 0 6 0;
#X connect 16 0 7 0;
#X connect 16 0 8 0;
#X connect 16 0 9 0;
#X connect 16 0 20 0;
#X connect 16 0 19 0;
#X connect 17 0 16 1;
#X connect 18 0 16 0;
#X connect 19 0 33 0;
#X connect 20 0 28 0;
#X connect 21 0 20 1;
#X connect 22 0 6 1;
#X connect 23 0 7 1;
#X connect 24 0 8 1;
#X connect 25 0 9 1;
#X connect 26 0 19 1;
#X connect 27 0 1 0;
#X connect 28 0 10 0;
#X connect 29 0 10 0;
#X connect 30 0 10 0;
#X connect 31 0 10 0;
#X connect 32 0 10 0;
#X connect 33 0 10 0;
#X connect 35 0 15 0;
#X connect 35 0 37 0;
#X connect 36 0 3 0;
#X connect 37 0 3 0;
#X connect 38 0 18 0;
#X connect 38 0 21 0;
#X connect 38 0 22 0;
#X connect 38 0 23 0;
#X connect 38 0 24 0;
#X connect 38 0 25 0;
#X connect 38 0 26 0;
#X connect 39 0 27 0;
#X connect 40 0 5 0;
#X connect 41 0 38 0;
#X restore 41 188 pd delay;
#N canvas 158 162 477 481 distortion 0;
#X obj 71 28 inlet~;
#X obj 71 408 outlet~;
#X obj 148 61 *~ 40;
#X obj 148 84 clip~ -0.5 0.5;
#X obj 148 349 *~ 0.3;
#X obj 71 321 *~ 1;
#X obj 148 321 *~ 0;
#X msg 92 275 \$1 15;
#X msg 169 273 \$1 15;
#X obj 92 297 line;
#X obj 169 295 line;
#X obj 169 204 / 127;
#X obj 254 207 expr (127 - $f1) / 127;
#X obj 184 124 r \$0-distortion;
#X connect 0 0 2 0;
#X connect 0 0 5 0;
#X connect 2 0 3 0;
#X connect 3 0 6 0;
#X connect 4 0 1 0;
#X connect 5 0 1 0;
#X connect 6 0 4 0;
#X connect 7 0 9 0;
#X connect 8 0 10 0;
#X connect 9 0 5 1;
#X connect 10 0 6 1;
#X connect 11 0 8 0;
#X connect 12 0 7 0;
#X connect 13 0 11 0;
#X connect 13 0 12 0;
#X restore 41 163 pd distortion;
#X obj 41 295 *~;
#X obj 120 189 r \$0-FXvol;
#X obj 120 215 / 127;
#X msg 120 241 \$1 15;
#X obj 120 267 line~;
#X connect 0 0 2 0;
#X connect 1 0 2 0;
#X connect 2 0 4 0;
#X connect 4 0 5 0;
#X connect 5 0 7 0;
#X connect 6 0 8 0;
#X connect 7 0 6 0;
#X connect 8 0 3 0;
#X connect 8 0 3 1;
#X connect 9 0 10 0;
#X connect 10 0 11 0;
#X connect 11 0 12 0;
#X connect 12 0 8 1;
#X restore 70 657 pd FX;
#X text 66 97 Q;
#X text 105 99 W;
#X text 149 98 E;
#X text 193 99 R;
#X text 237 99 T;
#X text 279 99 Y;
#X text 68 204 A;
#X text 104 204 S;
#X text 146 205 D;
#X text 192 204 F;
#X text 232 204 G;
#X text 278 204 H;
#X text 71 319 Z;
#X text 111 320 X;
#X text 153 321 C;
#X text 199 321 V;
#X connect 59 0 60 0;
#X connect 61 0 62 0;
#X connect 63 0 64 0;
#X connect 65 0 66 0;
#X connect 67 0 70 0;
#X connect 68 0 71 0;
#X connect 69 0 72 0;
